<?xml version="1.0" encoding="UTF-8" standalone="no"?>
<!DOCTYPE svg PUBLIC "-//W3C//DTD SVG 1.1//EN"
 "http://www.w3.org/Graphics/SVG/1.1/DTD/svg11.dtd">
<!-- Generated by graphviz version 14.1.2 (20260124.0452)
 -->
<!-- Title: DPO_APROBACION_BJX Pages: 1 -->
<svg width="830pt" height="881pt"
 viewBox="0.00 0.00 830.00 881.00" xmlns="http://www.w3.org/2000/svg" xmlns:xlink="http://www.w3.org/1999/xlink">
<g id="graph0" class="graph" transform="scale(1 1) rotate(0) translate(4 877.25)">
<title>DPO_APROBACION_BJX</title>
<polygon fill="#ffffff" stroke="none" points="-4,4 -4,-877.25 826,-877.25 826,4 -4,4"/>
<polygon fill="none" stroke="black" points="53.25,-4 53.25,-30.25 110.25,-30.25 110.25,-4 53.25,-4"/>
<text xml:space="preserve" text-anchor="start" x="59.25" y="-12.85" font-family="Arial" font-size="12.00">Elaboró:</text>
<polygon fill="none" stroke="black" points="110.25,-4 110.25,-30.25 230.25,-30.25 230.25,-4 110.25,-4"/>
<text xml:space="preserve" text-anchor="start" x="122.62" y="-12.85" font-family="Arial" font-size="12.00">Ing. Emmanuel G.</text>
<polygon fill="none" stroke="black" points="230.25,-4 230.25,-30.25 282.75,-30.25 282.75,-4 230.25,-4"/>
<text xml:space="preserve" text-anchor="start" x="236.25" y="-12.85" font-family="Arial" font-size="12.00">Revisó:</text>
<polygon fill="none" stroke="black" points="282.75,-4 282.75,-30.25 402.75,-30.25 402.75,-4 282.75,-4"/>
<text xml:space="preserve" text-anchor="start" x="289.5" y="-12.85" font-family="Arial" font-size="12.00">Gerencia Comercial</text>
<polygon fill="none" stroke="black" points="402.75,-4 402.75,-30.25 462,-30.25 462,-4 402.75,-4"/>
<text xml:space="preserve" text-anchor="start" x="408.75" y="-12.85" font-family="Arial" font-size="12.00">Autorizó:</text>
<polygon fill="none" stroke="black" points="462,-4 462,-30.25 582,-30.25 582,-4 462,-4"/>
<text xml:space="preserve" text-anchor="start" x="486" y="-12.85" font-family="Arial" font-size="12.00">Carlos (CEO)</text>
<polygon fill="none" stroke="black" points="582,-4 582,-30.25 695.25,-30.25 695.25,-4 582,-4"/>
<text xml:space="preserve" text-anchor="start" x="588" y="-12.85" font-family="Arial" font-size="12.00">Fecha: 07&#45;02&#45;2026</text>
<polygon fill="none" stroke="black" points="695.25,-4 695.25,-30.25 768.75,-30.25 768.75,-4 695.25,-4"/>
<text xml:space="preserve" text-anchor="start" x="701.25" y="-12.85" font-family="Arial" font-size="12.00">Hoja: 07/18</text>
<g id="clust1" class="cluster">
<title>cluster_asesora</title>
<polygon fill="#ffffff" stroke="black" stroke-dasharray="1,5" points="8,-537.25 8,-865.25 596.25,-865.25 596.25,-537.25 8,-537.25"/>
<text xml:space="preserve" text-anchor="middle" x="302.12" y="-849.85" font-family="Arial Bold" font-size="12.00">Asesora de Servicios</text>
</g>
<g id="clust2" class="cluster">
<title>cluster_cliente</title>
<polygon fill="#ffffff" stroke="black" stroke-dasharray="1,5" points="233.25,-403.25 233.25,-529.25 814,-529.25 814,-403.25 233.25,-403.25"/>
<text xml:space="preserve" text-anchor="middle" x="523.62" y="-513.85" font-family="Arial Bold" font-size="12.00">Cliente</text>
</g>
<g id="clust3" class="cluster">
<title>cluster_taller</title>
<polygon fill="#ffffff" stroke="black" stroke-dasharray="1,5" points="233.25,-42.25 233.25,-138.25 393.25,-138.25 393.25,-42.25 233.25,-42.25"/>
<text xml:space="preserve" text-anchor="middle" x="313.25" y="-122.85" font-family="Arial Bold" font-size="12.00">Jefe de Taller</text>
</g>
<!-- ST -->
<g id="node1" class="node">
<title>ST</title>
<ellipse fill="#e8f5e9" stroke="#000000" stroke-width="1.5" cx="88" cy="-806.25" rx="72" ry="28.8"/>
<text xml:space="preserve" text-anchor="middle" x="88" y="-802.75" font-family="Arial" font-size="10.00">INICIO</text>
</g>
<!-- 1 -->
<g id="node2" class="node">
<title>1</title>
<polygon fill="#ffffff" stroke="#000000" stroke-width="1.5" points="385.25,-756.05 241.25,-756.05 241.25,-698.45 385.25,-698.45 385.25,-756.05"/>
<text xml:space="preserve" text-anchor="middle" x="313.25" y="-741.75" font-family="Arial" font-size="10.00">1</text>
<text xml:space="preserve" text-anchor="middle" x="313.25" y="-729.75" font-family="Arial" font-size="10.00">Envía cotización y enlace</text>
<text xml:space="preserve" text-anchor="middle" x="313.25" y="-717.75" font-family="Arial" font-size="10.00">de evidencias (Notion)</text>
<text xml:space="preserve" text-anchor="middle" x="313.25" y="-705.75" font-family="Arial" font-size="10.00">vía WhatsApp/Correo</text>
</g>
<!-- ST&#45;&gt;1 -->
<g id="edge1" class="edge">
<title>ST&#45;&gt;1</title>
<path fill="none" stroke="#000000" stroke-width="1.2" d="M88,-776.77C88,-761.15 88,-745.15 88,-745.15 88,-745.15 231.92,-745.15 231.92,-745.15"/>
<polygon fill="#000000" stroke="#000000" stroke-width="1.2" points="231.92,-747.6 238.92,-745.15 231.92,-742.7 231.92,-747.6"/>
</g>
<!-- 2 -->
<g id="node3" class="node">
<title>2</title>
<polygon fill="#ffffff" stroke="#000000" stroke-width="1.5" points="588.25,-679.05 444.25,-679.05 444.25,-621.45 588.25,-621.45 588.25,-679.05"/>
<text xml:space="preserve" text-anchor="middle" x="516.25" y="-664.75" font-family="Arial" font-size="10.00">2</text>
<text xml:space="preserve" text-anchor="middle" x="516.25" y="-652.75" font-family="Arial" font-size="10.00">Realiza llamada de</text>
<text xml:space="preserve" text-anchor="middle" x="516.25" y="-640.75" font-family="Arial" font-size="10.00">seguimiento y explica</text>
<text xml:space="preserve" text-anchor="middle" x="516.25" y="-628.75" font-family="Arial" font-size="10.00">hallazgos técnicos</text>
</g>
<!-- 1&#45;&gt;2 -->
<g id="edge2" class="edge">
<title>1&#45;&gt;2</title>
<path fill="none" stroke="#000000" stroke-width="1.2" d="M337,-697.95C337,-684.93 337,-672.49 337,-672.49 337,-672.49 434.78,-672.49 434.78,-672.49"/>
<polygon fill="#000000" stroke="#000000" stroke-width="1.2" points="434.78,-674.94 441.78,-672.49 434.78,-670.04 434.78,-674.94"/>
</g>
<!-- 3 -->
<g id="node7" class="node">
<title>3</title>
<polygon fill="#ffffff" stroke="#000000" stroke-width="1.5" points="385.25,-499.05 241.25,-499.05 241.25,-441.45 385.25,-441.45 385.25,-499.05"/>
<text xml:space="preserve" text-anchor="middle" x="313.25" y="-484.75" font-family="Arial" font-size="10.00">3</text>
<text xml:space="preserve" text-anchor="middle" x="313.25" y="-472.75" font-family="Arial" font-size="10.00">Revisa presupuesto y</text>
<text xml:space="preserve" text-anchor="middle" x="313.25" y="-460.75" font-family="Arial" font-size="10.00">valida evidencias</text>
<text xml:space="preserve" text-anchor="middle" x="313.25" y="-448.75" font-family="Arial" font-size="10.00">fotográficas/video</text>
</g>
<!-- 2&#45;&gt;3 -->
<g id="edge3" class="edge">
<title>2&#45;&gt;3</title>
<path fill="none" stroke="#000000" stroke-width="1.2" d="M443.91,-629.75C432.83,-629.75 425,-629.75 425,-629.75 425,-629.75 425,-484.65 425,-484.65 425,-484.65 394.73,-484.65 394.73,-484.65"/>
<polygon fill="#000000" stroke="#000000" stroke-width="1.2" points="394.73,-482.2 387.73,-484.65 394.73,-487.1 394.73,-482.2"/>
</g>
<!-- 5 -->
<g id="node4" class="node">
<title>5</title>
<polygon fill="#fffde7" stroke="#000000" stroke-width="1.5" points="88,-734.25 16,-690.25 88,-646.25 160,-690.25 88,-734.25"/>
<text xml:space="preserve" text-anchor="middle" x="88" y="-698.75" font-family="Arial" font-size="10.00">5</text>
<text xml:space="preserve" text-anchor="middle" x="88" y="-686.75" font-family="Arial" font-size="10.00">¿Aprobación</text>
<text xml:space="preserve" text-anchor="middle" x="88" y="-674.75" font-family="Arial" font-size="10.00">Parcial?</text>
</g>
<!-- 6 -->
<g id="node5" class="node">
<title>6</title>
<polygon fill="#ffffff" stroke="#000000" stroke-width="1.5" points="385.25,-638.05 241.25,-638.05 241.25,-580.45 385.25,-580.45 385.25,-638.05"/>
<text xml:space="preserve" text-anchor="middle" x="313.25" y="-623.75" font-family="Arial" font-size="10.00">6</text>
<text xml:space="preserve" text-anchor="middle" x="313.25" y="-611.75" font-family="Arial" font-size="10.00">Realiza ajustes a la</text>
<text xml:space="preserve" text-anchor="middle" x="313.25" y="-599.75" font-family="Arial" font-size="10.00">cotización y solicita</text>
<text xml:space="preserve" text-anchor="middle" x="313.25" y="-587.75" font-family="Arial" font-size="10.00">nueva validación</text>
</g>
<!-- 5&#45;&gt;6 -->
<g id="edge7" class="edge">
<title>5&#45;&gt;6</title>
<path fill="none" stroke="#000000" stroke-width="1.2" d="M110.67,-659.37C163.23,-659.37 289,-659.37 289,-659.37 289,-659.37 289,-647.51 289,-647.51"/>
<polygon fill="#000000" stroke="#000000" stroke-width="1.2" points="291.45,-647.51 289,-640.51 286.55,-647.51 291.45,-647.51"/>
<text xml:space="preserve" text-anchor="middle" x="200.62" y="-684.45" font-family="Times New Roman,serif" font-size="14.00"> SÍ</text>
</g>
<!-- FIN_RECH -->
<g id="node11" class="node">
<title>FIN_RECH</title>
<ellipse fill="#ffebee" stroke="#000000" stroke-width="1.5" cx="313.25" cy="-267.25" rx="72" ry="28.8"/>
<text xml:space="preserve" text-anchor="middle" x="313.25" y="-263.75" font-family="Arial" font-size="10.00">FIN (Cerrar sin Venta)</text>
</g>
<!-- 5&#45;&gt;FIN_RECH -->
<g id="edge8" class="edge">
<title>5&#45;&gt;FIN_RECH</title>
<path fill="none" stroke="#000000" stroke-width="1.2" stroke-dasharray="5,2" d="M100.09,-652.81C129.24,-652.81 201,-652.81 201,-652.81 201,-652.81 201,-267.25 201,-267.25 201,-267.25 231.76,-267.25 231.76,-267.25"/>
<polygon fill="#000000" stroke="#000000" stroke-width="1.2" points="231.76,-269.7 238.76,-267.25 231.76,-264.8 231.76,-269.7"/>
<text xml:space="preserve" text-anchor="middle" x="200.62" y="-270.45" font-family="Times New Roman,serif" font-size="14.00"> NO</text>
</g>
<!-- 4 -->
<g id="node8" class="node">
<title>4</title>
<polygon fill="#fffde7" stroke="#000000" stroke-width="1.5" points="516.25,-499.25 444.25,-455.25 516.25,-411.25 588.25,-455.25 516.25,-499.25"/>
<text xml:space="preserve" text-anchor="middle" x="516.25" y="-463.75" font-family="Arial" font-size="10.00">4</text>
<text xml:space="preserve" text-anchor="middle" x="516.25" y="-451.75" font-family="Arial" font-size="10.00">¿Autoriza el</text>
<text xml:space="preserve" text-anchor="middle" x="516.25" y="-439.75" font-family="Arial" font-size="10.00">servicio?</text>
</g>
<!-- 6&#45;&gt;4 -->
<g id="edge9" class="edge">
<title>6&#45;&gt;4</title>
<path fill="none" stroke="#000000" stroke-width="1.2" d="M385.87,-600.95C444.05,-600.95 516,-600.95 516,-600.95 516,-600.95 516,-508.57 516,-508.57"/>
<polygon fill="#000000" stroke="#000000" stroke-width="1.2" points="518.45,-508.57 516,-501.57 513.55,-508.57 518.45,-508.57"/>
</g>
<!-- 8 -->
<g id="node6" class="node">
<title>8</title>
<polygon fill="#ffffff" stroke="#000000" stroke-width="1.5" points="160,-603.05 16,-603.05 16,-545.45 160,-545.45 160,-603.05"/>
<text xml:space="preserve" text-anchor="middle" x="88" y="-588.75" font-family="Arial" font-size="10.00">8</text>
<text xml:space="preserve" text-anchor="middle" x="88" y="-576.75" font-family="Arial" font-size="10.00">Actualiza estatus de</text>
<text xml:space="preserve" text-anchor="middle" x="88" y="-564.75" font-family="Arial" font-size="10.00">orden a &quot;Aprobado&quot;</text>
<text xml:space="preserve" text-anchor="middle" x="88" y="-552.75" font-family="Arial" font-size="10.00">en Notion y Sistema</text>
</g>
<!-- 9 -->
<g id="node10" class="node">
<title>9</title>
<polygon fill="#ffffff" stroke="#000000" stroke-width="1.5" points="385.25,-108.05 241.25,-108.05 241.25,-50.45 385.25,-50.45 385.25,-108.05"/>
<text xml:space="preserve" text-anchor="middle" x="313.25" y="-93.75" font-family="Arial" font-size="10.00">9</text>
<text xml:space="preserve" text-anchor="middle" x="313.25" y="-81.75" font-family="Arial" font-size="10.00">Recibe notificación de</text>
<text xml:space="preserve" text-anchor="middle" x="313.25" y="-69.75" font-family="Arial" font-size="10.00">aprobación y libera</text>
<text xml:space="preserve" text-anchor="middle" x="313.25" y="-57.75" font-family="Arial" font-size="10.00">orden para ejecución</text>
</g>
<!-- 8&#45;&gt;9 -->
<g id="edge11" class="edge">
<title>8&#45;&gt;9</title>
<path fill="none" stroke="#000000" stroke-width="1.2" d="M88,-544.77C88,-438.2 88,-79.25 88,-79.25 88,-79.25 231.92,-79.25 231.92,-79.25"/>
<polygon fill="#000000" stroke="#000000" stroke-width="1.2" points="231.92,-81.7 238.92,-79.25 231.92,-76.8 231.92,-81.7"/>
</g>
<!-- 3&#45;&gt;4 -->
<g id="edge4" class="edge">
<title>3&#45;&gt;4</title>
<path fill="none" stroke="#000000" stroke-width="1.2" d="M385.96,-455.85C385.96,-455.85 435.23,-455.85 435.23,-455.85"/>
<polygon fill="#000000" stroke="#000000" stroke-width="1.2" points="435.23,-458.3 442.23,-455.85 435.23,-453.4 435.23,-458.3"/>
</g>
<!-- 4&#45;&gt;5 -->
<g id="edge6" class="edge">
<title>4&#45;&gt;5</title>
<path fill="none" stroke="#000000" stroke-width="1.2" d="M467.45,-470.25C437.56,-470.25 405,-470.25 405,-470.25 405,-470.25 405,-665.93 405,-665.93 405,-665.93 130.44,-665.93 130.44,-665.93"/>
<polygon fill="#000000" stroke="#000000" stroke-width="1.2" points="130.44,-663.48 123.44,-665.93 130.44,-668.38 130.44,-663.48"/>
<text xml:space="preserve" text-anchor="middle" x="313.25" y="-385.45" font-family="Times New Roman,serif" font-size="14.00"> NO</text>
</g>
<!-- 7 -->
<g id="node9" class="node">
<title>7</title>
<polygon fill="#ffffff" stroke="#000000" stroke-width="1.5" points="806,-476.05 662,-476.05 662,-418.45 806,-418.45 806,-476.05"/>
<text xml:space="preserve" text-anchor="middle" x="734" y="-461.75" font-family="Arial" font-size="10.00">7</text>
<text xml:space="preserve" text-anchor="middle" x="734" y="-449.75" font-family="Arial" font-size="10.00">Firma autorización</text>
<text xml:space="preserve" text-anchor="middle" x="734" y="-437.75" font-family="Arial" font-size="10.00">(Digital o Física en</text>
<text xml:space="preserve" text-anchor="middle" x="734" y="-425.75" font-family="Arial" font-size="10.00">recepción)</text>
</g>
<!-- 4&#45;&gt;7 -->
<g id="edge5" class="edge">
<title>4&#45;&gt;7</title>
<path fill="none" stroke="#000000" stroke-width="1.2" d="M576.33,-447.25C576.33,-447.25 652.52,-447.25 652.52,-447.25"/>
<polygon fill="#000000" stroke="#000000" stroke-width="1.2" points="652.52,-449.7 659.52,-447.25 652.52,-444.8 652.52,-449.7"/>
<text xml:space="preserve" text-anchor="middle" x="625.12" y="-457.45" font-family="Times New Roman,serif" font-size="14.00"> SÍ</text>
</g>
<!-- 7&#45;&gt;8 -->
<g id="edge10" class="edge">
<title>7&#45;&gt;8</title>
<path fill="none" stroke="#000000" stroke-width="1.2" d="M734,-476.75C734,-511.02 734,-562.95 734,-562.95 734,-562.95 169.35,-562.95 169.35,-562.95"/>
<polygon fill="#000000" stroke="#000000" stroke-width="1.2" points="169.35,-560.5 162.35,-562.95 169.35,-565.4 169.35,-560.5"/>
</g>
<!-- FIN -->
<g id="node12" class="node">
<title>FIN</title>
<polygon fill="#ffffff" stroke="#000000" stroke-width="1.5" points="588.25,-108.05 444.25,-108.05 444.25,-50.45 588.25,-50.45 588.25,-108.05"/>
<text xml:space="preserve" text-anchor="middle" x="516.25" y="-75.75" font-family="Arial" font-size="10.00">FIN</text>
</g>
<!-- 9&#45;&gt;FIN -->
<g id="edge12" class="edge">
<title>9&#45;&gt;FIN</title>
<path fill="none" stroke="#000000" stroke-width="1.2" d="M385.96,-79.25C385.96,-79.25 434.89,-79.25 434.89,-79.25"/>
<polygon fill="#ffebee" stroke="#000000" stroke-width="1.2" points="434.89,-81.7 441.89,-79.25 434.89,-76.8 434.89,-81.7"/>
</g>
</g>
</svg>
