<?xml version="1.0" encoding="UTF-8" standalone="no"?>
<!DOCTYPE svg PUBLIC "-//W3C//DTD SVG 1.1//EN"
 "http://www.w3.org/Graphics/SVG/1.1/DTD/svg11.dtd">
<!-- Generated by graphviz version 14.1.2 (20260124.0452)
 -->
<!-- Title: DPO_EJECUCION_BJX Pages: 1 -->
<svg width="1840pt" height="259pt"
 viewBox="0.00 0.00 1840.00 259.00" xmlns="http://www.w3.org/2000/svg" xmlns:xlink="http://www.w3.org/1999/xlink">
<g id="graph0" class="graph" transform="scale(1 1) rotate(0) translate(4 255.25)">
<title>DPO_EJECUCION_BJX</title>
<polygon fill="#ffffff" stroke="none" points="-4,4 -4,-255.25 1836,-255.25 1836,4 -4,4"/>
<polygon fill="none" stroke="black" points="558.25,-4 558.25,-30.25 615.25,-30.25 615.25,-4 558.25,-4"/>
<text xml:space="preserve" text-anchor="start" x="564.25" y="-12.85" font-family="Arial" font-size="12.00">Elaboró:</text>
<polygon fill="none" stroke="black" points="615.25,-4 615.25,-30.25 735.25,-30.25 735.25,-4 615.25,-4"/>
<text xml:space="preserve" text-anchor="start" x="627.62" y="-12.85" font-family="Arial" font-size="12.00">Ing. Emmanuel G.</text>
<polygon fill="none" stroke="black" points="735.25,-4 735.25,-30.25 787.75,-30.25 787.75,-4 735.25,-4"/>
<text xml:space="preserve" text-anchor="start" x="741.25" y="-12.85" font-family="Arial" font-size="12.00">Revisó:</text>
<polygon fill="none" stroke="black" points="787.75,-4 787.75,-30.25 907.75,-30.25 907.75,-4 787.75,-4"/>
<text xml:space="preserve" text-anchor="start" x="812.12" y="-12.85" font-family="Arial" font-size="12.00">Jefe de Taller</text>
<polygon fill="none" stroke="black" points="907.75,-4 907.75,-30.25 967,-30.25 967,-4 907.75,-4"/>
<text xml:space="preserve" text-anchor="start" x="913.75" y="-12.85" font-family="Arial" font-size="12.00">Autorizó:</text>
<polygon fill="none" stroke="black" points="967,-4 967,-30.25 1087,-30.25 1087,-4 967,-4"/>
<text xml:space="preserve" text-anchor="start" x="991" y="-12.85" font-family="Arial" font-size="12.00">Carlos (CEO)</text>
<polygon fill="none" stroke="black" points="1087,-4 1087,-30.25 1200.25,-30.25 1200.25,-4 1087,-4"/>
<text xml:space="preserve" text-anchor="start" x="1093" y="-12.85" font-family="Arial" font-size="12.00">Fecha: 07&#45;02&#45;2026</text>
<polygon fill="none" stroke="black" points="1200.25,-4 1200.25,-30.25 1273.75,-30.25 1273.75,-4 1200.25,-4"/>
<text xml:space="preserve" text-anchor="start" x="1206.25" y="-12.85" font-family="Arial" font-size="12.00">Hoja: 10/18</text>
<g id="clust1" class="cluster">
<title>cluster_tecnico</title>
<polygon fill="#ffffff" stroke="black" stroke-dasharray="1,5" points="8,-117.25 8,-243.25 1231,-243.25 1231,-117.25 8,-117.25"/>
<text xml:space="preserve" text-anchor="middle" x="619.5" y="-227.85" font-family="Arial Bold" font-size="12.00">Técnico Mecánico</text>
</g>
<g id="clust2" class="cluster">
<title>cluster_jefe</title>
<polygon fill="#ffffff" stroke="black" stroke-dasharray="1,5" points="1274,-42.25 1274,-239.25 1434,-239.25 1434,-42.25 1274,-42.25"/>
<text xml:space="preserve" text-anchor="middle" x="1354" y="-223.85" font-family="Arial Bold" font-size="12.00">Jefe de Taller</text>
</g>
<g id="clust3" class="cluster">
<title>cluster_asesora</title>
<polygon fill="#ffffff" stroke="black" stroke-dasharray="1,5" points="1477,-99.25 1477,-195.25 1637,-195.25 1637,-99.25 1477,-99.25"/>
<text xml:space="preserve" text-anchor="middle" x="1557" y="-179.85" font-family="Arial Bold" font-size="12.00">Asesora de Servicios</text>
</g>
<!-- ST -->
<g id="node1" class="node">
<title>ST</title>
<ellipse fill="#e8f5e9" stroke="#000000" stroke-width="1.5" cx="88" cy="-169.25" rx="72" ry="28.8"/>
<text xml:space="preserve" text-anchor="middle" x="88" y="-165.75" font-family="Arial" font-size="10.00">INICIO</text>
</g>
<!-- 1 -->
<g id="node2" class="node">
<title>1</title>
<polygon fill="#ffffff" stroke="#000000" stroke-width="1.5" points="363,-198.05 219,-198.05 219,-140.45 363,-140.45 363,-198.05"/>
<text xml:space="preserve" text-anchor="middle" x="291" y="-183.75" font-family="Arial" font-size="10.00">1</text>
<text xml:space="preserve" text-anchor="middle" x="291" y="-171.75" font-family="Arial" font-size="10.00">Instala kit de protección</text>
<text xml:space="preserve" text-anchor="middle" x="291" y="-159.75" font-family="Arial" font-size="10.00">y prepara herramientas</text>
<text xml:space="preserve" text-anchor="middle" x="291" y="-147.75" font-family="Arial" font-size="10.00">y EPP</text>
</g>
<!-- ST&#45;&gt;1 -->
<g id="edge1" class="edge">
<title>ST&#45;&gt;1</title>
<path fill="none" stroke="#000000" stroke-width="1.2" d="M160.71,-169.25C160.71,-169.25 209.64,-169.25 209.64,-169.25"/>
<polygon fill="#000000" stroke="#000000" stroke-width="1.2" points="209.64,-171.7 216.64,-169.25 209.64,-166.8 209.64,-171.7"/>
</g>
<!-- 2 -->
<g id="node3" class="node">
<title>2</title>
<polygon fill="#ffffff" stroke="#000000" stroke-width="1.5" points="566,-198.05 422,-198.05 422,-140.45 566,-140.45 566,-198.05"/>
<text xml:space="preserve" text-anchor="middle" x="494" y="-183.75" font-family="Arial" font-size="10.00">2</text>
<text xml:space="preserve" text-anchor="middle" x="494" y="-171.75" font-family="Arial" font-size="10.00">Ejecuta el servicio según</text>
<text xml:space="preserve" text-anchor="middle" x="494" y="-159.75" font-family="Arial" font-size="10.00">orden de trabajo y</text>
<text xml:space="preserve" text-anchor="middle" x="494" y="-147.75" font-family="Arial" font-size="10.00">manual de taller</text>
</g>
<!-- 1&#45;&gt;2 -->
<g id="edge2" class="edge">
<title>1&#45;&gt;2</title>
<path fill="none" stroke="#000000" stroke-width="1.2" d="M363.71,-169.25C363.71,-169.25 412.64,-169.25 412.64,-169.25"/>
<polygon fill="#000000" stroke="#000000" stroke-width="1.2" points="412.64,-171.7 419.64,-169.25 412.64,-166.8 412.64,-171.7"/>
</g>
<!-- 3 -->
<g id="node4" class="node">
<title>3</title>
<polygon fill="#fffde7" stroke="#000000" stroke-width="1.5" points="702.5,-213.25 625,-169.25 702.5,-125.25 780,-169.25 702.5,-213.25"/>
<text xml:space="preserve" text-anchor="middle" x="702.5" y="-177.75" font-family="Arial" font-size="10.00">3</text>
<text xml:space="preserve" text-anchor="middle" x="702.5" y="-165.75" font-family="Arial" font-size="10.00">¿Detecta falla</text>
<text xml:space="preserve" text-anchor="middle" x="702.5" y="-153.75" font-family="Arial" font-size="10.00">adicional?</text>
</g>
<!-- 2&#45;&gt;3 -->
<g id="edge3" class="edge">
<title>2&#45;&gt;3</title>
<path fill="none" stroke="#000000" stroke-width="1.2" d="M566.63,-169.25C566.63,-169.25 614.92,-169.25 614.92,-169.25"/>
<polygon fill="#000000" stroke="#000000" stroke-width="1.2" points="614.92,-171.7 621.92,-169.25 614.92,-166.8 614.92,-171.7"/>
</g>
<!-- 5 -->
<g id="node5" class="node">
<title>5</title>
<polygon fill="#ffffff" stroke="#000000" stroke-width="1.5" points="1005.25,-205.05 861.25,-205.05 861.25,-147.45 1005.25,-147.45 1005.25,-205.05"/>
<text xml:space="preserve" text-anchor="middle" x="933.25" y="-190.75" font-family="Arial" font-size="10.00">5</text>
<text xml:space="preserve" text-anchor="middle" x="933.25" y="-178.75" font-family="Arial" font-size="10.00">Realiza pruebas de apriete,</text>
<text xml:space="preserve" text-anchor="middle" x="933.25" y="-166.75" font-family="Arial" font-size="10.00">niveles y funcionamiento</text>
<text xml:space="preserve" text-anchor="middle" x="933.25" y="-154.75" font-family="Arial" font-size="10.00">parcial</text>
</g>
<!-- 3&#45;&gt;5 -->
<g id="edge5" class="edge">
<title>3&#45;&gt;5</title>
<path fill="none" stroke="#000000" stroke-width="1.2" d="M768.93,-176.25C768.93,-176.25 852.01,-176.25 852.01,-176.25"/>
<polygon fill="#000000" stroke="#000000" stroke-width="1.2" points="852.01,-178.7 859.01,-176.25 852.01,-173.8 852.01,-178.7"/>
<text xml:space="preserve" text-anchor="middle" x="820.62" y="-175.45" font-family="Times New Roman,serif" font-size="14.00"> NO</text>
</g>
<!-- 4 -->
<g id="node7" class="node">
<title>4</title>
<polygon fill="#ffffff" stroke="#000000" stroke-width="1.5" points="1426,-108.05 1282,-108.05 1282,-50.45 1426,-50.45 1426,-108.05"/>
<text xml:space="preserve" text-anchor="middle" x="1354" y="-93.75" font-family="Arial" font-size="10.00">4</text>
<text xml:space="preserve" text-anchor="middle" x="1354" y="-81.75" font-family="Arial" font-size="10.00">Valida hallazgo adicional</text>
<text xml:space="preserve" text-anchor="middle" x="1354" y="-69.75" font-family="Arial" font-size="10.00">y notifica a la Asesora</text>
<text xml:space="preserve" text-anchor="middle" x="1354" y="-57.75" font-family="Arial" font-size="10.00">para recotizar</text>
</g>
<!-- 3&#45;&gt;4 -->
<g id="edge4" class="edge">
<title>3&#45;&gt;4</title>
<path fill="none" stroke="#000000" stroke-width="1.2" d="M723.38,-136.35C832.26,-136.35 1330,-136.35 1330,-136.35 1330,-136.35 1330,-117.29 1330,-117.29"/>
<polygon fill="#000000" stroke="#000000" stroke-width="1.2" points="1332.45,-117.29 1330,-110.29 1327.55,-117.29 1332.45,-117.29"/>
<text xml:space="preserve" text-anchor="middle" x="1042.12" y="-85.45" font-family="Times New Roman,serif" font-size="14.00"> SÍ</text>
</g>
<!-- 6 -->
<g id="node6" class="node">
<title>6</title>
<polygon fill="#ffffff" stroke="#000000" stroke-width="1.5" points="1223,-207.05 1079,-207.05 1079,-149.45 1223,-149.45 1223,-207.05"/>
<text xml:space="preserve" text-anchor="middle" x="1151" y="-192.75" font-family="Arial" font-size="10.00">6</text>
<text xml:space="preserve" text-anchor="middle" x="1151" y="-180.75" font-family="Arial" font-size="10.00">Carga evidencias de</text>
<text xml:space="preserve" text-anchor="middle" x="1151" y="-168.75" font-family="Arial" font-size="10.00">componentes instalados</text>
<text xml:space="preserve" text-anchor="middle" x="1151" y="-156.75" font-family="Arial" font-size="10.00">en Notion</text>
</g>
<!-- 5&#45;&gt;6 -->
<g id="edge7" class="edge">
<title>5&#45;&gt;6</title>
<path fill="none" stroke="#000000" stroke-width="1.2" d="M1005.76,-177.25C1005.76,-177.25 1069.62,-177.25 1069.62,-177.25"/>
<polygon fill="#000000" stroke="#000000" stroke-width="1.2" points="1069.62,-179.7 1076.62,-177.25 1069.62,-174.8 1069.62,-179.7"/>
</g>
<!-- 7 -->
<g id="node8" class="node">
<title>7</title>
<polygon fill="#ffffff" stroke="#000000" stroke-width="1.5" points="1426,-209.05 1282,-209.05 1282,-151.45 1426,-151.45 1426,-209.05"/>
<text xml:space="preserve" text-anchor="middle" x="1354" y="-194.75" font-family="Arial" font-size="10.00">7</text>
<text xml:space="preserve" text-anchor="middle" x="1354" y="-182.75" font-family="Arial" font-size="10.00">Supervisa avance técnico</text>
<text xml:space="preserve" text-anchor="middle" x="1354" y="-170.75" font-family="Arial" font-size="10.00">y cumplimiento de</text>
<text xml:space="preserve" text-anchor="middle" x="1354" y="-158.75" font-family="Arial" font-size="10.00">tiempos estándar</text>
</g>
<!-- 6&#45;&gt;7 -->
<g id="edge8" class="edge">
<title>6&#45;&gt;7</title>
<path fill="none" stroke="#000000" stroke-width="1.2" d="M1223.71,-179.25C1223.71,-179.25 1272.64,-179.25 1272.64,-179.25"/>
<polygon fill="#000000" stroke="#000000" stroke-width="1.2" points="1272.64,-181.7 1279.64,-179.25 1272.64,-176.8 1272.64,-181.7"/>
</g>
<!-- 8 -->
<g id="node9" class="node">
<title>8</title>
<polygon fill="#ffffff" stroke="#000000" stroke-width="1.5" points="1629,-165.05 1485,-165.05 1485,-107.45 1629,-107.45 1629,-165.05"/>
<text xml:space="preserve" text-anchor="middle" x="1557" y="-150.75" font-family="Arial" font-size="10.00">8</text>
<text xml:space="preserve" text-anchor="middle" x="1557" y="-138.75" font-family="Arial" font-size="10.00">Monitorea estatus y</text>
<text xml:space="preserve" text-anchor="middle" x="1557" y="-126.75" font-family="Arial" font-size="10.00">mantiene informado al</text>
<text xml:space="preserve" text-anchor="middle" x="1557" y="-114.75" font-family="Arial" font-size="10.00">cliente (WhatsApp)</text>
</g>
<!-- 4&#45;&gt;8 -->
<g id="edge6" class="edge">
<title>4&#45;&gt;8</title>
<path fill="none" stroke="#000000" stroke-width="1.2" d="M1378,-108.72C1378,-113.35 1378,-116.65 1378,-116.65 1378,-116.65 1475.64,-116.65 1475.64,-116.65"/>
<polygon fill="#000000" stroke="#000000" stroke-width="1.2" points="1475.64,-119.1 1482.64,-116.65 1475.64,-114.2 1475.64,-119.1"/>
</g>
<!-- 7&#45;&gt;8 -->
<g id="edge9" class="edge">
<title>7&#45;&gt;8</title>
<path fill="none" stroke="#000000" stroke-width="1.2" d="M1426.71,-158.25C1426.71,-158.25 1475.64,-158.25 1475.64,-158.25"/>
<polygon fill="#000000" stroke="#000000" stroke-width="1.2" points="1475.64,-160.7 1482.64,-158.25 1475.64,-155.8 1475.64,-160.7"/>
</g>
<!-- FIN -->
<g id="node10" class="node">
<title>FIN</title>
<polygon fill="#ffffff" stroke="#000000" stroke-width="1.5" points="1832,-165.05 1688,-165.05 1688,-107.45 1832,-107.45 1832,-165.05"/>
<text xml:space="preserve" text-anchor="middle" x="1760" y="-132.75" font-family="Arial" font-size="10.00">FIN</text>
</g>
<!-- 8&#45;&gt;FIN -->
<g id="edge10" class="edge">
<title>8&#45;&gt;FIN</title>
<path fill="none" stroke="#000000" stroke-width="1.2" d="M1629.71,-136.25C1629.71,-136.25 1678.64,-136.25 1678.64,-136.25"/>
<polygon fill="#ffebee" stroke="#000000" stroke-width="1.2" points="1678.64,-138.7 1685.64,-136.25 1678.64,-133.8 1678.64,-138.7"/>
</g>
</g>
</svg>
