<?xml version="1.0" encoding="UTF-8" standalone="no"?>
<!DOCTYPE svg PUBLIC "-//W3C//DTD SVG 1.1//EN"
 "http://www.w3.org/Graphics/SVG/1.1/DTD/svg11.dtd">
<!-- Generated by graphviz version 14.1.2 (20260124.0452)
 -->
<!-- Title: DPO_COBRO_BJX Pages: 1 -->
<svg width="1019pt" height="429pt"
 viewBox="0.00 0.00 1019.00 429.00" xmlns="http://www.w3.org/2000/svg" xmlns:xlink="http://www.w3.org/1999/xlink">
<g id="graph0" class="graph" transform="scale(1 1) rotate(0) translate(4 425.25)">
<title>DPO_COBRO_BJX</title>
<polygon fill="#ffffff" stroke="none" points="-4,4 -4,-425.25 1015.25,-425.25 1015.25,4 -4,4"/>
<polygon fill="none" stroke="black" points="147.88,-4 147.88,-30.25 204.88,-30.25 204.88,-4 147.88,-4"/>
<text xml:space="preserve" text-anchor="start" x="153.88" y="-12.85" font-family="Arial" font-size="12.00">Elaboró:</text>
<polygon fill="none" stroke="black" points="204.88,-4 204.88,-30.25 324.88,-30.25 324.88,-4 204.88,-4"/>
<text xml:space="preserve" text-anchor="start" x="217.25" y="-12.85" font-family="Arial" font-size="12.00">Ing. Emmanuel G.</text>
<polygon fill="none" stroke="black" points="324.88,-4 324.88,-30.25 377.38,-30.25 377.38,-4 324.88,-4"/>
<text xml:space="preserve" text-anchor="start" x="330.88" y="-12.85" font-family="Arial" font-size="12.00">Revisó:</text>
<polygon fill="none" stroke="black" points="377.38,-4 377.38,-30.25 497.38,-30.25 497.38,-4 377.38,-4"/>
<text xml:space="preserve" text-anchor="start" x="412.62" y="-12.85" font-family="Arial" font-size="12.00">Tesorería</text>
<polygon fill="none" stroke="black" points="497.38,-4 497.38,-30.25 556.62,-30.25 556.62,-4 497.38,-4"/>
<text xml:space="preserve" text-anchor="start" x="503.38" y="-12.85" font-family="Arial" font-size="12.00">Autorizó:</text>
<polygon fill="none" stroke="black" points="556.62,-4 556.62,-30.25 676.62,-30.25 676.62,-4 556.62,-4"/>
<text xml:space="preserve" text-anchor="start" x="580.62" y="-12.85" font-family="Arial" font-size="12.00">Carlos (CEO)</text>
<polygon fill="none" stroke="black" points="676.62,-4 676.62,-30.25 789.88,-30.25 789.88,-4 676.62,-4"/>
<text xml:space="preserve" text-anchor="start" x="682.62" y="-12.85" font-family="Arial" font-size="12.00">Fecha: 07&#45;02&#45;2026</text>
<polygon fill="none" stroke="black" points="789.88,-4 789.88,-30.25 863.38,-30.25 863.38,-4 789.88,-4"/>
<text xml:space="preserve" text-anchor="start" x="795.88" y="-12.85" font-family="Arial" font-size="12.00">Hoja: 15/18</text>
<g id="clust1" class="cluster">
<title>cluster_cliente</title>
<polygon fill="#ffffff" stroke="black" stroke-dasharray="1,5" points="250.25,-317.25 250.25,-413.25 613.25,-413.25 613.25,-317.25 250.25,-317.25"/>
<text xml:space="preserve" text-anchor="middle" x="431.75" y="-397.85" font-family="Arial Bold" font-size="12.00">Cliente</text>
</g>
<g id="clust2" class="cluster">
<title>cluster_asesora</title>
<polygon fill="#ffffff" stroke="black" stroke-dasharray="1,5" points="656.25,-42.25 656.25,-239.25 816.25,-239.25 816.25,-42.25 656.25,-42.25"/>
<text xml:space="preserve" text-anchor="middle" x="736.25" y="-223.85" font-family="Arial Bold" font-size="12.00">Asesora de Servicios</text>
</g>
<g id="clust3" class="cluster">
<title>cluster_admin</title>
<polygon fill="#ffffff" stroke="black" stroke-dasharray="1,5" points="8,-112.25 8,-309.25 613.25,-309.25 613.25,-112.25 8,-112.25"/>
<text xml:space="preserve" text-anchor="middle" x="310.62" y="-293.85" font-family="Arial Bold" font-size="12.00">Administración / Caja</text>
</g>
<!-- ST -->
<g id="node1" class="node">
<title>ST</title>
<ellipse fill="#e8f5e9" stroke="#000000" stroke-width="1.5" cx="330.25" cy="-354.25" rx="72" ry="28.8"/>
<text xml:space="preserve" text-anchor="middle" x="330.25" y="-350.75" font-family="Arial" font-size="10.00">INICIO</text>
</g>
<!-- 1 -->
<g id="node2" class="node">
<title>1</title>
<polygon fill="#ffffff" stroke="#000000" stroke-width="1.5" points="605.25,-383.05 461.25,-383.05 461.25,-325.45 605.25,-325.45 605.25,-383.05"/>
<text xml:space="preserve" text-anchor="middle" x="533.25" y="-368.75" font-family="Arial" font-size="10.00">1</text>
<text xml:space="preserve" text-anchor="middle" x="533.25" y="-356.75" font-family="Arial" font-size="10.00">Presenta comprobante de</text>
<text xml:space="preserve" text-anchor="middle" x="533.25" y="-344.75" font-family="Arial" font-size="10.00">pago o realiza pago</text>
<text xml:space="preserve" text-anchor="middle" x="533.25" y="-332.75" font-family="Arial" font-size="10.00">en ventanilla / terminal</text>
</g>
<!-- ST&#45;&gt;1 -->
<g id="edge1" class="edge">
<title>ST&#45;&gt;1</title>
<path fill="none" stroke="#000000" stroke-width="1.2" d="M402.96,-354.25C402.96,-354.25 451.89,-354.25 451.89,-354.25"/>
<polygon fill="#000000" stroke="#000000" stroke-width="1.2" points="451.89,-356.7 458.89,-354.25 451.89,-351.8 451.89,-356.7"/>
</g>
<!-- 2 -->
<g id="node3" class="node">
<title>2</title>
<polygon fill="#ffffff" stroke="#000000" stroke-width="1.5" points="808.25,-108.05 664.25,-108.05 664.25,-50.45 808.25,-50.45 808.25,-108.05"/>
<text xml:space="preserve" text-anchor="middle" x="736.25" y="-93.75" font-family="Arial" font-size="10.00">2</text>
<text xml:space="preserve" text-anchor="middle" x="736.25" y="-81.75" font-family="Arial" font-size="10.00">Recibe comprobante y</text>
<text xml:space="preserve" text-anchor="middle" x="736.25" y="-69.75" font-family="Arial" font-size="10.00">solicita validación a</text>
<text xml:space="preserve" text-anchor="middle" x="736.25" y="-57.75" font-family="Arial" font-size="10.00">Administración</text>
</g>
<!-- 1&#45;&gt;2 -->
<g id="edge2" class="edge">
<title>1&#45;&gt;2</title>
<path fill="none" stroke="#000000" stroke-width="1.2" d="M605.85,-354.25C621.91,-354.25 634.25,-354.25 634.25,-354.25 634.25,-354.25 634.25,-88.85 634.25,-88.85 634.25,-88.85 654.94,-88.85 654.94,-88.85"/>
<polygon fill="#000000" stroke="#000000" stroke-width="1.2" points="654.94,-91.3 661.94,-88.85 654.94,-86.4 654.94,-91.3"/>
</g>
<!-- 3 -->
<g id="node5" class="node">
<title>3</title>
<polygon fill="#fffde7" stroke="#000000" stroke-width="1.5" points="96.5,-232.25 16,-176.25 96.5,-120.25 177,-176.25 96.5,-232.25"/>
<text xml:space="preserve" text-anchor="middle" x="96.5" y="-190.75" font-family="Arial" font-size="10.00">3</text>
<text xml:space="preserve" text-anchor="middle" x="96.5" y="-178.75" font-family="Arial" font-size="10.00">¿Método de</text>
<text xml:space="preserve" text-anchor="middle" x="96.5" y="-166.75" font-family="Arial" font-size="10.00">pago es</text>
<text xml:space="preserve" text-anchor="middle" x="96.5" y="-154.75" font-family="Arial" font-size="10.00">Transferencia?</text>
</g>
<!-- 2&#45;&gt;3 -->
<g id="edge3" class="edge">
<title>2&#45;&gt;3</title>
<path fill="none" stroke="#000000" stroke-width="1.2" d="M663.77,-69.65C496.21,-69.65 96.25,-69.65 96.25,-69.65 96.25,-69.65 96.25,-110.7 96.25,-110.7"/>
<polygon fill="#000000" stroke="#000000" stroke-width="1.2" points="93.8,-110.7 96.25,-117.7 98.7,-110.7 93.8,-110.7"/>
</g>
<!-- 7 -->
<g id="node4" class="node">
<title>7</title>
<polygon fill="#ffffff" stroke="#000000" stroke-width="1.5" points="808.25,-209.05 664.25,-209.05 664.25,-151.45 808.25,-151.45 808.25,-209.05"/>
<text xml:space="preserve" text-anchor="middle" x="736.25" y="-194.75" font-family="Arial" font-size="10.00">7</text>
<text xml:space="preserve" text-anchor="middle" x="736.25" y="-182.75" font-family="Arial" font-size="10.00">Entrega ticket final y</text>
<text xml:space="preserve" text-anchor="middle" x="736.25" y="-170.75" font-family="Arial" font-size="10.00">libera llaves y pase</text>
<text xml:space="preserve" text-anchor="middle" x="736.25" y="-158.75" font-family="Arial" font-size="10.00">de salida</text>
</g>
<!-- FIN -->
<g id="node9" class="node">
<title>FIN</title>
<polygon fill="#ffffff" stroke="#000000" stroke-width="1.5" points="1011.25,-209.05 867.25,-209.05 867.25,-151.45 1011.25,-151.45 1011.25,-209.05"/>
<text xml:space="preserve" text-anchor="middle" x="939.25" y="-176.75" font-family="Arial" font-size="10.00">FIN</text>
</g>
<!-- 7&#45;&gt;FIN -->
<g id="edge9" class="edge">
<title>7&#45;&gt;FIN</title>
<path fill="none" stroke="#000000" stroke-width="1.2" d="M808.96,-180.25C808.96,-180.25 857.89,-180.25 857.89,-180.25"/>
<polygon fill="#ffebee" stroke="#000000" stroke-width="1.2" points="857.89,-182.7 864.89,-180.25 857.89,-177.8 857.89,-182.7"/>
</g>
<!-- 4 -->
<g id="node6" class="node">
<title>4</title>
<polygon fill="#ffffff" stroke="#000000" stroke-width="1.5" points="402.25,-178.05 258.25,-178.05 258.25,-120.45 402.25,-120.45 402.25,-178.05"/>
<text xml:space="preserve" text-anchor="middle" x="330.25" y="-163.75" font-family="Arial" font-size="10.00">4</text>
<text xml:space="preserve" text-anchor="middle" x="330.25" y="-151.75" font-family="Arial" font-size="10.00">Valida ingreso en portal</text>
<text xml:space="preserve" text-anchor="middle" x="330.25" y="-139.75" font-family="Arial" font-size="10.00">bancario (Cero capturas</text>
<text xml:space="preserve" text-anchor="middle" x="330.25" y="-127.75" font-family="Arial" font-size="10.00">de pantalla)</text>
</g>
<!-- 3&#45;&gt;4 -->
<g id="edge4" class="edge">
<title>3&#45;&gt;4</title>
<path fill="none" stroke="#000000" stroke-width="1.2" d="M139.37,-149.25C139.37,-149.25 248.99,-149.25 248.99,-149.25"/>
<polygon fill="#000000" stroke="#000000" stroke-width="1.2" points="248.99,-151.7 255.99,-149.25 248.99,-146.8 248.99,-151.7"/>
<text xml:space="preserve" text-anchor="middle" x="217.62" y="-173.45" font-family="Times New Roman,serif" font-size="14.00"> SÍ</text>
</g>
<!-- 5 -->
<g id="node7" class="node">
<title>5</title>
<polygon fill="#ffffff" stroke="#000000" stroke-width="1.5" points="402.25,-279.05 258.25,-279.05 258.25,-221.45 402.25,-221.45 402.25,-279.05"/>
<text xml:space="preserve" text-anchor="middle" x="330.25" y="-264.75" font-family="Arial" font-size="10.00">5</text>
<text xml:space="preserve" text-anchor="middle" x="330.25" y="-252.75" font-family="Arial" font-size="10.00">Procesa pago en terminal</text>
<text xml:space="preserve" text-anchor="middle" x="330.25" y="-240.75" font-family="Arial" font-size="10.00">o recibe efectivo y</text>
<text xml:space="preserve" text-anchor="middle" x="330.25" y="-228.75" font-family="Arial" font-size="10.00">valida autenticidad</text>
</g>
<!-- 3&#45;&gt;5 -->
<g id="edge5" class="edge">
<title>3&#45;&gt;5</title>
<path fill="none" stroke="#000000" stroke-width="1.2" d="M105.38,-226.85C105.38,-226.85 248.88,-226.85 248.88,-226.85"/>
<polygon fill="#000000" stroke="#000000" stroke-width="1.2" points="248.88,-229.3 255.88,-226.85 248.88,-224.4 248.88,-229.3"/>
<text xml:space="preserve" text-anchor="middle" x="217.62" y="-242.45" font-family="Times New Roman,serif" font-size="14.00"> NO</text>
</g>
<!-- 6 -->
<g id="node8" class="node">
<title>6</title>
<polygon fill="#ffffff" stroke="#000000" stroke-width="1.5" points="605.25,-209.05 461.25,-209.05 461.25,-151.45 605.25,-151.45 605.25,-209.05"/>
<text xml:space="preserve" text-anchor="middle" x="533.25" y="-194.75" font-family="Arial" font-size="10.00">6</text>
<text xml:space="preserve" text-anchor="middle" x="533.25" y="-182.75" font-family="Arial" font-size="10.00">Registra ingreso en el</text>
<text xml:space="preserve" text-anchor="middle" x="533.25" y="-170.75" font-family="Arial" font-size="10.00">sistema ERP y marca</text>
<text xml:space="preserve" text-anchor="middle" x="533.25" y="-158.75" font-family="Arial" font-size="10.00">orden como &quot;Pagada&quot;</text>
</g>
<!-- 4&#45;&gt;6 -->
<g id="edge6" class="edge">
<title>4&#45;&gt;6</title>
<path fill="none" stroke="#000000" stroke-width="1.2" d="M402.96,-164.75C402.96,-164.75 451.89,-164.75 451.89,-164.75"/>
<polygon fill="#000000" stroke="#000000" stroke-width="1.2" points="451.89,-167.2 458.89,-164.75 451.89,-162.3 451.89,-167.2"/>
</g>
<!-- 5&#45;&gt;6 -->
<g id="edge7" class="edge">
<title>5&#45;&gt;6</title>
<path fill="none" stroke="#000000" stroke-width="1.2" d="M330.25,-220.9C330.25,-207.07 330.25,-193.55 330.25,-193.55 330.25,-193.55 451.72,-193.55 451.72,-193.55"/>
<polygon fill="#000000" stroke="#000000" stroke-width="1.2" points="451.72,-196 458.72,-193.55 451.72,-191.1 451.72,-196"/>
</g>
<!-- 6&#45;&gt;7 -->
<g id="edge8" class="edge">
<title>6&#45;&gt;7</title>
<path fill="none" stroke="#000000" stroke-width="1.2" d="M605.96,-180.25C605.96,-180.25 654.89,-180.25 654.89,-180.25"/>
<polygon fill="#000000" stroke="#000000" stroke-width="1.2" points="654.89,-182.7 661.89,-180.25 654.89,-177.8 654.89,-182.7"/>
</g>
</g>
</svg>
