<?xml version="1.0" encoding="UTF-8" standalone="no"?>
<!DOCTYPE svg PUBLIC "-//W3C//DTD SVG 1.1//EN"
 "http://www.w3.org/Graphics/SVG/1.1/DTD/svg11.dtd">
<!-- Generated by graphviz version 14.1.2 (20260124.0452)
 -->
<!-- Title: DPO_CAPTACION_BJX Pages: 1 -->
<svg width="740pt" height="959pt"
 viewBox="0.00 0.00 740.00 959.00" xmlns="http://www.w3.org/2000/svg" xmlns:xlink="http://www.w3.org/1999/xlink">
<g id="graph0" class="graph" transform="scale(1 1) rotate(0) translate(4 954.7)">
<title>DPO_CAPTACION_BJX</title>
<polygon fill="#ffffff" stroke="none" points="-4,4 -4,-954.7 735.5,-954.7 735.5,4 -4,4"/>
<polygon fill="none" stroke="black" points="8,-4 8,-30.25 65,-30.25 65,-4 8,-4"/>
<text xml:space="preserve" text-anchor="start" x="14" y="-12.85" font-family="Arial" font-size="12.00">Elaboró:</text>
<polygon fill="none" stroke="black" points="65,-4 65,-30.25 185,-30.25 185,-4 65,-4"/>
<text xml:space="preserve" text-anchor="start" x="77.38" y="-12.85" font-family="Arial" font-size="12.00">Ing. Emmanuel G.</text>
<polygon fill="none" stroke="black" points="185,-4 185,-30.25 237.5,-30.25 237.5,-4 185,-4"/>
<text xml:space="preserve" text-anchor="start" x="191" y="-12.85" font-family="Arial" font-size="12.00">Revisó:</text>
<polygon fill="none" stroke="black" points="237.5,-4 237.5,-30.25 357.5,-30.25 357.5,-4 237.5,-4"/>
<text xml:space="preserve" text-anchor="start" x="244.62" y="-12.85" font-family="Arial" font-size="12.00">Dirección Operativa</text>
<polygon fill="none" stroke="black" points="357.5,-4 357.5,-30.25 416.75,-30.25 416.75,-4 357.5,-4"/>
<text xml:space="preserve" text-anchor="start" x="363.5" y="-12.85" font-family="Arial" font-size="12.00">Autorizó:</text>
<polygon fill="none" stroke="black" points="416.75,-4 416.75,-30.25 536.75,-30.25 536.75,-4 416.75,-4"/>
<text xml:space="preserve" text-anchor="start" x="440.75" y="-12.85" font-family="Arial" font-size="12.00">Carlos (CEO)</text>
<polygon fill="none" stroke="black" points="536.75,-4 536.75,-30.25 650,-30.25 650,-4 536.75,-4"/>
<text xml:space="preserve" text-anchor="start" x="542.75" y="-12.85" font-family="Arial" font-size="12.00">Fecha: 07&#45;02&#45;2026</text>
<polygon fill="none" stroke="black" points="650,-4 650,-30.25 723.5,-30.25 723.5,-4 650,-4"/>
<text xml:space="preserve" text-anchor="start" x="656" y="-12.85" font-family="Arial" font-size="12.00">Hoja: 01/18</text>
<g id="clust1" class="cluster">
<title>cluster_ventas</title>
<polygon fill="#ffffff" stroke="black" stroke-dasharray="1,5" points="97.25,-113.65 97.25,-942.7 634.25,-942.7 634.25,-113.65 97.25,-113.65"/>
<text xml:space="preserve" text-anchor="middle" x="365.75" y="-927.3" font-family="Arial Bold" font-size="12.00">Marketing / Ventas (Omnicanal)</text>
</g>
<!-- ST -->
<g id="node1" class="node">
<title>ST</title>
<ellipse fill="#e8f5e9" stroke="#000000" cx="482.25" cy="-887.25" rx="72" ry="25.2"/>
<text xml:space="preserve" text-anchor="middle" x="482.25" y="-883.75" font-family="Arial" font-size="10.00">INICIO</text>
</g>
<!-- 1 -->
<g id="node2" class="node">
<title>1</title>
<polygon fill="#ffffff" stroke="#000000" points="554.25,-825.05 410.25,-825.05 410.25,-769.05 554.25,-769.05 554.25,-825.05"/>
<text xml:space="preserve" text-anchor="middle" x="482.25" y="-811.55" font-family="Arial" font-size="10.00">1</text>
<text xml:space="preserve" text-anchor="middle" x="482.25" y="-799.55" font-family="Arial" font-size="10.00">Identifica Lead por</text>
<text xml:space="preserve" text-anchor="middle" x="482.25" y="-787.55" font-family="Arial" font-size="10.00">WhatsApp, Redes o</text>
<text xml:space="preserve" text-anchor="middle" x="482.25" y="-775.55" font-family="Arial" font-size="10.00">Llamada Directa</text>
</g>
<!-- ST&#45;&gt;1 -->
<g id="edge1" class="edge">
<title>ST&#45;&gt;1</title>
<path fill="none" stroke="#000000" d="M482.25,-861.64C482.25,-861.64 482.25,-833.77 482.25,-833.77"/>
<polygon fill="#000000" stroke="#000000" points="484.7,-833.77 482.25,-826.77 479.8,-833.77 484.7,-833.77"/>
</g>
<!-- 2 -->
<g id="node3" class="node">
<title>2</title>
<polygon fill="#fffde7" stroke="#000000" points="364.25,-732.05 292.25,-688.05 364.25,-644.05 436.25,-688.05 364.25,-732.05"/>
<text xml:space="preserve" text-anchor="middle" x="364.25" y="-696.55" font-family="Arial" font-size="10.00">2</text>
<text xml:space="preserve" text-anchor="middle" x="364.25" y="-684.55" font-family="Arial" font-size="10.00">¿Cliente es</text>
<text xml:space="preserve" text-anchor="middle" x="364.25" y="-672.55" font-family="Arial" font-size="10.00">Nuevo?</text>
</g>
<!-- 1&#45;&gt;2 -->
<g id="edge2" class="edge">
<title>1&#45;&gt;2</title>
<path fill="none" stroke="#000000" d="M423.25,-768.7C423.25,-768.7 423.25,-704.62 423.25,-704.62"/>
<polygon fill="#000000" stroke="#000000" points="425.7,-704.62 423.25,-697.62 420.8,-704.62 425.7,-704.62"/>
</g>
<!-- 3 -->
<g id="node4" class="node">
<title>3</title>
<polygon fill="#ffffff" stroke="#000000" points="249.25,-591.55 105.25,-591.55 105.25,-535.55 249.25,-535.55 249.25,-591.55"/>
<text xml:space="preserve" text-anchor="middle" x="177.25" y="-578.05" font-family="Arial" font-size="10.00">3</text>
<text xml:space="preserve" text-anchor="middle" x="177.25" y="-566.05" font-family="Arial" font-size="10.00">Solicita datos de</text>
<text xml:space="preserve" text-anchor="middle" x="177.25" y="-554.05" font-family="Arial" font-size="10.00">contacto y del</text>
<text xml:space="preserve" text-anchor="middle" x="177.25" y="-542.05" font-family="Arial" font-size="10.00">vehículo (Placas/VIN)</text>
</g>
<!-- 2&#45;&gt;3 -->
<g id="edge3" class="edge">
<title>2&#45;&gt;3</title>
<path fill="none" stroke="#000000" d="M291.68,-688.25C239.12,-688.25 177.25,-688.25 177.25,-688.25 177.25,-688.25 177.25,-600.36 177.25,-600.36"/>
<polygon fill="#000000" stroke="#000000" points="179.7,-600.36 177.25,-593.36 174.8,-600.36 179.7,-600.36"/>
<text xml:space="preserve" text-anchor="middle" x="246.12" y="-612.75" font-family="Times New Roman,serif" font-size="14.00"> SÍ</text>
</g>
<!-- 4 -->
<g id="node5" class="node">
<title>4</title>
<polygon fill="#ffffff" stroke="#000000" points="436.25,-588.75 292.25,-588.75 292.25,-538.35 436.25,-538.35 436.25,-588.75"/>
<text xml:space="preserve" text-anchor="middle" x="364.25" y="-572.05" font-family="Arial" font-size="10.00">4</text>
<text xml:space="preserve" text-anchor="middle" x="364.25" y="-560.05" font-family="Arial" font-size="10.00">Busca registro en</text>
<text xml:space="preserve" text-anchor="middle" x="364.25" y="-548.05" font-family="Arial" font-size="10.00">base de datos / CRM</text>
</g>
<!-- 2&#45;&gt;4 -->
<g id="edge4" class="edge">
<title>2&#45;&gt;4</title>
<path fill="none" stroke="#000000" d="M364.25,-643.81C364.25,-643.81 364.25,-597.68 364.25,-597.68"/>
<polygon fill="#000000" stroke="#000000" points="366.7,-597.68 364.25,-590.68 361.8,-597.68 366.7,-597.68"/>
<text xml:space="preserve" text-anchor="middle" x="375.88" y="-612.75" font-family="Times New Roman,serif" font-size="14.00"> NO</text>
</g>
<!-- 5 -->
<g id="node6" class="node">
<title>5</title>
<polygon fill="#ffffff" stroke="#000000" points="436.25,-498.55 292.25,-498.55 292.25,-442.55 436.25,-442.55 436.25,-498.55"/>
<text xml:space="preserve" text-anchor="middle" x="364.25" y="-485.05" font-family="Arial" font-size="10.00">5</text>
<text xml:space="preserve" text-anchor="middle" x="364.25" y="-473.05" font-family="Arial" font-size="10.00">Realiza Pre&#45;diagnóstico</text>
<text xml:space="preserve" text-anchor="middle" x="364.25" y="-461.05" font-family="Arial" font-size="10.00">remoto sobre la</text>
<text xml:space="preserve" text-anchor="middle" x="364.25" y="-449.05" font-family="Arial" font-size="10.00">necesidad del servicio</text>
</g>
<!-- 3&#45;&gt;5 -->
<g id="edge5" class="edge">
<title>3&#45;&gt;5</title>
<path fill="none" stroke="#000000" d="M177.25,-535.3C177.25,-507.84 177.25,-470.25 177.25,-470.25 177.25,-470.25 283.44,-470.25 283.44,-470.25"/>
<polygon fill="#000000" stroke="#000000" points="283.44,-472.7 290.44,-470.25 283.44,-467.8 283.44,-472.7"/>
</g>
<!-- 4&#45;&gt;5 -->
<g id="edge6" class="edge">
<title>4&#45;&gt;5</title>
<path fill="none" stroke="#000000" d="M364.25,-538.14C364.25,-538.14 364.25,-507.39 364.25,-507.39"/>
<polygon fill="#000000" stroke="#000000" points="366.7,-507.39 364.25,-500.39 361.8,-507.39 366.7,-507.39"/>
</g>
<!-- 6 -->
<g id="node7" class="node">
<title>6</title>
<polygon fill="#fffde7" stroke="#000000" points="482.25,-405.55 402.5,-361.55 482.25,-317.55 562,-361.55 482.25,-405.55"/>
<text xml:space="preserve" text-anchor="middle" x="482.25" y="-370.05" font-family="Arial" font-size="10.00">6</text>
<text xml:space="preserve" text-anchor="middle" x="482.25" y="-358.05" font-family="Arial" font-size="10.00">¿Requiere cita</text>
<text xml:space="preserve" text-anchor="middle" x="482.25" y="-346.05" font-family="Arial" font-size="10.00">presencial?</text>
</g>
<!-- 5&#45;&gt;6 -->
<g id="edge7" class="edge">
<title>5&#45;&gt;6</title>
<path fill="none" stroke="#000000" d="M419.38,-442.2C419.38,-442.2 419.38,-379.85 419.38,-379.85"/>
<polygon fill="#000000" stroke="#000000" points="421.83,-379.85 419.38,-372.85 416.93,-379.85 421.83,-379.85"/>
</g>
<!-- 6&#45;&gt;1 -->
<g id="edge9" class="edge">
<title>6&#45;&gt;1</title>
<path fill="none" stroke="#000000" stroke-dasharray="5,2" d="M495.25,-398.68C495.25,-398.68 495.25,-760.25 495.25,-760.25"/>
<polygon fill="#000000" stroke="#000000" points="492.8,-760.25 495.25,-767.25 497.7,-760.25 492.8,-760.25"/>
<text xml:space="preserve" text-anchor="middle" x="574" y="-558.5" font-family="Times New Roman,serif" font-size="14.00"> NO / Seguimiento</text>
</g>
<!-- 7 -->
<g id="node8" class="node">
<title>7</title>
<polygon fill="#ffffff" stroke="#000000" points="554.25,-265.05 410.25,-265.05 410.25,-214.65 554.25,-214.65 554.25,-265.05"/>
<text xml:space="preserve" text-anchor="middle" x="482.25" y="-248.35" font-family="Arial" font-size="10.00">7</text>
<text xml:space="preserve" text-anchor="middle" x="482.25" y="-236.35" font-family="Arial" font-size="10.00">Agendar cita en</text>
<text xml:space="preserve" text-anchor="middle" x="482.25" y="-224.35" font-family="Arial" font-size="10.00">calendario operativo</text>
</g>
<!-- 6&#45;&gt;7 -->
<g id="edge8" class="edge">
<title>6&#45;&gt;7</title>
<path fill="none" stroke="#000000" d="M482.25,-317.27C482.25,-317.27 482.25,-274.02 482.25,-274.02"/>
<polygon fill="#000000" stroke="#000000" points="484.7,-274.02 482.25,-267.02 479.8,-274.02 484.7,-274.02"/>
<text xml:space="preserve" text-anchor="middle" x="490.12" y="-286.25" font-family="Times New Roman,serif" font-size="14.00"> SÍ</text>
</g>
<!-- 8 -->
<g id="node9" class="node">
<title>8</title>
<polygon fill="#ffffff" stroke="#000000" points="554.25,-177.65 410.25,-177.65 410.25,-121.65 554.25,-121.65 554.25,-177.65"/>
<text xml:space="preserve" text-anchor="middle" x="482.25" y="-164.15" font-family="Arial" font-size="10.00">8</text>
<text xml:space="preserve" text-anchor="middle" x="482.25" y="-152.15" font-family="Arial" font-size="10.00">Envía recordatorio</text>
<text xml:space="preserve" text-anchor="middle" x="482.25" y="-140.15" font-family="Arial" font-size="10.00">y ubicación vía</text>
<text xml:space="preserve" text-anchor="middle" x="482.25" y="-128.15" font-family="Arial" font-size="10.00">WhatsApp</text>
</g>
<!-- 7&#45;&gt;8 -->
<g id="edge10" class="edge">
<title>7&#45;&gt;8</title>
<path fill="none" stroke="#000000" d="M482.25,-214.24C482.25,-214.24 482.25,-186.37 482.25,-186.37"/>
<polygon fill="#000000" stroke="#000000" points="484.7,-186.37 482.25,-179.37 479.8,-186.37 484.7,-186.37"/>
</g>
<!-- FIN -->
<g id="node10" class="node">
<title>FIN</title>
<polygon fill="#ffffff" stroke="#000000" points="554.25,-84.65 410.25,-84.65 410.25,-34.25 554.25,-34.25 554.25,-84.65"/>
<text xml:space="preserve" text-anchor="middle" x="482.25" y="-55.95" font-family="Arial" font-size="10.00">FIN</text>
</g>
<!-- 8&#45;&gt;FIN -->
<g id="edge11" class="edge">
<title>8&#45;&gt;FIN</title>
<path fill="none" stroke="#000000" d="M482.25,-121.6C482.25,-121.6 482.25,-93.54 482.25,-93.54"/>
<polygon fill="#ffebee" stroke="#000000" points="484.7,-93.54 482.25,-86.54 479.8,-93.54 484.7,-93.54"/>
</g>
</g>
</svg>
