<?xml version="1.0" encoding="UTF-8" standalone="no"?>
<!DOCTYPE svg PUBLIC "-//W3C//DTD SVG 1.1//EN"
 "http://www.w3.org/Graphics/SVG/1.1/DTD/svg11.dtd">
<!-- Generated by graphviz version 14.1.2 (20260124.0452)
 -->
<!-- Title: DPO_REFACCIONES_BJX Pages: 1 -->
<svg width="1011pt" height="548pt"
 viewBox="0.00 0.00 1011.00 548.00" xmlns="http://www.w3.org/2000/svg" xmlns:xlink="http://www.w3.org/1999/xlink">
<g id="graph0" class="graph" transform="scale(1 1) rotate(0) translate(4 544.05)">
<title>DPO_REFACCIONES_BJX</title>
<polygon fill="#ffffff" stroke="none" points="-4,4 -4,-544.05 1006.75,-544.05 1006.75,4 -4,4"/>
<polygon fill="none" stroke="black" points="135,-4 135,-30.25 192,-30.25 192,-4 135,-4"/>
<text xml:space="preserve" text-anchor="start" x="141" y="-12.85" font-family="Arial" font-size="12.00">Elaboró:</text>
<polygon fill="none" stroke="black" points="192,-4 192,-30.25 312,-30.25 312,-4 192,-4"/>
<text xml:space="preserve" text-anchor="start" x="204.38" y="-12.85" font-family="Arial" font-size="12.00">Ing. Emmanuel G.</text>
<polygon fill="none" stroke="black" points="312,-4 312,-30.25 364.5,-30.25 364.5,-4 312,-4"/>
<text xml:space="preserve" text-anchor="start" x="318" y="-12.85" font-family="Arial" font-size="12.00">Revisó:</text>
<polygon fill="none" stroke="black" points="364.5,-4 364.5,-30.25 501.75,-30.25 501.75,-4 364.5,-4"/>
<text xml:space="preserve" text-anchor="start" x="370.5" y="-12.85" font-family="Arial" font-size="12.00">Encargado de Almacén</text>
<polygon fill="none" stroke="black" points="501.75,-4 501.75,-30.25 561,-30.25 561,-4 501.75,-4"/>
<text xml:space="preserve" text-anchor="start" x="507.75" y="-12.85" font-family="Arial" font-size="12.00">Autorizó:</text>
<polygon fill="none" stroke="black" points="561,-4 561,-30.25 681,-30.25 681,-4 561,-4"/>
<text xml:space="preserve" text-anchor="start" x="585" y="-12.85" font-family="Arial" font-size="12.00">Carlos (CEO)</text>
<polygon fill="none" stroke="black" points="681,-4 681,-30.25 794.25,-30.25 794.25,-4 681,-4"/>
<text xml:space="preserve" text-anchor="start" x="687" y="-12.85" font-family="Arial" font-size="12.00">Fecha: 07&#45;02&#45;2026</text>
<polygon fill="none" stroke="black" points="794.25,-4 794.25,-30.25 867.75,-30.25 867.75,-4 794.25,-4"/>
<text xml:space="preserve" text-anchor="start" x="800.25" y="-12.85" font-family="Arial" font-size="12.00">Hoja: 09/18</text>
<g id="clust1" class="cluster">
<title>cluster_tecnico</title>
<polygon fill="#ffffff" stroke="black" stroke-dasharray="1,5" points="631.75,-100.05 631.75,-297.05 994.75,-297.05 994.75,-100.05 631.75,-100.05"/>
<text xml:space="preserve" text-anchor="middle" x="813.25" y="-281.65" font-family="Arial Bold" font-size="12.00">Técnico Mecánico</text>
</g>
<g id="clust2" class="cluster">
<title>cluster_almacen</title>
<polygon fill="#ffffff" stroke="black" stroke-dasharray="1,5" points="211,-305.05 211,-532.05 791.75,-532.05 791.75,-305.05 211,-305.05"/>
<text xml:space="preserve" text-anchor="middle" x="501.38" y="-516.65" font-family="Arial Bold" font-size="12.00">Almacén</text>
</g>
<g id="clust3" class="cluster">
<title>cluster_compras</title>
<polygon fill="#ffffff" stroke="black" stroke-dasharray="1,5" points="8,-268.05 8,-364.05 168,-364.05 168,-268.05 8,-268.05"/>
<text xml:space="preserve" text-anchor="middle" x="88" y="-348.65" font-family="Arial Bold" font-size="12.00">Compras / Proveedores</text>
</g>
<!-- ST -->
<g id="node1" class="node">
<title>ST</title>
<ellipse fill="#e8f5e9" stroke="#000000" stroke-width="1.5" cx="711.75" cy="-238.05" rx="72" ry="28.8"/>
<text xml:space="preserve" text-anchor="middle" x="711.75" y="-234.55" font-family="Arial" font-size="10.00">INICIO</text>
</g>
<!-- 1 -->
<g id="node2" class="node">
<title>1</title>
<polygon fill="#ffffff" stroke="#000000" stroke-width="1.5" points="986.75,-266.85 842.75,-266.85 842.75,-209.25 986.75,-209.25 986.75,-266.85"/>
<text xml:space="preserve" text-anchor="middle" x="914.75" y="-252.55" font-family="Arial" font-size="10.00">1</text>
<text xml:space="preserve" text-anchor="middle" x="914.75" y="-240.55" font-family="Arial" font-size="10.00">Genera requisición de</text>
<text xml:space="preserve" text-anchor="middle" x="914.75" y="-228.55" font-family="Arial" font-size="10.00">refacciones basada en</text>
<text xml:space="preserve" text-anchor="middle" x="914.75" y="-216.55" font-family="Arial" font-size="10.00">diagnóstico aprobado</text>
</g>
<!-- ST&#45;&gt;1 -->
<g id="edge1" class="edge">
<title>ST&#45;&gt;1</title>
<path fill="none" stroke="#000000" stroke-width="1.2" d="M784.46,-238.05C784.46,-238.05 833.39,-238.05 833.39,-238.05"/>
<polygon fill="#000000" stroke="#000000" stroke-width="1.2" points="833.39,-240.5 840.39,-238.05 833.39,-235.6 833.39,-240.5"/>
</g>
<!-- 2 -->
<g id="node4" class="node">
<title>2</title>
<polygon fill="#ffffff" stroke="#000000" stroke-width="1.5" points="363,-494.85 219,-494.85 219,-437.25 363,-437.25 363,-494.85"/>
<text xml:space="preserve" text-anchor="middle" x="291" y="-474.55" font-family="Arial" font-size="10.00">2</text>
<text xml:space="preserve" text-anchor="middle" x="291" y="-462.55" font-family="Arial" font-size="10.00">Verifica disponibilidad</text>
<text xml:space="preserve" text-anchor="middle" x="291" y="-450.55" font-family="Arial" font-size="10.00">y ubicación en anaquel</text>
</g>
<!-- 1&#45;&gt;2 -->
<g id="edge2" class="edge">
<title>1&#45;&gt;2</title>
<path fill="none" stroke="#000000" stroke-width="1.2" d="M914.75,-267.47C914.75,-315.86 914.75,-406.95 914.75,-406.95 914.75,-406.95 290.75,-406.95 290.75,-406.95 290.75,-406.95 290.75,-428.03 290.75,-428.03"/>
<polygon fill="#000000" stroke="#000000" stroke-width="1.2" points="288.3,-428.03 290.75,-435.03 293.2,-428.03 288.3,-428.03"/>
</g>
<!-- 8 -->
<g id="node3" class="node">
<title>8</title>
<polygon fill="#ffffff" stroke="#000000" stroke-width="1.5" points="783.75,-165.85 639.75,-165.85 639.75,-108.25 783.75,-108.25 783.75,-165.85"/>
<text xml:space="preserve" text-anchor="middle" x="711.75" y="-151.55" font-family="Arial" font-size="10.00">8</text>
<text xml:space="preserve" text-anchor="middle" x="711.75" y="-139.55" font-family="Arial" font-size="10.00">Recibe refacción y firma</text>
<text xml:space="preserve" text-anchor="middle" x="711.75" y="-127.55" font-family="Arial" font-size="10.00">resguardo de salida</text>
<text xml:space="preserve" text-anchor="middle" x="711.75" y="-115.55" font-family="Arial" font-size="10.00">de almacén</text>
</g>
<!-- FIN -->
<g id="node10" class="node">
<title>FIN</title>
<polygon fill="#ffffff" stroke="#000000" stroke-width="1.5" points="986.75,-91.85 842.75,-91.85 842.75,-34.25 986.75,-34.25 986.75,-91.85"/>
<text xml:space="preserve" text-anchor="middle" x="914.75" y="-59.55" font-family="Arial" font-size="10.00">FIN</text>
</g>
<!-- 8&#45;&gt;FIN -->
<g id="edge10" class="edge">
<title>8&#45;&gt;FIN</title>
<path fill="none" stroke="#000000" stroke-width="1.2" d="M711.75,-107.8C711.75,-87.12 711.75,-63.05 711.75,-63.05 711.75,-63.05 833.22,-63.05 833.22,-63.05"/>
<polygon fill="#ffebee" stroke="#000000" stroke-width="1.2" points="833.22,-65.5 840.22,-63.05 833.22,-60.6 833.22,-65.5"/>
</g>
<!-- 3 -->
<g id="node5" class="node">
<title>3</title>
<polygon fill="#fffde7" stroke="#000000" stroke-width="1.5" points="494,-502.05 422,-458.05 494,-414.05 566,-458.05 494,-502.05"/>
<text xml:space="preserve" text-anchor="middle" x="494" y="-466.55" font-family="Arial" font-size="10.00">3</text>
<text xml:space="preserve" text-anchor="middle" x="494" y="-454.55" font-family="Arial" font-size="10.00">¿Existe en</text>
<text xml:space="preserve" text-anchor="middle" x="494" y="-442.55" font-family="Arial" font-size="10.00">Stock?</text>
</g>
<!-- 2&#45;&gt;3 -->
<g id="edge3" class="edge">
<title>2&#45;&gt;3</title>
<path fill="none" stroke="#000000" stroke-width="1.2" d="M363.71,-466.05C363.71,-466.05 425.01,-466.05 425.01,-466.05"/>
<polygon fill="#000000" stroke="#000000" stroke-width="1.2" points="425.01,-468.5 432.01,-466.05 425.01,-463.6 425.01,-468.5"/>
</g>
<!-- 4 -->
<g id="node6" class="node">
<title>4</title>
<polygon fill="#ffffff" stroke="#000000" stroke-width="1.5" points="783.75,-399.85 639.75,-399.85 639.75,-342.25 783.75,-342.25 783.75,-399.85"/>
<text xml:space="preserve" text-anchor="middle" x="711.75" y="-385.55" font-family="Arial" font-size="10.00">4</text>
<text xml:space="preserve" text-anchor="middle" x="711.75" y="-373.55" font-family="Arial" font-size="10.00">Surtir refacción y</text>
<text xml:space="preserve" text-anchor="middle" x="711.75" y="-361.55" font-family="Arial" font-size="10.00">descontar de inventario</text>
<text xml:space="preserve" text-anchor="middle" x="711.75" y="-349.55" font-family="Arial" font-size="10.00">en sistema</text>
</g>
<!-- 3&#45;&gt;4 -->
<g id="edge4" class="edge">
<title>3&#45;&gt;4</title>
<path fill="none" stroke="#000000" stroke-width="1.2" d="M493.75,-413.46C493.75,-402.51 493.75,-393.85 493.75,-393.85 493.75,-393.85 630.34,-393.85 630.34,-393.85"/>
<polygon fill="#000000" stroke="#000000" stroke-width="1.2" points="630.34,-396.3 637.34,-393.85 630.34,-391.4 630.34,-396.3"/>
<text xml:space="preserve" text-anchor="middle" x="602.88" y="-432.25" font-family="Times New Roman,serif" font-size="14.00"> SÍ</text>
</g>
<!-- 5 -->
<g id="node9" class="node">
<title>5</title>
<polygon fill="#ffffff" stroke="#000000" stroke-width="1.5" points="160,-333.85 16,-333.85 16,-276.25 160,-276.25 160,-333.85"/>
<text xml:space="preserve" text-anchor="middle" x="88" y="-319.55" font-family="Arial" font-size="10.00">5</text>
<text xml:space="preserve" text-anchor="middle" x="88" y="-307.55" font-family="Arial" font-size="10.00">Genera pedido a proveedor</text>
<text xml:space="preserve" text-anchor="middle" x="88" y="-295.55" font-family="Arial" font-size="10.00">y gestiona logística</text>
<text xml:space="preserve" text-anchor="middle" x="88" y="-283.55" font-family="Arial" font-size="10.00">de entrega urgente</text>
</g>
<!-- 3&#45;&gt;5 -->
<g id="edge5" class="edge">
<title>3&#45;&gt;5</title>
<path fill="none" stroke="#000000" stroke-width="1.2" d="M473.85,-425.65C391.88,-425.65 87.75,-425.65 87.75,-425.65 87.75,-425.65 87.75,-343.37 87.75,-343.37"/>
<polygon fill="#000000" stroke="#000000" stroke-width="1.2" points="90.2,-343.37 87.75,-336.37 85.3,-343.37 90.2,-343.37"/>
<text xml:space="preserve" text-anchor="middle" x="291" y="-274.25" font-family="Times New Roman,serif" font-size="14.00"> NO</text>
</g>
<!-- 4&#45;&gt;8 -->
<g id="edge6" class="edge">
<title>4&#45;&gt;8</title>
<path fill="none" stroke="#000000" stroke-width="1.2" d="M784.35,-371.05C800.41,-371.05 812.75,-371.05 812.75,-371.05 812.75,-371.05 812.75,-137.05 812.75,-137.05 812.75,-137.05 793.16,-137.05 793.16,-137.05"/>
<polygon fill="#000000" stroke="#000000" stroke-width="1.2" points="793.16,-134.6 786.16,-137.05 793.16,-139.5 793.16,-134.6"/>
</g>
<!-- 6 -->
<g id="node7" class="node">
<title>6</title>
<polygon fill="#ffffff" stroke="#000000" stroke-width="1.5" points="363,-387.85 219,-387.85 219,-330.25 363,-330.25 363,-387.85"/>
<text xml:space="preserve" text-anchor="middle" x="291" y="-373.55" font-family="Arial" font-size="10.00">6</text>
<text xml:space="preserve" text-anchor="middle" x="291" y="-361.55" font-family="Arial" font-size="10.00">Recibe refacción de</text>
<text xml:space="preserve" text-anchor="middle" x="291" y="-349.55" font-family="Arial" font-size="10.00">proveedor y valida</text>
<text xml:space="preserve" text-anchor="middle" x="291" y="-337.55" font-family="Arial" font-size="10.00">integridad y aplicación</text>
</g>
<!-- 7 -->
<g id="node8" class="node">
<title>7</title>
<polygon fill="#ffffff" stroke="#000000" stroke-width="1.5" points="566,-370.85 422,-370.85 422,-313.25 566,-313.25 566,-370.85"/>
<text xml:space="preserve" text-anchor="middle" x="494" y="-356.55" font-family="Arial" font-size="10.00">7</text>
<text xml:space="preserve" text-anchor="middle" x="494" y="-344.55" font-family="Arial" font-size="10.00">Registra ingreso y</text>
<text xml:space="preserve" text-anchor="middle" x="494" y="-332.55" font-family="Arial" font-size="10.00">asigna folio a la</text>
<text xml:space="preserve" text-anchor="middle" x="494" y="-320.55" font-family="Arial" font-size="10.00">orden en Notion</text>
</g>
<!-- 6&#45;&gt;7 -->
<g id="edge8" class="edge">
<title>6&#45;&gt;7</title>
<path fill="none" stroke="#000000" stroke-width="1.2" d="M363.71,-350.55C363.71,-350.55 412.64,-350.55 412.64,-350.55"/>
<polygon fill="#000000" stroke="#000000" stroke-width="1.2" points="412.64,-353 419.64,-350.55 412.64,-348.1 412.64,-353"/>
</g>
<!-- 7&#45;&gt;8 -->
<g id="edge9" class="edge">
<title>7&#45;&gt;8</title>
<path fill="none" stroke="#000000" stroke-width="1.2" d="M493.75,-312.68C493.75,-255.99 493.75,-137.05 493.75,-137.05 493.75,-137.05 630.34,-137.05 630.34,-137.05"/>
<polygon fill="#000000" stroke="#000000" stroke-width="1.2" points="630.34,-139.5 637.34,-137.05 630.34,-134.6 630.34,-139.5"/>
</g>
<!-- 5&#45;&gt;6 -->
<g id="edge7" class="edge">
<title>5&#45;&gt;6</title>
<path fill="none" stroke="#000000" stroke-width="1.2" d="M160.62,-321.75C218.8,-321.75 290.75,-321.75 290.75,-321.75 290.75,-321.75 290.75,-322.54 290.75,-322.54"/>
<polygon fill="#000000" stroke="#000000" stroke-width="1.2" points="288.3,-320.84 290.75,-327.84 293.2,-320.84 288.3,-320.84"/>
</g>
</g>
</svg>
