<?xml version="1.0" encoding="UTF-8" standalone="no"?>
<!DOCTYPE svg PUBLIC "-//W3C//DTD SVG 1.1//EN"
 "http://www.w3.org/Graphics/SVG/1.1/DTD/svg11.dtd">
<!-- Generated by graphviz version 14.1.2 (20260124.0452)
 -->
<!-- Title: DPO_TIEMPOS_BJX Pages: 1 -->
<svg width="1478pt" height="398pt"
 viewBox="0.00 0.00 1478.00 398.00" xmlns="http://www.w3.org/2000/svg" xmlns:xlink="http://www.w3.org/1999/xlink">
<g id="graph0" class="graph" transform="scale(1 1) rotate(0) translate(4 394.25)">
<title>DPO_TIEMPOS_BJX</title>
<polygon fill="#ffffff" stroke="none" points="-4,4 -4,-394.25 1473.75,-394.25 1473.75,4 -4,4"/>
<polygon fill="none" stroke="black" points="377.5,-4 377.5,-30.25 434.5,-30.25 434.5,-4 377.5,-4"/>
<text xml:space="preserve" text-anchor="start" x="383.5" y="-12.85" font-family="Arial" font-size="12.00">Elaboró:</text>
<polygon fill="none" stroke="black" points="434.5,-4 434.5,-30.25 554.5,-30.25 554.5,-4 434.5,-4"/>
<text xml:space="preserve" text-anchor="start" x="446.88" y="-12.85" font-family="Arial" font-size="12.00">Ing. Emmanuel G.</text>
<polygon fill="none" stroke="black" points="554.5,-4 554.5,-30.25 607,-30.25 607,-4 554.5,-4"/>
<text xml:space="preserve" text-anchor="start" x="560.5" y="-12.85" font-family="Arial" font-size="12.00">Revisó:</text>
<polygon fill="none" stroke="black" points="607,-4 607,-30.25 727,-30.25 727,-4 607,-4"/>
<text xml:space="preserve" text-anchor="start" x="627.25" y="-12.85" font-family="Arial" font-size="12.00">Administración</text>
<polygon fill="none" stroke="black" points="727,-4 727,-30.25 786.25,-30.25 786.25,-4 727,-4"/>
<text xml:space="preserve" text-anchor="start" x="733" y="-12.85" font-family="Arial" font-size="12.00">Autorizó:</text>
<polygon fill="none" stroke="black" points="786.25,-4 786.25,-30.25 906.25,-30.25 906.25,-4 786.25,-4"/>
<text xml:space="preserve" text-anchor="start" x="810.25" y="-12.85" font-family="Arial" font-size="12.00">Carlos (CEO)</text>
<polygon fill="none" stroke="black" points="906.25,-4 906.25,-30.25 1019.5,-30.25 1019.5,-4 906.25,-4"/>
<text xml:space="preserve" text-anchor="start" x="912.25" y="-12.85" font-family="Arial" font-size="12.00">Fecha: 07&#45;02&#45;2026</text>
<polygon fill="none" stroke="black" points="1019.5,-4 1019.5,-30.25 1092.25,-30.25 1092.25,-4 1019.5,-4"/>
<text xml:space="preserve" text-anchor="start" x="1025.5" y="-12.85" font-family="Arial" font-size="12.00">Hoja: 11/18</text>
<g id="clust1" class="cluster">
<title>cluster_tecnico</title>
<polygon fill="#ffffff" stroke="black" stroke-dasharray="1,5" points="505.75,-42.25 505.75,-239.25 868.75,-239.25 868.75,-42.25 505.75,-42.25"/>
<text xml:space="preserve" text-anchor="middle" x="687.25" y="-223.85" font-family="Arial Bold" font-size="12.00">Técnico Mecánico</text>
</g>
<g id="clust2" class="cluster">
<title>cluster_jefe</title>
<polygon fill="#ffffff" stroke="black" stroke-dasharray="1,5" points="8,-256.25 8,-382.25 665.75,-382.25 665.75,-256.25 8,-256.25"/>
<text xml:space="preserve" text-anchor="middle" x="336.88" y="-366.85" font-family="Arial Bold" font-size="12.00">Jefe de Taller</text>
</g>
<g id="clust3" class="cluster">
<title>cluster_admin</title>
<polygon fill="#ffffff" stroke="black" stroke-dasharray="1,5" points="911.75,-143.25 911.75,-239.25 1274.75,-239.25 1274.75,-143.25 911.75,-143.25"/>
<text xml:space="preserve" text-anchor="middle" x="1093.25" y="-223.85" font-family="Arial Bold" font-size="12.00">Administración</text>
</g>
<!-- ST -->
<g id="node1" class="node">
<title>ST</title>
<ellipse fill="#e8f5e9" stroke="#000000" stroke-width="1.5" cx="585.75" cy="-79.25" rx="72" ry="28.8"/>
<text xml:space="preserve" text-anchor="middle" x="585.75" y="-75.75" font-family="Arial" font-size="10.00">INICIO</text>
</g>
<!-- 1 -->
<g id="node2" class="node">
<title>1</title>
<polygon fill="#ffffff" stroke="#000000" stroke-width="1.5" points="860.75,-108.05 716.75,-108.05 716.75,-50.45 860.75,-50.45 860.75,-108.05"/>
<text xml:space="preserve" text-anchor="middle" x="788.75" y="-93.75" font-family="Arial" font-size="10.00">1</text>
<text xml:space="preserve" text-anchor="middle" x="788.75" y="-81.75" font-family="Arial" font-size="10.00">Registra hora de inicio</text>
<text xml:space="preserve" text-anchor="middle" x="788.75" y="-69.75" font-family="Arial" font-size="10.00">en sistema/Notion al</text>
<text xml:space="preserve" text-anchor="middle" x="788.75" y="-57.75" font-family="Arial" font-size="10.00">recibir la unidad</text>
</g>
<!-- ST&#45;&gt;1 -->
<g id="edge1" class="edge">
<title>ST&#45;&gt;1</title>
<path fill="none" stroke="#000000" stroke-width="1.2" d="M658.46,-79.25C658.46,-79.25 707.39,-79.25 707.39,-79.25"/>
<polygon fill="#000000" stroke="#000000" stroke-width="1.2" points="707.39,-81.7 714.39,-79.25 707.39,-76.8 707.39,-81.7"/>
</g>
<!-- 4 -->
<g id="node5" class="node">
<title>4</title>
<polygon fill="#ffffff" stroke="#000000" stroke-width="1.5" points="160,-329.05 16,-329.05 16,-271.45 160,-271.45 160,-329.05"/>
<text xml:space="preserve" text-anchor="middle" x="88" y="-314.75" font-family="Arial" font-size="10.00">4</text>
<text xml:space="preserve" text-anchor="middle" x="88" y="-302.75" font-family="Arial" font-size="10.00">Monitorea avance en</text>
<text xml:space="preserve" text-anchor="middle" x="88" y="-290.75" font-family="Arial" font-size="10.00">tiempo real vs tiempo</text>
<text xml:space="preserve" text-anchor="middle" x="88" y="-278.75" font-family="Arial" font-size="10.00">estándar de manual</text>
</g>
<!-- 1&#45;&gt;4 -->
<g id="edge2" class="edge">
<title>1&#45;&gt;4</title>
<path fill="none" stroke="#000000" stroke-width="1.2" d="M788.75,-108.63C788.75,-119.74 788.75,-129.75 788.75,-129.75 788.75,-129.75 87.75,-129.75 87.75,-129.75 87.75,-129.75 87.75,-262.12 87.75,-262.12"/>
<polygon fill="#000000" stroke="#000000" stroke-width="1.2" points="85.3,-262.12 87.75,-269.12 90.2,-262.12 85.3,-262.12"/>
</g>
<!-- 2 -->
<g id="node3" class="node">
<title>2</title>
<polygon fill="#ffffff" stroke="#000000" stroke-width="1.5" points="657.75,-209.05 513.75,-209.05 513.75,-151.45 657.75,-151.45 657.75,-209.05"/>
<text xml:space="preserve" text-anchor="middle" x="585.75" y="-194.75" font-family="Arial" font-size="10.00">2</text>
<text xml:space="preserve" text-anchor="middle" x="585.75" y="-182.75" font-family="Arial" font-size="10.00">Notifica interrupciones</text>
<text xml:space="preserve" text-anchor="middle" x="585.75" y="-170.75" font-family="Arial" font-size="10.00">(Falta de refacción /</text>
<text xml:space="preserve" text-anchor="middle" x="585.75" y="-158.75" font-family="Arial" font-size="10.00">herramienta)</text>
</g>
<!-- 3 -->
<g id="node4" class="node">
<title>3</title>
<polygon fill="#ffffff" stroke="#000000" stroke-width="1.5" points="860.75,-209.05 716.75,-209.05 716.75,-151.45 860.75,-151.45 860.75,-209.05"/>
<text xml:space="preserve" text-anchor="middle" x="788.75" y="-194.75" font-family="Arial" font-size="10.00">3</text>
<text xml:space="preserve" text-anchor="middle" x="788.75" y="-182.75" font-family="Arial" font-size="10.00">Registra hora de término</text>
<text xml:space="preserve" text-anchor="middle" x="788.75" y="-170.75" font-family="Arial" font-size="10.00">y solicita validación</text>
<text xml:space="preserve" text-anchor="middle" x="788.75" y="-158.75" font-family="Arial" font-size="10.00">del Jefe de Taller</text>
</g>
<!-- 2&#45;&gt;3 -->
<g id="edge7" class="edge">
<title>2&#45;&gt;3</title>
<path fill="none" stroke="#000000" stroke-width="1.2" d="M658.46,-180.25C658.46,-180.25 707.39,-180.25 707.39,-180.25"/>
<polygon fill="#000000" stroke="#000000" stroke-width="1.2" points="707.39,-182.7 714.39,-180.25 707.39,-177.8 707.39,-182.7"/>
</g>
<!-- 7 -->
<g id="node8" class="node">
<title>7</title>
<polygon fill="#ffffff" stroke="#000000" stroke-width="1.5" points="1063.75,-209.05 919.75,-209.05 919.75,-151.45 1063.75,-151.45 1063.75,-209.05"/>
<text xml:space="preserve" text-anchor="middle" x="991.75" y="-194.75" font-family="Arial" font-size="10.00">7</text>
<text xml:space="preserve" text-anchor="middle" x="991.75" y="-182.75" font-family="Arial" font-size="10.00">Calcula eficiencia y</text>
<text xml:space="preserve" text-anchor="middle" x="991.75" y="-170.75" font-family="Arial" font-size="10.00">productividad por técnico</text>
<text xml:space="preserve" text-anchor="middle" x="991.75" y="-158.75" font-family="Arial" font-size="10.00">y por servicio</text>
</g>
<!-- 3&#45;&gt;7 -->
<g id="edge8" class="edge">
<title>3&#45;&gt;7</title>
<path fill="none" stroke="#000000" stroke-width="1.2" d="M861.46,-180.25C861.46,-180.25 910.39,-180.25 910.39,-180.25"/>
<polygon fill="#000000" stroke="#000000" stroke-width="1.2" points="910.39,-182.7 917.39,-180.25 910.39,-177.8 910.39,-182.7"/>
</g>
<!-- 5 -->
<g id="node6" class="node">
<title>5</title>
<polygon fill="#fffde7" stroke="#000000" stroke-width="1.5" points="325.75,-352.25 219,-308.25 325.75,-264.25 432.5,-308.25 325.75,-352.25"/>
<text xml:space="preserve" text-anchor="middle" x="325.75" y="-316.75" font-family="Arial" font-size="10.00">5</text>
<text xml:space="preserve" text-anchor="middle" x="325.75" y="-304.75" font-family="Arial" font-size="10.00">¿Existe</text>
<text xml:space="preserve" text-anchor="middle" x="325.75" y="-292.75" font-family="Arial" font-size="10.00">desviación / retraso?</text>
</g>
<!-- 4&#45;&gt;5 -->
<g id="edge3" class="edge">
<title>4&#45;&gt;5</title>
<path fill="none" stroke="#000000" stroke-width="1.2" d="M160.62,-300.25C160.62,-300.25 227.98,-300.25 227.98,-300.25"/>
<polygon fill="#000000" stroke="#000000" stroke-width="1.2" points="227.98,-302.7 234.98,-300.25 227.98,-297.8 227.98,-302.7"/>
</g>
<!-- 5&#45;&gt;2 -->
<g id="edge5" class="edge">
<title>5&#45;&gt;2</title>
<path fill="none" stroke="#000000" stroke-width="1.2" d="M364.19,-279.35C431.07,-279.35 561.75,-279.35 561.75,-279.35 561.75,-279.35 561.75,-218.53 561.75,-218.53"/>
<polygon fill="#000000" stroke="#000000" stroke-width="1.2" points="564.2,-218.53 561.75,-211.53 559.3,-218.53 564.2,-218.53"/>
<text xml:space="preserve" text-anchor="middle" x="473.12" y="-218.45" font-family="Times New Roman,serif" font-size="14.00"> NO</text>
</g>
<!-- 6 -->
<g id="node7" class="node">
<title>6</title>
<polygon fill="#ffffff" stroke="#000000" stroke-width="1.5" points="657.75,-352.05 513.75,-352.05 513.75,-294.45 657.75,-294.45 657.75,-352.05"/>
<text xml:space="preserve" text-anchor="middle" x="585.75" y="-337.75" font-family="Arial" font-size="10.00">6</text>
<text xml:space="preserve" text-anchor="middle" x="585.75" y="-325.75" font-family="Arial" font-size="10.00">Identifica causa raíz</text>
<text xml:space="preserve" text-anchor="middle" x="585.75" y="-313.75" font-family="Arial" font-size="10.00">y ajusta planeación</text>
<text xml:space="preserve" text-anchor="middle" x="585.75" y="-301.75" font-family="Arial" font-size="10.00">de bahías</text>
</g>
<!-- 5&#45;&gt;6 -->
<g id="edge4" class="edge">
<title>5&#45;&gt;6</title>
<path fill="none" stroke="#000000" stroke-width="1.2" d="M397.83,-323.25C397.83,-323.25 504.26,-323.25 504.26,-323.25"/>
<polygon fill="#000000" stroke="#000000" stroke-width="1.2" points="504.26,-325.7 511.26,-323.25 504.26,-320.8 504.26,-325.7"/>
<text xml:space="preserve" text-anchor="middle" x="473.12" y="-318.45" font-family="Times New Roman,serif" font-size="14.00"> SÍ</text>
</g>
<!-- 6&#45;&gt;2 -->
<g id="edge6" class="edge">
<title>6&#45;&gt;2</title>
<path fill="none" stroke="#000000" stroke-width="1.2" d="M609.75,-293.97C609.75,-293.97 609.75,-218.31 609.75,-218.31"/>
<polygon fill="#000000" stroke="#000000" stroke-width="1.2" points="612.2,-218.31 609.75,-211.31 607.3,-218.31 612.2,-218.31"/>
</g>
<!-- 8 -->
<g id="node9" class="node">
<title>8</title>
<polygon fill="#ffffff" stroke="#000000" stroke-width="1.5" points="1266.75,-209.05 1122.75,-209.05 1122.75,-151.45 1266.75,-151.45 1266.75,-209.05"/>
<text xml:space="preserve" text-anchor="middle" x="1194.75" y="-194.75" font-family="Arial" font-size="10.00">8</text>
<text xml:space="preserve" text-anchor="middle" x="1194.75" y="-182.75" font-family="Arial" font-size="10.00">Genera reporte de KPIs</text>
<text xml:space="preserve" text-anchor="middle" x="1194.75" y="-170.75" font-family="Arial" font-size="10.00">para junta operativa</text>
<text xml:space="preserve" text-anchor="middle" x="1194.75" y="-158.75" font-family="Arial" font-size="10.00">mensual</text>
</g>
<!-- 7&#45;&gt;8 -->
<g id="edge9" class="edge">
<title>7&#45;&gt;8</title>
<path fill="none" stroke="#000000" stroke-width="1.2" d="M1064.46,-180.25C1064.46,-180.25 1113.39,-180.25 1113.39,-180.25"/>
<polygon fill="#000000" stroke="#000000" stroke-width="1.2" points="1113.39,-182.7 1120.39,-180.25 1113.39,-177.8 1113.39,-182.7"/>
</g>
<!-- FIN -->
<g id="node10" class="node">
<title>FIN</title>
<polygon fill="#ffffff" stroke="#000000" stroke-width="1.5" points="1469.75,-209.05 1325.75,-209.05 1325.75,-151.45 1469.75,-151.45 1469.75,-209.05"/>
<text xml:space="preserve" text-anchor="middle" x="1397.75" y="-176.75" font-family="Arial" font-size="10.00">FIN</text>
</g>
<!-- 8&#45;&gt;FIN -->
<g id="edge10" class="edge">
<title>8&#45;&gt;FIN</title>
<path fill="none" stroke="#000000" stroke-width="1.2" d="M1267.46,-180.25C1267.46,-180.25 1316.39,-180.25 1316.39,-180.25"/>
<polygon fill="#ffebee" stroke="#000000" stroke-width="1.2" points="1316.39,-182.7 1323.39,-180.25 1316.39,-177.8 1316.39,-182.7"/>
</g>
</g>
</svg>
