<?xml version="1.0" encoding="UTF-8" standalone="no"?>
<!DOCTYPE svg PUBLIC "-//W3C//DTD SVG 1.1//EN"
 "http://www.w3.org/Graphics/SVG/1.1/DTD/svg11.dtd">
<!-- Generated by graphviz version 14.1.2 (20260124.0452)
 -->
<!-- Title: DPO_REGISTRO_BJX Pages: 1 -->
<svg width="1034pt" height="356pt"
 viewBox="0.00 0.00 1034.00 356.00" xmlns="http://www.w3.org/2000/svg" xmlns:xlink="http://www.w3.org/1999/xlink">
<g id="graph0" class="graph" transform="scale(1 1) rotate(0) translate(4 352.25)">
<title>DPO_REGISTRO_BJX</title>
<polygon fill="#ffffff" stroke="none" points="-4,4 -4,-352.25 1030.25,-352.25 1030.25,4 -4,4"/>
<polygon fill="none" stroke="black" points="155.38,-4 155.38,-30.25 212.38,-30.25 212.38,-4 155.38,-4"/>
<text xml:space="preserve" text-anchor="start" x="161.38" y="-12.85" font-family="Arial" font-size="12.00">Elaboró:</text>
<polygon fill="none" stroke="black" points="212.38,-4 212.38,-30.25 332.38,-30.25 332.38,-4 212.38,-4"/>
<text xml:space="preserve" text-anchor="start" x="224.75" y="-12.85" font-family="Arial" font-size="12.00">Ing. Emmanuel G.</text>
<polygon fill="none" stroke="black" points="332.38,-4 332.38,-30.25 384.88,-30.25 384.88,-4 332.38,-4"/>
<text xml:space="preserve" text-anchor="start" x="338.38" y="-12.85" font-family="Arial" font-size="12.00">Revisó:</text>
<polygon fill="none" stroke="black" points="384.88,-4 384.88,-30.25 504.88,-30.25 504.88,-4 384.88,-4"/>
<text xml:space="preserve" text-anchor="start" x="405.12" y="-12.85" font-family="Arial" font-size="12.00">Administración</text>
<polygon fill="none" stroke="black" points="504.88,-4 504.88,-30.25 564.12,-30.25 564.12,-4 504.88,-4"/>
<text xml:space="preserve" text-anchor="start" x="510.88" y="-12.85" font-family="Arial" font-size="12.00">Autorizó:</text>
<polygon fill="none" stroke="black" points="564.12,-4 564.12,-30.25 684.12,-30.25 684.12,-4 564.12,-4"/>
<text xml:space="preserve" text-anchor="start" x="588.12" y="-12.85" font-family="Arial" font-size="12.00">Carlos (CEO)</text>
<polygon fill="none" stroke="black" points="684.12,-4 684.12,-30.25 797.38,-30.25 797.38,-4 684.12,-4"/>
<text xml:space="preserve" text-anchor="start" x="690.12" y="-12.85" font-family="Arial" font-size="12.00">Fecha: 07&#45;02&#45;2026</text>
<polygon fill="none" stroke="black" points="797.38,-4 797.38,-30.25 870.88,-30.25 870.88,-4 797.38,-4"/>
<text xml:space="preserve" text-anchor="start" x="803.38" y="-12.85" font-family="Arial" font-size="12.00">Hoja: 03/18</text>
<g id="clust1" class="cluster">
<title>cluster_asesora</title>
<polygon fill="#ffffff" stroke="black" stroke-dasharray="1,5" points="265.25,-42.25 265.25,-340.25 831.25,-340.25 831.25,-42.25 265.25,-42.25"/>
<text xml:space="preserve" text-anchor="middle" x="548.25" y="-324.85" font-family="Arial Bold" font-size="12.00">Asesora de Servicios</text>
</g>
<g id="clust2" class="cluster">
<title>cluster_sistemas</title>
<polygon fill="#ffffff" stroke="black" stroke-dasharray="1,5" points="8,-116.25 8,-266.25 200,-266.25 200,-116.25 8,-116.25"/>
<text xml:space="preserve" text-anchor="middle" x="104" y="-250.85" font-family="Arial Bold" font-size="12.00">Administración / Sistemas</text>
</g>
<!-- ST -->
<g id="node1" class="node">
<title>ST</title>
<ellipse fill="#e8f5e9" stroke="#000000" cx="345.25" cy="-79.25" rx="72" ry="28.8"/>
<text xml:space="preserve" text-anchor="middle" x="345.25" y="-75.75" font-family="Arial" font-size="10.00">INICIO</text>
</g>
<!-- 1 -->
<g id="node2" class="node">
<title>1</title>
<polygon fill="#ffffff" stroke="#000000" points="620.25,-108.05 476.25,-108.05 476.25,-50.45 620.25,-50.45 620.25,-108.05"/>
<text xml:space="preserve" text-anchor="middle" x="548.25" y="-93.75" font-family="Arial" font-size="10.00">1</text>
<text xml:space="preserve" text-anchor="middle" x="548.25" y="-81.75" font-family="Arial" font-size="10.00">Solicita identificación</text>
<text xml:space="preserve" text-anchor="middle" x="548.25" y="-69.75" font-family="Arial" font-size="10.00">y tarjeta de circulación</text>
<text xml:space="preserve" text-anchor="middle" x="548.25" y="-57.75" font-family="Arial" font-size="10.00">(Digitalización)</text>
</g>
<!-- ST&#45;&gt;1 -->
<g id="edge1" class="edge">
<title>ST&#45;&gt;1</title>
<path fill="none" stroke="#000000" d="M417.68,-79.25C417.68,-79.25 467.34,-79.25 467.34,-79.25"/>
<polygon fill="#000000" stroke="#000000" points="467.34,-81.7 474.34,-79.25 467.34,-76.8 467.34,-81.7"/>
</g>
<!-- 2 -->
<g id="node7" class="node">
<title>2</title>
<polygon fill="#fffde7" stroke="#000000" points="104,-236.25 16,-180.25 104,-124.25 192,-180.25 104,-236.25"/>
<text xml:space="preserve" text-anchor="middle" x="104" y="-194.75" font-family="Arial" font-size="10.00">2</text>
<text xml:space="preserve" text-anchor="middle" x="104" y="-182.75" font-family="Arial" font-size="10.00">¿Existe registro</text>
<text xml:space="preserve" text-anchor="middle" x="104" y="-170.75" font-family="Arial" font-size="10.00">previo en CRM /</text>
<text xml:space="preserve" text-anchor="middle" x="104" y="-158.75" font-family="Arial" font-size="10.00">Base de Datos?</text>
</g>
<!-- 1&#45;&gt;2 -->
<g id="edge2" class="edge">
<title>1&#45;&gt;2</title>
<path fill="none" stroke="#000000" d="M548.25,-108.55C548.25,-123.2 548.25,-137.85 548.25,-137.85 548.25,-137.85 134.54,-137.85 134.54,-137.85"/>
<polygon fill="#000000" stroke="#000000" points="134.54,-135.4 127.54,-137.85 134.54,-140.3 134.54,-135.4"/>
</g>
<!-- 3 -->
<g id="node3" class="node">
<title>3</title>
<polygon fill="#ffffff" stroke="#000000" points="417.25,-310.05 273.25,-310.05 273.25,-252.45 417.25,-252.45 417.25,-310.05"/>
<text xml:space="preserve" text-anchor="middle" x="345.25" y="-295.75" font-family="Arial" font-size="10.00">3</text>
<text xml:space="preserve" text-anchor="middle" x="345.25" y="-283.75" font-family="Arial" font-size="10.00">Actualiza datos de</text>
<text xml:space="preserve" text-anchor="middle" x="345.25" y="-271.75" font-family="Arial" font-size="10.00">contacto, correo y</text>
<text xml:space="preserve" text-anchor="middle" x="345.25" y="-259.75" font-family="Arial" font-size="10.00">dirección actual</text>
</g>
<!-- 5 -->
<g id="node5" class="node">
<title>5</title>
<polygon fill="#ffffff" stroke="#000000" points="620.25,-259.05 476.25,-259.05 476.25,-201.45 620.25,-201.45 620.25,-259.05"/>
<text xml:space="preserve" text-anchor="middle" x="548.25" y="-244.75" font-family="Arial" font-size="10.00">5</text>
<text xml:space="preserve" text-anchor="middle" x="548.25" y="-232.75" font-family="Arial" font-size="10.00">Registro de datos</text>
<text xml:space="preserve" text-anchor="middle" x="548.25" y="-220.75" font-family="Arial" font-size="10.00">fiscales (CSF actualizada)</text>
<text xml:space="preserve" text-anchor="middle" x="548.25" y="-208.75" font-family="Arial" font-size="10.00">para facturación</text>
</g>
<!-- 3&#45;&gt;5 -->
<g id="edge5" class="edge">
<title>3&#45;&gt;5</title>
<path fill="none" stroke="#000000" d="M369.25,-252.18C369.25,-247.6 369.25,-244.35 369.25,-244.35 369.25,-244.35 467.45,-244.35 467.45,-244.35"/>
<polygon fill="#000000" stroke="#000000" points="467.45,-246.8 474.45,-244.35 467.45,-241.9 467.45,-246.8"/>
</g>
<!-- 4 -->
<g id="node4" class="node">
<title>4</title>
<polygon fill="#ffffff" stroke="#000000" points="417.25,-209.05 273.25,-209.05 273.25,-151.45 417.25,-151.45 417.25,-209.05"/>
<text xml:space="preserve" text-anchor="middle" x="345.25" y="-194.75" font-family="Arial" font-size="10.00">4</text>
<text xml:space="preserve" text-anchor="middle" x="345.25" y="-182.75" font-family="Arial" font-size="10.00">Captura de nuevo</text>
<text xml:space="preserve" text-anchor="middle" x="345.25" y="-170.75" font-family="Arial" font-size="10.00">cliente y vinculación</text>
<text xml:space="preserve" text-anchor="middle" x="345.25" y="-158.75" font-family="Arial" font-size="10.00">de VIN/Placas</text>
</g>
<!-- 4&#45;&gt;5 -->
<g id="edge6" class="edge">
<title>4&#45;&gt;5</title>
<path fill="none" stroke="#000000" d="M417.68,-205.25C417.68,-205.25 467.34,-205.25 467.34,-205.25"/>
<polygon fill="#000000" stroke="#000000" points="467.34,-207.7 474.34,-205.25 467.34,-202.8 467.34,-207.7"/>
</g>
<!-- 6 -->
<g id="node6" class="node">
<title>6</title>
<polygon fill="#ffffff" stroke="#000000" points="823.25,-259.05 679.25,-259.05 679.25,-201.45 823.25,-201.45 823.25,-259.05"/>
<text xml:space="preserve" text-anchor="middle" x="751.25" y="-244.75" font-family="Arial" font-size="10.00">6</text>
<text xml:space="preserve" text-anchor="middle" x="751.25" y="-232.75" font-family="Arial" font-size="10.00">Validación de integridad</text>
<text xml:space="preserve" text-anchor="middle" x="751.25" y="-220.75" font-family="Arial" font-size="10.00">de datos y cierre de</text>
<text xml:space="preserve" text-anchor="middle" x="751.25" y="-208.75" font-family="Arial" font-size="10.00">perfil en Notion</text>
</g>
<!-- 5&#45;&gt;6 -->
<g id="edge7" class="edge">
<title>5&#45;&gt;6</title>
<path fill="none" stroke="#000000" d="M620.68,-230.25C620.68,-230.25 670.34,-230.25 670.34,-230.25"/>
<polygon fill="#000000" stroke="#000000" points="670.34,-232.7 677.34,-230.25 670.34,-227.8 670.34,-232.7"/>
</g>
<!-- FIN -->
<g id="node8" class="node">
<title>FIN</title>
<polygon fill="#ffffff" stroke="#000000" points="1026.25,-259.05 882.25,-259.05 882.25,-201.45 1026.25,-201.45 1026.25,-259.05"/>
<text xml:space="preserve" text-anchor="middle" x="954.25" y="-226.75" font-family="Arial" font-size="10.00">FIN</text>
</g>
<!-- 6&#45;&gt;FIN -->
<g id="edge8" class="edge">
<title>6&#45;&gt;FIN</title>
<path fill="none" stroke="#000000" d="M823.68,-230.25C823.68,-230.25 873.34,-230.25 873.34,-230.25"/>
<polygon fill="#ffebee" stroke="#000000" points="873.34,-232.7 880.34,-230.25 873.34,-227.8 873.34,-232.7"/>
</g>
<!-- 2&#45;&gt;3 -->
<g id="edge3" class="edge">
<title>2&#45;&gt;3</title>
<path fill="none" stroke="#000000" d="M126.03,-222.65C181.26,-222.65 321.25,-222.65 321.25,-222.65 321.25,-222.65 321.25,-243.44 321.25,-243.44"/>
<polygon fill="#000000" stroke="#000000" points="318.8,-243.44 321.25,-250.44 323.7,-243.44 318.8,-243.44"/>
<text xml:space="preserve" text-anchor="middle" x="232.62" y="-266.45" font-family="Times New Roman,serif" font-size="14.00"> SÍ</text>
</g>
<!-- 2&#45;&gt;4 -->
<g id="edge4" class="edge">
<title>2&#45;&gt;4</title>
<path fill="none" stroke="#000000" d="M192.8,-180.25C192.8,-180.25 264.3,-180.25 264.3,-180.25"/>
<polygon fill="#000000" stroke="#000000" points="264.3,-182.7 271.3,-180.25 264.3,-177.8 264.3,-182.7"/>
<text xml:space="preserve" text-anchor="middle" x="232.62" y="-183.45" font-family="Times New Roman,serif" font-size="14.00"> NO</text>
</g>
</g>
</svg>
