<?xml version="1.0" encoding="UTF-8" standalone="no"?>
<!DOCTYPE svg PUBLIC "-//W3C//DTD SVG 1.1//EN"
 "http://www.w3.org/Graphics/SVG/1.1/DTD/svg11.dtd">
<!-- Generated by graphviz version 14.1.2 (20260124.0452)
 -->
<!-- Title: DPO_POSTVENTA_BJX Pages: 1 -->
<svg width="1626pt" height="531pt"
 viewBox="0.00 0.00 1626.00 531.00" xmlns="http://www.w3.org/2000/svg" xmlns:xlink="http://www.w3.org/1999/xlink">
<g id="graph0" class="graph" transform="scale(1 1) rotate(0) translate(4 527.05)">
<title>DPO_POSTVENTA_BJX</title>
<polygon fill="#ffffff" stroke="none" points="-4,4 -4,-527.05 1621.5,-527.05 1621.5,4 -4,4"/>
<polygon fill="none" stroke="black" points="451,-4 451,-30.25 508,-30.25 508,-4 451,-4"/>
<text xml:space="preserve" text-anchor="start" x="457" y="-12.85" font-family="Arial" font-size="12.00">Elaboró:</text>
<polygon fill="none" stroke="black" points="508,-4 508,-30.25 628,-30.25 628,-4 508,-4"/>
<text xml:space="preserve" text-anchor="start" x="520.38" y="-12.85" font-family="Arial" font-size="12.00">Ing. Emmanuel G.</text>
<polygon fill="none" stroke="black" points="628,-4 628,-30.25 680.5,-30.25 680.5,-4 628,-4"/>
<text xml:space="preserve" text-anchor="start" x="634" y="-12.85" font-family="Arial" font-size="12.00">Revisó:</text>
<polygon fill="none" stroke="black" points="680.5,-4 680.5,-30.25 800.5,-30.25 800.5,-4 680.5,-4"/>
<text xml:space="preserve" text-anchor="start" x="689.88" y="-12.85" font-family="Arial" font-size="12.00">Atención al Cliente</text>
<polygon fill="none" stroke="black" points="800.5,-4 800.5,-30.25 859.75,-30.25 859.75,-4 800.5,-4"/>
<text xml:space="preserve" text-anchor="start" x="806.5" y="-12.85" font-family="Arial" font-size="12.00">Autorizó:</text>
<polygon fill="none" stroke="black" points="859.75,-4 859.75,-30.25 979.75,-30.25 979.75,-4 859.75,-4"/>
<text xml:space="preserve" text-anchor="start" x="883.75" y="-12.85" font-family="Arial" font-size="12.00">Carlos (CEO)</text>
<polygon fill="none" stroke="black" points="979.75,-4 979.75,-30.25 1093,-30.25 1093,-4 979.75,-4"/>
<text xml:space="preserve" text-anchor="start" x="985.75" y="-12.85" font-family="Arial" font-size="12.00">Fecha: 07&#45;02&#45;2026</text>
<polygon fill="none" stroke="black" points="1093,-4 1093,-30.25 1166.5,-30.25 1166.5,-4 1093,-4"/>
<text xml:space="preserve" text-anchor="start" x="1099" y="-12.85" font-family="Arial" font-size="12.00">Hoja: 17/18</text>
<g id="clust1" class="cluster">
<title>cluster_asesora</title>
<polygon fill="#ffffff" stroke="black" stroke-dasharray="1,5" points="346.25,-318.05 346.25,-515.05 1406.5,-515.05 1406.5,-318.05 346.25,-318.05"/>
<text xml:space="preserve" text-anchor="middle" x="876.38" y="-499.65" font-family="Arial Bold" font-size="12.00">Asesora de Servicios</text>
</g>
<g id="clust2" class="cluster">
<title>cluster_cliente</title>
<polygon fill="#ffffff" stroke="black" stroke-dasharray="1,5" points="1449.5,-202.05 1449.5,-298.05 1609.5,-298.05 1609.5,-202.05 1449.5,-202.05"/>
<text xml:space="preserve" text-anchor="middle" x="1529.5" y="-282.65" font-family="Arial Bold" font-size="12.00">Cliente</text>
</g>
<g id="clust3" class="cluster">
<title>cluster_jefe</title>
<polygon fill="#ffffff" stroke="black" stroke-dasharray="1,5" points="8,-160.05 8,-310.05 506.25,-310.05 506.25,-160.05 8,-160.05"/>
<text xml:space="preserve" text-anchor="middle" x="257.12" y="-294.65" font-family="Arial Bold" font-size="12.00">Jefe de Taller</text>
</g>
<!-- ST -->
<g id="node1" class="node">
<title>ST</title>
<ellipse fill="#e8f5e9" stroke="#000000" stroke-width="1.5" cx="426.25" cy="-362.05" rx="72" ry="28.8"/>
<text xml:space="preserve" text-anchor="middle" x="426.25" y="-358.55" font-family="Arial" font-size="10.00">INICIO</text>
</g>
<!-- 1 -->
<g id="node2" class="node">
<title>1</title>
<polygon fill="#ffffff" stroke="#000000" stroke-width="1.5" points="763.25,-390.85 619.25,-390.85 619.25,-333.25 763.25,-333.25 763.25,-390.85"/>
<text xml:space="preserve" text-anchor="middle" x="691.25" y="-370.55" font-family="Arial" font-size="10.00">1</text>
<text xml:space="preserve" text-anchor="middle" x="691.25" y="-358.55" font-family="Arial" font-size="10.00">Realiza llamada de cortesía</text>
<text xml:space="preserve" text-anchor="middle" x="691.25" y="-346.55" font-family="Arial" font-size="10.00">(3&#45;7 días post&#45;servicio)</text>
</g>
<!-- ST&#45;&gt;1 -->
<g id="edge1" class="edge">
<title>ST&#45;&gt;1</title>
<path fill="none" stroke="#000000" stroke-width="1.2" d="M498.66,-362.05C498.66,-362.05 610.11,-362.05 610.11,-362.05"/>
<polygon fill="#000000" stroke="#000000" stroke-width="1.2" points="610.11,-364.5 617.11,-362.05 610.11,-359.6 610.11,-364.5"/>
</g>
<!-- 2 -->
<g id="node3" class="node">
<title>2</title>
<polygon fill="#ffffff" stroke="#000000" stroke-width="1.5" points="966.25,-395.85 822.25,-395.85 822.25,-338.25 966.25,-338.25 966.25,-395.85"/>
<text xml:space="preserve" text-anchor="middle" x="894.25" y="-381.55" font-family="Arial" font-size="10.00">2</text>
<text xml:space="preserve" text-anchor="middle" x="894.25" y="-369.55" font-family="Arial" font-size="10.00">Aplica encuesta de</text>
<text xml:space="preserve" text-anchor="middle" x="894.25" y="-357.55" font-family="Arial" font-size="10.00">satisfacción (NPS) y</text>
<text xml:space="preserve" text-anchor="middle" x="894.25" y="-345.55" font-family="Arial" font-size="10.00">registra en Notion</text>
</g>
<!-- 1&#45;&gt;2 -->
<g id="edge2" class="edge">
<title>1&#45;&gt;2</title>
<path fill="none" stroke="#000000" stroke-width="1.2" d="M763.96,-364.55C763.96,-364.55 812.89,-364.55 812.89,-364.55"/>
<polygon fill="#000000" stroke="#000000" stroke-width="1.2" points="812.89,-367 819.89,-364.55 812.89,-362.1 812.89,-367"/>
</g>
<!-- 3 -->
<g id="node4" class="node">
<title>3</title>
<polygon fill="#fffde7" stroke="#000000" stroke-width="1.5" points="1097.25,-414.05 1025.25,-370.05 1097.25,-326.05 1169.25,-370.05 1097.25,-414.05"/>
<text xml:space="preserve" text-anchor="middle" x="1097.25" y="-378.55" font-family="Arial" font-size="10.00">3</text>
<text xml:space="preserve" text-anchor="middle" x="1097.25" y="-366.55" font-family="Arial" font-size="10.00">¿Cliente</text>
<text xml:space="preserve" text-anchor="middle" x="1097.25" y="-354.55" font-family="Arial" font-size="10.00">Satisfecho?</text>
</g>
<!-- 2&#45;&gt;3 -->
<g id="edge3" class="edge">
<title>2&#45;&gt;3</title>
<path fill="none" stroke="#000000" stroke-width="1.2" d="M966.96,-367.05C966.96,-367.05 1019.96,-367.05 1019.96,-367.05"/>
<polygon fill="#000000" stroke="#000000" stroke-width="1.2" points="1019.96,-369.5 1026.96,-367.05 1019.96,-364.6 1019.96,-369.5"/>
</g>
<!-- 4 -->
<g id="node5" class="node">
<title>4</title>
<polygon fill="#ffffff" stroke="#000000" stroke-width="1.5" points="1398.5,-484.85 1250.5,-484.85 1250.5,-427.25 1398.5,-427.25 1398.5,-484.85"/>
<text xml:space="preserve" text-anchor="middle" x="1324.5" y="-464.55" font-family="Arial" font-size="10.00">4</text>
<text xml:space="preserve" text-anchor="middle" x="1324.5" y="-452.55" font-family="Arial" font-size="10.00">Agradece preferencia y</text>
<text xml:space="preserve" text-anchor="middle" x="1324.5" y="-440.55" font-family="Arial" font-size="10.00">programa próximo recordatorio</text>
</g>
<!-- 3&#45;&gt;4 -->
<g id="edge4" class="edge">
<title>3&#45;&gt;4</title>
<path fill="none" stroke="#000000" stroke-width="1.2" d="M1123.32,-398.95C1183.01,-398.95 1324.5,-398.95 1324.5,-398.95 1324.5,-398.95 1324.5,-418.01 1324.5,-418.01"/>
<polygon fill="#000000" stroke="#000000" stroke-width="1.2" points="1322.05,-418.01 1324.5,-425.01 1326.95,-418.01 1322.05,-418.01"/>
<text xml:space="preserve" text-anchor="middle" x="1209.88" y="-448.25" font-family="Times New Roman,serif" font-size="14.00"> SÍ</text>
</g>
<!-- 5 -->
<g id="node6" class="node">
<title>5</title>
<polygon fill="#ffffff" stroke="#000000" stroke-width="1.5" points="1396.5,-383.85 1252.5,-383.85 1252.5,-326.25 1396.5,-326.25 1396.5,-383.85"/>
<text xml:space="preserve" text-anchor="middle" x="1324.5" y="-369.55" font-family="Arial" font-size="10.00">5</text>
<text xml:space="preserve" text-anchor="middle" x="1324.5" y="-357.55" font-family="Arial" font-size="10.00">Detecta inconformidad y</text>
<text xml:space="preserve" text-anchor="middle" x="1324.5" y="-345.55" font-family="Arial" font-size="10.00">clasifica: Atención o</text>
<text xml:space="preserve" text-anchor="middle" x="1324.5" y="-333.55" font-family="Arial" font-size="10.00">Garantía Técnica</text>
</g>
<!-- 3&#45;&gt;5 -->
<g id="edge5" class="edge">
<title>3&#45;&gt;5</title>
<path fill="none" stroke="#000000" stroke-width="1.2" d="M1146,-355.05C1146,-355.05 1243.27,-355.05 1243.27,-355.05"/>
<polygon fill="#000000" stroke="#000000" stroke-width="1.2" points="1243.27,-357.5 1250.27,-355.05 1243.27,-352.6 1243.27,-357.5"/>
<text xml:space="preserve" text-anchor="middle" x="1209.88" y="-372.25" font-family="Times New Roman,serif" font-size="14.00"> NO</text>
</g>
<!-- FIN -->
<g id="node11" class="node">
<title>FIN</title>
<polygon fill="#ffffff" stroke="#000000" stroke-width="1.5" points="1601.5,-484.85 1457.5,-484.85 1457.5,-427.25 1601.5,-427.25 1601.5,-484.85"/>
<text xml:space="preserve" text-anchor="middle" x="1529.5" y="-452.55" font-family="Arial" font-size="10.00">FIN</text>
</g>
<!-- 4&#45;&gt;FIN -->
<g id="edge11" class="edge">
<title>4&#45;&gt;FIN</title>
<path fill="none" stroke="#000000" stroke-width="1.2" d="M1399.09,-456.05C1399.09,-456.05 1448.2,-456.05 1448.2,-456.05"/>
<polygon fill="#ffebee" stroke="#000000" stroke-width="1.2" points="1448.2,-458.5 1455.2,-456.05 1448.2,-453.6 1448.2,-458.5"/>
</g>
<!-- 6 -->
<g id="node7" class="node">
<title>6</title>
<polygon fill="#ffffff" stroke="#000000" stroke-width="1.5" points="1601.5,-267.85 1457.5,-267.85 1457.5,-210.25 1601.5,-210.25 1601.5,-267.85"/>
<text xml:space="preserve" text-anchor="middle" x="1529.5" y="-253.55" font-family="Arial" font-size="10.00">6</text>
<text xml:space="preserve" text-anchor="middle" x="1529.5" y="-241.55" font-family="Arial" font-size="10.00">Reporta falla o duda sobre</text>
<text xml:space="preserve" text-anchor="middle" x="1529.5" y="-229.55" font-family="Arial" font-size="10.00">el servicio ejecutado</text>
<text xml:space="preserve" text-anchor="middle" x="1529.5" y="-217.55" font-family="Arial" font-size="10.00">(Reclamación)</text>
</g>
<!-- 5&#45;&gt;6 -->
<g id="edge6" class="edge">
<title>5&#45;&gt;6</title>
<path fill="none" stroke="#000000" stroke-width="1.2" d="M1324.5,-325.57C1324.5,-292.99 1324.5,-245.05 1324.5,-245.05 1324.5,-245.05 1448.12,-245.05 1448.12,-245.05"/>
<polygon fill="#000000" stroke="#000000" stroke-width="1.2" points="1448.12,-247.5 1455.12,-245.05 1448.12,-242.6 1448.12,-247.5"/>
</g>
<!-- 7 -->
<g id="node8" class="node">
<title>7</title>
<polygon fill="#fffde7" stroke="#000000" stroke-width="1.5" points="144.5,-280.05 16,-224.05 144.5,-168.05 273,-224.05 144.5,-280.05"/>
<text xml:space="preserve" text-anchor="middle" x="144.5" y="-238.55" font-family="Arial" font-size="10.00">7</text>
<text xml:space="preserve" text-anchor="middle" x="144.5" y="-226.55" font-family="Arial" font-size="10.00">Realiza inspección física;</text>
<text xml:space="preserve" text-anchor="middle" x="144.5" y="-214.55" font-family="Arial" font-size="10.00">¿Aplica Garantía?</text>
<text xml:space="preserve" text-anchor="middle" x="144.5" y="-202.55" font-family="Arial" font-size="10.00">(Pieza o Mano de Obra)</text>
</g>
<!-- 6&#45;&gt;7 -->
<g id="edge7" class="edge">
<title>6&#45;&gt;7</title>
<path fill="none" stroke="#000000" stroke-width="1.2" d="M1456.99,-216.25C1456.99,-216.25 265.67,-216.25 265.67,-216.25"/>
<polygon fill="#000000" stroke="#000000" stroke-width="1.2" points="265.67,-213.8 258.67,-216.25 265.67,-218.7 265.67,-213.8"/>
</g>
<!-- 8 -->
<g id="node9" class="node">
<title>8</title>
<polygon fill="#ffffff" stroke="#000000" stroke-width="1.5" points="498.25,-279.85 354.25,-279.85 354.25,-222.25 498.25,-222.25 498.25,-279.85"/>
<text xml:space="preserve" text-anchor="middle" x="426.25" y="-265.55" font-family="Arial" font-size="10.00">8</text>
<text xml:space="preserve" text-anchor="middle" x="426.25" y="-253.55" font-family="Arial" font-size="10.00">Ejecuta reparación a costo</text>
<text xml:space="preserve" text-anchor="middle" x="426.25" y="-241.55" font-family="Arial" font-size="10.00">cero y actualiza historial</text>
<text xml:space="preserve" text-anchor="middle" x="426.25" y="-229.55" font-family="Arial" font-size="10.00">de garantías en Notion</text>
</g>
<!-- 7&#45;&gt;8 -->
<g id="edge8" class="edge">
<title>7&#45;&gt;8</title>
<path fill="none" stroke="#000000" stroke-width="1.2" d="M212.7,-251.05C212.7,-251.05 344.93,-251.05 344.93,-251.05"/>
<polygon fill="#000000" stroke="#000000" stroke-width="1.2" points="344.93,-253.5 351.93,-251.05 344.93,-248.6 344.93,-253.5"/>
<text xml:space="preserve" text-anchor="middle" x="313.62" y="-242.25" font-family="Times New Roman,serif" font-size="14.00"> SÍ</text>
</g>
<!-- FIN_RECH -->
<g id="node10" class="node">
<title>FIN_RECH</title>
<ellipse fill="#ffebee" stroke="#000000" stroke-width="1.5" cx="426.25" cy="-63.05" rx="72" ry="28.8"/>
<text xml:space="preserve" text-anchor="middle" x="426.25" y="-59.55" font-family="Arial" font-size="10.00">FIN (Explicar y Cotizar)</text>
</g>
<!-- 7&#45;&gt;FIN_RECH -->
<g id="edge9" class="edge">
<title>7&#45;&gt;FIN_RECH</title>
<path fill="none" stroke="#000000" stroke-width="1.2" stroke-dasharray="5,2" d="M194.59,-189.15C275.63,-189.15 426.5,-189.15 426.5,-189.15 426.5,-189.15 426.5,-101.11 426.5,-101.11"/>
<polygon fill="#000000" stroke="#000000" stroke-width="1.2" points="428.95,-101.11 426.5,-94.11 424.05,-101.11 428.95,-101.11"/>
<text xml:space="preserve" text-anchor="middle" x="313.62" y="-66.25" font-family="Times New Roman,serif" font-size="14.00"> NO</text>
</g>
<!-- 8&#45;&gt;1 -->
<g id="edge10" class="edge">
<title>8&#45;&gt;1</title>
<path fill="none" stroke="#000000" stroke-width="1.2" stroke-dasharray="5,2" d="M498.73,-273.85C577.27,-273.85 691.5,-273.85 691.5,-273.85 691.5,-273.85 691.5,-323.86 691.5,-323.86"/>
<polygon fill="#000000" stroke="#000000" stroke-width="1.2" points="689.05,-323.86 691.5,-330.86 693.95,-323.86 689.05,-323.86"/>
<text xml:space="preserve" text-anchor="middle" x="558.75" y="-298.25" font-family="Times New Roman,serif" font-size="14.00"> Re&#45;evaluar</text>
</g>
</g>
</svg>
