<?xml version="1.0" encoding="UTF-8" standalone="no"?>
<!DOCTYPE svg PUBLIC "-//W3C//DTD SVG 1.1//EN"
 "http://www.w3.org/Graphics/SVG/1.1/DTD/svg11.dtd">
<!-- Generated by graphviz version 14.1.2 (20260124.0452)
 -->
<!-- Title: DPO_RECEPCION_BJX Pages: 1 -->
<svg width="844pt" height="670pt"
 viewBox="0.00 0.00 844.00 670.00" xmlns="http://www.w3.org/2000/svg" xmlns:xlink="http://www.w3.org/1999/xlink">
<g id="graph0" class="graph" transform="scale(1 1) rotate(0) translate(4 666.25)">
<title>DPO_RECEPCION_BJX</title>
<polygon fill="#ffffff" stroke="none" points="-4,4 -4,-666.25 840,-666.25 840,4 -4,4"/>
<polygon fill="none" stroke="black" points="60.25,-4 60.25,-30.25 117.25,-30.25 117.25,-4 60.25,-4"/>
<text xml:space="preserve" text-anchor="start" x="66.25" y="-12.85" font-family="Arial" font-size="12.00">Elaboró:</text>
<polygon fill="none" stroke="black" points="117.25,-4 117.25,-30.25 237.25,-30.25 237.25,-4 117.25,-4"/>
<text xml:space="preserve" text-anchor="start" x="129.62" y="-12.85" font-family="Arial" font-size="12.00">Ing. Emmanuel G.</text>
<polygon fill="none" stroke="black" points="237.25,-4 237.25,-30.25 289.75,-30.25 289.75,-4 237.25,-4"/>
<text xml:space="preserve" text-anchor="start" x="243.25" y="-12.85" font-family="Arial" font-size="12.00">Revisó:</text>
<polygon fill="none" stroke="black" points="289.75,-4 289.75,-30.25 409.75,-30.25 409.75,-4 289.75,-4"/>
<text xml:space="preserve" text-anchor="start" x="314.12" y="-12.85" font-family="Arial" font-size="12.00">Jefe de Taller</text>
<polygon fill="none" stroke="black" points="409.75,-4 409.75,-30.25 469,-30.25 469,-4 409.75,-4"/>
<text xml:space="preserve" text-anchor="start" x="415.75" y="-12.85" font-family="Arial" font-size="12.00">Autorizó:</text>
<polygon fill="none" stroke="black" points="469,-4 469,-30.25 589,-30.25 589,-4 469,-4"/>
<text xml:space="preserve" text-anchor="start" x="493" y="-12.85" font-family="Arial" font-size="12.00">Carlos (CEO)</text>
<polygon fill="none" stroke="black" points="589,-4 589,-30.25 702.25,-30.25 702.25,-4 589,-4"/>
<text xml:space="preserve" text-anchor="start" x="595" y="-12.85" font-family="Arial" font-size="12.00">Fecha: 07&#45;02&#45;2026</text>
<polygon fill="none" stroke="black" points="702.25,-4 702.25,-30.25 775.75,-30.25 775.75,-4 702.25,-4"/>
<text xml:space="preserve" text-anchor="start" x="708.25" y="-12.85" font-family="Arial" font-size="12.00">Hoja: 02/18</text>
<g id="clust1" class="cluster">
<title>cluster_asesora</title>
<polygon fill="#ffffff" stroke="black" stroke-dasharray="1,5" points="211,-42.25 211,-340.25 828,-340.25 828,-42.25 211,-42.25"/>
<text xml:space="preserve" text-anchor="middle" x="519.5" y="-324.85" font-family="Arial Bold" font-size="12.00">Asesora de Servicios</text>
</g>
<g id="clust2" class="cluster">
<title>cluster_tecnico</title>
<polygon fill="#ffffff" stroke="black" stroke-dasharray="1,5" points="8,-457.25 8,-654.25 828,-654.25 828,-457.25 8,-457.25"/>
<text xml:space="preserve" text-anchor="middle" x="418" y="-638.85" font-family="Arial Bold" font-size="12.00">Técnico / Valuador</text>
</g>
<!-- ST -->
<g id="node1" class="node">
<title>ST</title>
<ellipse fill="#e8f5e9" stroke="#000000" cx="291" cy="-79.25" rx="72" ry="28.8"/>
<text xml:space="preserve" text-anchor="middle" x="291" y="-75.75" font-family="Arial" font-size="10.00">INICIO</text>
</g>
<!-- 1 -->
<g id="node2" class="node">
<title>1</title>
<polygon fill="#ffffff" stroke="#000000" points="595.25,-108.05 451.25,-108.05 451.25,-50.45 595.25,-50.45 595.25,-108.05"/>
<text xml:space="preserve" text-anchor="middle" x="523.25" y="-87.75" font-family="Arial" font-size="10.00">1</text>
<text xml:space="preserve" text-anchor="middle" x="523.25" y="-75.75" font-family="Arial" font-size="10.00">Bienvenida al cliente</text>
<text xml:space="preserve" text-anchor="middle" x="523.25" y="-63.75" font-family="Arial" font-size="10.00">y verificación de cita</text>
</g>
<!-- ST&#45;&gt;1 -->
<g id="edge1" class="edge">
<title>ST&#45;&gt;1</title>
<path fill="none" stroke="#000000" d="M363.21,-79.25C363.21,-79.25 442.57,-79.25 442.57,-79.25"/>
<polygon fill="#000000" stroke="#000000" points="442.57,-81.7 449.57,-79.25 442.57,-76.8 442.57,-81.7"/>
</g>
<!-- 2 -->
<g id="node3" class="node">
<title>2</title>
<polygon fill="#ffffff" stroke="#000000" points="820,-108.05 676,-108.05 676,-50.45 820,-50.45 820,-108.05"/>
<text xml:space="preserve" text-anchor="middle" x="748" y="-93.75" font-family="Arial" font-size="10.00">2</text>
<text xml:space="preserve" text-anchor="middle" x="748" y="-81.75" font-family="Arial" font-size="10.00">Validación de datos</text>
<text xml:space="preserve" text-anchor="middle" x="748" y="-69.75" font-family="Arial" font-size="10.00">y generación de</text>
<text xml:space="preserve" text-anchor="middle" x="748" y="-57.75" font-family="Arial" font-size="10.00">orden preliminar</text>
</g>
<!-- 1&#45;&gt;2 -->
<g id="edge2" class="edge">
<title>1&#45;&gt;2</title>
<path fill="none" stroke="#000000" d="M595.6,-79.25C595.6,-79.25 667.27,-79.25 667.27,-79.25"/>
<polygon fill="#000000" stroke="#000000" points="667.27,-81.7 674.27,-79.25 667.27,-76.8 667.27,-81.7"/>
</g>
<!-- 3 -->
<g id="node6" class="node">
<title>3</title>
<polygon fill="#ffffff" stroke="#000000" points="160,-523.05 16,-523.05 16,-465.45 160,-465.45 160,-523.05"/>
<text xml:space="preserve" text-anchor="middle" x="88" y="-502.75" font-family="Arial" font-size="10.00">3</text>
<text xml:space="preserve" text-anchor="middle" x="88" y="-490.75" font-family="Arial" font-size="10.00">Inspección visual 360°</text>
<text xml:space="preserve" text-anchor="middle" x="88" y="-478.75" font-family="Arial" font-size="10.00">(Golpes, rayones, luces)</text>
</g>
<!-- 2&#45;&gt;3 -->
<g id="edge3" class="edge">
<title>2&#45;&gt;3</title>
<path fill="none" stroke="#000000" d="M748,-108.54C748,-201.2 748,-481.95 748,-481.95 748,-481.95 168.72,-481.95 168.72,-481.95"/>
<polygon fill="#000000" stroke="#000000" points="168.72,-479.5 161.72,-481.95 168.72,-484.4 168.72,-479.5"/>
</g>
<!-- 7 -->
<g id="node4" class="node">
<title>7</title>
<polygon fill="#ffffff" stroke="#000000" points="363,-310.05 219,-310.05 219,-252.45 363,-252.45 363,-310.05"/>
<text xml:space="preserve" text-anchor="middle" x="291" y="-289.75" font-family="Arial" font-size="10.00">7</text>
<text xml:space="preserve" text-anchor="middle" x="291" y="-277.75" font-family="Arial" font-size="10.00">Explicación de términos</text>
<text xml:space="preserve" text-anchor="middle" x="291" y="-265.75" font-family="Arial" font-size="10.00">y recolección de firma</text>
</g>
<!-- 8 -->
<g id="node10" class="node">
<title>8</title>
<polygon fill="#ffffff" stroke="#000000" points="160,-624.05 16,-624.05 16,-566.45 160,-566.45 160,-624.05"/>
<text xml:space="preserve" text-anchor="middle" x="88" y="-609.75" font-family="Arial" font-size="10.00">8</text>
<text xml:space="preserve" text-anchor="middle" x="88" y="-597.75" font-family="Arial" font-size="10.00">Instalación de kit de</text>
<text xml:space="preserve" text-anchor="middle" x="88" y="-585.75" font-family="Arial" font-size="10.00">protección y traslado</text>
<text xml:space="preserve" text-anchor="middle" x="88" y="-573.75" font-family="Arial" font-size="10.00">a zona STBY</text>
</g>
<!-- 7&#45;&gt;8 -->
<g id="edge9" class="edge">
<title>7&#45;&gt;8</title>
<path fill="none" stroke="#000000" d="M218.51,-281.25C207.11,-281.25 199,-281.25 199,-281.25 199,-281.25 199,-604.85 199,-604.85 199,-604.85 169,-604.85 169,-604.85"/>
<polygon fill="#000000" stroke="#000000" points="169,-602.4 162,-604.85 169,-607.3 169,-602.4"/>
</g>
<!-- 9 -->
<g id="node5" class="node">
<title>9</title>
<polygon fill="#ffffff" stroke="#000000" points="363,-209.05 219,-209.05 219,-151.45 363,-151.45 363,-209.05"/>
<text xml:space="preserve" text-anchor="middle" x="291" y="-194.75" font-family="Arial" font-size="10.00">9</text>
<text xml:space="preserve" text-anchor="middle" x="291" y="-182.75" font-family="Arial" font-size="10.00">Actualización de estatus</text>
<text xml:space="preserve" text-anchor="middle" x="291" y="-170.75" font-family="Arial" font-size="10.00">en Notion y entrega</text>
<text xml:space="preserve" text-anchor="middle" x="291" y="-158.75" font-family="Arial" font-size="10.00">de copia al cliente</text>
</g>
<!-- FIN -->
<g id="node11" class="node">
<title>FIN</title>
<polygon fill="#ffffff" stroke="#000000" points="595.25,-406.05 451.25,-406.05 451.25,-348.45 595.25,-348.45 595.25,-406.05"/>
<text xml:space="preserve" text-anchor="middle" x="523.25" y="-373.75" font-family="Arial" font-size="10.00">FIN</text>
</g>
<!-- 9&#45;&gt;FIN -->
<g id="edge11" class="edge">
<title>9&#45;&gt;FIN</title>
<path fill="none" stroke="#000000" d="M363.45,-180.25C431.52,-180.25 523,-180.25 523,-180.25 523,-180.25 523,-339.67 523,-339.67"/>
<polygon fill="#ffebee" stroke="#000000" points="520.55,-339.67 523,-346.67 525.45,-339.67 520.55,-339.67"/>
</g>
<!-- 4 -->
<g id="node7" class="node">
<title>4</title>
<polygon fill="#ffffff" stroke="#000000" points="363,-566.05 219,-566.05 219,-508.45 363,-508.45 363,-566.05"/>
<text xml:space="preserve" text-anchor="middle" x="291" y="-551.75" font-family="Arial" font-size="10.00">4</text>
<text xml:space="preserve" text-anchor="middle" x="291" y="-539.75" font-family="Arial" font-size="10.00">Inventario de interiores</text>
<text xml:space="preserve" text-anchor="middle" x="291" y="-527.75" font-family="Arial" font-size="10.00">(Pertenencias, niveles,</text>
<text xml:space="preserve" text-anchor="middle" x="291" y="-515.75" font-family="Arial" font-size="10.00">kilometraje)</text>
</g>
<!-- 3&#45;&gt;4 -->
<g id="edge4" class="edge">
<title>3&#45;&gt;4</title>
<path fill="none" stroke="#000000" d="M160.43,-515.75C160.43,-515.75 210.09,-515.75 210.09,-515.75"/>
<polygon fill="#000000" stroke="#000000" points="210.09,-518.2 217.09,-515.75 210.09,-513.3 210.09,-518.2"/>
</g>
<!-- 5 -->
<g id="node8" class="node">
<title>5</title>
<polygon fill="#fffde7" stroke="#000000" points="523.25,-624.25 444.25,-580.25 523.25,-536.25 602.25,-580.25 523.25,-624.25"/>
<text xml:space="preserve" text-anchor="middle" x="523.25" y="-588.75" font-family="Arial" font-size="10.00">5</text>
<text xml:space="preserve" text-anchor="middle" x="523.25" y="-576.75" font-family="Arial" font-size="10.00">¿Hallazgos de</text>
<text xml:space="preserve" text-anchor="middle" x="523.25" y="-564.75" font-family="Arial" font-size="10.00">daño previo?</text>
</g>
<!-- 4&#45;&gt;5 -->
<g id="edge5" class="edge">
<title>4&#45;&gt;5</title>
<path fill="none" stroke="#000000" d="M363.21,-551.15C363.21,-551.15 487.16,-551.15 487.16,-551.15"/>
<polygon fill="#000000" stroke="#000000" points="487.16,-553.6 494.16,-551.15 487.16,-548.7 487.16,-553.6"/>
</g>
<!-- 5&#45;&gt;7 -->
<g id="edge7" class="edge">
<title>5&#45;&gt;7</title>
<path fill="none" stroke="#000000" d="M448,-577.67C448,-548.44 448,-281.25 448,-281.25 448,-281.25 371.58,-281.25 371.58,-281.25"/>
<polygon fill="#000000" stroke="#000000" points="371.58,-278.8 364.58,-281.25 371.58,-283.7 371.58,-278.8"/>
<text xml:space="preserve" text-anchor="middle" x="403.62" y="-552.45" font-family="Times New Roman,serif" font-size="14.00"> NO</text>
</g>
<!-- 6 -->
<g id="node9" class="node">
<title>6</title>
<polygon fill="#ffffff" stroke="#000000" points="820,-556.05 676,-556.05 676,-498.45 820,-498.45 820,-556.05"/>
<text xml:space="preserve" text-anchor="middle" x="748" y="-535.75" font-family="Arial" font-size="10.00">6</text>
<text xml:space="preserve" text-anchor="middle" x="748" y="-523.75" font-family="Arial" font-size="10.00">Captura de evidencias</text>
<text xml:space="preserve" text-anchor="middle" x="748" y="-511.75" font-family="Arial" font-size="10.00">fotográficas en Notion</text>
</g>
<!-- 5&#45;&gt;6 -->
<g id="edge6" class="edge">
<title>5&#45;&gt;6</title>
<path fill="none" stroke="#000000" d="M542.03,-546.15C542.03,-546.15 667.1,-546.15 667.1,-546.15"/>
<polygon fill="#000000" stroke="#000000" points="667.1,-548.6 674.1,-546.15 667.1,-543.7 667.1,-548.6"/>
<text xml:space="preserve" text-anchor="middle" x="639.12" y="-563.45" font-family="Times New Roman,serif" font-size="14.00"> SÍ</text>
</g>
<!-- 6&#45;&gt;7 -->
<g id="edge8" class="edge">
<title>6&#45;&gt;7</title>
<path fill="none" stroke="#000000" d="M675.59,-503.45C546.73,-503.45 291,-503.45 291,-503.45 291,-503.45 291,-318.81 291,-318.81"/>
<polygon fill="#000000" stroke="#000000" points="293.45,-318.81 291,-311.81 288.55,-318.81 293.45,-318.81"/>
</g>
<!-- 8&#45;&gt;9 -->
<g id="edge10" class="edge">
<title>8&#45;&gt;9</title>
<path fill="none" stroke="#000000" d="M160.49,-585.65C171.89,-585.65 180,-585.65 180,-585.65 180,-585.65 180,-180.25 180,-180.25 180,-180.25 210,-180.25 210,-180.25"/>
<polygon fill="#000000" stroke="#000000" points="210,-182.7 217,-180.25 210,-177.8 210,-182.7"/>
</g>
</g>
</svg>
