<?xml version="1.0" encoding="UTF-8" standalone="no"?>
<!DOCTYPE svg PUBLIC "-//W3C//DTD SVG 1.1//EN"
 "http://www.w3.org/Graphics/SVG/1.1/DTD/svg11.dtd">
<!-- Generated by graphviz version 14.1.2 (20260124.0452)
 -->
<!-- Title: DPO_CALIDAD_BJX Pages: 1 -->
<svg width="1661pt" height="367pt"
 viewBox="0.00 0.00 1661.00 367.00" xmlns="http://www.w3.org/2000/svg" xmlns:xlink="http://www.w3.org/1999/xlink">
<g id="graph0" class="graph" transform="scale(1 1) rotate(0) translate(4 363.25)">
<title>DPO_CALIDAD_BJX</title>
<polygon fill="#ffffff" stroke="none" points="-4,4 -4,-363.25 1656.75,-363.25 1656.75,4 -4,4"/>
<polygon fill="none" stroke="black" points="468.62,-4 468.62,-30.25 525.62,-30.25 525.62,-4 468.62,-4"/>
<text xml:space="preserve" text-anchor="start" x="474.62" y="-12.85" font-family="Arial" font-size="12.00">Elaboró:</text>
<polygon fill="none" stroke="black" points="525.62,-4 525.62,-30.25 645.62,-30.25 645.62,-4 525.62,-4"/>
<text xml:space="preserve" text-anchor="start" x="538" y="-12.85" font-family="Arial" font-size="12.00">Ing. Emmanuel G.</text>
<polygon fill="none" stroke="black" points="645.62,-4 645.62,-30.25 698.12,-30.25 698.12,-4 645.62,-4"/>
<text xml:space="preserve" text-anchor="start" x="651.62" y="-12.85" font-family="Arial" font-size="12.00">Revisó:</text>
<polygon fill="none" stroke="black" points="698.12,-4 698.12,-30.25 818.12,-30.25 818.12,-4 698.12,-4"/>
<text xml:space="preserve" text-anchor="start" x="722.5" y="-12.85" font-family="Arial" font-size="12.00">Jefe de Taller</text>
<polygon fill="none" stroke="black" points="818.12,-4 818.12,-30.25 877.38,-30.25 877.38,-4 818.12,-4"/>
<text xml:space="preserve" text-anchor="start" x="824.12" y="-12.85" font-family="Arial" font-size="12.00">Autorizó:</text>
<polygon fill="none" stroke="black" points="877.38,-4 877.38,-30.25 997.38,-30.25 997.38,-4 877.38,-4"/>
<text xml:space="preserve" text-anchor="start" x="901.38" y="-12.85" font-family="Arial" font-size="12.00">Carlos (CEO)</text>
<polygon fill="none" stroke="black" points="997.38,-4 997.38,-30.25 1110.62,-30.25 1110.62,-4 997.38,-4"/>
<text xml:space="preserve" text-anchor="start" x="1003.38" y="-12.85" font-family="Arial" font-size="12.00">Fecha: 07&#45;02&#45;2026</text>
<polygon fill="none" stroke="black" points="1110.62,-4 1110.62,-30.25 1184.12,-30.25 1184.12,-4 1110.62,-4"/>
<text xml:space="preserve" text-anchor="start" x="1116.62" y="-12.85" font-family="Arial" font-size="12.00">Hoja: 12/18</text>
<g id="clust1" class="cluster">
<title>cluster_tecnico</title>
<polygon fill="#ffffff" stroke="black" stroke-dasharray="1,5" points="217.25,-255.25 217.25,-351.25 811.75,-351.25 811.75,-255.25 217.25,-255.25"/>
<text xml:space="preserve" text-anchor="middle" x="514.5" y="-335.85" font-family="Arial Bold" font-size="12.00">Técnico Mecánico</text>
</g>
<g id="clust2" class="cluster">
<title>cluster_jefe</title>
<polygon fill="#ffffff" stroke="black" stroke-dasharray="1,5" points="8,-42.25 8,-168.25 811.75,-168.25 811.75,-42.25 8,-42.25"/>
<text xml:space="preserve" text-anchor="middle" x="409.88" y="-152.85" font-family="Arial Bold" font-size="12.00">Jefe de Taller</text>
</g>
<g id="clust3" class="cluster">
<title>cluster_asesora</title>
<polygon fill="#ffffff" stroke="black" stroke-dasharray="1,5" points="877,-58.25 877,-184.25 1457.75,-184.25 1457.75,-58.25 877,-58.25"/>
<text xml:space="preserve" text-anchor="middle" x="1167.38" y="-168.85" font-family="Arial Bold" font-size="12.00">Asesora de Servicios</text>
</g>
<!-- ST -->
<g id="node1" class="node">
<title>ST</title>
<ellipse fill="#e8f5e9" stroke="#000000" stroke-width="1.5" cx="297.25" cy="-292.25" rx="72" ry="28.8"/>
<text xml:space="preserve" text-anchor="middle" x="297.25" y="-288.75" font-family="Arial" font-size="10.00">INICIO</text>
</g>
<!-- 1 -->
<g id="node2" class="node">
<title>1</title>
<polygon fill="#ffffff" stroke="#000000" stroke-width="1.5" points="600.75,-321.05 456.75,-321.05 456.75,-263.45 600.75,-263.45 600.75,-321.05"/>
<text xml:space="preserve" text-anchor="middle" x="528.75" y="-306.75" font-family="Arial" font-size="10.00">1</text>
<text xml:space="preserve" text-anchor="middle" x="528.75" y="-294.75" font-family="Arial" font-size="10.00">Limpia unidad y bahía;</text>
<text xml:space="preserve" text-anchor="middle" x="528.75" y="-282.75" font-family="Arial" font-size="10.00">retira refacciones</text>
<text xml:space="preserve" text-anchor="middle" x="528.75" y="-270.75" font-family="Arial" font-size="10.00">usadas (para cliente)</text>
</g>
<!-- ST&#45;&gt;1 -->
<g id="edge1" class="edge">
<title>ST&#45;&gt;1</title>
<path fill="none" stroke="#000000" stroke-width="1.2" d="M369.86,-292.25C369.86,-292.25 447.58,-292.25 447.58,-292.25"/>
<polygon fill="#000000" stroke="#000000" stroke-width="1.2" points="447.58,-294.7 454.58,-292.25 447.58,-289.8 447.58,-294.7"/>
</g>
<!-- 2 -->
<g id="node3" class="node">
<title>2</title>
<polygon fill="#ffffff" stroke="#000000" stroke-width="1.5" points="803.75,-321.05 659.75,-321.05 659.75,-263.45 803.75,-263.45 803.75,-321.05"/>
<text xml:space="preserve" text-anchor="middle" x="731.75" y="-300.75" font-family="Arial" font-size="10.00">2</text>
<text xml:space="preserve" text-anchor="middle" x="731.75" y="-288.75" font-family="Arial" font-size="10.00">Notifica término de</text>
<text xml:space="preserve" text-anchor="middle" x="731.75" y="-276.75" font-family="Arial" font-size="10.00">servicio para inspección</text>
</g>
<!-- 1&#45;&gt;2 -->
<g id="edge2" class="edge">
<title>1&#45;&gt;2</title>
<path fill="none" stroke="#000000" stroke-width="1.2" d="M601.46,-292.25C601.46,-292.25 650.39,-292.25 650.39,-292.25"/>
<polygon fill="#000000" stroke="#000000" stroke-width="1.2" points="650.39,-294.7 657.39,-292.25 650.39,-289.8 650.39,-294.7"/>
</g>
<!-- 3 -->
<g id="node4" class="node">
<title>3</title>
<polygon fill="#ffffff" stroke="#000000" stroke-width="1.5" points="160,-134.05 16,-134.05 16,-76.45 160,-76.45 160,-134.05"/>
<text xml:space="preserve" text-anchor="middle" x="88" y="-119.75" font-family="Arial" font-size="10.00">3</text>
<text xml:space="preserve" text-anchor="middle" x="88" y="-107.75" font-family="Arial" font-size="10.00">Inspección física vs</text>
<text xml:space="preserve" text-anchor="middle" x="88" y="-95.75" font-family="Arial" font-size="10.00">Orden de Servicio y</text>
<text xml:space="preserve" text-anchor="middle" x="88" y="-83.75" font-family="Arial" font-size="10.00">manual de reparación</text>
</g>
<!-- 2&#45;&gt;3 -->
<g id="edge3" class="edge">
<title>2&#45;&gt;3</title>
<path fill="none" stroke="#000000" stroke-width="1.2" d="M731.75,-263.08C731.75,-239.03 731.75,-208.85 731.75,-208.85 731.75,-208.85 87.75,-208.85 87.75,-208.85 87.75,-208.85 87.75,-143.48 87.75,-143.48"/>
<polygon fill="#000000" stroke="#000000" stroke-width="1.2" points="90.2,-143.48 87.75,-136.48 85.3,-143.48 90.2,-143.48"/>
</g>
<!-- 4 -->
<g id="node5" class="node">
<title>4</title>
<polygon fill="#fffde7" stroke="#000000" stroke-width="1.5" points="297.25,-138.25 219,-94.25 297.25,-50.25 375.5,-94.25 297.25,-138.25"/>
<text xml:space="preserve" text-anchor="middle" x="297.25" y="-102.75" font-family="Arial" font-size="10.00">4</text>
<text xml:space="preserve" text-anchor="middle" x="297.25" y="-90.75" font-family="Arial" font-size="10.00">¿Pasa Prueba</text>
<text xml:space="preserve" text-anchor="middle" x="297.25" y="-78.75" font-family="Arial" font-size="10.00">Técnica?</text>
</g>
<!-- 3&#45;&gt;4 -->
<g id="edge4" class="edge">
<title>3&#45;&gt;4</title>
<path fill="none" stroke="#000000" stroke-width="1.2" d="M160.6,-105.25C160.6,-105.25 228.44,-105.25 228.44,-105.25"/>
<polygon fill="#000000" stroke="#000000" stroke-width="1.2" points="228.44,-107.7 235.44,-105.25 228.44,-102.8 228.44,-107.7"/>
</g>
<!-- 4&#45;&gt;1 -->
<g id="edge5" class="edge">
<title>4&#45;&gt;1</title>
<path fill="none" stroke="#000000" stroke-width="1.2" stroke-dasharray="5,2" d="M305.13,-134.65C343.03,-134.65 504.75,-134.65 504.75,-134.65 504.75,-134.65 504.75,-254.16 504.75,-254.16"/>
<polygon fill="#000000" stroke="#000000" stroke-width="1.2" points="502.3,-254.16 504.75,-261.16 507.2,-254.16 502.3,-254.16"/>
<text xml:space="preserve" text-anchor="middle" x="416.12" y="-218.45" font-family="Times New Roman,serif" font-size="14.00"> NO</text>
</g>
<!-- 5 -->
<g id="node6" class="node">
<title>5</title>
<polygon fill="#ffffff" stroke="#000000" stroke-width="1.5" points="600.75,-125.05 456.75,-125.05 456.75,-67.45 600.75,-67.45 600.75,-125.05"/>
<text xml:space="preserve" text-anchor="middle" x="528.75" y="-110.75" font-family="Arial" font-size="10.00">5</text>
<text xml:space="preserve" text-anchor="middle" x="528.75" y="-98.75" font-family="Arial" font-size="10.00">Realiza prueba de ruta</text>
<text xml:space="preserve" text-anchor="middle" x="528.75" y="-86.75" font-family="Arial" font-size="10.00">y escaneo final de</text>
<text xml:space="preserve" text-anchor="middle" x="528.75" y="-74.75" font-family="Arial" font-size="10.00">confirmación (Cero DTC)</text>
</g>
<!-- 4&#45;&gt;5 -->
<g id="edge6" class="edge">
<title>4&#45;&gt;5</title>
<path fill="none" stroke="#000000" stroke-width="1.2" d="M373.37,-96.25C373.37,-96.25 447.3,-96.25 447.3,-96.25"/>
<polygon fill="#000000" stroke="#000000" stroke-width="1.2" points="447.3,-98.7 454.3,-96.25 447.3,-93.8 447.3,-98.7"/>
<text xml:space="preserve" text-anchor="middle" x="416.12" y="-98.45" font-family="Times New Roman,serif" font-size="14.00"> SÍ</text>
</g>
<!-- 6 -->
<g id="node7" class="node">
<title>6</title>
<polygon fill="#ffffff" stroke="#000000" stroke-width="1.5" points="803.75,-128.05 659.75,-128.05 659.75,-70.45 803.75,-70.45 803.75,-128.05"/>
<text xml:space="preserve" text-anchor="middle" x="731.75" y="-107.75" font-family="Arial" font-size="10.00">6</text>
<text xml:space="preserve" text-anchor="middle" x="731.75" y="-95.75" font-family="Arial" font-size="10.00">Firma liberación técnica</text>
<text xml:space="preserve" text-anchor="middle" x="731.75" y="-83.75" font-family="Arial" font-size="10.00">y actualiza Notion</text>
</g>
<!-- 5&#45;&gt;6 -->
<g id="edge7" class="edge">
<title>5&#45;&gt;6</title>
<path fill="none" stroke="#000000" stroke-width="1.2" d="M601.46,-97.75C601.46,-97.75 650.39,-97.75 650.39,-97.75"/>
<polygon fill="#000000" stroke="#000000" stroke-width="1.2" points="650.39,-100.2 657.39,-97.75 650.39,-95.3 650.39,-100.2"/>
</g>
<!-- 7 -->
<g id="node8" class="node">
<title>7</title>
<polygon fill="#ffffff" stroke="#000000" stroke-width="1.5" points="1029,-131.05 885,-131.05 885,-73.45 1029,-73.45 1029,-131.05"/>
<text xml:space="preserve" text-anchor="middle" x="957" y="-116.75" font-family="Arial" font-size="10.00">7</text>
<text xml:space="preserve" text-anchor="middle" x="957" y="-104.75" font-family="Arial" font-size="10.00">Inspección estética:</text>
<text xml:space="preserve" text-anchor="middle" x="957" y="-92.75" font-family="Arial" font-size="10.00">Limpieza, niveles y</text>
<text xml:space="preserve" text-anchor="middle" x="957" y="-80.75" font-family="Arial" font-size="10.00">kit de protección</text>
</g>
<!-- 6&#45;&gt;7 -->
<g id="edge8" class="edge">
<title>6&#45;&gt;7</title>
<path fill="none" stroke="#000000" stroke-width="1.2" d="M804.26,-100.75C804.26,-100.75 875.81,-100.75 875.81,-100.75"/>
<polygon fill="#000000" stroke="#000000" stroke-width="1.2" points="875.81,-103.2 882.81,-100.75 875.81,-98.3 875.81,-103.2"/>
</g>
<!-- 8 -->
<g id="node9" class="node">
<title>8</title>
<polygon fill="#fffde7" stroke="#000000" stroke-width="1.5" points="1160,-154.25 1088,-110.25 1160,-66.25 1232,-110.25 1160,-154.25"/>
<text xml:space="preserve" text-anchor="middle" x="1160" y="-118.75" font-family="Arial" font-size="10.00">8</text>
<text xml:space="preserve" text-anchor="middle" x="1160" y="-106.75" font-family="Arial" font-size="10.00">¿Calidad</text>
<text xml:space="preserve" text-anchor="middle" x="1160" y="-94.75" font-family="Arial" font-size="10.00">Conforme?</text>
</g>
<!-- 7&#45;&gt;8 -->
<g id="edge9" class="edge">
<title>7&#45;&gt;8</title>
<path fill="none" stroke="#000000" stroke-width="1.2" d="M1029.71,-102.25C1029.71,-102.25 1091.01,-102.25 1091.01,-102.25"/>
<polygon fill="#000000" stroke="#000000" stroke-width="1.2" points="1091.01,-104.7 1098.01,-102.25 1091.01,-99.8 1091.01,-104.7"/>
</g>
<!-- 8&#45;&gt;1 -->
<g id="edge10" class="edge">
<title>8&#45;&gt;1</title>
<path fill="none" stroke="#000000" stroke-width="1.2" stroke-dasharray="5,2" d="M1145.59,-146.25C1053.63,-146.25 552.75,-146.25 552.75,-146.25 552.75,-146.25 552.75,-253.89 552.75,-253.89"/>
<polygon fill="#000000" stroke="#000000" stroke-width="1.2" points="550.3,-253.89 552.75,-260.89 555.2,-253.89 550.3,-253.89"/>
<text xml:space="preserve" text-anchor="middle" x="844.38" y="-201.45" font-family="Times New Roman,serif" font-size="14.00"> NO</text>
</g>
<!-- 9 -->
<g id="node10" class="node">
<title>9</title>
<polygon fill="#ffffff" stroke="#000000" stroke-width="1.5" points="1449.75,-139.05 1305.75,-139.05 1305.75,-81.45 1449.75,-81.45 1449.75,-139.05"/>
<text xml:space="preserve" text-anchor="middle" x="1377.75" y="-118.75" font-family="Arial" font-size="10.00">9</text>
<text xml:space="preserve" text-anchor="middle" x="1377.75" y="-106.75" font-family="Arial" font-size="10.00">Carga reporte de calidad</text>
<text xml:space="preserve" text-anchor="middle" x="1377.75" y="-94.75" font-family="Arial" font-size="10.00">final en Notion</text>
</g>
<!-- 8&#45;&gt;9 -->
<g id="edge11" class="edge">
<title>8&#45;&gt;9</title>
<path fill="none" stroke="#000000" stroke-width="1.2" d="M1233.42,-110.25C1233.42,-110.25 1296.21,-110.25 1296.21,-110.25"/>
<polygon fill="#000000" stroke="#000000" stroke-width="1.2" points="1296.21,-112.7 1303.21,-110.25 1296.21,-107.8 1296.21,-112.7"/>
<text xml:space="preserve" text-anchor="middle" x="1268.88" y="-113.45" font-family="Times New Roman,serif" font-size="14.00"> SÍ</text>
</g>
<!-- FIN -->
<g id="node11" class="node">
<title>FIN</title>
<polygon fill="#ffffff" stroke="#000000" stroke-width="1.5" points="1652.75,-139.05 1508.75,-139.05 1508.75,-81.45 1652.75,-81.45 1652.75,-139.05"/>
<text xml:space="preserve" text-anchor="middle" x="1580.75" y="-106.75" font-family="Arial" font-size="10.00">FIN</text>
</g>
<!-- 9&#45;&gt;FIN -->
<g id="edge12" class="edge">
<title>9&#45;&gt;FIN</title>
<path fill="none" stroke="#000000" stroke-width="1.2" d="M1450.46,-110.25C1450.46,-110.25 1499.39,-110.25 1499.39,-110.25"/>
<polygon fill="#ffebee" stroke="#000000" stroke-width="1.2" points="1499.39,-112.7 1506.39,-110.25 1499.39,-107.8 1499.39,-112.7"/>
</g>
</g>
</svg>
