<?xml version="1.0" encoding="UTF-8" standalone="no"?>
<!DOCTYPE svg PUBLIC "-//W3C//DTD SVG 1.1//EN"
 "http://www.w3.org/Graphics/SVG/1.1/DTD/svg11.dtd">
<!-- Generated by graphviz version 14.1.2 (20260124.0452)
 -->
<!-- Title: DPO_CIERRE_BJX Pages: 1 -->
<svg width="1825pt" height="204pt"
 viewBox="0.00 0.00 1825.00 204.00" xmlns="http://www.w3.org/2000/svg" xmlns:xlink="http://www.w3.org/1999/xlink">
<g id="graph0" class="graph" transform="scale(1 1) rotate(0) translate(4 200.25)">
<title>DPO_CIERRE_BJX</title>
<polygon fill="#ffffff" stroke="none" points="-4,4 -4,-200.25 1821.25,-200.25 1821.25,4 -4,4"/>
<polygon fill="none" stroke="black" points="550.88,-4 550.88,-30.25 607.88,-30.25 607.88,-4 550.88,-4"/>
<text xml:space="preserve" text-anchor="start" x="556.88" y="-12.85" font-family="Arial" font-size="12.00">Elaboró:</text>
<polygon fill="none" stroke="black" points="607.88,-4 607.88,-30.25 727.88,-30.25 727.88,-4 607.88,-4"/>
<text xml:space="preserve" text-anchor="start" x="620.25" y="-12.85" font-family="Arial" font-size="12.00">Ing. Emmanuel G.</text>
<polygon fill="none" stroke="black" points="727.88,-4 727.88,-30.25 780.38,-30.25 780.38,-4 727.88,-4"/>
<text xml:space="preserve" text-anchor="start" x="733.88" y="-12.85" font-family="Arial" font-size="12.00">Revisó:</text>
<polygon fill="none" stroke="black" points="780.38,-4 780.38,-30.25 900.38,-30.25 900.38,-4 780.38,-4"/>
<text xml:space="preserve" text-anchor="start" x="801" y="-12.85" font-family="Arial" font-size="12.00">Control Interno</text>
<polygon fill="none" stroke="black" points="900.38,-4 900.38,-30.25 959.62,-30.25 959.62,-4 900.38,-4"/>
<text xml:space="preserve" text-anchor="start" x="906.38" y="-12.85" font-family="Arial" font-size="12.00">Autorizó:</text>
<polygon fill="none" stroke="black" points="959.62,-4 959.62,-30.25 1079.62,-30.25 1079.62,-4 959.62,-4"/>
<text xml:space="preserve" text-anchor="start" x="983.62" y="-12.85" font-family="Arial" font-size="12.00">Carlos (CEO)</text>
<polygon fill="none" stroke="black" points="1079.62,-4 1079.62,-30.25 1192.88,-30.25 1192.88,-4 1079.62,-4"/>
<text xml:space="preserve" text-anchor="start" x="1085.62" y="-12.85" font-family="Arial" font-size="12.00">Fecha: 07&#45;02&#45;2026</text>
<polygon fill="none" stroke="black" points="1192.88,-4 1192.88,-30.25 1266.38,-30.25 1266.38,-4 1192.88,-4"/>
<text xml:space="preserve" text-anchor="start" x="1198.88" y="-12.85" font-family="Arial" font-size="12.00">Hoja: 13/18</text>
<g id="clust1" class="cluster">
<title>cluster_jefe</title>
<polygon fill="#ffffff" stroke="black" stroke-dasharray="1,5" points="8,-77.25 8,-173.25 574,-173.25 574,-77.25 8,-77.25"/>
<text xml:space="preserve" text-anchor="middle" x="291" y="-157.85" font-family="Arial Bold" font-size="12.00">Jefe de Taller</text>
</g>
<g id="clust2" class="cluster">
<title>cluster_almacen</title>
<polygon fill="#ffffff" stroke="black" stroke-dasharray="1,5" points="617,-62.25 617,-188.25 1216.25,-188.25 1216.25,-62.25 617,-62.25"/>
<text xml:space="preserve" text-anchor="middle" x="916.62" y="-172.85" font-family="Arial Bold" font-size="12.00">Almacén</text>
</g>
<g id="clust3" class="cluster">
<title>cluster_asesora</title>
<polygon fill="#ffffff" stroke="black" stroke-dasharray="1,5" points="1259.25,-69.25 1259.25,-165.25 1622.25,-165.25 1622.25,-69.25 1259.25,-69.25"/>
<text xml:space="preserve" text-anchor="middle" x="1440.75" y="-149.85" font-family="Arial Bold" font-size="12.00">Asesora de Servicios</text>
</g>
<!-- ST -->
<g id="node1" class="node">
<title>ST</title>
<ellipse fill="#e8f5e9" stroke="#000000" stroke-width="1.5" cx="88" cy="-114.25" rx="72" ry="28.8"/>
<text xml:space="preserve" text-anchor="middle" x="88" y="-110.75" font-family="Arial" font-size="10.00">INICIO</text>
</g>
<!-- 1 -->
<g id="node2" class="node">
<title>1</title>
<polygon fill="#ffffff" stroke="#000000" stroke-width="1.5" points="363,-143.05 219,-143.05 219,-85.45 363,-85.45 363,-143.05"/>
<text xml:space="preserve" text-anchor="middle" x="291" y="-128.75" font-family="Arial" font-size="10.00">1</text>
<text xml:space="preserve" text-anchor="middle" x="291" y="-116.75" font-family="Arial" font-size="10.00">Verifica conclusión de</text>
<text xml:space="preserve" text-anchor="middle" x="291" y="-104.75" font-family="Arial" font-size="10.00">protocolo de calidad</text>
<text xml:space="preserve" text-anchor="middle" x="291" y="-92.75" font-family="Arial" font-size="10.00">y pruebas de ruta</text>
</g>
<!-- ST&#45;&gt;1 -->
<g id="edge1" class="edge">
<title>ST&#45;&gt;1</title>
<path fill="none" stroke="#000000" stroke-width="1.2" d="M160.71,-114.25C160.71,-114.25 209.64,-114.25 209.64,-114.25"/>
<polygon fill="#000000" stroke="#000000" stroke-width="1.2" points="209.64,-116.7 216.64,-114.25 209.64,-111.8 209.64,-116.7"/>
</g>
<!-- 2 -->
<g id="node3" class="node">
<title>2</title>
<polygon fill="#ffffff" stroke="#000000" stroke-width="1.5" points="566,-143.05 422,-143.05 422,-85.45 566,-85.45 566,-143.05"/>
<text xml:space="preserve" text-anchor="middle" x="494" y="-128.75" font-family="Arial" font-size="10.00">2</text>
<text xml:space="preserve" text-anchor="middle" x="494" y="-116.75" font-family="Arial" font-size="10.00">Firma orden física y</text>
<text xml:space="preserve" text-anchor="middle" x="494" y="-104.75" font-family="Arial" font-size="10.00">consolida reporte final</text>
<text xml:space="preserve" text-anchor="middle" x="494" y="-92.75" font-family="Arial" font-size="10.00">en Notion</text>
</g>
<!-- 1&#45;&gt;2 -->
<g id="edge2" class="edge">
<title>1&#45;&gt;2</title>
<path fill="none" stroke="#000000" stroke-width="1.2" d="M363.71,-114.25C363.71,-114.25 412.64,-114.25 412.64,-114.25"/>
<polygon fill="#000000" stroke="#000000" stroke-width="1.2" points="412.64,-116.7 419.64,-114.25 412.64,-111.8 412.64,-116.7"/>
</g>
<!-- 3 -->
<g id="node4" class="node">
<title>3</title>
<polygon fill="#ffffff" stroke="#000000" stroke-width="1.5" points="769,-143.05 625,-143.05 625,-85.45 769,-85.45 769,-143.05"/>
<text xml:space="preserve" text-anchor="middle" x="697" y="-128.75" font-family="Arial" font-size="10.00">3</text>
<text xml:space="preserve" text-anchor="middle" x="697" y="-116.75" font-family="Arial" font-size="10.00">Concilia refacciones</text>
<text xml:space="preserve" text-anchor="middle" x="697" y="-104.75" font-family="Arial" font-size="10.00">solicitadas vs piezas</text>
<text xml:space="preserve" text-anchor="middle" x="697" y="-92.75" font-family="Arial" font-size="10.00">instaladas</text>
</g>
<!-- 2&#45;&gt;3 -->
<g id="edge3" class="edge">
<title>2&#45;&gt;3</title>
<path fill="none" stroke="#000000" stroke-width="1.2" d="M566.71,-114.25C566.71,-114.25 615.64,-114.25 615.64,-114.25"/>
<polygon fill="#000000" stroke="#000000" stroke-width="1.2" points="615.64,-116.7 622.64,-114.25 615.64,-111.8 615.64,-116.7"/>
</g>
<!-- 4 -->
<g id="node5" class="node">
<title>4</title>
<polygon fill="#fffde7" stroke="#000000" stroke-width="1.5" points="909.25,-158.25 828,-114.25 909.25,-70.25 990.5,-114.25 909.25,-158.25"/>
<text xml:space="preserve" text-anchor="middle" x="909.25" y="-122.75" font-family="Arial" font-size="10.00">4</text>
<text xml:space="preserve" text-anchor="middle" x="909.25" y="-110.75" font-family="Arial" font-size="10.00">¿Existen</text>
<text xml:space="preserve" text-anchor="middle" x="909.25" y="-98.75" font-family="Arial" font-size="10.00">discrepancias?</text>
</g>
<!-- 3&#45;&gt;4 -->
<g id="edge4" class="edge">
<title>3&#45;&gt;4</title>
<path fill="none" stroke="#000000" stroke-width="1.2" d="M769.75,-114.25C769.75,-114.25 817.94,-114.25 817.94,-114.25"/>
<polygon fill="#000000" stroke="#000000" stroke-width="1.2" points="817.94,-116.7 824.94,-114.25 817.94,-111.8 817.94,-116.7"/>
</g>
<!-- 5 -->
<g id="node6" class="node">
<title>5</title>
<polygon fill="#ffffff" stroke="#000000" stroke-width="1.5" points="1208.25,-151.05 1064.25,-151.05 1064.25,-93.45 1208.25,-93.45 1208.25,-151.05"/>
<text xml:space="preserve" text-anchor="middle" x="1136.25" y="-136.75" font-family="Arial" font-size="10.00">5</text>
<text xml:space="preserve" text-anchor="middle" x="1136.25" y="-124.75" font-family="Arial" font-size="10.00">Realiza ajustes de</text>
<text xml:space="preserve" text-anchor="middle" x="1136.25" y="-112.75" font-family="Arial" font-size="10.00">inventario o cargos</text>
<text xml:space="preserve" text-anchor="middle" x="1136.25" y="-100.75" font-family="Arial" font-size="10.00">adicionales a la orden</text>
</g>
<!-- 4&#45;&gt;5 -->
<g id="edge5" class="edge">
<title>4&#45;&gt;5</title>
<path fill="none" stroke="#000000" stroke-width="1.2" d="M977.05,-122.25C977.05,-122.25 1054.85,-122.25 1054.85,-122.25"/>
<polygon fill="#000000" stroke="#000000" stroke-width="1.2" points="1054.85,-124.7 1061.85,-122.25 1054.85,-119.8 1054.85,-124.7"/>
<text xml:space="preserve" text-anchor="middle" x="1027.38" y="-121.45" font-family="Times New Roman,serif" font-size="14.00"> SÍ</text>
</g>
<!-- 6 -->
<g id="node7" class="node">
<title>6</title>
<polygon fill="#ffffff" stroke="#000000" stroke-width="1.5" points="1411.25,-135.05 1267.25,-135.05 1267.25,-77.45 1411.25,-77.45 1411.25,-135.05"/>
<text xml:space="preserve" text-anchor="middle" x="1339.25" y="-120.75" font-family="Arial" font-size="10.00">6</text>
<text xml:space="preserve" text-anchor="middle" x="1339.25" y="-108.75" font-family="Arial" font-size="10.00">Valida conceptos de</text>
<text xml:space="preserve" text-anchor="middle" x="1339.25" y="-96.75" font-family="Arial" font-size="10.00">mano de obra y carga</text>
<text xml:space="preserve" text-anchor="middle" x="1339.25" y="-84.75" font-family="Arial" font-size="10.00">final de evidencias</text>
</g>
<!-- 4&#45;&gt;6 -->
<g id="edge6" class="edge">
<title>4&#45;&gt;6</title>
<path fill="none" stroke="#000000" stroke-width="1.2" d="M938.81,-85.45C938.81,-85.45 1257.94,-85.45 1257.94,-85.45"/>
<polygon fill="#000000" stroke="#000000" stroke-width="1.2" points="1257.94,-87.9 1264.94,-85.45 1257.94,-83 1257.94,-87.9"/>
<text xml:space="preserve" text-anchor="middle" x="1136.25" y="-37.45" font-family="Times New Roman,serif" font-size="14.00"> NO</text>
</g>
<!-- 5&#45;&gt;6 -->
<g id="edge7" class="edge">
<title>5&#45;&gt;6</title>
<path fill="none" stroke="#000000" stroke-width="1.2" d="M1208.96,-114.25C1208.96,-114.25 1257.89,-114.25 1257.89,-114.25"/>
<polygon fill="#000000" stroke="#000000" stroke-width="1.2" points="1257.89,-116.7 1264.89,-114.25 1257.89,-111.8 1257.89,-116.7"/>
</g>
<!-- 7 -->
<g id="node8" class="node">
<title>7</title>
<polygon fill="#ffffff" stroke="#000000" stroke-width="1.5" points="1614.25,-135.05 1470.25,-135.05 1470.25,-77.45 1614.25,-77.45 1614.25,-135.05"/>
<text xml:space="preserve" text-anchor="middle" x="1542.25" y="-120.75" font-family="Arial" font-size="10.00">7</text>
<text xml:space="preserve" text-anchor="middle" x="1542.25" y="-108.75" font-family="Arial" font-size="10.00">Cambia estatus de orden</text>
<text xml:space="preserve" text-anchor="middle" x="1542.25" y="-96.75" font-family="Arial" font-size="10.00">a &quot;Lista para Cobro&quot;</text>
<text xml:space="preserve" text-anchor="middle" x="1542.25" y="-84.75" font-family="Arial" font-size="10.00">en sistema y Notion</text>
</g>
<!-- 6&#45;&gt;7 -->
<g id="edge8" class="edge">
<title>6&#45;&gt;7</title>
<path fill="none" stroke="#000000" stroke-width="1.2" d="M1411.96,-106.25C1411.96,-106.25 1460.89,-106.25 1460.89,-106.25"/>
<polygon fill="#000000" stroke="#000000" stroke-width="1.2" points="1460.89,-108.7 1467.89,-106.25 1460.89,-103.8 1460.89,-108.7"/>
</g>
<!-- FIN -->
<g id="node9" class="node">
<title>FIN</title>
<polygon fill="#ffffff" stroke="#000000" stroke-width="1.5" points="1817.25,-135.05 1673.25,-135.05 1673.25,-77.45 1817.25,-77.45 1817.25,-135.05"/>
<text xml:space="preserve" text-anchor="middle" x="1745.25" y="-102.75" font-family="Arial" font-size="10.00">FIN</text>
</g>
<!-- 7&#45;&gt;FIN -->
<g id="edge9" class="edge">
<title>7&#45;&gt;FIN</title>
<path fill="none" stroke="#000000" stroke-width="1.2" d="M1614.96,-106.25C1614.96,-106.25 1663.89,-106.25 1663.89,-106.25"/>
<polygon fill="#ffebee" stroke="#000000" stroke-width="1.2" points="1663.89,-108.7 1670.89,-106.25 1663.89,-103.8 1663.89,-108.7"/>
</g>
</g>
</svg>
