<?xml version="1.0" encoding="UTF-8" standalone="no"?>
<!DOCTYPE svg PUBLIC "-//W3C//DTD SVG 1.1//EN"
 "http://www.w3.org/Graphics/SVG/1.1/DTD/svg11.dtd">
<!-- Generated by graphviz version 14.1.2 (20260124.0452)
 -->
<!-- Title: DPO_ENTREGA_BJX Pages: 1 -->
<svg width="1123pt" height="490pt"
 viewBox="0.00 0.00 1123.00 490.00" xmlns="http://www.w3.org/2000/svg" xmlns:xlink="http://www.w3.org/1999/xlink">
<g id="graph0" class="graph" transform="scale(1 1) rotate(0) translate(4 486.25)">
<title>DPO_ENTREGA_BJX</title>
<polygon fill="#ffffff" stroke="none" points="-4,4 -4,-486.25 1118.75,-486.25 1118.75,4 -4,4"/>
<polygon fill="none" stroke="black" points="199.62,-4 199.62,-30.25 256.62,-30.25 256.62,-4 199.62,-4"/>
<text xml:space="preserve" text-anchor="start" x="205.62" y="-12.85" font-family="Arial" font-size="12.00">Elaboró:</text>
<polygon fill="none" stroke="black" points="256.62,-4 256.62,-30.25 376.62,-30.25 376.62,-4 256.62,-4"/>
<text xml:space="preserve" text-anchor="start" x="269" y="-12.85" font-family="Arial" font-size="12.00">Ing. Emmanuel G.</text>
<polygon fill="none" stroke="black" points="376.62,-4 376.62,-30.25 429.12,-30.25 429.12,-4 376.62,-4"/>
<text xml:space="preserve" text-anchor="start" x="382.62" y="-12.85" font-family="Arial" font-size="12.00">Revisó:</text>
<polygon fill="none" stroke="black" points="429.12,-4 429.12,-30.25 549.12,-30.25 549.12,-4 429.12,-4"/>
<text xml:space="preserve" text-anchor="start" x="438.5" y="-12.85" font-family="Arial" font-size="12.00">Atención al Cliente</text>
<polygon fill="none" stroke="black" points="549.12,-4 549.12,-30.25 608.38,-30.25 608.38,-4 549.12,-4"/>
<text xml:space="preserve" text-anchor="start" x="555.12" y="-12.85" font-family="Arial" font-size="12.00">Autorizó:</text>
<polygon fill="none" stroke="black" points="608.38,-4 608.38,-30.25 728.38,-30.25 728.38,-4 608.38,-4"/>
<text xml:space="preserve" text-anchor="start" x="632.38" y="-12.85" font-family="Arial" font-size="12.00">Carlos (CEO)</text>
<polygon fill="none" stroke="black" points="728.38,-4 728.38,-30.25 841.62,-30.25 841.62,-4 728.38,-4"/>
<text xml:space="preserve" text-anchor="start" x="734.38" y="-12.85" font-family="Arial" font-size="12.00">Fecha: 07&#45;02&#45;2026</text>
<polygon fill="none" stroke="black" points="841.62,-4 841.62,-30.25 915.12,-30.25 915.12,-4 841.62,-4"/>
<text xml:space="preserve" text-anchor="start" x="847.62" y="-12.85" font-family="Arial" font-size="12.00">Hoja: 16/18</text>
<g id="clust1" class="cluster">
<title>cluster_asesora</title>
<polygon fill="#ffffff" stroke="black" stroke-dasharray="1,5" points="247.62,-42.25 247.62,-340.25 700.75,-340.25 700.75,-42.25 247.62,-42.25"/>
<text xml:space="preserve" text-anchor="middle" x="474.19" y="-324.85" font-family="Arial Bold" font-size="12.00">Asesora de Servicios</text>
</g>
<g id="clust2" class="cluster">
<title>cluster_lavado</title>
<polygon fill="#ffffff" stroke="black" stroke-dasharray="1,5" points="743.75,-244.25 743.75,-340.25 1106.75,-340.25 1106.75,-244.25 743.75,-244.25"/>
<text xml:space="preserve" text-anchor="middle" x="925.25" y="-324.85" font-family="Arial Bold" font-size="12.00">Lavado / Detallado</text>
</g>
<g id="clust3" class="cluster">
<title>cluster_cliente</title>
<polygon fill="#ffffff" stroke="black" stroke-dasharray="1,5" points="8,-348.25 8,-474.25 429.75,-474.25 429.75,-348.25 8,-348.25"/>
<text xml:space="preserve" text-anchor="middle" x="218.88" y="-458.85" font-family="Arial Bold" font-size="12.00">Cliente</text>
</g>
<!-- ST -->
<g id="node1" class="node">
<title>ST</title>
<ellipse fill="#e8f5e9" stroke="#000000" stroke-width="1.5" cx="327.75" cy="-281.25" rx="72" ry="28.8"/>
<text xml:space="preserve" text-anchor="middle" x="327.75" y="-277.75" font-family="Arial" font-size="10.00">INICIO</text>
</g>
<!-- 1 -->
<g id="node2" class="node">
<title>1</title>
<polygon fill="#ffffff" stroke="#000000" stroke-width="1.5" points="692.75,-310.05 548.75,-310.05 548.75,-252.45 692.75,-252.45 692.75,-310.05"/>
<text xml:space="preserve" text-anchor="middle" x="620.75" y="-295.75" font-family="Arial" font-size="10.00">1</text>
<text xml:space="preserve" text-anchor="middle" x="620.75" y="-283.75" font-family="Arial" font-size="10.00">Verifica estatus de &quot;Pagado&quot;</text>
<text xml:space="preserve" text-anchor="middle" x="620.75" y="-271.75" font-family="Arial" font-size="10.00">y solicita unidad a la</text>
<text xml:space="preserve" text-anchor="middle" x="620.75" y="-259.75" font-family="Arial" font-size="10.00">zona de entrega</text>
</g>
<!-- ST&#45;&gt;1 -->
<g id="edge1" class="edge">
<title>ST&#45;&gt;1</title>
<path fill="none" stroke="#000000" stroke-width="1.2" d="M396.45,-271.65C396.45,-271.65 539.32,-271.65 539.32,-271.65"/>
<polygon fill="#000000" stroke="#000000" stroke-width="1.2" points="539.32,-274.1 546.32,-271.65 539.32,-269.2 539.32,-274.1"/>
</g>
<!-- 2 -->
<g id="node6" class="node">
<title>2</title>
<polygon fill="#ffffff" stroke="#000000" stroke-width="1.5" points="895.75,-310.05 751.75,-310.05 751.75,-252.45 895.75,-252.45 895.75,-310.05"/>
<text xml:space="preserve" text-anchor="middle" x="823.75" y="-295.75" font-family="Arial" font-size="10.00">2</text>
<text xml:space="preserve" text-anchor="middle" x="823.75" y="-283.75" font-family="Arial" font-size="10.00">Realiza limpieza final de</text>
<text xml:space="preserve" text-anchor="middle" x="823.75" y="-271.75" font-family="Arial" font-size="10.00">interiores, cristales y</text>
<text xml:space="preserve" text-anchor="middle" x="823.75" y="-259.75" font-family="Arial" font-size="10.00">abrillantado de llantas</text>
</g>
<!-- 1&#45;&gt;2 -->
<g id="edge2" class="edge">
<title>1&#45;&gt;2</title>
<path fill="none" stroke="#000000" stroke-width="1.2" d="M693.46,-281.25C693.46,-281.25 742.39,-281.25 742.39,-281.25"/>
<polygon fill="#000000" stroke="#000000" stroke-width="1.2" points="742.39,-283.7 749.39,-281.25 742.39,-278.8 742.39,-283.7"/>
</g>
<!-- 4 -->
<g id="node3" class="node">
<title>4</title>
<polygon fill="#ffffff" stroke="#000000" stroke-width="1.5" points="399.75,-108.05 255.75,-108.05 255.75,-50.45 399.75,-50.45 399.75,-108.05"/>
<text xml:space="preserve" text-anchor="middle" x="327.75" y="-93.75" font-family="Arial" font-size="10.00">4</text>
<text xml:space="preserve" text-anchor="middle" x="327.75" y="-81.75" font-family="Arial" font-size="10.00">Explica trabajos realizados,</text>
<text xml:space="preserve" text-anchor="middle" x="327.75" y="-69.75" font-family="Arial" font-size="10.00">entrega piezas usadas</text>
<text xml:space="preserve" text-anchor="middle" x="327.75" y="-57.75" font-family="Arial" font-size="10.00">y póliza de garantía</text>
</g>
<!-- 5 -->
<g id="node8" class="node">
<title>5</title>
<polygon fill="#ffffff" stroke="#000000" stroke-width="1.5" points="160,-421.05 16,-421.05 16,-363.45 160,-363.45 160,-421.05"/>
<text xml:space="preserve" text-anchor="middle" x="88" y="-406.75" font-family="Arial" font-size="10.00">5</text>
<text xml:space="preserve" text-anchor="middle" x="88" y="-394.75" font-family="Arial" font-size="10.00">Inspección visual 360°</text>
<text xml:space="preserve" text-anchor="middle" x="88" y="-382.75" font-family="Arial" font-size="10.00">(Validación de estética</text>
<text xml:space="preserve" text-anchor="middle" x="88" y="-370.75" font-family="Arial" font-size="10.00">y niveles)</text>
</g>
<!-- 4&#45;&gt;5 -->
<g id="edge5" class="edge">
<title>4&#45;&gt;5</title>
<path fill="none" stroke="#000000" stroke-width="1.2" d="M255.09,-79.25C184.45,-79.25 87.75,-79.25 87.75,-79.25 87.75,-79.25 87.75,-353.99 87.75,-353.99"/>
<polygon fill="#000000" stroke="#000000" stroke-width="1.2" points="85.3,-353.99 87.75,-360.99 90.2,-353.99 85.3,-353.99"/>
</g>
<!-- 7 -->
<g id="node4" class="node">
<title>7</title>
<polygon fill="#ffffff" stroke="#000000" stroke-width="1.5" points="399.88,-209.05 255.62,-209.05 255.62,-151.45 399.88,-151.45 399.88,-209.05"/>
<text xml:space="preserve" text-anchor="middle" x="327.75" y="-194.75" font-family="Arial" font-size="10.00">7</text>
<text xml:space="preserve" text-anchor="middle" x="327.75" y="-182.75" font-family="Arial" font-size="10.00">Recaba firma de conformidad</text>
<text xml:space="preserve" text-anchor="middle" x="327.75" y="-170.75" font-family="Arial" font-size="10.00">en la orden de servicio</text>
<text xml:space="preserve" text-anchor="middle" x="327.75" y="-158.75" font-family="Arial" font-size="10.00">y encuesta de salida</text>
</g>
<!-- 8 -->
<g id="node5" class="node">
<title>8</title>
<polygon fill="#ffffff" stroke="#000000" stroke-width="1.5" points="692.75,-209.05 548.75,-209.05 548.75,-151.45 692.75,-151.45 692.75,-209.05"/>
<text xml:space="preserve" text-anchor="middle" x="620.75" y="-194.75" font-family="Arial" font-size="10.00">8</text>
<text xml:space="preserve" text-anchor="middle" x="620.75" y="-182.75" font-family="Arial" font-size="10.00">Entrega llaves, pase de</text>
<text xml:space="preserve" text-anchor="middle" x="620.75" y="-170.75" font-family="Arial" font-size="10.00">salida y despide al</text>
<text xml:space="preserve" text-anchor="middle" x="620.75" y="-158.75" font-family="Arial" font-size="10.00">cliente</text>
</g>
<!-- 7&#45;&gt;8 -->
<g id="edge9" class="edge">
<title>7&#45;&gt;8</title>
<path fill="none" stroke="#000000" stroke-width="1.2" d="M400.55,-170.65C400.55,-170.65 539.25,-170.65 539.25,-170.65"/>
<polygon fill="#000000" stroke="#000000" stroke-width="1.2" points="539.25,-173.1 546.25,-170.65 539.25,-168.2 539.25,-173.1"/>
</g>
<!-- FIN -->
<g id="node10" class="node">
<title>FIN</title>
<polygon fill="#ffffff" stroke="#000000" stroke-width="1.5" points="895.75,-209.05 751.75,-209.05 751.75,-151.45 895.75,-151.45 895.75,-209.05"/>
<text xml:space="preserve" text-anchor="middle" x="823.75" y="-176.75" font-family="Arial" font-size="10.00">FIN</text>
</g>
<!-- 8&#45;&gt;FIN -->
<g id="edge10" class="edge">
<title>8&#45;&gt;FIN</title>
<path fill="none" stroke="#000000" stroke-width="1.2" d="M693.46,-180.25C693.46,-180.25 742.39,-180.25 742.39,-180.25"/>
<polygon fill="#ffebee" stroke="#000000" stroke-width="1.2" points="742.39,-182.7 749.39,-180.25 742.39,-177.8 742.39,-182.7"/>
</g>
<!-- 3 -->
<g id="node7" class="node">
<title>3</title>
<polygon fill="#ffffff" stroke="#000000" stroke-width="1.5" points="1098.75,-310.05 954.75,-310.05 954.75,-252.45 1098.75,-252.45 1098.75,-310.05"/>
<text xml:space="preserve" text-anchor="middle" x="1026.75" y="-295.75" font-family="Arial" font-size="10.00">3</text>
<text xml:space="preserve" text-anchor="middle" x="1026.75" y="-283.75" font-family="Arial" font-size="10.00">Retira kit de protección</text>
<text xml:space="preserve" text-anchor="middle" x="1026.75" y="-271.75" font-family="Arial" font-size="10.00">(Funda de asiento, piso</text>
<text xml:space="preserve" text-anchor="middle" x="1026.75" y="-259.75" font-family="Arial" font-size="10.00">y volante)</text>
</g>
<!-- 2&#45;&gt;3 -->
<g id="edge3" class="edge">
<title>2&#45;&gt;3</title>
<path fill="none" stroke="#000000" stroke-width="1.2" d="M896.46,-281.25C896.46,-281.25 945.39,-281.25 945.39,-281.25"/>
<polygon fill="#000000" stroke="#000000" stroke-width="1.2" points="945.39,-283.7 952.39,-281.25 945.39,-278.8 945.39,-283.7"/>
</g>
<!-- 3&#45;&gt;4 -->
<g id="edge4" class="edge">
<title>3&#45;&gt;4</title>
<path fill="none" stroke="#000000" stroke-width="1.2" d="M1026.75,-251.88C1026.75,-195.85 1026.75,-79.25 1026.75,-79.25 1026.75,-79.25 409.07,-79.25 409.07,-79.25"/>
<polygon fill="#000000" stroke="#000000" stroke-width="1.2" points="409.07,-76.8 402.07,-79.25 409.07,-81.7 409.07,-76.8"/>
</g>
<!-- 6 -->
<g id="node9" class="node">
<title>6</title>
<polygon fill="#fffde7" stroke="#000000" stroke-width="1.5" points="327.75,-444.25 233.75,-400.25 327.75,-356.25 421.75,-400.25 327.75,-444.25"/>
<text xml:space="preserve" text-anchor="middle" x="327.75" y="-408.75" font-family="Arial" font-size="10.00">6</text>
<text xml:space="preserve" text-anchor="middle" x="327.75" y="-396.75" font-family="Arial" font-size="10.00">¿Conforme con el</text>
<text xml:space="preserve" text-anchor="middle" x="327.75" y="-384.75" font-family="Arial" font-size="10.00">servicio?</text>
</g>
<!-- 5&#45;&gt;6 -->
<g id="edge6" class="edge">
<title>5&#45;&gt;6</title>
<path fill="none" stroke="#000000" stroke-width="1.2" d="M160.58,-392.25C160.58,-392.25 240.34,-392.25 240.34,-392.25"/>
<polygon fill="#000000" stroke="#000000" stroke-width="1.2" points="240.34,-394.7 247.34,-392.25 240.34,-389.8 240.34,-394.7"/>
</g>
<!-- 6&#45;&gt;1 -->
<g id="edge8" class="edge">
<title>6&#45;&gt;1</title>
<path fill="none" stroke="#000000" stroke-width="1.2" stroke-dasharray="5,2" d="M414.75,-396.36C414.75,-376.87 414.75,-290.85 414.75,-290.85 414.75,-290.85 539.31,-290.85 539.31,-290.85"/>
<polygon fill="#000000" stroke="#000000" stroke-width="1.2" points="539.31,-293.3 546.31,-290.85 539.31,-288.4 539.31,-293.3"/>
<text xml:space="preserve" text-anchor="middle" x="485.25" y="-368.45" font-family="Times New Roman,serif" font-size="14.00"> NO / Ajuste</text>
</g>
<!-- 6&#45;&gt;7 -->
<g id="edge7" class="edge">
<title>6&#45;&gt;7</title>
<path fill="none" stroke="#000000" stroke-width="1.2" d="M406.75,-392.51C406.75,-354.55 406.75,-189.85 406.75,-189.85 406.75,-189.85 406.13,-189.85 406.13,-189.85"/>
<polygon fill="#000000" stroke="#000000" stroke-width="1.2" points="409.37,-187.4 402.37,-189.85 409.37,-192.3 409.37,-187.4"/>
<text xml:space="preserve" text-anchor="middle" x="196.88" y="-277.2" font-family="Times New Roman,serif" font-size="14.00"> SÍ</text>
</g>
</g>
</svg>
