<?xml version="1.0" encoding="UTF-8" standalone="no"?>
<!DOCTYPE svg PUBLIC "-//W3C//DTD SVG 1.1//EN"
 "http://www.w3.org/Graphics/SVG/1.1/DTD/svg11.dtd">
<!-- Generated by graphviz version 14.1.2 (20260124.0452)
 -->
<!-- Title: DPO_COTIZACION_BJX Pages: 1 -->
<svg width="1300pt" height="534pt"
 viewBox="0.00 0.00 1300.00 534.00" xmlns="http://www.w3.org/2000/svg" xmlns:xlink="http://www.w3.org/1999/xlink">
<g id="graph0" class="graph" transform="scale(1 1) rotate(0) translate(4 530.25)">
<title>DPO_COTIZACION_BJX</title>
<polygon fill="#ffffff" stroke="none" points="-4,4 -4,-530.25 1295.76,-530.25 1295.76,4 -4,4"/>
<polygon fill="none" stroke="black" points="283.63,-4 283.63,-30.25 340.63,-30.25 340.63,-4 283.63,-4"/>
<text xml:space="preserve" text-anchor="start" x="289.63" y="-12.85" font-family="Arial" font-size="12.00">Elaboró:</text>
<polygon fill="none" stroke="black" points="340.63,-4 340.63,-30.25 460.63,-30.25 460.63,-4 340.63,-4"/>
<text xml:space="preserve" text-anchor="start" x="353" y="-12.85" font-family="Arial" font-size="12.00">Ing. Emmanuel G.</text>
<polygon fill="none" stroke="black" points="460.63,-4 460.63,-30.25 513.13,-30.25 513.13,-4 460.63,-4"/>
<text xml:space="preserve" text-anchor="start" x="466.63" y="-12.85" font-family="Arial" font-size="12.00">Revisó:</text>
<polygon fill="none" stroke="black" points="513.13,-4 513.13,-30.25 642.13,-30.25 642.13,-4 513.13,-4"/>
<text xml:space="preserve" text-anchor="start" x="519.13" y="-12.85" font-family="Arial" font-size="12.00">Control de Inventarios</text>
<polygon fill="none" stroke="black" points="642.13,-4 642.13,-30.25 701.38,-30.25 701.38,-4 642.13,-4"/>
<text xml:space="preserve" text-anchor="start" x="648.13" y="-12.85" font-family="Arial" font-size="12.00">Autorizó:</text>
<polygon fill="none" stroke="black" points="701.38,-4 701.38,-30.25 821.38,-30.25 821.38,-4 701.38,-4"/>
<text xml:space="preserve" text-anchor="start" x="725.38" y="-12.85" font-family="Arial" font-size="12.00">Carlos (CEO)</text>
<polygon fill="none" stroke="black" points="821.38,-4 821.38,-30.25 934.63,-30.25 934.63,-4 821.38,-4"/>
<text xml:space="preserve" text-anchor="start" x="827.38" y="-12.85" font-family="Arial" font-size="12.00">Fecha: 07&#45;02&#45;2026</text>
<polygon fill="none" stroke="black" points="934.63,-4 934.63,-30.25 1008.13,-30.25 1008.13,-4 934.63,-4"/>
<text xml:space="preserve" text-anchor="start" x="940.63" y="-12.85" font-family="Arial" font-size="12.00">Hoja: 06/18</text>
<g id="clust1" class="cluster">
<title>cluster_asesora</title>
<polygon fill="#ffffff" stroke="black" stroke-dasharray="1,5" points="458.51,-148.25 458.51,-375.25 1096.76,-375.25 1096.76,-148.25 458.51,-148.25"/>
<text xml:space="preserve" text-anchor="middle" x="777.63" y="-359.85" font-family="Arial Bold" font-size="12.00">Asesora de Servicios</text>
</g>
<g id="clust2" class="cluster">
<title>cluster_almacen</title>
<polygon fill="#ffffff" stroke="black" stroke-dasharray="1,5" points="8,-42.25 8,-140.25 618.51,-140.25 618.51,-42.25 8,-42.25"/>
<text xml:space="preserve" text-anchor="middle" x="313.25" y="-124.85" font-family="Arial Bold" font-size="12.00">Almacén</text>
</g>
<g id="clust3" class="cluster">
<title>cluster_admin</title>
<polygon fill="#ffffff" stroke="black" stroke-dasharray="1,5" points="686.51,-422.25 686.51,-518.25 846.51,-518.25 846.51,-422.25 686.51,-422.25"/>
<text xml:space="preserve" text-anchor="middle" x="766.51" y="-502.85" font-family="Arial Bold" font-size="12.00">Administración</text>
</g>
<!-- ST -->
<g id="node1" class="node">
<title>ST</title>
<ellipse fill="#e8f5e9" stroke="#000000" stroke-width="1.5" cx="538.51" cy="-185.25" rx="72" ry="28.8"/>
<text xml:space="preserve" text-anchor="middle" x="538.51" y="-181.75" font-family="Arial" font-size="10.00">INICIO</text>
</g>
<!-- 1 -->
<g id="node2" class="node">
<title>1</title>
<polygon fill="#ffffff" stroke="#000000" stroke-width="1.5" points="838.51,-214.05 694.51,-214.05 694.51,-156.45 838.51,-156.45 838.51,-214.05"/>
<text xml:space="preserve" text-anchor="middle" x="766.51" y="-199.75" font-family="Arial" font-size="10.00">1</text>
<text xml:space="preserve" text-anchor="middle" x="766.51" y="-187.75" font-family="Arial" font-size="10.00">Recibe diagnóstico</text>
<text xml:space="preserve" text-anchor="middle" x="766.51" y="-175.75" font-family="Arial" font-size="10.00">tecnico y lista de</text>
<text xml:space="preserve" text-anchor="middle" x="766.51" y="-163.75" font-family="Arial" font-size="10.00">refacciones sugeridas</text>
</g>
<!-- ST&#45;&gt;1 -->
<g id="edge1" class="edge">
<title>ST&#45;&gt;1</title>
<path fill="none" stroke="#000000" stroke-width="1.2" d="M610.96,-185.25C610.96,-185.25 685.03,-185.25 685.03,-185.25"/>
<polygon fill="#000000" stroke="#000000" stroke-width="1.2" points="685.03,-187.7 692.03,-185.25 685.03,-182.8 685.03,-187.7"/>
</g>
<!-- 2 -->
<g id="node6" class="node">
<title>2</title>
<polygon fill="#ffffff" stroke="#000000" stroke-width="1.5" points="160,-109.05 16,-109.05 16,-51.45 160,-51.45 160,-109.05"/>
<text xml:space="preserve" text-anchor="middle" x="88" y="-94.75" font-family="Arial" font-size="10.00">2</text>
<text xml:space="preserve" text-anchor="middle" x="88" y="-82.75" font-family="Arial" font-size="10.00">Verifica existencias</text>
<text xml:space="preserve" text-anchor="middle" x="88" y="-70.75" font-family="Arial" font-size="10.00">en inventario y</text>
<text xml:space="preserve" text-anchor="middle" x="88" y="-58.75" font-family="Arial" font-size="10.00">precios vigentes</text>
</g>
<!-- 1&#45;&gt;2 -->
<g id="edge2" class="edge">
<title>1&#45;&gt;2</title>
<path fill="none" stroke="#000000" stroke-width="1.2" d="M329.76,-185.25C329.76,-185.25 87.76,-185.25 87.76,-185.25 87.76,-185.25 87.76,-118.59 87.76,-118.59"/>
<polygon fill="#000000" stroke="#000000" stroke-width="1.2" points="90.21,-118.59 87.76,-111.59 85.31,-118.59 90.21,-118.59"/>
</g>
<!-- 5 -->
<g id="node3" class="node">
<title>5</title>
<polygon fill="#ffffff" stroke="#000000" stroke-width="1.5" points="610.51,-315.05 466.51,-315.05 466.51,-257.45 610.51,-257.45 610.51,-315.05"/>
<text xml:space="preserve" text-anchor="middle" x="538.51" y="-300.75" font-family="Arial" font-size="10.00">5</text>
<text xml:space="preserve" text-anchor="middle" x="538.51" y="-288.75" font-family="Arial" font-size="10.00">Calcula costos de MO</text>
<text xml:space="preserve" text-anchor="middle" x="538.51" y="-276.75" font-family="Arial" font-size="10.00">según tabulador de</text>
<text xml:space="preserve" text-anchor="middle" x="538.51" y="-264.75" font-family="Arial" font-size="10.00">tiempos estándar</text>
</g>
<!-- 6 -->
<g id="node4" class="node">
<title>6</title>
<polygon fill="#fffde7" stroke="#000000" stroke-width="1.5" points="766.51,-345.25 669.51,-301.25 766.51,-257.25 863.51,-301.25 766.51,-345.25"/>
<text xml:space="preserve" text-anchor="middle" x="766.51" y="-309.75" font-family="Arial" font-size="10.00">6</text>
<text xml:space="preserve" text-anchor="middle" x="766.51" y="-297.75" font-family="Arial" font-size="10.00">¿Aplica promoción</text>
<text xml:space="preserve" text-anchor="middle" x="766.51" y="-285.75" font-family="Arial" font-size="10.00">o descuento?</text>
</g>
<!-- 5&#45;&gt;6 -->
<g id="edge7" class="edge">
<title>5&#45;&gt;6</title>
<path fill="none" stroke="#000000" stroke-width="1.2" d="M610.96,-295.85C610.96,-295.85 671.06,-295.85 671.06,-295.85"/>
<polygon fill="#000000" stroke="#000000" stroke-width="1.2" points="671.06,-298.3 678.06,-295.85 671.06,-293.4 671.06,-298.3"/>
</g>
<!-- 8 -->
<g id="node5" class="node">
<title>8</title>
<polygon fill="#ffffff" stroke="#000000" stroke-width="1.5" points="1088.76,-341.05 944.76,-341.05 944.76,-283.45 1088.76,-283.45 1088.76,-341.05"/>
<text xml:space="preserve" text-anchor="middle" x="1016.76" y="-326.75" font-family="Arial" font-size="10.00">8</text>
<text xml:space="preserve" text-anchor="middle" x="1016.76" y="-314.75" font-family="Arial" font-size="10.00">Genera PDF de cotización</text>
<text xml:space="preserve" text-anchor="middle" x="1016.76" y="-302.75" font-family="Arial" font-size="10.00">y actualiza tablero</text>
<text xml:space="preserve" text-anchor="middle" x="1016.76" y="-290.75" font-family="Arial" font-size="10.00">en Notion</text>
</g>
<!-- 6&#45;&gt;8 -->
<g id="edge9" class="edge">
<title>6&#45;&gt;8</title>
<path fill="none" stroke="#000000" stroke-width="1.2" d="M840.91,-312.25C840.91,-312.25 935.54,-312.25 935.54,-312.25"/>
<polygon fill="#000000" stroke="#000000" stroke-width="1.2" points="935.54,-314.7 942.54,-312.25 935.54,-309.8 935.54,-314.7"/>
<text xml:space="preserve" text-anchor="middle" x="904.13" y="-308.45" font-family="Times New Roman,serif" font-size="14.00"> NO</text>
</g>
<!-- 7 -->
<g id="node9" class="node">
<title>7</title>
<polygon fill="#ffffff" stroke="#000000" stroke-width="1.5" points="838.51,-488.05 694.51,-488.05 694.51,-430.45 838.51,-430.45 838.51,-488.05"/>
<text xml:space="preserve" text-anchor="middle" x="766.51" y="-473.75" font-family="Arial" font-size="10.00">7</text>
<text xml:space="preserve" text-anchor="middle" x="766.51" y="-461.75" font-family="Arial" font-size="10.00">Autoriza descuentos</text>
<text xml:space="preserve" text-anchor="middle" x="766.51" y="-449.75" font-family="Arial" font-size="10.00">especiales o cortesías</text>
<text xml:space="preserve" text-anchor="middle" x="766.51" y="-437.75" font-family="Arial" font-size="10.00">según política</text>
</g>
<!-- 6&#45;&gt;7 -->
<g id="edge8" class="edge">
<title>6&#45;&gt;7</title>
<path fill="none" stroke="#000000" stroke-width="1.2" d="M766.76,-345.68C766.76,-345.68 766.76,-421.28 766.76,-421.28"/>
<polygon fill="#000000" stroke="#000000" stroke-width="1.2" points="764.31,-421.28 766.76,-428.28 769.21,-421.28 764.31,-421.28"/>
</g>
<!-- FIN -->
<g id="node10" class="node">
<title>FIN</title>
<polygon fill="#ffffff" stroke="#000000" stroke-width="1.5" points="1291.76,-341.05 1147.76,-341.05 1147.76,-283.45 1291.76,-283.45 1291.76,-341.05"/>
<text xml:space="preserve" text-anchor="middle" x="1219.76" y="-308.75" font-family="Arial" font-size="10.00">FIN</text>
</g>
<!-- 8&#45;&gt;FIN -->
<g id="edge11" class="edge">
<title>8&#45;&gt;FIN</title>
<path fill="none" stroke="#000000" stroke-width="1.2" d="M1089.47,-312.25C1089.47,-312.25 1138.39,-312.25 1138.39,-312.25"/>
<polygon fill="#ffebee" stroke="#000000" stroke-width="1.2" points="1138.39,-314.7 1145.39,-312.25 1138.39,-309.8 1138.39,-314.7"/>
</g>
<!-- 3 -->
<g id="node7" class="node">
<title>3</title>
<polygon fill="#fffde7" stroke="#000000" stroke-width="1.5" points="302.13,-110.05 219,-81.25 302.13,-52.45 385.26,-81.25 302.13,-110.05"/>
<text xml:space="preserve" text-anchor="middle" x="302.13" y="-83.75" font-family="Arial" font-size="10.00">3</text>
<text xml:space="preserve" text-anchor="middle" x="302.13" y="-71.75" font-family="Arial" font-size="10.00">¿Piezas en stock?</text>
</g>
<!-- 2&#45;&gt;3 -->
<g id="edge3" class="edge">
<title>2&#45;&gt;3</title>
<path fill="none" stroke="#000000" stroke-width="1.2" d="M160.49,-80.75C160.49,-80.75 209.44,-80.75 209.44,-80.75"/>
<polygon fill="#000000" stroke="#000000" stroke-width="1.2" points="209.44,-83.2 216.44,-80.75 209.44,-78.3 209.44,-83.2"/>
</g>
<!-- 3&#45;&gt;5 -->
<g id="edge4" class="edge">
<title>3&#45;&gt;5</title>
<path fill="none" stroke="#000000" stroke-width="1.2" d="M274.76,-101.28C274.76,-152.86 274.76,-286.25 274.76,-286.25 274.76,-286.25 457.27,-286.25 457.27,-286.25"/>
<polygon fill="#000000" stroke="#000000" stroke-width="1.2" points="457.27,-288.7 464.27,-286.25 457.27,-283.8 457.27,-288.7"/>
<text xml:space="preserve" text-anchor="middle" x="425.88" y="-225.45" font-family="Times New Roman,serif" font-size="14.00"> SÍ</text>
</g>
<!-- 4 -->
<g id="node8" class="node">
<title>4</title>
<polygon fill="#ffffff" stroke="#000000" stroke-width="1.5" points="610.51,-110.05 466.51,-110.05 466.51,-52.45 610.51,-52.45 610.51,-110.05"/>
<text xml:space="preserve" text-anchor="middle" x="538.51" y="-95.75" font-family="Arial" font-size="10.00">4</text>
<text xml:space="preserve" text-anchor="middle" x="538.51" y="-83.75" font-family="Arial" font-size="10.00">Solicita cotización a</text>
<text xml:space="preserve" text-anchor="middle" x="538.51" y="-71.75" font-family="Arial" font-size="10.00">proveedores externos</text>
<text xml:space="preserve" text-anchor="middle" x="538.51" y="-59.75" font-family="Arial" font-size="10.00">(Urgente)</text>
</g>
<!-- 3&#45;&gt;4 -->
<g id="edge5" class="edge">
<title>3&#45;&gt;4</title>
<path fill="none" stroke="#000000" stroke-width="1.2" d="M387.47,-81.25C387.47,-81.25 456.96,-81.25 456.96,-81.25"/>
<polygon fill="#000000" stroke="#000000" stroke-width="1.2" points="456.96,-83.7 463.96,-81.25 456.96,-78.8 456.96,-83.7"/>
<text xml:space="preserve" text-anchor="middle" x="425.88" y="-96.45" font-family="Times New Roman,serif" font-size="14.00"> NO</text>
</g>
<!-- 4&#45;&gt;5 -->
<g id="edge6" class="edge">
<title>4&#45;&gt;5</title>
<path fill="none" stroke="#000000" stroke-width="1.2" d="M611.01,-81.25C627.24,-81.25 639.76,-81.25 639.76,-81.25 639.76,-81.25 639.76,-276.65 639.76,-276.65 639.76,-276.65 619.83,-276.65 619.83,-276.65"/>
<polygon fill="#000000" stroke="#000000" stroke-width="1.2" points="619.83,-274.2 612.83,-276.65 619.83,-279.1 619.83,-274.2"/>
</g>
<!-- 7&#45;&gt;8 -->
<g id="edge10" class="edge">
<title>7&#45;&gt;8</title>
<path fill="none" stroke="#000000" stroke-width="1.2" d="M839.23,-459.25C913.11,-459.25 1016.76,-459.25 1016.76,-459.25 1016.76,-459.25 1016.76,-350.46 1016.76,-350.46"/>
<polygon fill="#000000" stroke="#000000" stroke-width="1.2" points="1019.21,-350.46 1016.76,-343.46 1014.31,-350.46 1019.21,-350.46"/>
</g>
</g>
</svg>
