<?xml version="1.0" encoding="UTF-8" standalone="no"?>
<!DOCTYPE svg PUBLIC "-//W3C//DTD SVG 1.1//EN"
 "http://www.w3.org/Graphics/SVG/1.1/DTD/svg11.dtd">
<!-- Generated by graphviz version 14.1.2 (20260124.0452)
 -->
<!-- Title: DPO_FACTURACION_BJX Pages: 1 -->
<svg width="1658pt" height="326pt"
 viewBox="0.00 0.00 1658.00 326.00" xmlns="http://www.w3.org/2000/svg" xmlns:xlink="http://www.w3.org/1999/xlink">
<g id="graph0" class="graph" transform="scale(1 1) rotate(0) translate(4 322.25)">
<title>DPO_FACTURACION_BJX</title>
<polygon fill="#ffffff" stroke="none" points="-4,4 -4,-322.25 1653.75,-322.25 1653.75,4 -4,4"/>
<polygon fill="none" stroke="black" points="467.12,-4 467.12,-30.25 524.12,-30.25 524.12,-4 467.12,-4"/>
<text xml:space="preserve" text-anchor="start" x="473.12" y="-12.85" font-family="Arial" font-size="12.00">Elaboró:</text>
<polygon fill="none" stroke="black" points="524.12,-4 524.12,-30.25 644.12,-30.25 644.12,-4 524.12,-4"/>
<text xml:space="preserve" text-anchor="start" x="536.5" y="-12.85" font-family="Arial" font-size="12.00">Ing. Emmanuel G.</text>
<polygon fill="none" stroke="black" points="644.12,-4 644.12,-30.25 696.62,-30.25 696.62,-4 644.12,-4"/>
<text xml:space="preserve" text-anchor="start" x="650.12" y="-12.85" font-family="Arial" font-size="12.00">Revisó:</text>
<polygon fill="none" stroke="black" points="696.62,-4 696.62,-30.25 816.62,-30.25 816.62,-4 696.62,-4"/>
<text xml:space="preserve" text-anchor="start" x="716.88" y="-12.85" font-family="Arial" font-size="12.00">Administración</text>
<polygon fill="none" stroke="black" points="816.62,-4 816.62,-30.25 875.88,-30.25 875.88,-4 816.62,-4"/>
<text xml:space="preserve" text-anchor="start" x="822.62" y="-12.85" font-family="Arial" font-size="12.00">Autorizó:</text>
<polygon fill="none" stroke="black" points="875.88,-4 875.88,-30.25 995.88,-30.25 995.88,-4 875.88,-4"/>
<text xml:space="preserve" text-anchor="start" x="899.88" y="-12.85" font-family="Arial" font-size="12.00">Carlos (CEO)</text>
<polygon fill="none" stroke="black" points="995.88,-4 995.88,-30.25 1109.12,-30.25 1109.12,-4 995.88,-4"/>
<text xml:space="preserve" text-anchor="start" x="1001.88" y="-12.85" font-family="Arial" font-size="12.00">Fecha: 07&#45;02&#45;2026</text>
<polygon fill="none" stroke="black" points="1109.12,-4 1109.12,-30.25 1182.62,-30.25 1182.62,-4 1109.12,-4"/>
<text xml:space="preserve" text-anchor="start" x="1115.12" y="-12.85" font-family="Arial" font-size="12.00">Hoja: 14/18</text>
<g id="clust1" class="cluster">
<title>cluster_asesora</title>
<polygon fill="#ffffff" stroke="black" stroke-dasharray="1,5" points="8,-113.25 8,-310.25 777,-310.25 777,-113.25 8,-113.25"/>
<text xml:space="preserve" text-anchor="middle" x="392.5" y="-294.85" font-family="Arial Bold" font-size="12.00">Asesora de Servicios</text>
</g>
<g id="clust2" class="cluster">
<title>cluster_admin</title>
<polygon fill="#ffffff" stroke="black" stroke-dasharray="1,5" points="820,-42.25 820,-241.25 1641.75,-241.25 1641.75,-42.25 820,-42.25"/>
<text xml:space="preserve" text-anchor="middle" x="1230.88" y="-225.85" font-family="Arial Bold" font-size="12.00">Administración / Caja</text>
</g>
<!-- ST -->
<g id="node1" class="node">
<title>ST</title>
<ellipse fill="#e8f5e9" stroke="#000000" stroke-width="1.5" cx="88" cy="-251.25" rx="72" ry="28.8"/>
<text xml:space="preserve" text-anchor="middle" x="88" y="-247.75" font-family="Arial" font-size="10.00">INICIO</text>
</g>
<!-- 1 -->
<g id="node2" class="node">
<title>1</title>
<polygon fill="#ffffff" stroke="#000000" stroke-width="1.5" points="363,-243.05 219,-243.05 219,-185.45 363,-185.45 363,-243.05"/>
<text xml:space="preserve" text-anchor="middle" x="291" y="-228.75" font-family="Arial" font-size="10.00">1</text>
<text xml:space="preserve" text-anchor="middle" x="291" y="-216.75" font-family="Arial" font-size="10.00">Recibe notificación de</text>
<text xml:space="preserve" text-anchor="middle" x="291" y="-204.75" font-family="Arial" font-size="10.00">cierre técnico y valida</text>
<text xml:space="preserve" text-anchor="middle" x="291" y="-192.75" font-family="Arial" font-size="10.00">montos finales</text>
</g>
<!-- ST&#45;&gt;1 -->
<g id="edge1" class="edge">
<title>ST&#45;&gt;1</title>
<path fill="none" stroke="#000000" stroke-width="1.2" d="M144.55,-232.75C144.55,-232.75 209.59,-232.75 209.59,-232.75"/>
<polygon fill="#000000" stroke="#000000" stroke-width="1.2" points="209.59,-235.2 216.59,-232.75 209.59,-230.3 209.59,-235.2"/>
</g>
<!-- 2 -->
<g id="node3" class="node">
<title>2</title>
<polygon fill="#ffffff" stroke="#000000" stroke-width="1.5" points="566,-240.05 422,-240.05 422,-182.45 566,-182.45 566,-240.05"/>
<text xml:space="preserve" text-anchor="middle" x="494" y="-225.75" font-family="Arial" font-size="10.00">2</text>
<text xml:space="preserve" text-anchor="middle" x="494" y="-213.75" font-family="Arial" font-size="10.00">Confirma con el cliente</text>
<text xml:space="preserve" text-anchor="middle" x="494" y="-201.75" font-family="Arial" font-size="10.00">forma de pago y datos</text>
<text xml:space="preserve" text-anchor="middle" x="494" y="-189.75" font-family="Arial" font-size="10.00">fiscales (RFC)</text>
</g>
<!-- 1&#45;&gt;2 -->
<g id="edge2" class="edge">
<title>1&#45;&gt;2</title>
<path fill="none" stroke="#000000" stroke-width="1.2" d="M363.71,-212.75C363.71,-212.75 412.64,-212.75 412.64,-212.75"/>
<polygon fill="#000000" stroke="#000000" stroke-width="1.2" points="412.64,-215.2 419.64,-212.75 412.64,-210.3 412.64,-215.2"/>
</g>
<!-- 3 -->
<g id="node4" class="node">
<title>3</title>
<polygon fill="#ffffff" stroke="#000000" stroke-width="1.5" points="769,-218.05 625,-218.05 625,-160.45 769,-160.45 769,-218.05"/>
<text xml:space="preserve" text-anchor="middle" x="697" y="-203.75" font-family="Arial" font-size="10.00">3</text>
<text xml:space="preserve" text-anchor="middle" x="697" y="-191.75" font-family="Arial" font-size="10.00">Genera pre&#45;factura o</text>
<text xml:space="preserve" text-anchor="middle" x="697" y="-179.75" font-family="Arial" font-size="10.00">ticket de venta en</text>
<text xml:space="preserve" text-anchor="middle" x="697" y="-167.75" font-family="Arial" font-size="10.00">el sistema administrativo</text>
</g>
<!-- 2&#45;&gt;3 -->
<g id="edge3" class="edge">
<title>2&#45;&gt;3</title>
<path fill="none" stroke="#000000" stroke-width="1.2" d="M566.71,-200.25C566.71,-200.25 615.64,-200.25 615.64,-200.25"/>
<polygon fill="#000000" stroke="#000000" stroke-width="1.2" points="615.64,-202.7 622.64,-200.25 615.64,-197.8 615.64,-202.7"/>
</g>
<!-- 4 -->
<g id="node6" class="node">
<title>4</title>
<polygon fill="#ffffff" stroke="#000000" stroke-width="1.5" points="972,-206.05 828,-206.05 828,-148.45 972,-148.45 972,-206.05"/>
<text xml:space="preserve" text-anchor="middle" x="900" y="-191.75" font-family="Arial" font-size="10.00">4</text>
<text xml:space="preserve" text-anchor="middle" x="900" y="-179.75" font-family="Arial" font-size="10.00">Verifica ingreso de</text>
<text xml:space="preserve" text-anchor="middle" x="900" y="-167.75" font-family="Arial" font-size="10.00">pago (Transferencia, Card,</text>
<text xml:space="preserve" text-anchor="middle" x="900" y="-155.75" font-family="Arial" font-size="10.00">Efectivo)</text>
</g>
<!-- 3&#45;&gt;4 -->
<g id="edge4" class="edge">
<title>3&#45;&gt;4</title>
<path fill="none" stroke="#000000" stroke-width="1.2" d="M769.71,-183.25C769.71,-183.25 818.64,-183.25 818.64,-183.25"/>
<polygon fill="#000000" stroke="#000000" stroke-width="1.2" points="818.64,-185.7 825.64,-183.25 818.64,-180.8 818.64,-185.7"/>
</g>
<!-- 8 -->
<g id="node5" class="node">
<title>8</title>
<polygon fill="#ffffff" stroke="#000000" stroke-width="1.5" points="160,-179.05 16,-179.05 16,-121.45 160,-121.45 160,-179.05"/>
<text xml:space="preserve" text-anchor="middle" x="88" y="-164.75" font-family="Arial" font-size="10.00">8</text>
<text xml:space="preserve" text-anchor="middle" x="88" y="-152.75" font-family="Arial" font-size="10.00">Envía archivo PDF/XML</text>
<text xml:space="preserve" text-anchor="middle" x="88" y="-140.75" font-family="Arial" font-size="10.00">al cliente y registra</text>
<text xml:space="preserve" text-anchor="middle" x="88" y="-128.75" font-family="Arial" font-size="10.00">folio en Notion</text>
</g>
<!-- FIN -->
<g id="node10" class="node">
<title>FIN</title>
<polygon fill="#ffffff" stroke="#000000" stroke-width="1.5" points="363,-105.05 219,-105.05 219,-47.45 363,-47.45 363,-105.05"/>
<text xml:space="preserve" text-anchor="middle" x="291" y="-72.75" font-family="Arial" font-size="10.00">FIN</text>
</g>
<!-- 8&#45;&gt;FIN -->
<g id="edge10" class="edge">
<title>8&#45;&gt;FIN</title>
<path fill="none" stroke="#000000" stroke-width="1.2" d="M160.62,-135.85C218.8,-135.85 290.75,-135.85 290.75,-135.85 290.75,-135.85 290.75,-114.52 290.75,-114.52"/>
<polygon fill="#ffebee" stroke="#000000" stroke-width="1.2" points="293.2,-114.52 290.75,-107.52 288.3,-114.52 293.2,-114.52"/>
</g>
<!-- 5 -->
<g id="node7" class="node">
<title>5</title>
<polygon fill="#fffde7" stroke="#000000" stroke-width="1.5" points="1122,-211.25 1031,-167.25 1122,-123.25 1213,-167.25 1122,-211.25"/>
<text xml:space="preserve" text-anchor="middle" x="1122" y="-175.75" font-family="Arial" font-size="10.00">5</text>
<text xml:space="preserve" text-anchor="middle" x="1122" y="-163.75" font-family="Arial" font-size="10.00">¿Requiere</text>
<text xml:space="preserve" text-anchor="middle" x="1122" y="-151.75" font-family="Arial" font-size="10.00">Timbrado Fiscal?</text>
</g>
<!-- 4&#45;&gt;5 -->
<g id="edge5" class="edge">
<title>4&#45;&gt;5</title>
<path fill="none" stroke="#000000" stroke-width="1.2" d="M972.69,-177.25C972.69,-177.25 1041.47,-177.25 1041.47,-177.25"/>
<polygon fill="#000000" stroke="#000000" stroke-width="1.2" points="1041.47,-179.7 1048.47,-177.25 1041.47,-174.8 1041.47,-179.7"/>
</g>
<!-- 6 -->
<g id="node8" class="node">
<title>6</title>
<polygon fill="#ffffff" stroke="#000000" stroke-width="1.5" points="1430.75,-108.05 1286.75,-108.05 1286.75,-50.45 1430.75,-50.45 1430.75,-108.05"/>
<text xml:space="preserve" text-anchor="middle" x="1358.75" y="-93.75" font-family="Arial" font-size="10.00">6</text>
<text xml:space="preserve" text-anchor="middle" x="1358.75" y="-81.75" font-family="Arial" font-size="10.00">Ejecuta proceso de</text>
<text xml:space="preserve" text-anchor="middle" x="1358.75" y="-69.75" font-family="Arial" font-size="10.00">timbrado CFDI ante</text>
<text xml:space="preserve" text-anchor="middle" x="1358.75" y="-57.75" font-family="Arial" font-size="10.00">el SAT</text>
</g>
<!-- 5&#45;&gt;6 -->
<g id="edge6" class="edge">
<title>5&#45;&gt;6</title>
<path fill="none" stroke="#000000" stroke-width="1.2" d="M1184.2,-152.58C1254.35,-152.58 1358.75,-152.58 1358.75,-152.58 1358.75,-152.58 1358.75,-117.47 1358.75,-117.47"/>
<polygon fill="#000000" stroke="#000000" stroke-width="1.2" points="1361.2,-117.47 1358.75,-110.47 1356.3,-117.47 1361.2,-117.47"/>
<text xml:space="preserve" text-anchor="middle" x="1249.88" y="-133.45" font-family="Times New Roman,serif" font-size="14.00"> SÍ</text>
</g>
<!-- 7 -->
<g id="node9" class="node">
<title>7</title>
<polygon fill="#ffffff" stroke="#000000" stroke-width="1.5" points="1633.75,-108.05 1489.75,-108.05 1489.75,-50.45 1633.75,-50.45 1633.75,-108.05"/>
<text xml:space="preserve" text-anchor="middle" x="1561.75" y="-93.75" font-family="Arial" font-size="10.00">7</text>
<text xml:space="preserve" text-anchor="middle" x="1561.75" y="-81.75" font-family="Arial" font-size="10.00">Genera comprobante de</text>
<text xml:space="preserve" text-anchor="middle" x="1561.75" y="-69.75" font-family="Arial" font-size="10.00">pago y libera orden</text>
<text xml:space="preserve" text-anchor="middle" x="1561.75" y="-57.75" font-family="Arial" font-size="10.00">para entrega</text>
</g>
<!-- 5&#45;&gt;7 -->
<g id="edge7" class="edge">
<title>5&#45;&gt;7</title>
<path fill="none" stroke="#000000" stroke-width="1.2" d="M1184.24,-181.92C1300.22,-181.92 1537.75,-181.92 1537.75,-181.92 1537.75,-181.92 1537.75,-117.49 1537.75,-117.49"/>
<polygon fill="#000000" stroke="#000000" stroke-width="1.2" points="1540.2,-117.49 1537.75,-110.49 1535.3,-117.49 1540.2,-117.49"/>
<text xml:space="preserve" text-anchor="middle" x="1358.75" y="-197.45" font-family="Times New Roman,serif" font-size="14.00"> NO</text>
</g>
<!-- 6&#45;&gt;7 -->
<g id="edge8" class="edge">
<title>6&#45;&gt;7</title>
<path fill="none" stroke="#000000" stroke-width="1.2" d="M1431.46,-79.25C1431.46,-79.25 1480.39,-79.25 1480.39,-79.25"/>
<polygon fill="#000000" stroke="#000000" stroke-width="1.2" points="1480.39,-81.7 1487.39,-79.25 1480.39,-76.8 1480.39,-81.7"/>
</g>
<!-- 7&#45;&gt;8 -->
<g id="edge9" class="edge">
<title>7&#45;&gt;8</title>
<path fill="none" stroke="#000000" stroke-width="1.2" d="M1585.75,-108.57C1585.75,-112.25 1585.75,-114.75 1585.75,-114.75 1585.75,-114.75 87.75,-114.75 87.75,-114.75 87.75,-114.75 87.75,-115.37 87.75,-115.37"/>
<polygon fill="#000000" stroke="#000000" stroke-width="1.2" points="85.3,-112.12 87.75,-119.12 90.2,-112.12 85.3,-112.12"/>
</g>
</g>
</svg>
