<?xml version="1.0" encoding="UTF-8" standalone="no"?>
<!DOCTYPE svg PUBLIC "-//W3C//DTD SVG 1.1//EN"
 "http://www.w3.org/Graphics/SVG/1.1/DTD/svg11.dtd">
<!-- Generated by graphviz version 14.1.2 (20260124.0452)
 -->
<!-- Title: DPO_APERTURA_BJX Pages: 1 -->
<svg width="1498pt" height="491pt"
 viewBox="0.00 0.00 1498.00 491.00" xmlns="http://www.w3.org/2000/svg" xmlns:xlink="http://www.w3.org/1999/xlink">
<g id="graph0" class="graph" transform="scale(1 1) rotate(0) translate(4 486.85)">
<title>DPO_APERTURA_BJX</title>
<polygon fill="#ffffff" stroke="none" points="-4,4 -4,-486.85 1494.25,-486.85 1494.25,4 -4,4"/>
<polygon fill="none" stroke="black" points="387.38,-4 387.38,-30.25 444.38,-30.25 444.38,-4 387.38,-4"/>
<text xml:space="preserve" text-anchor="start" x="393.38" y="-12.85" font-family="Arial" font-size="12.00">Elaboró:</text>
<polygon fill="none" stroke="black" points="444.38,-4 444.38,-30.25 564.38,-30.25 564.38,-4 444.38,-4"/>
<text xml:space="preserve" text-anchor="start" x="456.75" y="-12.85" font-family="Arial" font-size="12.00">Ing. Emmanuel G.</text>
<polygon fill="none" stroke="black" points="564.38,-4 564.38,-30.25 616.88,-30.25 616.88,-4 564.38,-4"/>
<text xml:space="preserve" text-anchor="start" x="570.38" y="-12.85" font-family="Arial" font-size="12.00">Revisó:</text>
<polygon fill="none" stroke="black" points="616.88,-4 616.88,-30.25 736.88,-30.25 736.88,-4 616.88,-4"/>
<text xml:space="preserve" text-anchor="start" x="635.62" y="-12.85" font-family="Arial" font-size="12.00">Asesora Senior</text>
<polygon fill="none" stroke="black" points="736.88,-4 736.88,-30.25 796.12,-30.25 796.12,-4 736.88,-4"/>
<text xml:space="preserve" text-anchor="start" x="742.88" y="-12.85" font-family="Arial" font-size="12.00">Autorizó:</text>
<polygon fill="none" stroke="black" points="796.12,-4 796.12,-30.25 916.12,-30.25 916.12,-4 796.12,-4"/>
<text xml:space="preserve" text-anchor="start" x="820.12" y="-12.85" font-family="Arial" font-size="12.00">Carlos (CEO)</text>
<polygon fill="none" stroke="black" points="916.12,-4 916.12,-30.25 1029.38,-30.25 1029.38,-4 916.12,-4"/>
<text xml:space="preserve" text-anchor="start" x="922.12" y="-12.85" font-family="Arial" font-size="12.00">Fecha: 07&#45;02&#45;2026</text>
<polygon fill="none" stroke="black" points="1029.38,-4 1029.38,-30.25 1102.88,-30.25 1102.88,-4 1029.38,-4"/>
<text xml:space="preserve" text-anchor="start" x="1035.38" y="-12.85" font-family="Arial" font-size="12.00">Hoja: 04/18</text>
<g id="clust1" class="cluster">
<title>cluster_asesora</title>
<polygon fill="#ffffff" stroke="black" stroke-dasharray="1,5" points="211,-100.05 211,-398.05 980,-398.05 980,-100.05 211,-100.05"/>
<text xml:space="preserve" text-anchor="middle" x="595.5" y="-382.65" font-family="Arial Bold" font-size="12.00">Asesora de Servicios</text>
</g>
<g id="clust2" class="cluster">
<title>cluster_cliente</title>
<polygon fill="#ffffff" stroke="black" stroke-dasharray="1,5" points="1023,-291.05 1023,-417.05 1482.25,-417.05 1482.25,-291.05 1023,-291.05"/>
<text xml:space="preserve" text-anchor="middle" x="1252.62" y="-401.65" font-family="Arial Bold" font-size="12.00">Cliente</text>
</g>
<g id="clust3" class="cluster">
<title>cluster_taller</title>
<polygon fill="#ffffff" stroke="black" stroke-dasharray="1,5" points="8,-157.05 8,-253.05 168,-253.05 168,-157.05 8,-157.05"/>
<text xml:space="preserve" text-anchor="middle" x="88" y="-237.65" font-family="Arial Bold" font-size="12.00">Jefe de Taller</text>
</g>
<!-- ST -->
<g id="node1" class="node">
<title>ST</title>
<ellipse fill="#e8f5e9" stroke="#000000" cx="291" cy="-339.05" rx="72" ry="28.8"/>
<text xml:space="preserve" text-anchor="middle" x="291" y="-335.55" font-family="Arial" font-size="10.00">INICIO</text>
</g>
<!-- 1 -->
<g id="node2" class="node">
<title>1</title>
<polygon fill="#ffffff" stroke="#000000" points="566,-367.85 422,-367.85 422,-310.25 566,-310.25 566,-367.85"/>
<text xml:space="preserve" text-anchor="middle" x="494" y="-353.55" font-family="Arial" font-size="10.00">1</text>
<text xml:space="preserve" text-anchor="middle" x="494" y="-341.55" font-family="Arial" font-size="10.00">Consolida reporte de falla,</text>
<text xml:space="preserve" text-anchor="middle" x="494" y="-329.55" font-family="Arial" font-size="10.00">inventario y diagnóstico</text>
<text xml:space="preserve" text-anchor="middle" x="494" y="-317.55" font-family="Arial" font-size="10.00">preliminar</text>
</g>
<!-- ST&#45;&gt;1 -->
<g id="edge1" class="edge">
<title>ST&#45;&gt;1</title>
<path fill="none" stroke="#000000" d="M363.43,-339.05C363.43,-339.05 413.09,-339.05 413.09,-339.05"/>
<polygon fill="#000000" stroke="#000000" points="413.09,-341.5 420.09,-339.05 413.09,-336.6 413.09,-341.5"/>
</g>
<!-- 2 -->
<g id="node3" class="node">
<title>2</title>
<polygon fill="#ffffff" stroke="#000000" points="769,-367.85 625,-367.85 625,-310.25 769,-310.25 769,-367.85"/>
<text xml:space="preserve" text-anchor="middle" x="697" y="-353.55" font-family="Arial" font-size="10.00">2</text>
<text xml:space="preserve" text-anchor="middle" x="697" y="-341.55" font-family="Arial" font-size="10.00">Genera número de</text>
<text xml:space="preserve" text-anchor="middle" x="697" y="-329.55" font-family="Arial" font-size="10.00">orden en sistema y</text>
<text xml:space="preserve" text-anchor="middle" x="697" y="-317.55" font-family="Arial" font-size="10.00">asigna folio físico</text>
</g>
<!-- 1&#45;&gt;2 -->
<g id="edge2" class="edge">
<title>1&#45;&gt;2</title>
<path fill="none" stroke="#000000" d="M566.43,-339.05C566.43,-339.05 616.09,-339.05 616.09,-339.05"/>
<polygon fill="#000000" stroke="#000000" points="616.09,-341.5 623.09,-339.05 616.09,-336.6 616.09,-341.5"/>
</g>
<!-- 3 -->
<g id="node4" class="node">
<title>3</title>
<polygon fill="#ffffff" stroke="#000000" points="972,-367.85 828,-367.85 828,-310.25 972,-310.25 972,-367.85"/>
<text xml:space="preserve" text-anchor="middle" x="900" y="-353.55" font-family="Arial" font-size="10.00">3</text>
<text xml:space="preserve" text-anchor="middle" x="900" y="-341.55" font-family="Arial" font-size="10.00">Establece compromiso de</text>
<text xml:space="preserve" text-anchor="middle" x="900" y="-329.55" font-family="Arial" font-size="10.00">entrega y costo</text>
<text xml:space="preserve" text-anchor="middle" x="900" y="-317.55" font-family="Arial" font-size="10.00">estimado inicial</text>
</g>
<!-- 2&#45;&gt;3 -->
<g id="edge3" class="edge">
<title>2&#45;&gt;3</title>
<path fill="none" stroke="#000000" d="M769.43,-339.05C769.43,-339.05 819.09,-339.05 819.09,-339.05"/>
<polygon fill="#000000" stroke="#000000" points="819.09,-341.5 826.09,-339.05 819.09,-336.6 819.09,-341.5"/>
</g>
<!-- 4 -->
<g id="node7" class="node">
<title>4</title>
<polygon fill="#fffde7" stroke="#000000" points="1140,-387.05 1031,-343.05 1140,-299.05 1249,-343.05 1140,-387.05"/>
<text xml:space="preserve" text-anchor="middle" x="1140" y="-351.55" font-family="Arial" font-size="10.00">4</text>
<text xml:space="preserve" text-anchor="middle" x="1140" y="-339.55" font-family="Arial" font-size="10.00">¿Acepta presupuesto</text>
<text xml:space="preserve" text-anchor="middle" x="1140" y="-327.55" font-family="Arial" font-size="10.00">y tiempo de entrega?</text>
</g>
<!-- 3&#45;&gt;4 -->
<g id="edge4" class="edge">
<title>3&#45;&gt;4</title>
<path fill="none" stroke="#000000" d="M972.33,-339.05C972.33,-339.05 1031.38,-339.05 1031.38,-339.05"/>
<polygon fill="#000000" stroke="#000000" points="1031.38,-341.5 1038.38,-339.05 1031.38,-336.6 1031.38,-341.5"/>
</g>
<!-- 6 -->
<g id="node5" class="node">
<title>6</title>
<polygon fill="#ffffff" stroke="#000000" points="363,-266.85 219,-266.85 219,-209.25 363,-209.25 363,-266.85"/>
<text xml:space="preserve" text-anchor="middle" x="291" y="-252.55" font-family="Arial" font-size="10.00">6</text>
<text xml:space="preserve" text-anchor="middle" x="291" y="-240.55" font-family="Arial" font-size="10.00">Recaba firma de</text>
<text xml:space="preserve" text-anchor="middle" x="291" y="-228.55" font-family="Arial" font-size="10.00">aceptación y contrato</text>
<text xml:space="preserve" text-anchor="middle" x="291" y="-216.55" font-family="Arial" font-size="10.00">de adhesión</text>
</g>
<!-- 7 -->
<g id="node9" class="node">
<title>7</title>
<polygon fill="#ffffff" stroke="#000000" points="160,-222.85 16,-222.85 16,-165.25 160,-165.25 160,-222.85"/>
<text xml:space="preserve" text-anchor="middle" x="88" y="-208.55" font-family="Arial" font-size="10.00">7</text>
<text xml:space="preserve" text-anchor="middle" x="88" y="-196.55" font-family="Arial" font-size="10.00">Recibe orden física y</text>
<text xml:space="preserve" text-anchor="middle" x="88" y="-184.55" font-family="Arial" font-size="10.00">procede a planeación</text>
<text xml:space="preserve" text-anchor="middle" x="88" y="-172.55" font-family="Arial" font-size="10.00">de bahía</text>
</g>
<!-- 6&#45;&gt;7 -->
<g id="edge8" class="edge">
<title>6&#45;&gt;7</title>
<path fill="none" stroke="#000000" d="M218.57,-216.05C218.57,-216.05 168.91,-216.05 168.91,-216.05"/>
<polygon fill="#000000" stroke="#000000" points="168.91,-213.6 161.91,-216.05 168.91,-218.5 168.91,-213.6"/>
</g>
<!-- 8 -->
<g id="node6" class="node">
<title>8</title>
<polygon fill="#ffffff" stroke="#000000" points="363,-165.85 219,-165.85 219,-108.25 363,-108.25 363,-165.85"/>
<text xml:space="preserve" text-anchor="middle" x="291" y="-151.55" font-family="Arial" font-size="10.00">8</text>
<text xml:space="preserve" text-anchor="middle" x="291" y="-139.55" font-family="Arial" font-size="10.00">Entrega copia de orden</text>
<text xml:space="preserve" text-anchor="middle" x="291" y="-127.55" font-family="Arial" font-size="10.00">al cliente y carga</text>
<text xml:space="preserve" text-anchor="middle" x="291" y="-115.55" font-family="Arial" font-size="10.00">PDF en Notion</text>
</g>
<!-- FIN -->
<g id="node11" class="node">
<title>FIN</title>
<polygon fill="#ffffff" stroke="#000000" points="566,-91.85 422,-91.85 422,-34.25 566,-34.25 566,-91.85"/>
<text xml:space="preserve" text-anchor="middle" x="494" y="-59.55" font-family="Arial" font-size="10.00">FIN</text>
</g>
<!-- 8&#45;&gt;FIN -->
<g id="edge10" class="edge">
<title>8&#45;&gt;FIN</title>
<path fill="none" stroke="#000000" d="M291.25,-107.8C291.25,-87.12 291.25,-63.05 291.25,-63.05 291.25,-63.05 413.15,-63.05 413.15,-63.05"/>
<polygon fill="#ffebee" stroke="#000000" points="413.15,-65.5 420.15,-63.05 413.15,-60.6 413.15,-65.5"/>
</g>
<!-- 5 -->
<g id="node8" class="node">
<title>5</title>
<polygon fill="#ffffff" stroke="#000000" points="1474.25,-363.85 1330.25,-363.85 1330.25,-306.25 1474.25,-306.25 1474.25,-363.85"/>
<text xml:space="preserve" text-anchor="middle" x="1402.25" y="-349.55" font-family="Arial" font-size="10.00">5</text>
<text xml:space="preserve" text-anchor="middle" x="1402.25" y="-337.55" font-family="Arial" font-size="10.00">Revisión de cláusulas</text>
<text xml:space="preserve" text-anchor="middle" x="1402.25" y="-325.55" font-family="Arial" font-size="10.00">y condiciones de</text>
<text xml:space="preserve" text-anchor="middle" x="1402.25" y="-313.55" font-family="Arial" font-size="10.00">garantía</text>
</g>
<!-- 4&#45;&gt;5 -->
<g id="edge5" class="edge">
<title>4&#45;&gt;5</title>
<path fill="none" stroke="#000000" d="M1230.25,-335.05C1230.25,-335.05 1321.52,-335.05 1321.52,-335.05"/>
<polygon fill="#000000" stroke="#000000" points="1321.52,-337.5 1328.52,-335.05 1321.52,-332.6 1321.52,-337.5"/>
<text xml:space="preserve" text-anchor="middle" x="1289.62" y="-345.25" font-family="Times New Roman,serif" font-size="14.00"> SÍ</text>
</g>
<!-- FIN_CANC -->
<g id="node10" class="node">
<title>FIN_CANC</title>
<ellipse fill="#ffebee" stroke="#000000" cx="1402.25" cy="-454.05" rx="72" ry="28.8"/>
<text xml:space="preserve" text-anchor="middle" x="1402.25" y="-450.55" font-family="Arial" font-size="10.00">FIN (Cerrar Cita)</text>
</g>
<!-- 4&#45;&gt;FIN_CANC -->
<g id="edge6" class="edge">
<title>4&#45;&gt;FIN_CANC</title>
<path fill="none" stroke="#000000" stroke-dasharray="5,2" d="M1169.83,-375.45C1238.56,-375.45 1402.25,-375.45 1402.25,-375.45 1402.25,-375.45 1402.25,-416.27 1402.25,-416.27"/>
<polygon fill="#000000" stroke="#000000" points="1399.8,-416.27 1402.25,-423.27 1404.7,-416.27 1399.8,-416.27"/>
<text xml:space="preserve" text-anchor="middle" x="1289.62" y="-457.25" font-family="Times New Roman,serif" font-size="14.00"> NO</text>
</g>
<!-- 5&#45;&gt;6 -->
<g id="edge7" class="edge">
<title>5&#45;&gt;6</title>
<path fill="none" stroke="#000000" d="M1402.25,-305.95C1402.25,-277.37 1402.25,-238.05 1402.25,-238.05 1402.25,-238.05 372,-238.05 372,-238.05"/>
<polygon fill="#000000" stroke="#000000" points="372,-235.6 365,-238.05 372,-240.5 372,-235.6"/>
</g>
<!-- 7&#45;&gt;8 -->
<g id="edge9" class="edge">
<title>7&#45;&gt;8</title>
<path fill="none" stroke="#000000" d="M160.23,-187.55C218.65,-187.55 291.25,-187.55 291.25,-187.55 291.25,-187.55 291.25,-174.65 291.25,-174.65"/>
<polygon fill="#000000" stroke="#000000" points="293.7,-174.65 291.25,-167.65 288.8,-174.65 293.7,-174.65"/>
</g>
</g>
</svg>
