<?xml version="1.0" encoding="UTF-8" standalone="no"?>
<!DOCTYPE svg PUBLIC "-//W3C//DTD SVG 1.1//EN"
 "http://www.w3.org/Graphics/SVG/1.1/DTD/svg11.dtd">
<!-- Generated by graphviz version 14.1.2 (20260124.0452)
 -->
<!-- Title: DPO_PLANEACION_BJX Pages: 1 -->
<svg width="1499pt" height="312pt"
 viewBox="0.00 0.00 1499.00 312.00" xmlns="http://www.w3.org/2000/svg" xmlns:xlink="http://www.w3.org/1999/xlink">
<g id="graph0" class="graph" transform="scale(1 1) rotate(0) translate(4 308.25)">
<title>DPO_PLANEACION_BJX</title>
<polygon fill="#ffffff" stroke="none" points="-4,4 -4,-308.25 1494.75,-308.25 1494.75,4 -4,4"/>
<polygon fill="none" stroke="black" points="387.62,-4 387.62,-30.25 444.62,-30.25 444.62,-4 387.62,-4"/>
<text xml:space="preserve" text-anchor="start" x="393.62" y="-12.85" font-family="Arial" font-size="12.00">Elaboró:</text>
<polygon fill="none" stroke="black" points="444.62,-4 444.62,-30.25 564.62,-30.25 564.62,-4 444.62,-4"/>
<text xml:space="preserve" text-anchor="start" x="457" y="-12.85" font-family="Arial" font-size="12.00">Ing. Emmanuel G.</text>
<polygon fill="none" stroke="black" points="564.62,-4 564.62,-30.25 617.12,-30.25 617.12,-4 564.62,-4"/>
<text xml:space="preserve" text-anchor="start" x="570.62" y="-12.85" font-family="Arial" font-size="12.00">Revisó:</text>
<polygon fill="none" stroke="black" points="617.12,-4 617.12,-30.25 737.12,-30.25 737.12,-4 617.12,-4"/>
<text xml:space="preserve" text-anchor="start" x="641.5" y="-12.85" font-family="Arial" font-size="12.00">Jefe de Taller</text>
<polygon fill="none" stroke="black" points="737.12,-4 737.12,-30.25 796.38,-30.25 796.38,-4 737.12,-4"/>
<text xml:space="preserve" text-anchor="start" x="743.12" y="-12.85" font-family="Arial" font-size="12.00">Autorizó:</text>
<polygon fill="none" stroke="black" points="796.38,-4 796.38,-30.25 916.38,-30.25 916.38,-4 796.38,-4"/>
<text xml:space="preserve" text-anchor="start" x="820.38" y="-12.85" font-family="Arial" font-size="12.00">Carlos (CEO)</text>
<polygon fill="none" stroke="black" points="916.38,-4 916.38,-30.25 1029.62,-30.25 1029.62,-4 916.38,-4"/>
<text xml:space="preserve" text-anchor="start" x="922.38" y="-12.85" font-family="Arial" font-size="12.00">Fecha: 07&#45;02&#45;2026</text>
<polygon fill="none" stroke="black" points="1029.62,-4 1029.62,-30.25 1103.12,-30.25 1103.12,-4 1029.62,-4"/>
<text xml:space="preserve" text-anchor="start" x="1035.62" y="-12.85" font-family="Arial" font-size="12.00">Hoja: 08/18</text>
<g id="clust1" class="cluster">
<title>cluster_jefe</title>
<polygon fill="#ffffff" stroke="black" stroke-dasharray="1,5" points="8,-146.25 8,-296.25 1092.75,-296.25 1092.75,-146.25 8,-146.25"/>
<text xml:space="preserve" text-anchor="middle" x="550.38" y="-280.85" font-family="Arial Bold" font-size="12.00">Jefe de Taller</text>
</g>
<g id="clust2" class="cluster">
<title>cluster_herramental</title>
<polygon fill="#ffffff" stroke="black" stroke-dasharray="1,5" points="932.75,-42.25 932.75,-138.25 1295.75,-138.25 1295.75,-42.25 932.75,-42.25"/>
<text xml:space="preserve" text-anchor="middle" x="1114.25" y="-122.85" font-family="Arial Bold" font-size="12.00">Almacén / Herramental</text>
</g>
<g id="clust3" class="cluster">
<title>cluster_tecnico</title>
<polygon fill="#ffffff" stroke="black" stroke-dasharray="1,5" points="1135.75,-156.25 1135.75,-252.25 1295.75,-252.25 1295.75,-156.25 1135.75,-156.25"/>
<text xml:space="preserve" text-anchor="middle" x="1215.75" y="-236.85" font-family="Arial Bold" font-size="12.00">Técnico Mecánico</text>
</g>
<!-- ST -->
<g id="node1" class="node">
<title>ST</title>
<ellipse fill="#e8f5e9" stroke="#000000" stroke-width="1.5" cx="88" cy="-210.25" rx="72" ry="28.8"/>
<text xml:space="preserve" text-anchor="middle" x="88" y="-206.75" font-family="Arial" font-size="10.00">INICIO</text>
</g>
<!-- 1 -->
<g id="node2" class="node">
<title>1</title>
<polygon fill="#ffffff" stroke="#000000" stroke-width="1.5" points="363,-239.05 219,-239.05 219,-181.45 363,-181.45 363,-239.05"/>
<text xml:space="preserve" text-anchor="middle" x="291" y="-224.75" font-family="Arial" font-size="10.00">1</text>
<text xml:space="preserve" text-anchor="middle" x="291" y="-212.75" font-family="Arial" font-size="10.00">Revisa carga de trabajo</text>
<text xml:space="preserve" text-anchor="middle" x="291" y="-200.75" font-family="Arial" font-size="10.00">y prioridad de órdenes</text>
<text xml:space="preserve" text-anchor="middle" x="291" y="-188.75" font-family="Arial" font-size="10.00">aprobadas en Notion</text>
</g>
<!-- ST&#45;&gt;1 -->
<g id="edge1" class="edge">
<title>ST&#45;&gt;1</title>
<path fill="none" stroke="#000000" stroke-width="1.2" d="M160.71,-210.25C160.71,-210.25 209.64,-210.25 209.64,-210.25"/>
<polygon fill="#000000" stroke="#000000" stroke-width="1.2" points="209.64,-212.7 216.64,-210.25 209.64,-207.8 209.64,-212.7"/>
</g>
<!-- 2 -->
<g id="node3" class="node">
<title>2</title>
<polygon fill="#ffffff" stroke="#000000" stroke-width="1.5" points="566,-239.05 422,-239.05 422,-181.45 566,-181.45 566,-239.05"/>
<text xml:space="preserve" text-anchor="middle" x="494" y="-224.75" font-family="Arial" font-size="10.00">2</text>
<text xml:space="preserve" text-anchor="middle" x="494" y="-212.75" font-family="Arial" font-size="10.00">Asigna Técnico según</text>
<text xml:space="preserve" text-anchor="middle" x="494" y="-200.75" font-family="Arial" font-size="10.00">especialidad y</text>
<text xml:space="preserve" text-anchor="middle" x="494" y="-188.75" font-family="Arial" font-size="10.00">disponibilidad de bahía</text>
</g>
<!-- 1&#45;&gt;2 -->
<g id="edge2" class="edge">
<title>1&#45;&gt;2</title>
<path fill="none" stroke="#000000" stroke-width="1.2" d="M363.71,-210.25C363.71,-210.25 412.64,-210.25 412.64,-210.25"/>
<polygon fill="#000000" stroke="#000000" stroke-width="1.2" points="412.64,-212.7 419.64,-210.25 412.64,-207.8 412.64,-212.7"/>
</g>
<!-- 3 -->
<g id="node4" class="node">
<title>3</title>
<polygon fill="#fffde7" stroke="#000000" stroke-width="1.5" points="742.25,-266.25 625,-210.25 742.25,-154.25 859.5,-210.25 742.25,-266.25"/>
<text xml:space="preserve" text-anchor="middle" x="742.25" y="-224.75" font-family="Arial" font-size="10.00">3</text>
<text xml:space="preserve" text-anchor="middle" x="742.25" y="-212.75" font-family="Arial" font-size="10.00">¿Requiere herramienta</text>
<text xml:space="preserve" text-anchor="middle" x="742.25" y="-200.75" font-family="Arial" font-size="10.00">especializada?</text>
<text xml:space="preserve" text-anchor="middle" x="742.25" y="-188.75" font-family="Arial" font-size="10.00">(Prensa, Scanner, etc.)</text>
</g>
<!-- 2&#45;&gt;3 -->
<g id="edge3" class="edge">
<title>2&#45;&gt;3</title>
<path fill="none" stroke="#000000" stroke-width="1.2" d="M566.47,-210.25C566.47,-210.25 614.63,-210.25 614.63,-210.25"/>
<polygon fill="#000000" stroke="#000000" stroke-width="1.2" points="614.63,-212.7 621.63,-210.25 614.63,-207.8 614.63,-212.7"/>
</g>
<!-- 6 -->
<g id="node5" class="node">
<title>6</title>
<polygon fill="#ffffff" stroke="#000000" stroke-width="1.5" points="1084.75,-222.05 940.75,-222.05 940.75,-164.45 1084.75,-164.45 1084.75,-222.05"/>
<text xml:space="preserve" text-anchor="middle" x="1012.75" y="-207.75" font-family="Arial" font-size="10.00">6</text>
<text xml:space="preserve" text-anchor="middle" x="1012.75" y="-195.75" font-family="Arial" font-size="10.00">Entrega orden física,</text>
<text xml:space="preserve" text-anchor="middle" x="1012.75" y="-183.75" font-family="Arial" font-size="10.00">llaves y define meta</text>
<text xml:space="preserve" text-anchor="middle" x="1012.75" y="-171.75" font-family="Arial" font-size="10.00">de tiempo de ejecución</text>
</g>
<!-- 3&#45;&gt;6 -->
<g id="edge5" class="edge">
<title>3&#45;&gt;6</title>
<path fill="none" stroke="#000000" stroke-width="1.2" d="M825.62,-193.25C825.62,-193.25 931.36,-193.25 931.36,-193.25"/>
<polygon fill="#000000" stroke="#000000" stroke-width="1.2" points="931.36,-195.7 938.36,-193.25 931.36,-190.8 931.36,-195.7"/>
<text xml:space="preserve" text-anchor="middle" x="900.12" y="-206.45" font-family="Times New Roman,serif" font-size="14.00"> NO</text>
</g>
<!-- 4 -->
<g id="node6" class="node">
<title>4</title>
<polygon fill="#ffffff" stroke="#000000" stroke-width="1.5" points="1084.75,-108.05 940.75,-108.05 940.75,-50.45 1084.75,-50.45 1084.75,-108.05"/>
<text xml:space="preserve" text-anchor="middle" x="1012.75" y="-93.75" font-family="Arial" font-size="10.00">4</text>
<text xml:space="preserve" text-anchor="middle" x="1012.75" y="-81.75" font-family="Arial" font-size="10.00">Verifica disponibilidad</text>
<text xml:space="preserve" text-anchor="middle" x="1012.75" y="-69.75" font-family="Arial" font-size="10.00">y estado de equipo</text>
<text xml:space="preserve" text-anchor="middle" x="1012.75" y="-57.75" font-family="Arial" font-size="10.00">especializado</text>
</g>
<!-- 3&#45;&gt;4 -->
<g id="edge4" class="edge">
<title>3&#45;&gt;4</title>
<path fill="none" stroke="#000000" stroke-width="1.2" d="M754.58,-159.35C807.49,-159.35 1012.75,-159.35 1012.75,-159.35 1012.75,-159.35 1012.75,-117.44 1012.75,-117.44"/>
<polygon fill="#000000" stroke="#000000" stroke-width="1.2" points="1015.2,-117.44 1012.75,-110.44 1010.3,-117.44 1015.2,-117.44"/>
<text xml:space="preserve" text-anchor="middle" x="900.12" y="-111.45" font-family="Times New Roman,serif" font-size="14.00"> SÍ</text>
</g>
<!-- 7 -->
<g id="node8" class="node">
<title>7</title>
<polygon fill="#ffffff" stroke="#000000" stroke-width="1.5" points="1287.75,-222.05 1143.75,-222.05 1143.75,-164.45 1287.75,-164.45 1287.75,-222.05"/>
<text xml:space="preserve" text-anchor="middle" x="1215.75" y="-207.75" font-family="Arial" font-size="10.00">7</text>
<text xml:space="preserve" text-anchor="middle" x="1215.75" y="-195.75" font-family="Arial" font-size="10.00">Recibe unidad y equipo;</text>
<text xml:space="preserve" text-anchor="middle" x="1215.75" y="-183.75" font-family="Arial" font-size="10.00">actualiza estatus de</text>
<text xml:space="preserve" text-anchor="middle" x="1215.75" y="-171.75" font-family="Arial" font-size="10.00">orden a &quot;En Proceso&quot;</text>
</g>
<!-- 6&#45;&gt;7 -->
<g id="edge8" class="edge">
<title>6&#45;&gt;7</title>
<path fill="none" stroke="#000000" stroke-width="1.2" d="M1085.46,-202.85C1085.46,-202.85 1134.39,-202.85 1134.39,-202.85"/>
<polygon fill="#000000" stroke="#000000" stroke-width="1.2" points="1134.39,-205.3 1141.39,-202.85 1134.39,-200.4 1134.39,-205.3"/>
</g>
<!-- 5 -->
<g id="node7" class="node">
<title>5</title>
<polygon fill="#ffffff" stroke="#000000" stroke-width="1.5" points="1287.75,-108.05 1143.75,-108.05 1143.75,-50.45 1287.75,-50.45 1287.75,-108.05"/>
<text xml:space="preserve" text-anchor="middle" x="1215.75" y="-93.75" font-family="Arial" font-size="10.00">5</text>
<text xml:space="preserve" text-anchor="middle" x="1215.75" y="-81.75" font-family="Arial" font-size="10.00">Reserva y prepara kit</text>
<text xml:space="preserve" text-anchor="middle" x="1215.75" y="-69.75" font-family="Arial" font-size="10.00">de herramientas para</text>
<text xml:space="preserve" text-anchor="middle" x="1215.75" y="-57.75" font-family="Arial" font-size="10.00">la estación asignada</text>
</g>
<!-- 4&#45;&gt;5 -->
<g id="edge6" class="edge">
<title>4&#45;&gt;5</title>
<path fill="none" stroke="#000000" stroke-width="1.2" d="M1085.46,-69.65C1085.46,-69.65 1134.39,-69.65 1134.39,-69.65"/>
<polygon fill="#000000" stroke="#000000" stroke-width="1.2" points="1134.39,-72.1 1141.39,-69.65 1134.39,-67.2 1134.39,-72.1"/>
</g>
<!-- 5&#45;&gt;6 -->
<g id="edge7" class="edge">
<title>5&#45;&gt;6</title>
<path fill="none" stroke="#000000" stroke-width="1.2" d="M1143.25,-88.85C1126.64,-88.85 1113.75,-88.85 1113.75,-88.85 1113.75,-88.85 1113.75,-183.65 1113.75,-183.65 1113.75,-183.65 1094.16,-183.65 1094.16,-183.65"/>
<polygon fill="#000000" stroke="#000000" stroke-width="1.2" points="1094.16,-181.2 1087.16,-183.65 1094.16,-186.1 1094.16,-181.2"/>
</g>
<!-- FIN -->
<g id="node9" class="node">
<title>FIN</title>
<polygon fill="#ffffff" stroke="#000000" stroke-width="1.5" points="1490.75,-222.05 1346.75,-222.05 1346.75,-164.45 1490.75,-164.45 1490.75,-222.05"/>
<text xml:space="preserve" text-anchor="middle" x="1418.75" y="-189.75" font-family="Arial" font-size="10.00">FIN</text>
</g>
<!-- 7&#45;&gt;FIN -->
<g id="edge9" class="edge">
<title>7&#45;&gt;FIN</title>
<path fill="none" stroke="#000000" stroke-width="1.2" d="M1288.46,-193.25C1288.46,-193.25 1337.39,-193.25 1337.39,-193.25"/>
<polygon fill="#ffebee" stroke="#000000" stroke-width="1.2" points="1337.39,-195.7 1344.39,-193.25 1337.39,-190.8 1337.39,-195.7"/>
</g>
</g>
</svg>
