<?xml version="1.0" encoding="UTF-8" standalone="no"?>
<!DOCTYPE svg PUBLIC "-//W3C//DTD SVG 1.1//EN"
 "http://www.w3.org/Graphics/SVG/1.1/DTD/svg11.dtd">
<!-- Generated by graphviz version 14.1.2 (20260124.0452)
 -->
<!-- Title: DPO_DIAGNOSTICO_BJX Pages: 1 -->
<svg width="1733pt" height="315pt"
 viewBox="0.00 0.00 1733.00 315.00" xmlns="http://www.w3.org/2000/svg" xmlns:xlink="http://www.w3.org/1999/xlink">
<g id="graph0" class="graph" transform="scale(1 1) rotate(0) translate(4 311.05)">
<title>DPO_DIAGNOSTICO_BJX</title>
<polygon fill="#ffffff" stroke="none" points="-4,4 -4,-311.05 1728.75,-311.05 1728.75,4 -4,4"/>
<polygon fill="none" stroke="black" points="504.62,-4 504.62,-30.25 561.62,-30.25 561.62,-4 504.62,-4"/>
<text xml:space="preserve" text-anchor="start" x="510.62" y="-12.85" font-family="Arial" font-size="12.00">Elaboró:</text>
<polygon fill="none" stroke="black" points="561.62,-4 561.62,-30.25 681.62,-30.25 681.62,-4 561.62,-4"/>
<text xml:space="preserve" text-anchor="start" x="574" y="-12.85" font-family="Arial" font-size="12.00">Ing. Emmanuel G.</text>
<polygon fill="none" stroke="black" points="681.62,-4 681.62,-30.25 734.12,-30.25 734.12,-4 681.62,-4"/>
<text xml:space="preserve" text-anchor="start" x="687.62" y="-12.85" font-family="Arial" font-size="12.00">Revisó:</text>
<polygon fill="none" stroke="black" points="734.12,-4 734.12,-30.25 854.12,-30.25 854.12,-4 734.12,-4"/>
<text xml:space="preserve" text-anchor="start" x="758.5" y="-12.85" font-family="Arial" font-size="12.00">Jefe de Taller</text>
<polygon fill="none" stroke="black" points="854.12,-4 854.12,-30.25 913.38,-30.25 913.38,-4 854.12,-4"/>
<text xml:space="preserve" text-anchor="start" x="860.12" y="-12.85" font-family="Arial" font-size="12.00">Autorizó:</text>
<polygon fill="none" stroke="black" points="913.38,-4 913.38,-30.25 1033.38,-30.25 1033.38,-4 913.38,-4"/>
<text xml:space="preserve" text-anchor="start" x="937.38" y="-12.85" font-family="Arial" font-size="12.00">Carlos (CEO)</text>
<polygon fill="none" stroke="black" points="1033.38,-4 1033.38,-30.25 1146.62,-30.25 1146.62,-4 1033.38,-4"/>
<text xml:space="preserve" text-anchor="start" x="1039.38" y="-12.85" font-family="Arial" font-size="12.00">Fecha: 07&#45;02&#45;2026</text>
<polygon fill="none" stroke="black" points="1146.62,-4 1146.62,-30.25 1220.12,-30.25 1220.12,-4 1146.62,-4"/>
<text xml:space="preserve" text-anchor="start" x="1152.62" y="-12.85" font-family="Arial" font-size="12.00">Hoja: 05/18</text>
<g id="clust1" class="cluster">
<title>cluster_jefe</title>
<polygon fill="#ffffff" stroke="black" stroke-dasharray="1,5" points="1353.75,-44.25 1353.75,-241.25 1716.75,-241.25 1716.75,-44.25 1353.75,-44.25"/>
<text xml:space="preserve" text-anchor="middle" x="1535.25" y="-225.85" font-family="Arial Bold" font-size="12.00">Jefe de Taller</text>
</g>
<g id="clust2" class="cluster">
<title>cluster_tecnico</title>
<polygon fill="#ffffff" stroke="black" stroke-dasharray="1,5" points="8,-44.25 8,-243.25 1310.75,-243.25 1310.75,-44.25 8,-44.25"/>
<text xml:space="preserve" text-anchor="middle" x="659.38" y="-227.85" font-family="Arial Bold" font-size="12.00">Técnico Especialista</text>
</g>
<!-- ST -->
<g id="node1" class="node">
<title>ST</title>
<ellipse fill="#e8f5e9" stroke="#000000" stroke-width="1.5" cx="1433.75" cy="-81.25" rx="72" ry="28.8"/>
<text xml:space="preserve" text-anchor="middle" x="1433.75" y="-77.75" font-family="Arial" font-size="10.00">INICIO</text>
</g>
<!-- 1 -->
<g id="node2" class="node">
<title>1</title>
<polygon fill="#ffffff" stroke="#000000" stroke-width="1.5" points="1708.75,-110.05 1564.75,-110.05 1564.75,-52.45 1708.75,-52.45 1708.75,-110.05"/>
<text xml:space="preserve" text-anchor="middle" x="1636.75" y="-95.75" font-family="Arial" font-size="10.00">1</text>
<text xml:space="preserve" text-anchor="middle" x="1636.75" y="-83.75" font-family="Arial" font-size="10.00">Recibe orden de servicio</text>
<text xml:space="preserve" text-anchor="middle" x="1636.75" y="-71.75" font-family="Arial" font-size="10.00">y asigna técnico</text>
<text xml:space="preserve" text-anchor="middle" x="1636.75" y="-59.75" font-family="Arial" font-size="10.00">especialista y bahía</text>
</g>
<!-- ST&#45;&gt;1 -->
<g id="edge1" class="edge">
<title>ST&#45;&gt;1</title>
<path fill="none" stroke="#000000" stroke-width="1.2" d="M1506.46,-81.25C1506.46,-81.25 1555.39,-81.25 1555.39,-81.25"/>
<polygon fill="#000000" stroke="#000000" stroke-width="1.2" points="1555.39,-83.7 1562.39,-81.25 1555.39,-78.8 1555.39,-83.7"/>
</g>
<!-- 2 -->
<g id="node4" class="node">
<title>2</title>
<polygon fill="#ffffff" stroke="#000000" stroke-width="1.5" points="160,-117.05 16,-117.05 16,-59.45 160,-59.45 160,-117.05"/>
<text xml:space="preserve" text-anchor="middle" x="88" y="-102.75" font-family="Arial" font-size="10.00">2</text>
<text xml:space="preserve" text-anchor="middle" x="88" y="-90.75" font-family="Arial" font-size="10.00">Realiza inspección visual</text>
<text xml:space="preserve" text-anchor="middle" x="88" y="-78.75" font-family="Arial" font-size="10.00">y física de puntos de</text>
<text xml:space="preserve" text-anchor="middle" x="88" y="-66.75" font-family="Arial" font-size="10.00">seguridad (Checklist)</text>
</g>
<!-- 1&#45;&gt;2 -->
<g id="edge2" class="edge">
<title>1&#45;&gt;2</title>
<path fill="none" stroke="#000000" stroke-width="1.2" d="M1636.75,-51.75C1636.75,-42.31 1636.75,-34.25 1636.75,-34.25 1636.75,-34.25 87.75,-34.25 87.75,-34.25 87.75,-34.25 87.75,-49.91 87.75,-49.91"/>
<polygon fill="#000000" stroke="#000000" stroke-width="1.2" points="85.3,-49.91 87.75,-56.91 90.2,-49.91 85.3,-49.91"/>
</g>
<!-- 8 -->
<g id="node3" class="node">
<title>8</title>
<polygon fill="#ffffff" stroke="#000000" stroke-width="1.5" points="1505.75,-211.05 1361.75,-211.05 1361.75,-153.45 1505.75,-153.45 1505.75,-211.05"/>
<text xml:space="preserve" text-anchor="middle" x="1433.75" y="-196.75" font-family="Arial" font-size="10.00">8</text>
<text xml:space="preserve" text-anchor="middle" x="1433.75" y="-184.75" font-family="Arial" font-size="10.00">Valida hallazgos técnicos</text>
<text xml:space="preserve" text-anchor="middle" x="1433.75" y="-172.75" font-family="Arial" font-size="10.00">y autoriza paso a</text>
<text xml:space="preserve" text-anchor="middle" x="1433.75" y="-160.75" font-family="Arial" font-size="10.00">área de cotización</text>
</g>
<!-- FIN -->
<g id="node10" class="node">
<title>FIN</title>
<polygon fill="#ffffff" stroke="#000000" stroke-width="1.5" points="1708.75,-307.05 1564.75,-307.05 1564.75,-249.45 1708.75,-249.45 1708.75,-307.05"/>
<text xml:space="preserve" text-anchor="middle" x="1636.75" y="-274.75" font-family="Arial" font-size="10.00">FIN</text>
</g>
<!-- 8&#45;&gt;FIN -->
<g id="edge10" class="edge">
<title>8&#45;&gt;FIN</title>
<path fill="none" stroke="#000000" stroke-width="1.2" d="M1506.46,-182.25C1564.71,-182.25 1636.75,-182.25 1636.75,-182.25 1636.75,-182.25 1636.75,-240.11 1636.75,-240.11"/>
<polygon fill="#ffebee" stroke="#000000" stroke-width="1.2" points="1634.3,-240.11 1636.75,-247.11 1639.2,-240.11 1634.3,-240.11"/>
</g>
<!-- 3 -->
<g id="node5" class="node">
<title>3</title>
<polygon fill="#fffde7" stroke="#000000" stroke-width="1.5" points="347.5,-140.25 219,-96.25 347.5,-52.25 476,-96.25 347.5,-140.25"/>
<text xml:space="preserve" text-anchor="middle" x="347.5" y="-104.75" font-family="Arial" font-size="10.00">3</text>
<text xml:space="preserve" text-anchor="middle" x="347.5" y="-92.75" font-family="Arial" font-size="10.00">¿Requiere diagnóstico</text>
<text xml:space="preserve" text-anchor="middle" x="347.5" y="-80.75" font-family="Arial" font-size="10.00">especializado o escaneo?</text>
</g>
<!-- 2&#45;&gt;3 -->
<g id="edge3" class="edge">
<title>2&#45;&gt;3</title>
<path fill="none" stroke="#000000" stroke-width="1.2" d="M160.63,-88.25C160.63,-88.25 231.62,-88.25 231.62,-88.25"/>
<polygon fill="#000000" stroke="#000000" stroke-width="1.2" points="231.62,-90.7 238.62,-88.25 231.62,-85.8 231.62,-90.7"/>
</g>
<!-- 4 -->
<g id="node6" class="node">
<title>4</title>
<polygon fill="#ffffff" stroke="#000000" stroke-width="1.5" points="693.75,-110.05 549.75,-110.05 549.75,-52.45 693.75,-52.45 693.75,-110.05"/>
<text xml:space="preserve" text-anchor="middle" x="621.75" y="-95.75" font-family="Arial" font-size="10.00">4</text>
<text xml:space="preserve" text-anchor="middle" x="621.75" y="-83.75" font-family="Arial" font-size="10.00">Ejecuta pruebas de ruta,</text>
<text xml:space="preserve" text-anchor="middle" x="621.75" y="-71.75" font-family="Arial" font-size="10.00">escaneo electrónico o</text>
<text xml:space="preserve" text-anchor="middle" x="621.75" y="-59.75" font-family="Arial" font-size="10.00">pruebas de presión</text>
</g>
<!-- 3&#45;&gt;4 -->
<g id="edge4" class="edge">
<title>3&#45;&gt;4</title>
<path fill="none" stroke="#000000" stroke-width="1.2" d="M434.27,-81.25C434.27,-81.25 540.52,-81.25 540.52,-81.25"/>
<polygon fill="#000000" stroke="#000000" stroke-width="1.2" points="540.52,-83.7 547.52,-81.25 540.52,-78.8 540.52,-83.7"/>
<text xml:space="preserve" text-anchor="middle" x="512.88" y="-99.45" font-family="Times New Roman,serif" font-size="14.00"> SÍ</text>
</g>
<!-- 5 -->
<g id="node7" class="node">
<title>5</title>
<polygon fill="#ffffff" stroke="#000000" stroke-width="1.5" points="896.75,-211.05 752.75,-211.05 752.75,-153.45 896.75,-153.45 896.75,-211.05"/>
<text xml:space="preserve" text-anchor="middle" x="824.75" y="-196.75" font-family="Arial" font-size="10.00">5</text>
<text xml:space="preserve" text-anchor="middle" x="824.75" y="-184.75" font-family="Arial" font-size="10.00">Identifica piezas de</text>
<text xml:space="preserve" text-anchor="middle" x="824.75" y="-172.75" font-family="Arial" font-size="10.00">desgaste y requerimiento</text>
<text xml:space="preserve" text-anchor="middle" x="824.75" y="-160.75" font-family="Arial" font-size="10.00">de mano de obra</text>
</g>
<!-- 3&#45;&gt;5 -->
<g id="edge5" class="edge">
<title>3&#45;&gt;5</title>
<path fill="none" stroke="#000000" stroke-width="1.2" d="M393.88,-125.15C509.39,-125.15 800.75,-125.15 800.75,-125.15 800.75,-125.15 800.75,-144.21 800.75,-144.21"/>
<polygon fill="#000000" stroke="#000000" stroke-width="1.2" points="798.3,-144.21 800.75,-151.21 803.2,-144.21 798.3,-144.21"/>
<text xml:space="preserve" text-anchor="middle" x="621.75" y="-199.45" font-family="Times New Roman,serif" font-size="14.00"> NO</text>
</g>
<!-- 4&#45;&gt;5 -->
<g id="edge6" class="edge">
<title>4&#45;&gt;5</title>
<path fill="none" stroke="#000000" stroke-width="1.2" d="M694.2,-81.25C760.63,-81.25 848.75,-81.25 848.75,-81.25 848.75,-81.25 848.75,-143.95 848.75,-143.95"/>
<polygon fill="#000000" stroke="#000000" stroke-width="1.2" points="846.3,-143.95 848.75,-150.95 851.2,-143.95 846.3,-143.95"/>
</g>
<!-- 6 -->
<g id="node8" class="node">
<title>6</title>
<polygon fill="#ffffff" stroke="#000000" stroke-width="1.5" points="1099.75,-211.05 955.75,-211.05 955.75,-153.45 1099.75,-153.45 1099.75,-211.05"/>
<text xml:space="preserve" text-anchor="middle" x="1027.75" y="-196.75" font-family="Arial" font-size="10.00">6</text>
<text xml:space="preserve" text-anchor="middle" x="1027.75" y="-184.75" font-family="Arial" font-size="10.00">Captura evidencias</text>
<text xml:space="preserve" text-anchor="middle" x="1027.75" y="-172.75" font-family="Arial" font-size="10.00">fotográficas y video</text>
<text xml:space="preserve" text-anchor="middle" x="1027.75" y="-160.75" font-family="Arial" font-size="10.00">de fallas en Notion</text>
</g>
<!-- 5&#45;&gt;6 -->
<g id="edge7" class="edge">
<title>5&#45;&gt;6</title>
<path fill="none" stroke="#000000" stroke-width="1.2" d="M897.46,-182.25C897.46,-182.25 946.39,-182.25 946.39,-182.25"/>
<polygon fill="#000000" stroke="#000000" stroke-width="1.2" points="946.39,-184.7 953.39,-182.25 946.39,-179.8 946.39,-184.7"/>
</g>
<!-- 7 -->
<g id="node9" class="node">
<title>7</title>
<polygon fill="#ffffff" stroke="#000000" stroke-width="1.5" points="1302.75,-211.05 1158.75,-211.05 1158.75,-153.45 1302.75,-153.45 1302.75,-211.05"/>
<text xml:space="preserve" text-anchor="middle" x="1230.75" y="-190.75" font-family="Arial" font-size="10.00">7</text>
<text xml:space="preserve" text-anchor="middle" x="1230.75" y="-178.75" font-family="Arial" font-size="10.00">Consolida reporte técnico</text>
<text xml:space="preserve" text-anchor="middle" x="1230.75" y="-166.75" font-family="Arial" font-size="10.00">detallado con causa raíz</text>
</g>
<!-- 6&#45;&gt;7 -->
<g id="edge8" class="edge">
<title>6&#45;&gt;7</title>
<path fill="none" stroke="#000000" stroke-width="1.2" d="M1100.46,-182.25C1100.46,-182.25 1149.39,-182.25 1149.39,-182.25"/>
<polygon fill="#000000" stroke="#000000" stroke-width="1.2" points="1149.39,-184.7 1156.39,-182.25 1149.39,-179.8 1149.39,-184.7"/>
</g>
<!-- 7&#45;&gt;8 -->
<g id="edge9" class="edge">
<title>7&#45;&gt;8</title>
<path fill="none" stroke="#000000" stroke-width="1.2" d="M1303.46,-182.25C1303.46,-182.25 1352.39,-182.25 1352.39,-182.25"/>
<polygon fill="#000000" stroke="#000000" stroke-width="1.2" points="1352.39,-184.7 1359.39,-182.25 1352.39,-179.8 1352.39,-184.7"/>
</g>
</g>
</svg>
