<?xml version="1.0" encoding="UTF-8" standalone="no"?>
<!DOCTYPE svg PUBLIC "-//W3C//DTD SVG 1.1//EN"
 "http://www.w3.org/Graphics/SVG/1.1/DTD/svg11.dtd">
<!-- Generated by graphviz version 14.1.2 (20260124.0452)
 -->
<!-- Title: Ingreso_Choque Pages: 1 -->
<svg width="1387pt" height="740pt"
 viewBox="0.00 0.00 1387.00 740.00" xmlns="http://www.w3.org/2000/svg" xmlns:xlink="http://www.w3.org/1999/xlink">
<g id="graph0" class="graph" transform="scale(1 1) rotate(0) translate(4 735.5)">
<title>Ingreso_Choque</title>
<polygon fill="#ffffff" stroke="none" points="-4,4 -4,-735.5 1383.38,-735.5 1383.38,4 -4,4"/>
<text xml:space="preserve" text-anchor="middle" x="689.69" y="-712.3" font-family="Segoe UI Bold" font-size="16.00" fill="#1a1a1a">DIAGRAMA DE PROCESO: INGRESO POR CHOQUE (SOP)</text>
<text xml:space="preserve" text-anchor="middle" x="689.69" y="-689.8" font-family="Segoe UI Bold" font-size="16.00" fill="#1a1a1a">SYNER GROUP | CLIENTE: BJX MOTORS | 2026</text>
<text xml:space="preserve" text-anchor="middle" x="689.69" y="-667.3" font-family="Segoe UI Bold" font-size="16.00" fill="#1a1a1a"> </text>
<g id="clust1" class="cluster">
<title>cluster_asesora</title>
<polygon fill="#f4f9fd" stroke="#2980b9" points="8,-549 8,-648 1182.78,-648 1182.78,-549 8,-549"/>
<text xml:space="preserve" text-anchor="middle" x="595.39" y="-628.8" font-family="Segoe UI Bold" font-size="16.00" fill="#1a1a1a">Asesora / Valuador</text>
</g>
<g id="clust2" class="cluster">
<title>cluster_jefe</title>
<polygon fill="#f8f9f9" stroke="#7f8c8d" points="681.75,-257 681.75,-526 890.18,-526 890.18,-257 681.75,-257"/>
<text xml:space="preserve" text-anchor="middle" x="785.96" y="-506.8" font-family="Segoe UI Bold" font-size="16.00" fill="#1a1a1a">Jefe de Colisión</text>
</g>
<g id="clust3" class="cluster">
<title>cluster_mecanico</title>
<polygon fill="#f1fcf4" stroke="#27ae60" points="1037.18,-113 1037.18,-382 1371.38,-382 1371.38,-113 1037.18,-113"/>
<text xml:space="preserve" text-anchor="middle" x="1204.28" y="-362.8" font-family="Segoe UI Bold" font-size="16.00" fill="#1a1a1a">Hojalatero / Pintor</text>
</g>
<g id="clust4" class="cluster">
<title>cluster_almacen</title>
<polygon fill="#fffdf9" stroke="#f39c12" points="196.6,-8 196.6,-193 858.76,-193 858.76,-8 196.6,-8"/>
<text xml:space="preserve" text-anchor="middle" x="527.68" y="-173.8" font-family="Segoe UI Bold" font-size="16.00" fill="#1a1a1a">Almacén</text>
</g>
<!-- ST_CH -->
<g id="node1" class="node">
<title>ST_CH</title>
<ellipse fill="#27ae60" stroke="#2c3e50" stroke-width="1.5" cx="80.8" cy="-583" rx="64.8" ry="25.2"/>
<text xml:space="preserve" text-anchor="middle" x="80.8" y="-580.83" font-family="Segoe UI" font-size="9.00" fill="white">INICIO</text>
</g>
<!-- A1_CH -->
<g id="node2" class="node">
<title>A1_CH</title>
<polygon fill="#ffffff" stroke="#2c3e50" stroke-width="1.5" points="352.23,-608.2 222.63,-608.2 222.63,-557.8 352.23,-557.8 352.23,-608.2"/>
<text xml:space="preserve" text-anchor="middle" x="287.43" y="-587.2" font-family="Segoe UI" font-size="9.00">Inventario de Daños y</text>
<text xml:space="preserve" text-anchor="middle" x="287.43" y="-574.45" font-family="Segoe UI" font-size="9.00">Registro 360° (Notion)</text>
</g>
<!-- ST_CH&#45;&gt;A1_CH -->
<g id="edge1" class="edge">
<title>ST_CH&#45;&gt;A1_CH</title>
<path fill="none" stroke="#34495e" stroke-width="1.2" d="M146.27,-583C167.19,-583 190.58,-583 212.16,-583"/>
<polygon fill="#34495e" stroke="#34495e" stroke-width="1.2" points="212.12,-585.8 220.12,-583 212.12,-580.2 212.12,-585.8"/>
</g>
<!-- A2_CH -->
<g id="node3" class="node">
<title>A2_CH</title>
<polygon fill="#fff9c4" stroke="#2c3e50" stroke-width="1.5" points="516.88,-608.2 451.51,-583 516.88,-557.8 582.25,-583 516.88,-608.2"/>
<text xml:space="preserve" text-anchor="middle" x="516.88" y="-580.83" font-family="Segoe UI" font-size="9.00">¿Es Pérdida Total?</text>
</g>
<!-- A1_CH&#45;&gt;A2_CH -->
<g id="edge2" class="edge">
<title>A1_CH&#45;&gt;A2_CH</title>
<path fill="none" stroke="#34495e" stroke-width="1.2" d="M352.7,-583C379.96,-583 411.93,-583 440.32,-583"/>
<polygon fill="#34495e" stroke="#34495e" stroke-width="1.2" points="439.98,-585.8 447.98,-583 439.98,-580.2 439.98,-585.8"/>
</g>
<!-- A3_CH -->
<g id="node4" class="node">
<title>A3_CH</title>
<polygon fill="#ffffff" stroke="#2c3e50" stroke-width="1.5" points="850.76,-609.2 721.16,-609.2 721.16,-558.8 850.76,-558.8 850.76,-609.2"/>
<text xml:space="preserve" text-anchor="middle" x="785.96" y="-588.2" font-family="Segoe UI" font-size="9.00">Gestión con Seguro</text>
<text xml:space="preserve" text-anchor="middle" x="785.96" y="-575.45" font-family="Segoe UI" font-size="9.00">y Cierre de Orden</text>
</g>
<!-- A2_CH&#45;&gt;A3_CH -->
<g id="edge3" class="edge">
<title>A2_CH&#45;&gt;A3_CH</title>
<path fill="none" stroke="#34495e" stroke-width="1.2" d="M583.56,-583.25C622.08,-583.39 670.87,-583.57 710.78,-583.72"/>
<polygon fill="#34495e" stroke="#34495e" stroke-width="1.2" points="710.64,-586.52 718.65,-583.75 710.66,-580.92 710.64,-586.52"/>
<text xml:space="preserve" text-anchor="middle" x="636" y="-586.73" font-family="Times New Roman,serif" font-size="14.00"> SÍ</text>
</g>
<!-- J1_CH -->
<g id="node6" class="node">
<title>J1_CH</title>
<polygon fill="#fff9c4" stroke="#2c3e50" stroke-width="1.5" points="785.96,-401.2 689.75,-376 785.96,-350.8 882.18,-376 785.96,-401.2"/>
<text xml:space="preserve" text-anchor="middle" x="785.96" y="-373.82" font-family="Segoe UI" font-size="9.00">¿Daño en Chasis / Bastidor?</text>
</g>
<!-- A2_CH&#45;&gt;J1_CH -->
<g id="edge4" class="edge">
<title>A2_CH&#45;&gt;J1_CH</title>
<path fill="none" stroke="#34495e" stroke-width="1.2" d="M533.12,-563.35C559.98,-529.82 618.88,-461.12 681.75,-419 696.99,-408.79 715.04,-400.26 731.76,-393.56"/>
<polygon fill="#34495e" stroke="#34495e" stroke-width="1.2" points="732.74,-396.18 739.18,-390.68 730.71,-390.96 732.74,-396.18"/>
<text xml:space="preserve" text-anchor="middle" x="636" y="-478.55" font-family="Times New Roman,serif" font-size="14.00"> NO</text>
</g>
<!-- END_CH -->
<g id="node5" class="node">
<title>END_CH</title>
<ellipse fill="#c0392b" stroke="#2c3e50" stroke-width="1.5" cx="1109.98" cy="-584" rx="64.8" ry="25.2"/>
<text xml:space="preserve" text-anchor="middle" x="1109.98" y="-581.83" font-family="Segoe UI" font-size="9.00" fill="white">FIN</text>
</g>
<!-- A3_CH&#45;&gt;END_CH -->
<g id="edge17" class="edge">
<title>A3_CH&#45;&gt;END_CH</title>
<path fill="none" stroke="#34495e" stroke-width="1.2" d="M851.35,-584C904.34,-584 979.47,-584 1034.93,-584"/>
<polygon fill="#34495e" stroke="#34495e" stroke-width="1.2" points="1034.88,-586.8 1042.88,-584 1034.88,-581.2 1034.88,-586.8"/>
</g>
<!-- M1_CH -->
<g id="node9" class="node">
<title>M1_CH</title>
<polygon fill="#ffffff" stroke="#2c3e50" stroke-width="1.5" points="1174.78,-343.2 1045.18,-343.2 1045.18,-292.8 1174.78,-292.8 1174.78,-343.2"/>
<text xml:space="preserve" text-anchor="middle" x="1109.98" y="-322.2" font-family="Segoe UI" font-size="9.00">Estirado en Banco y</text>
<text xml:space="preserve" text-anchor="middle" x="1109.98" y="-309.45" font-family="Segoe UI" font-size="9.00">Reparación de Lámina</text>
</g>
<!-- J1_CH&#45;&gt;M1_CH -->
<g id="edge5" class="edge">
<title>J1_CH&#45;&gt;M1_CH</title>
<path fill="none" stroke="#34495e" stroke-width="1.2" d="M830.19,-361.62C849.29,-354.36 871.58,-344.62 890.18,-333 900.73,-326.41 899.54,-318.89 911.18,-314.5 950.28,-299.73 996.9,-299.8 1035.06,-303.93"/>
<polygon fill="#34495e" stroke="#34495e" stroke-width="1.2" points="1034.49,-306.68 1042.76,-304.84 1035.15,-301.12 1034.49,-306.68"/>
<text xml:space="preserve" text-anchor="middle" x="963.68" y="-317.7" font-family="Times New Roman,serif" font-size="14.00"> SÍ (Uso de Banco)</text>
</g>
<!-- J1_CH&#45;&gt;M1_CH -->
<g id="edge6" class="edge">
<title>J1_CH&#45;&gt;M1_CH</title>
<path fill="none" stroke="#34495e" stroke-width="1.2" d="M846.38,-365.95C892.69,-358.04 958.57,-346.61 1016.18,-336 1022.36,-334.86 1028.77,-333.66 1035.2,-332.44"/>
<polygon fill="#34495e" stroke="#34495e" stroke-width="1.2" points="1035.49,-335.24 1042.82,-330.99 1034.44,-329.74 1035.49,-335.24"/>
<text xml:space="preserve" text-anchor="middle" x="963.68" y="-357.18" font-family="Times New Roman,serif" font-size="14.00"> NO</text>
</g>
<!-- J2_CH -->
<g id="node7" class="node">
<title>J2_CH</title>
<polygon fill="#ffffff" stroke="#2c3e50" stroke-width="1.5" points="850.76,-315.2 721.16,-315.2 721.16,-264.8 850.76,-264.8 850.76,-315.2"/>
<text xml:space="preserve" text-anchor="middle" x="785.96" y="-294.2" font-family="Segoe UI" font-size="9.00">Validación de Color</text>
<text xml:space="preserve" text-anchor="middle" x="785.96" y="-281.45" font-family="Segoe UI" font-size="9.00">y Acabado de Pintura</text>
</g>
<!-- M3_CH -->
<g id="node11" class="node">
<title>M3_CH</title>
<polygon fill="#ffffff" stroke="#2c3e50" stroke-width="1.5" points="1174.78,-257.2 1045.18,-257.2 1045.18,-206.8 1174.78,-206.8 1174.78,-257.2"/>
<text xml:space="preserve" text-anchor="middle" x="1109.98" y="-236.2" font-family="Segoe UI" font-size="9.00">Armado, Pulido y</text>
<text xml:space="preserve" text-anchor="middle" x="1109.98" y="-223.45" font-family="Segoe UI" font-size="9.00">Detallado Estético</text>
</g>
<!-- J2_CH&#45;&gt;M3_CH -->
<g id="edge13" class="edge">
<title>J2_CH&#45;&gt;M3_CH</title>
<path fill="none" stroke="#34495e" stroke-width="1.2" d="M851.35,-278.4C904.45,-268.84 979.78,-255.27 1035.28,-245.28"/>
<polygon fill="#34495e" stroke="#34495e" stroke-width="1.2" points="1035.54,-248.07 1042.91,-243.9 1034.54,-242.56 1035.54,-248.07"/>
<text xml:space="preserve" text-anchor="middle" x="963.68" y="-269.39" font-family="Times New Roman,serif" font-size="14.00"> OK</text>
</g>
<!-- J3_CH -->
<g id="node8" class="node">
<title>J3_CH</title>
<polygon fill="#ffffff" stroke="#2c3e50" stroke-width="1.5" points="850.76,-487.2 721.16,-487.2 721.16,-436.8 850.76,-436.8 850.76,-487.2"/>
<text xml:space="preserve" text-anchor="middle" x="785.96" y="-466.2" font-family="Segoe UI" font-size="9.00">Prueba de Hermeticidad</text>
<text xml:space="preserve" text-anchor="middle" x="785.96" y="-453.45" font-family="Segoe UI" font-size="9.00">y Cuadraje Final</text>
</g>
<!-- J3_CH&#45;&gt;A3_CH -->
<g id="edge16" class="edge">
<title>J3_CH&#45;&gt;A3_CH</title>
<path fill="none" stroke="#34495e" stroke-width="1.2" d="M785.96,-487.87C785.96,-505.5 785.96,-529.07 785.96,-548.46"/>
<polygon fill="#34495e" stroke="#34495e" stroke-width="1.2" points="783.16,-548.35 785.96,-556.35 788.76,-548.35 783.16,-548.35"/>
<text xml:space="preserve" text-anchor="middle" x="774.71" y="-517.95" font-family="Times New Roman,serif" font-size="14.00"> OK</text>
</g>
<!-- S1_CH -->
<g id="node13" class="node">
<title>S1_CH</title>
<polygon fill="#fff9c4" stroke="#2c3e50" stroke-width="1.5" points="287.43,-154.2 204.6,-129 287.43,-103.8 370.26,-129 287.43,-154.2"/>
<text xml:space="preserve" text-anchor="middle" x="287.43" y="-126.83" font-family="Segoe UI" font-size="9.00">¿Refacciones en Stock?</text>
</g>
<!-- M1_CH&#45;&gt;S1_CH -->
<g id="edge7" class="edge">
<title>M1_CH&#45;&gt;S1_CH</title>
<path fill="none" stroke="#34495e" stroke-width="1.2" d="M1044.44,-295.21C1001.17,-280.46 942.7,-261.55 890.18,-248 696.8,-198.12 463.82,-157.46 353.03,-139.28"/>
<polygon fill="#34495e" stroke="#34495e" stroke-width="1.2" points="353.8,-136.57 345.46,-138.04 352.9,-142.09 353.8,-136.57"/>
<text xml:space="preserve" text-anchor="middle" x="636" y="-198.01" font-family="Times New Roman,serif" font-size="14.00"> Solicitar</text>
</g>
<!-- M2_CH -->
<g id="node10" class="node">
<title>M2_CH</title>
<polygon fill="#ffffff" stroke="#2c3e50" stroke-width="1.5" points="1174.78,-171.2 1045.18,-171.2 1045.18,-120.8 1174.78,-120.8 1174.78,-171.2"/>
<text xml:space="preserve" text-anchor="middle" x="1109.98" y="-150.2" font-family="Segoe UI" font-size="9.00">Preparación y Pintura</text>
<text xml:space="preserve" text-anchor="middle" x="1109.98" y="-137.45" font-family="Segoe UI" font-size="9.00">en Cabina</text>
</g>
<!-- M2_CH&#45;&gt;J2_CH -->
<g id="edge12" class="edge">
<title>M2_CH&#45;&gt;J2_CH</title>
<path fill="none" stroke="#34495e" stroke-width="1.2" d="M1050.96,-171.95C995.47,-196.76 911.87,-234.14 853.66,-260.17"/>
<polygon fill="#34495e" stroke="#34495e" stroke-width="1.2" points="852.72,-257.53 846.56,-263.35 855.01,-262.64 852.72,-257.53"/>
</g>
<!-- M4_CH -->
<g id="node12" class="node">
<title>M4_CH</title>
<polygon fill="#ffffff" stroke="#2c3e50" stroke-width="1.5" points="1363.38,-321.2 1233.78,-321.2 1233.78,-270.8 1363.38,-270.8 1363.38,-321.2"/>
<text xml:space="preserve" text-anchor="middle" x="1298.58" y="-300.2" font-family="Segoe UI" font-size="9.00">Carga de Evidencias</text>
<text xml:space="preserve" text-anchor="middle" x="1298.58" y="-287.45" font-family="Segoe UI" font-size="9.00">en Notion (Antes/Después)</text>
</g>
<!-- M3_CH&#45;&gt;M4_CH -->
<g id="edge14" class="edge">
<title>M3_CH&#45;&gt;M4_CH</title>
<path fill="none" stroke="#34495e" stroke-width="1.2" d="M1175.46,-254.11C1191.19,-259.51 1208.13,-265.32 1224.25,-270.85"/>
<polygon fill="#34495e" stroke="#34495e" stroke-width="1.2" points="1222.9,-273.35 1231.38,-273.3 1224.72,-268.05 1222.9,-273.35"/>
</g>
<!-- M4_CH&#45;&gt;J3_CH -->
<g id="edge15" class="edge">
<title>M4_CH&#45;&gt;J3_CH</title>
<path fill="none" stroke="#34495e" stroke-width="1.2" d="M1257.98,-321.89C1236.44,-335.07 1208.91,-350.48 1182.78,-361 1074.51,-404.56 941.88,-433.85 860.95,-449.22"/>
<polygon fill="#34495e" stroke="#34495e" stroke-width="1.2" points="860.47,-446.46 853.12,-450.69 861.5,-451.97 860.47,-446.46"/>
</g>
<!-- S2_CH -->
<g id="node14" class="node">
<title>S2_CH</title>
<polygon fill="#ffffff" stroke="#2c3e50" stroke-width="1.5" points="850.76,-133.2 721.16,-133.2 721.16,-82.8 850.76,-82.8 850.76,-133.2"/>
<text xml:space="preserve" text-anchor="middle" x="785.96" y="-112.2" font-family="Segoe UI" font-size="9.00">Surtir Láminas, Defensas</text>
<text xml:space="preserve" text-anchor="middle" x="785.96" y="-99.45" font-family="Segoe UI" font-size="9.00">y Kit de Pintura</text>
</g>
<!-- S1_CH&#45;&gt;S2_CH -->
<g id="edge10" class="edge">
<title>S1_CH&#45;&gt;S2_CH</title>
<path fill="none" stroke="#34495e" stroke-width="1.2" d="M362.5,-125.87C456.37,-121.9 617.21,-115.09 711.02,-111.13"/>
<polygon fill="#34495e" stroke="#34495e" stroke-width="1.2" points="711.03,-113.93 718.91,-110.79 710.79,-108.33 711.03,-113.93"/>
<text xml:space="preserve" text-anchor="middle" x="516.88" y="-125.14" font-family="Times New Roman,serif" font-size="14.00"> SÍ</text>
</g>
<!-- S3_CH -->
<g id="node15" class="node">
<title>S3_CH</title>
<polygon fill="#ffffff" stroke="#2c3e50" stroke-width="1.5" points="581.68,-66.2 452.08,-66.2 452.08,-15.8 581.68,-15.8 581.68,-66.2"/>
<text xml:space="preserve" text-anchor="middle" x="516.88" y="-45.2" font-family="Segoe UI" font-size="9.00">Solicitar Compra de</text>
<text xml:space="preserve" text-anchor="middle" x="516.88" y="-32.45" font-family="Segoe UI" font-size="9.00">Piezas Originales</text>
</g>
<!-- S1_CH&#45;&gt;S3_CH -->
<g id="edge8" class="edge">
<title>S1_CH&#45;&gt;S3_CH</title>
<path fill="none" stroke="#34495e" stroke-width="1.2" d="M325.48,-114.67C357.19,-102.39 403.8,-84.36 442.96,-69.21"/>
<polygon fill="#34495e" stroke="#34495e" stroke-width="1.2" points="443.57,-71.98 450.02,-66.48 441.55,-66.76 443.57,-71.98"/>
<text xml:space="preserve" text-anchor="middle" x="410.88" y="-88.2" font-family="Times New Roman,serif" font-size="14.00"> NO</text>
</g>
<!-- S2_CH&#45;&gt;M2_CH -->
<g id="edge11" class="edge">
<title>S2_CH&#45;&gt;M2_CH</title>
<path fill="none" stroke="#34495e" stroke-width="1.2" d="M851.3,-113.41C897.31,-117.54 960.66,-123.73 1016.18,-131 1022.38,-131.81 1028.8,-132.72 1035.23,-133.67"/>
<polygon fill="#34495e" stroke="#34495e" stroke-width="1.2" points="1034.53,-136.39 1042.86,-134.82 1035.36,-130.85 1034.53,-136.39"/>
</g>
<!-- S3_CH&#45;&gt;S2_CH -->
<g id="edge9" class="edge">
<title>S3_CH&#45;&gt;S2_CH</title>
<path fill="none" stroke="#34495e" stroke-width="1.2" d="M582.19,-57.13C621.14,-66.9 670.96,-79.4 711.46,-89.56"/>
<polygon fill="#34495e" stroke="#34495e" stroke-width="1.2" points="710.54,-92.22 718.99,-91.45 711.91,-86.79 710.54,-92.22"/>
</g>
</g>
</svg>
