<?xml version="1.0" encoding="UTF-8" standalone="no"?>
<!DOCTYPE svg PUBLIC "-//W3C//DTD SVG 1.1//EN"
 "http://www.w3.org/Graphics/SVG/1.1/DTD/svg11.dtd">
<!-- Generated by graphviz version 14.1.2 (20260124.0452)
 -->
<!-- Title: Cambio_Luces_Final Pages: 1 -->
<svg width="1293pt" height="599pt"
 viewBox="0.00 0.00 1293.00 599.00" xmlns="http://www.w3.org/2000/svg" xmlns:xlink="http://www.w3.org/1999/xlink">
<g id="graph0" class="graph" transform="scale(1 1) rotate(0) translate(4 594.5)">
<title>Cambio_Luces_Final</title>
<polygon fill="#ffffff" stroke="none" points="-4,4 -4,-594.5 1289.44,-594.5 1289.44,4 -4,4"/>
<text xml:space="preserve" text-anchor="middle" x="642.72" y="-571.3" font-family="Segoe UI Bold" font-size="16.00" fill="#1a1a1a">DIAGRAMA DE PROCESO: CAMBIO DE LUCES (SOP)</text>
<text xml:space="preserve" text-anchor="middle" x="642.72" y="-548.8" font-family="Segoe UI Bold" font-size="16.00" fill="#1a1a1a">SYNER GROUP | CLIENTE: BJX MOTORS | 2026</text>
<text xml:space="preserve" text-anchor="middle" x="642.72" y="-526.3" font-family="Segoe UI Bold" font-size="16.00" fill="#1a1a1a"> </text>
<g id="clust1" class="cluster">
<title>cluster_asesora</title>
<polygon fill="#f4f9fd" stroke="#2980b9" points="8,-324 8,-507 364.45,-507 364.45,-324 8,-324"/>
<text xml:space="preserve" text-anchor="middle" x="186.22" y="-487.8" font-family="Segoe UI Bold" font-size="16.00" fill="#1a1a1a">Asesora de Servicios</text>
</g>
<g id="clust2" class="cluster">
<title>cluster_jefe</title>
<polygon fill="#f8f9f9" stroke="#7f8c8d" points="455.95,-202 455.95,-385 900.24,-385 900.24,-202 455.95,-202"/>
<text xml:space="preserve" text-anchor="middle" x="678.09" y="-365.8" font-family="Segoe UI Bold" font-size="16.00" fill="#1a1a1a">Jefe de Mecánicos</text>
</g>
<g id="clust3" class="cluster">
<title>cluster_mecanico</title>
<polygon fill="#f1fcf4" stroke="#27ae60" points="754.64,-11 754.64,-194 1277.44,-194 1277.44,-11 754.64,-11"/>
<text xml:space="preserve" text-anchor="middle" x="1016.04" y="-174.8" font-family="Segoe UI Bold" font-size="16.00" fill="#1a1a1a">Mecánico</text>
</g>
<g id="clust4" class="cluster">
<title>cluster_almacen</title>
<polygon fill="#fffdf9" stroke="#f39c12" points="8,-8 8,-194 627.84,-194 627.84,-8 8,-8"/>
<text xml:space="preserve" text-anchor="middle" x="317.92" y="-174.8" font-family="Segoe UI Bold" font-size="16.00" fill="#1a1a1a">Almacén</text>
</g>
<!-- ST_LUZ -->
<g id="node1" class="node">
<title>ST_LUZ</title>
<ellipse fill="#27ae60" stroke="#2c3e50" stroke-width="1.5" cx="80.8" cy="-443" rx="64.8" ry="25.2"/>
<text xml:space="preserve" text-anchor="middle" x="80.8" y="-440.82" font-family="Segoe UI" font-size="9.00" fill="white">INICIO</text>
</g>
<!-- A1_LUZ -->
<g id="node2" class="node">
<title>A1_LUZ</title>
<polygon fill="#ffffff" stroke="#2c3e50" stroke-width="1.5" points="356.45,-468.2 226.85,-468.2 226.85,-417.8 356.45,-417.8 356.45,-468.2"/>
<text xml:space="preserve" text-anchor="middle" x="291.65" y="-447.2" font-family="Segoe UI" font-size="9.00">Recepción: Falla en</text>
<text xml:space="preserve" text-anchor="middle" x="291.65" y="-434.45" font-family="Segoe UI" font-size="9.00">Iluminación (Int/Ext)</text>
</g>
<!-- ST_LUZ&#45;&gt;A1_LUZ -->
<g id="edge1" class="edge">
<title>ST_LUZ&#45;&gt;A1_LUZ</title>
<path fill="none" stroke="#34495e" stroke-width="1.2" d="M146.17,-443C168.4,-443 193.49,-443 216.44,-443"/>
<polygon fill="#34495e" stroke="#34495e" stroke-width="1.2" points="216.32,-445.8 224.32,-443 216.32,-440.2 216.32,-445.8"/>
</g>
<!-- J1_LUZ -->
<g id="node5" class="node">
<title>J1_LUZ</title>
<polygon fill="#fff9c4" stroke="#2c3e50" stroke-width="1.5" points="555.04,-260.2 463.95,-235 555.04,-209.8 646.14,-235 555.04,-260.2"/>
<text xml:space="preserve" text-anchor="middle" x="555.04" y="-239.2" font-family="Segoe UI" font-size="9.00">Inspección Eléctrica:</text>
<text xml:space="preserve" text-anchor="middle" x="555.04" y="-226.45" font-family="Segoe UI" font-size="9.00">¿Llega Voltaje?</text>
</g>
<!-- A1_LUZ&#45;&gt;J1_LUZ -->
<g id="edge2" class="edge">
<title>A1_LUZ&#45;&gt;J1_LUZ</title>
<path fill="none" stroke="#34495e" stroke-width="1.2" d="M341.57,-417.22C349.6,-412.03 357.54,-406.23 364.45,-400 414.8,-354.63 402.83,-320.1 455.95,-278 469.35,-267.38 485.78,-258.84 501.33,-252.26"/>
<polygon fill="#34495e" stroke="#34495e" stroke-width="1.2" points="502.31,-254.88 508.68,-249.29 500.21,-249.69 502.31,-254.88"/>
</g>
<!-- A2_LUZ -->
<g id="node3" class="node">
<title>A2_LUZ</title>
<polygon fill="#ffffff" stroke="#2c3e50" stroke-width="1.5" points="145.6,-382.2 16,-382.2 16,-331.8 145.6,-331.8 145.6,-382.2"/>
<text xml:space="preserve" text-anchor="middle" x="80.8" y="-361.2" font-family="Segoe UI" font-size="9.00">Cierre de Orden</text>
<text xml:space="preserve" text-anchor="middle" x="80.8" y="-348.45" font-family="Segoe UI" font-size="9.00">y Entrega de Unidad</text>
</g>
<!-- END_LUZ -->
<g id="node4" class="node">
<title>END_LUZ</title>
<ellipse fill="#c0392b" stroke="#2c3e50" stroke-width="1.5" cx="291.65" cy="-357" rx="64.8" ry="25.2"/>
<text xml:space="preserve" text-anchor="middle" x="291.65" y="-354.82" font-family="Segoe UI" font-size="9.00" fill="white">FIN</text>
</g>
<!-- A2_LUZ&#45;&gt;END_LUZ -->
<g id="edge15" class="edge">
<title>A2_LUZ&#45;&gt;END_LUZ</title>
<path fill="none" stroke="#34495e" stroke-width="1.2" d="M146.17,-357C168.4,-357 193.49,-357 216.44,-357"/>
<polygon fill="#34495e" stroke="#34495e" stroke-width="1.2" points="216.32,-359.8 224.32,-357 216.32,-354.2 216.32,-359.8"/>
</g>
<!-- J2_LUZ -->
<g id="node6" class="node">
<title>J2_LUZ</title>
<polygon fill="#ffffff" stroke="#2c3e50" stroke-width="1.5" points="892.24,-260.2 762.64,-260.2 762.64,-209.8 892.24,-209.8 892.24,-260.2"/>
<text xml:space="preserve" text-anchor="middle" x="827.44" y="-239.2" font-family="Segoe UI" font-size="9.00">Revisión de Fusibles</text>
<text xml:space="preserve" text-anchor="middle" x="827.44" y="-226.45" font-family="Segoe UI" font-size="9.00">y Relevadores</text>
</g>
<!-- J1_LUZ&#45;&gt;J2_LUZ -->
<g id="edge3" class="edge">
<title>J1_LUZ&#45;&gt;J2_LUZ</title>
<path fill="none" stroke="#34495e" stroke-width="1.2" d="M648.72,-235C682.53,-235 720.28,-235 752.27,-235"/>
<polygon fill="#34495e" stroke="#34495e" stroke-width="1.2" points="752.18,-237.8 760.18,-235 752.18,-232.2 752.18,-237.8"/>
<text xml:space="preserve" text-anchor="middle" x="704.39" y="-238.2" font-family="Times New Roman,serif" font-size="14.00"> NO</text>
</g>
<!-- M1_LUZ -->
<g id="node8" class="node">
<title>M1_LUZ</title>
<polygon fill="#ffffff" stroke="#2c3e50" stroke-width="1.5" points="892.24,-69.2 762.64,-69.2 762.64,-18.8 892.24,-18.8 892.24,-69.2"/>
<text xml:space="preserve" text-anchor="middle" x="827.44" y="-48.2" font-family="Segoe UI" font-size="9.00">Acceso a Faro y</text>
<text xml:space="preserve" text-anchor="middle" x="827.44" y="-35.45" font-family="Segoe UI" font-size="9.00">Extracción de Bulbo</text>
</g>
<!-- J1_LUZ&#45;&gt;M1_LUZ -->
<g id="edge4" class="edge">
<title>J1_LUZ&#45;&gt;M1_LUZ</title>
<path fill="none" stroke="#34495e" stroke-width="1.2" d="M599.91,-221.58C614.87,-216.45 631.5,-210.09 646.14,-203 687.48,-182.97 705.09,-183.99 733.64,-148 751.46,-125.54 736.58,-109.27 754.64,-87 757.9,-82.98 761.64,-79.25 765.67,-75.8"/>
<polygon fill="#34495e" stroke="#34495e" stroke-width="1.2" points="767.2,-78.16 771.76,-71.01 763.74,-73.75 767.2,-78.16"/>
<text xml:space="preserve" text-anchor="middle" x="704.39" y="-193.05" font-family="Times New Roman,serif" font-size="14.00"> SÍ</text>
</g>
<!-- J2_LUZ&#45;&gt;M1_LUZ -->
<g id="edge5" class="edge">
<title>J2_LUZ&#45;&gt;M1_LUZ</title>
<path fill="none" stroke="#34495e" stroke-width="1.2" d="M762.22,-210.52C735.54,-196.58 708.05,-176.03 695.65,-147.25 680.52,-112.13 715.74,-85.84 753.56,-68.58"/>
<polygon fill="#34495e" stroke="#34495e" stroke-width="1.2" points="754.29,-71.32 760.5,-65.55 752.05,-66.19 754.29,-71.32"/>
<text xml:space="preserve" text-anchor="middle" x="704.39" y="-133.95" font-family="Times New Roman,serif" font-size="14.00"> Corregido</text>
</g>
<!-- J3_LUZ -->
<g id="node7" class="node">
<title>J3_LUZ</title>
<polygon fill="#ffffff" stroke="#2c3e50" stroke-width="1.5" points="619.84,-346.2 490.24,-346.2 490.24,-295.8 619.84,-295.8 619.84,-346.2"/>
<text xml:space="preserve" text-anchor="middle" x="555.04" y="-325.2" font-family="Segoe UI" font-size="9.00">Validar Alineación de</text>
<text xml:space="preserve" text-anchor="middle" x="555.04" y="-312.45" font-family="Segoe UI" font-size="9.00">Haz de Luz (Luxómetro)</text>
</g>
<!-- J3_LUZ&#45;&gt;A2_LUZ -->
<g id="edge14" class="edge">
<title>J3_LUZ&#45;&gt;A2_LUZ</title>
<path fill="none" stroke="#34495e" stroke-width="1.2" d="M489.79,-306.43C423.36,-293.68 316.95,-279.74 226.85,-297.5 197.23,-303.34 166.04,-315.29 140.21,-326.96"/>
<polygon fill="#34495e" stroke="#34495e" stroke-width="1.2" points="139.05,-324.41 132.96,-330.3 141.4,-329.49 139.05,-324.41"/>
<text xml:space="preserve" text-anchor="middle" x="291.65" y="-300.7" font-family="Times New Roman,serif" font-size="14.00"> OK</text>
</g>
<!-- S1_LUZ -->
<g id="node12" class="node">
<title>S1_LUZ</title>
<polygon fill="#fff9c4" stroke="#2c3e50" stroke-width="1.5" points="80.8,-77.2 16,-52 80.8,-26.8 145.6,-52 80.8,-77.2"/>
<text xml:space="preserve" text-anchor="middle" x="80.8" y="-49.83" font-family="Segoe UI" font-size="9.00">¿Bulbo en Stock?</text>
</g>
<!-- M1_LUZ&#45;&gt;S1_LUZ -->
<g id="edge6" class="edge">
<title>M1_LUZ&#45;&gt;S1_LUZ</title>
<path fill="none" stroke="#34495e" stroke-width="1.2" d="M762.11,-42.89C645.14,-41.16 389.78,-38.72 174.6,-46 165.5,-46.31 155.9,-46.77 146.47,-47.31"/>
<polygon fill="#34495e" stroke="#34495e" stroke-width="1.2" points="146.36,-44.51 138.54,-47.78 146.7,-50.1 146.36,-44.51"/>
<text xml:space="preserve" text-anchor="middle" x="410.2" y="-44.85" font-family="Times New Roman,serif" font-size="14.00"> Solicitar</text>
</g>
<!-- M2_LUZ -->
<g id="node9" class="node">
<title>M2_LUZ</title>
<polygon fill="#ffffff" stroke="#2c3e50" stroke-width="1.5" points="892.24,-155.2 762.64,-155.2 762.64,-104.8 892.24,-104.8 892.24,-155.2"/>
<text xml:space="preserve" text-anchor="middle" x="827.44" y="-134.2" font-family="Segoe UI" font-size="9.00">Limpieza de Conector</text>
<text xml:space="preserve" text-anchor="middle" x="827.44" y="-121.45" font-family="Segoe UI" font-size="9.00">con Limpiador de Contactos</text>
</g>
<!-- M3_LUZ -->
<g id="node10" class="node">
<title>M3_LUZ</title>
<polygon fill="#ffffff" stroke="#2c3e50" stroke-width="1.5" points="1080.84,-155.2 951.24,-155.2 951.24,-104.8 1080.84,-104.8 1080.84,-155.2"/>
<text xml:space="preserve" text-anchor="middle" x="1016.04" y="-134.2" font-family="Segoe UI" font-size="9.00">Sustitución de Bulbo y</text>
<text xml:space="preserve" text-anchor="middle" x="1016.04" y="-121.45" font-family="Segoe UI" font-size="9.00">Prueba de Encendido</text>
</g>
<!-- M2_LUZ&#45;&gt;M3_LUZ -->
<g id="edge11" class="edge">
<title>M2_LUZ&#45;&gt;M3_LUZ</title>
<path fill="none" stroke="#34495e" stroke-width="1.2" d="M892.92,-130C908.36,-130 924.97,-130 940.81,-130"/>
<polygon fill="#34495e" stroke="#34495e" stroke-width="1.2" points="940.74,-132.8 948.74,-130 940.74,-127.2 940.74,-132.8"/>
</g>
<!-- M4_LUZ -->
<g id="node11" class="node">
<title>M4_LUZ</title>
<polygon fill="#ffffff" stroke="#2c3e50" stroke-width="1.5" points="1269.44,-155.2 1139.84,-155.2 1139.84,-104.8 1269.44,-104.8 1269.44,-155.2"/>
<text xml:space="preserve" text-anchor="middle" x="1204.64" y="-134.2" font-family="Segoe UI" font-size="9.00">Carga de Evidencia</text>
<text xml:space="preserve" text-anchor="middle" x="1204.64" y="-121.45" font-family="Segoe UI" font-size="9.00">en Notion (Antes/Después)</text>
</g>
<!-- M3_LUZ&#45;&gt;M4_LUZ -->
<g id="edge12" class="edge">
<title>M3_LUZ&#45;&gt;M4_LUZ</title>
<path fill="none" stroke="#34495e" stroke-width="1.2" d="M1081.52,-130C1096.96,-130 1113.57,-130 1129.41,-130"/>
<polygon fill="#34495e" stroke="#34495e" stroke-width="1.2" points="1129.34,-132.8 1137.34,-130 1129.34,-127.2 1129.34,-132.8"/>
</g>
<!-- M4_LUZ&#45;&gt;J3_LUZ -->
<g id="edge13" class="edge">
<title>M4_LUZ&#45;&gt;J3_LUZ</title>
<path fill="none" stroke="#34495e" stroke-width="1.2" d="M1162.24,-155.71C1105.44,-189.67 999.11,-248.6 900.24,-278 809.69,-304.93 700.87,-315 630.17,-318.76"/>
<polygon fill="#34495e" stroke="#34495e" stroke-width="1.2" points="630.12,-315.96 622.27,-319.16 630.4,-321.56 630.12,-315.96"/>
</g>
<!-- S2_LUZ -->
<g id="node13" class="node">
<title>S2_LUZ</title>
<polygon fill="#ffffff" stroke="#2c3e50" stroke-width="1.5" points="619.84,-132.2 490.24,-132.2 490.24,-81.8 619.84,-81.8 619.84,-132.2"/>
<text xml:space="preserve" text-anchor="middle" x="555.04" y="-111.2" font-family="Segoe UI" font-size="9.00">Surtir Bulbo (LED/</text>
<text xml:space="preserve" text-anchor="middle" x="555.04" y="-98.45" font-family="Segoe UI" font-size="9.00">Halógeno) y Fusibles</text>
</g>
<!-- S1_LUZ&#45;&gt;S2_LUZ -->
<g id="edge9" class="edge">
<title>S1_LUZ&#45;&gt;S2_LUZ</title>
<path fill="none" stroke="#34495e" stroke-width="1.2" d="M142.94,-53.8C200.33,-56.01 288.48,-60.74 364.45,-70.5 403.06,-75.46 445.65,-83.43 480.67,-90.66"/>
<polygon fill="#34495e" stroke="#34495e" stroke-width="1.2" points="479.69,-93.31 488.09,-92.21 480.83,-87.83 479.69,-93.31"/>
<text xml:space="preserve" text-anchor="middle" x="291.65" y="-73.7" font-family="Times New Roman,serif" font-size="14.00"> SÍ</text>
</g>
<!-- S3_LUZ -->
<g id="node14" class="node">
<title>S3_LUZ</title>
<polygon fill="#ffffff" stroke="#2c3e50" stroke-width="1.5" points="356.45,-155.2 226.85,-155.2 226.85,-104.8 356.45,-104.8 356.45,-155.2"/>
<text xml:space="preserve" text-anchor="middle" x="291.65" y="-134.2" font-family="Segoe UI" font-size="9.00">Solicitar Compra</text>
<text xml:space="preserve" text-anchor="middle" x="291.65" y="-121.45" font-family="Segoe UI" font-size="9.00">Urgente</text>
</g>
<!-- S1_LUZ&#45;&gt;S3_LUZ -->
<g id="edge7" class="edge">
<title>S1_LUZ&#45;&gt;S3_LUZ</title>
<path fill="none" stroke="#34495e" stroke-width="1.2" d="M115.36,-64.53C142.77,-74.77 182.52,-89.62 217.24,-102.58"/>
<polygon fill="#34495e" stroke="#34495e" stroke-width="1.2" points="216.24,-105.2 224.72,-105.38 218.2,-99.95 216.24,-105.2"/>
<text xml:space="preserve" text-anchor="middle" x="186.22" y="-96.54" font-family="Times New Roman,serif" font-size="14.00"> NO</text>
</g>
<!-- S2_LUZ&#45;&gt;M2_LUZ -->
<g id="edge10" class="edge">
<title>S2_LUZ&#45;&gt;M2_LUZ</title>
<path fill="none" stroke="#34495e" stroke-width="1.2" d="M620.47,-112.48C660.09,-115.85 711.01,-120.18 752.31,-123.69"/>
<polygon fill="#34495e" stroke="#34495e" stroke-width="1.2" points="752.02,-126.48 760.23,-124.37 752.5,-120.9 752.02,-126.48"/>
</g>
<!-- S3_LUZ&#45;&gt;S2_LUZ -->
<g id="edge8" class="edge">
<title>S3_LUZ&#45;&gt;S2_LUZ</title>
<path fill="none" stroke="#34495e" stroke-width="1.2" d="M356.93,-124.34C394.14,-121.07 441.13,-116.94 479.89,-113.52"/>
<polygon fill="#34495e" stroke="#34495e" stroke-width="1.2" points="480.03,-116.32 487.75,-112.83 479.54,-110.75 480.03,-116.32"/>
</g>
</g>
</svg>
