<?xml version="1.0" encoding="UTF-8" standalone="no"?>
<!DOCTYPE svg PUBLIC "-//W3C//DTD SVG 1.1//EN"
 "http://www.w3.org/Graphics/SVG/1.1/DTD/svg11.dtd">
<!-- Generated by graphviz version 14.1.2 (20260124.0452)
 -->
<!-- Title: Cambio_Baleros_Final Pages: 1 -->
<svg width="1437pt" height="814pt"
 viewBox="0.00 0.00 1437.00 814.00" xmlns="http://www.w3.org/2000/svg" xmlns:xlink="http://www.w3.org/1999/xlink">
<g id="graph0" class="graph" transform="scale(1 1) rotate(0) translate(4 809.5)">
<title>Cambio_Baleros_Final</title>
<polygon fill="#ffffff" stroke="none" points="-4,4 -4,-809.5 1433.27,-809.5 1433.27,4 -4,4"/>
<text xml:space="preserve" text-anchor="middle" x="714.64" y="-786.3" font-family="Segoe UI Bold" font-size="16.00" fill="#1a1a1a">DIAGRAMA DE PROCESO: CAMBIO DE BALEROS DE RUEDA (SOP)</text>
<text xml:space="preserve" text-anchor="middle" x="714.64" y="-763.8" font-family="Segoe UI Bold" font-size="16.00" fill="#1a1a1a">SYNER GROUP | CLIENTE: BJX MOTORS | 2026</text>
<text xml:space="preserve" text-anchor="middle" x="714.64" y="-741.3" font-family="Segoe UI Bold" font-size="16.00" fill="#1a1a1a"> </text>
<g id="clust1" class="cluster">
<title>cluster_asesora</title>
<polygon fill="#f4f9fd" stroke="#2980b9" points="709.87,-539 709.87,-722 1044.07,-722 1044.07,-539 709.87,-539"/>
<text xml:space="preserve" text-anchor="middle" x="876.97" y="-702.8" font-family="Segoe UI Bold" font-size="16.00" fill="#1a1a1a">Asesora de Servicios</text>
</g>
<g id="clust2" class="cluster">
<title>cluster_jefe</title>
<polygon fill="#f8f9f9" stroke="#7f8c8d" points="457.09,-347 457.09,-530 855.47,-530 855.47,-347 457.09,-347"/>
<text xml:space="preserve" text-anchor="middle" x="656.28" y="-510.8" font-family="Segoe UI Bold" font-size="16.00" fill="#1a1a1a">Jefe de Mecánicos</text>
</g>
<g id="clust3" class="cluster">
<title>cluster_mecanico</title>
<polygon fill="#f1fcf4" stroke="#27ae60" points="709.87,-105 709.87,-288 1421.27,-288 1421.27,-105 709.87,-105"/>
<text xml:space="preserve" text-anchor="middle" x="1065.57" y="-268.8" font-family="Segoe UI Bold" font-size="16.00" fill="#1a1a1a">Mecánico</text>
</g>
<g id="clust4" class="cluster">
<title>cluster_almacen</title>
<polygon fill="#fffdf9" stroke="#f39c12" points="8,-8 8,-194 610.53,-194 610.53,-8 8,-8"/>
<text xml:space="preserve" text-anchor="middle" x="309.27" y="-174.8" font-family="Segoe UI Bold" font-size="16.00" fill="#1a1a1a">Almacén</text>
</g>
<!-- ST_BAL -->
<g id="node1" class="node">
<title>ST_BAL</title>
<ellipse fill="#27ae60" stroke="#2c3e50" stroke-width="1.5" cx="782.67" cy="-572" rx="64.8" ry="25.2"/>
<text xml:space="preserve" text-anchor="middle" x="782.67" y="-569.83" font-family="Segoe UI" font-size="9.00" fill="white">INICIO</text>
</g>
<!-- A1_BAL -->
<g id="node2" class="node">
<title>A1_BAL</title>
<polygon fill="#ffffff" stroke="#2c3e50" stroke-width="1.5" points="1036.07,-597.2 906.47,-597.2 906.47,-546.8 1036.07,-546.8 1036.07,-597.2"/>
<text xml:space="preserve" text-anchor="middle" x="971.27" y="-576.2" font-family="Segoe UI" font-size="9.00">Recepción: Reporte de</text>
<text xml:space="preserve" text-anchor="middle" x="971.27" y="-563.45" font-family="Segoe UI" font-size="9.00">Zumbido o Vibración</text>
</g>
<!-- ST_BAL&#45;&gt;A1_BAL -->
<g id="edge1" class="edge">
<title>ST_BAL&#45;&gt;A1_BAL</title>
<path fill="none" stroke="#34495e" stroke-width="1.2" d="M848.15,-572C863.59,-572 880.2,-572 896.04,-572"/>
<polygon fill="#34495e" stroke="#34495e" stroke-width="1.2" points="895.97,-574.8 903.97,-572 895.97,-569.2 895.97,-574.8"/>
</g>
<!-- J1_BAL -->
<g id="node5" class="node">
<title>J1_BAL</title>
<polygon fill="#fff9c4" stroke="#2c3e50" stroke-width="1.5" points="537.73,-405.2 465.09,-380 537.73,-354.8 610.37,-380 537.73,-405.2"/>
<text xml:space="preserve" text-anchor="middle" x="537.73" y="-384.2" font-family="Segoe UI" font-size="9.00">Prueba de Giro:</text>
<text xml:space="preserve" text-anchor="middle" x="537.73" y="-371.45" font-family="Segoe UI" font-size="9.00">¿Es el Balero?</text>
</g>
<!-- A1_BAL&#45;&gt;J1_BAL -->
<g id="edge2" class="edge">
<title>A1_BAL&#45;&gt;J1_BAL</title>
<path fill="none" stroke="#34495e" stroke-width="1.2" d="M905.96,-546.78C889.59,-540.68 871.96,-534.37 855.47,-529 760.68,-498.16 719.27,-528.59 639.37,-469 620.03,-454.57 627.77,-439.89 610.53,-423 601.19,-413.84 589.53,-405.81 578.35,-399.24"/>
<polygon fill="#34495e" stroke="#34495e" stroke-width="1.2" points="579.86,-396.88 571.52,-395.4 577.12,-401.76 579.86,-396.88"/>
</g>
<!-- A2_BAL -->
<g id="node3" class="node">
<title>A2_BAL</title>
<polygon fill="#ffffff" stroke="#2c3e50" stroke-width="1.5" points="847.47,-683.2 717.87,-683.2 717.87,-632.8 847.47,-632.8 847.47,-683.2"/>
<text xml:space="preserve" text-anchor="middle" x="782.67" y="-662.2" font-family="Segoe UI" font-size="9.00">Cierre de Orden y</text>
<text xml:space="preserve" text-anchor="middle" x="782.67" y="-649.45" font-family="Segoe UI" font-size="9.00">Validación de Silencio</text>
</g>
<!-- END_BAL -->
<g id="node4" class="node">
<title>END_BAL</title>
<ellipse fill="#c0392b" stroke="#2c3e50" stroke-width="1.5" cx="971.27" cy="-658" rx="64.8" ry="25.2"/>
<text xml:space="preserve" text-anchor="middle" x="971.27" y="-655.83" font-family="Segoe UI" font-size="9.00" fill="white">FIN</text>
</g>
<!-- A2_BAL&#45;&gt;END_BAL -->
<g id="edge16" class="edge">
<title>A2_BAL&#45;&gt;END_BAL</title>
<path fill="none" stroke="#34495e" stroke-width="1.2" d="M848.15,-658C863.59,-658 880.2,-658 896.04,-658"/>
<polygon fill="#34495e" stroke="#34495e" stroke-width="1.2" points="895.97,-660.8 903.97,-658 895.97,-655.2 895.97,-660.8"/>
</g>
<!-- J2_BAL -->
<g id="node6" class="node">
<title>J2_BAL</title>
<polygon fill="#ffffff" stroke="#2c3e50" stroke-width="1.5" points="847.47,-416.2 717.87,-416.2 717.87,-365.8 847.47,-365.8 847.47,-416.2"/>
<text xml:space="preserve" text-anchor="middle" x="782.67" y="-395.2" font-family="Segoe UI" font-size="9.00">Diagnóstico de Llantas</text>
<text xml:space="preserve" text-anchor="middle" x="782.67" y="-382.45" font-family="Segoe UI" font-size="9.00">o Diferencial</text>
</g>
<!-- J1_BAL&#45;&gt;J2_BAL -->
<g id="edge3" class="edge">
<title>J1_BAL&#45;&gt;J2_BAL</title>
<path fill="none" stroke="#34495e" stroke-width="1.2" d="M603.83,-382.95C635.81,-384.4 674.49,-386.15 707.6,-387.65"/>
<polygon fill="#34495e" stroke="#34495e" stroke-width="1.2" points="707.3,-390.44 715.42,-388 707.55,-384.84 707.3,-390.44"/>
<text xml:space="preserve" text-anchor="middle" x="664.12" y="-389.69" font-family="Times New Roman,serif" font-size="14.00"> NO</text>
</g>
<!-- M1_BAL -->
<g id="node8" class="node">
<title>M1_BAL</title>
<polygon fill="#ffffff" stroke="#2c3e50" stroke-width="1.5" points="847.47,-249.2 717.87,-249.2 717.87,-198.8 847.47,-198.8 847.47,-249.2"/>
<text xml:space="preserve" text-anchor="middle" x="782.67" y="-228.2" font-family="Segoe UI" font-size="9.00">Desmontaje de Maza,</text>
<text xml:space="preserve" text-anchor="middle" x="782.67" y="-215.45" font-family="Segoe UI" font-size="9.00">Calipers y Sensores</text>
</g>
<!-- J1_BAL&#45;&gt;M1_BAL -->
<g id="edge4" class="edge">
<title>J1_BAL&#45;&gt;M1_BAL</title>
<path fill="none" stroke="#34495e" stroke-width="1.2" d="M551.79,-359.23C568.88,-333.72 601.18,-290.86 639.37,-266.5 659.91,-253.4 684.67,-244.18 707.74,-237.76"/>
<polygon fill="#34495e" stroke="#34495e" stroke-width="1.2" points="708.39,-240.48 715.41,-235.73 706.96,-235.07 708.39,-240.48"/>
<text xml:space="preserve" text-anchor="middle" x="664.12" y="-269.7" font-family="Times New Roman,serif" font-size="14.00"> SÍ</text>
</g>
<!-- J2_BAL&#45;&gt;A2_BAL -->
<g id="edge5" class="edge">
<title>J2_BAL&#45;&gt;A2_BAL</title>
<path fill="none" stroke="#34495e" stroke-width="1.2" d="M717.3,-407.63C694.9,-416.8 672.2,-430.75 659.13,-451.75 645.24,-474.05 614.22,-497.94 709.87,-615 713.18,-619.05 716.98,-622.8 721.06,-626.27"/>
<polygon fill="#34495e" stroke="#34495e" stroke-width="1.2" points="719.22,-628.38 727.25,-631.08 722.65,-623.96 719.22,-628.38"/>
<text xml:space="preserve" text-anchor="middle" x="664.12" y="-454.95" font-family="Times New Roman,serif" font-size="14.00"> Corregir</text>
</g>
<!-- J3_BAL -->
<g id="node7" class="node">
<title>J3_BAL</title>
<polygon fill="#ffffff" stroke="#2c3e50" stroke-width="1.5" points="602.53,-491.2 472.93,-491.2 472.93,-440.8 602.53,-440.8 602.53,-491.2"/>
<text xml:space="preserve" text-anchor="middle" x="537.73" y="-470.2" font-family="Segoe UI" font-size="9.00">Validación de Giro Libre</text>
<text xml:space="preserve" text-anchor="middle" x="537.73" y="-457.45" font-family="Segoe UI" font-size="9.00">y Ausencia de Ruido</text>
</g>
<!-- J3_BAL&#45;&gt;A2_BAL -->
<g id="edge15" class="edge">
<title>J3_BAL&#45;&gt;A2_BAL</title>
<path fill="none" stroke="#34495e" stroke-width="1.2" d="M565.35,-491.83C597.99,-522.86 655.68,-575.65 709.87,-615 715.45,-619.05 721.42,-623.07 727.46,-626.95"/>
<polygon fill="#34495e" stroke="#34495e" stroke-width="1.2" points="725.89,-629.27 734.15,-631.15 728.87,-624.52 725.89,-629.27"/>
<text xml:space="preserve" text-anchor="middle" x="664.12" y="-599.63" font-family="Times New Roman,serif" font-size="14.00"> OK</text>
</g>
<!-- S1_BAL -->
<g id="node13" class="node">
<title>S1_BAL</title>
<polygon fill="#fff9c4" stroke="#2c3e50" stroke-width="1.5" points="81.37,-155.2 16,-130 81.37,-104.8 146.74,-130 81.37,-155.2"/>
<text xml:space="preserve" text-anchor="middle" x="81.37" y="-127.83" font-family="Segoe UI" font-size="9.00">¿Balero en Stock?</text>
</g>
<!-- M1_BAL&#45;&gt;S1_BAL -->
<g id="edge6" class="edge">
<title>M1_BAL&#45;&gt;S1_BAL</title>
<path fill="none" stroke="#34495e" stroke-width="1.2" d="M717.16,-222.14C613.28,-218.23 402.9,-206.55 227.99,-173 193.07,-166.3 154.51,-154.72 125.85,-145.27"/>
<polygon fill="#34495e" stroke="#34495e" stroke-width="1.2" points="127.11,-142.73 118.64,-142.86 125.34,-148.05 127.11,-142.73"/>
<text xml:space="preserve" text-anchor="middle" x="411.34" y="-205.38" font-family="Times New Roman,serif" font-size="14.00"> Solicitar</text>
</g>
<!-- M2_BAL -->
<g id="node9" class="node">
<title>M2_BAL</title>
<polygon fill="#ffffff" stroke="#2c3e50" stroke-width="1.5" points="847.47,-163.2 717.87,-163.2 717.87,-112.8 847.47,-112.8 847.47,-163.2"/>
<text xml:space="preserve" text-anchor="middle" x="782.67" y="-142.2" font-family="Segoe UI" font-size="9.00">Extracción de Balero</text>
<text xml:space="preserve" text-anchor="middle" x="782.67" y="-129.45" font-family="Segoe UI" font-size="9.00">Viejo con Prensa</text>
</g>
<!-- M3_BAL -->
<g id="node10" class="node">
<title>M3_BAL</title>
<polygon fill="#ffffff" stroke="#2c3e50" stroke-width="1.5" points="1036.07,-180.2 906.47,-180.2 906.47,-129.8 1036.07,-129.8 1036.07,-180.2"/>
<text xml:space="preserve" text-anchor="middle" x="971.27" y="-159.2" font-family="Segoe UI" font-size="9.00">Instalación de Balero</text>
<text xml:space="preserve" text-anchor="middle" x="971.27" y="-146.45" font-family="Segoe UI" font-size="9.00">Nuevo y Retenes</text>
</g>
<!-- M2_BAL&#45;&gt;M3_BAL -->
<g id="edge11" class="edge">
<title>M2_BAL&#45;&gt;M3_BAL</title>
<path fill="none" stroke="#34495e" stroke-width="1.2" d="M848.15,-143.87C863.59,-145.28 880.2,-146.79 896.04,-148.24"/>
<polygon fill="#34495e" stroke="#34495e" stroke-width="1.2" points="895.76,-151.02 903.98,-148.96 896.27,-145.45 895.76,-151.02"/>
</g>
<!-- M4_BAL -->
<g id="node11" class="node">
<title>M4_BAL</title>
<polygon fill="#ffffff" stroke="#2c3e50" stroke-width="1.5" points="1224.67,-185.2 1095.07,-185.2 1095.07,-134.8 1224.67,-134.8 1224.67,-185.2"/>
<text xml:space="preserve" text-anchor="middle" x="1159.87" y="-164.2" font-family="Segoe UI" font-size="9.00">Limpieza de Sensor ABS</text>
<text xml:space="preserve" text-anchor="middle" x="1159.87" y="-151.45" font-family="Segoe UI" font-size="9.00">y Ensamble Final</text>
</g>
<!-- M3_BAL&#45;&gt;M4_BAL -->
<g id="edge12" class="edge">
<title>M3_BAL&#45;&gt;M4_BAL</title>
<path fill="none" stroke="#34495e" stroke-width="1.2" d="M1036.75,-156.73C1052.19,-157.14 1068.8,-157.59 1084.64,-158.01"/>
<polygon fill="#34495e" stroke="#34495e" stroke-width="1.2" points="1084.5,-160.81 1092.57,-158.22 1084.65,-155.21 1084.5,-160.81"/>
</g>
<!-- M5_BAL -->
<g id="node12" class="node">
<title>M5_BAL</title>
<polygon fill="#ffffff" stroke="#2c3e50" stroke-width="1.5" points="1413.27,-206.2 1283.67,-206.2 1283.67,-155.8 1413.27,-155.8 1413.27,-206.2"/>
<text xml:space="preserve" text-anchor="middle" x="1348.47" y="-185.2" font-family="Segoe UI" font-size="9.00">Carga de Evidencia</text>
<text xml:space="preserve" text-anchor="middle" x="1348.47" y="-172.45" font-family="Segoe UI" font-size="9.00">en Notion (Fotos)</text>
</g>
<!-- M4_BAL&#45;&gt;M5_BAL -->
<g id="edge13" class="edge">
<title>M4_BAL&#45;&gt;M5_BAL</title>
<path fill="none" stroke="#34495e" stroke-width="1.2" d="M1225.35,-167.26C1240.79,-168.99 1257.4,-170.86 1273.24,-172.65"/>
<polygon fill="#34495e" stroke="#34495e" stroke-width="1.2" points="1272.92,-175.43 1281.18,-173.54 1273.55,-169.86 1272.92,-175.43"/>
</g>
<!-- M5_BAL&#45;&gt;J3_BAL -->
<g id="edge14" class="edge">
<title>M5_BAL&#45;&gt;J3_BAL</title>
<path fill="none" stroke="#34495e" stroke-width="1.2" d="M1328.23,-206.68C1297.43,-244.57 1233.12,-311 1160.87,-311 781.67,-311 781.67,-311 781.67,-311 712.14,-311 691.44,-329.92 639.37,-376 621.02,-392.24 627.95,-405.76 610.53,-423 606.33,-427.16 601.65,-431.08 596.75,-434.74"/>
<polygon fill="#34495e" stroke="#34495e" stroke-width="1.2" points="595.32,-432.32 590.39,-439.21 598.54,-436.9 595.32,-432.32"/>
</g>
<!-- S2_BAL -->
<g id="node14" class="node">
<title>S2_BAL</title>
<polygon fill="#ffffff" stroke="#2c3e50" stroke-width="1.5" points="602.53,-155.2 472.93,-155.2 472.93,-104.8 602.53,-104.8 602.53,-155.2"/>
<text xml:space="preserve" text-anchor="middle" x="537.73" y="-134.2" font-family="Segoe UI" font-size="9.00">Surtir Balero Sellado</text>
<text xml:space="preserve" text-anchor="middle" x="537.73" y="-121.45" font-family="Segoe UI" font-size="9.00">y Seguro de Maza</text>
</g>
<!-- S1_BAL&#45;&gt;S2_BAL -->
<g id="edge9" class="edge">
<title>S1_BAL&#45;&gt;S2_BAL</title>
<path fill="none" stroke="#34495e" stroke-width="1.2" d="M109.82,-115C138.37,-100.32 184.85,-78.97 227.99,-70.5 284.51,-59.4 300.73,-61.3 357.59,-70.5 394.41,-76.45 433.89,-88.87 466.4,-100.83"/>
<polygon fill="#34495e" stroke="#34495e" stroke-width="1.2" points="465.2,-103.37 473.67,-103.55 467.16,-98.13 465.2,-103.37"/>
<text xml:space="preserve" text-anchor="middle" x="292.79" y="-73.7" font-family="Times New Roman,serif" font-size="14.00"> SÍ</text>
</g>
<!-- S3_BAL -->
<g id="node15" class="node">
<title>S3_BAL</title>
<polygon fill="#ffffff" stroke="#2c3e50" stroke-width="1.5" points="357.59,-155.2 227.99,-155.2 227.99,-104.8 357.59,-104.8 357.59,-155.2"/>
<text xml:space="preserve" text-anchor="middle" x="292.79" y="-134.2" font-family="Segoe UI" font-size="9.00">Solicitar Compra</text>
<text xml:space="preserve" text-anchor="middle" x="292.79" y="-121.45" font-family="Segoe UI" font-size="9.00">Urgente</text>
</g>
<!-- S1_BAL&#45;&gt;S3_BAL -->
<g id="edge7" class="edge">
<title>S1_BAL&#45;&gt;S3_BAL</title>
<path fill="none" stroke="#34495e" stroke-width="1.2" d="M148.63,-130C170.65,-130 195.31,-130 217.87,-130"/>
<polygon fill="#34495e" stroke="#34495e" stroke-width="1.2" points="217.58,-132.8 225.58,-130 217.58,-127.2 217.58,-132.8"/>
<text xml:space="preserve" text-anchor="middle" x="187.37" y="-133.2" font-family="Times New Roman,serif" font-size="14.00"> NO</text>
</g>
<!-- S2_BAL&#45;&gt;M2_BAL -->
<g id="edge10" class="edge">
<title>S2_BAL&#45;&gt;M2_BAL</title>
<path fill="none" stroke="#34495e" stroke-width="1.2" d="M603.2,-132.12C635.31,-133.18 674.3,-134.46 707.63,-135.56"/>
<polygon fill="#34495e" stroke="#34495e" stroke-width="1.2" points="707.42,-138.36 715.51,-135.82 707.61,-132.76 707.42,-138.36"/>
</g>
<!-- S3_BAL&#45;&gt;S2_BAL -->
<g id="edge8" class="edge">
<title>S3_BAL&#45;&gt;S2_BAL</title>
<path fill="none" stroke="#34495e" stroke-width="1.2" d="M358.26,-130C390.37,-130 429.36,-130 462.69,-130"/>
<polygon fill="#34495e" stroke="#34495e" stroke-width="1.2" points="462.57,-132.8 470.57,-130 462.57,-127.2 462.57,-132.8"/>
</g>
</g>
</svg>
