<?xml version="1.0" encoding="UTF-8" standalone="no"?>
<!DOCTYPE svg PUBLIC "-//W3C//DTD SVG 1.1//EN"
 "http://www.w3.org/Graphics/SVG/1.1/DTD/svg11.dtd">
<!-- Generated by graphviz version 14.1.2 (20260124.0452)
 -->
<!-- Title: Lavado_Final Pages: 1 -->
<svg width="805pt" height="536pt"
 viewBox="0.00 0.00 805.00 536.00" xmlns="http://www.w3.org/2000/svg" xmlns:xlink="http://www.w3.org/1999/xlink">
<g id="graph0" class="graph" transform="scale(1 1) rotate(0) translate(4 531.5)">
<title>Lavado_Final</title>
<polygon fill="#ffffff" stroke="none" points="-4,4 -4,-531.5 800.56,-531.5 800.56,4 -4,4"/>
<text xml:space="preserve" text-anchor="middle" x="398.28" y="-508.3" font-family="Segoe UI Bold" font-size="16.00" fill="#1a1a1a">DIAGRAMA DE PROCESO: LAVADO Y DETALLADO (SOP)</text>
<text xml:space="preserve" text-anchor="middle" x="398.28" y="-485.8" font-family="Segoe UI Bold" font-size="16.00" fill="#1a1a1a">SYNER GROUP | CLIENTE: BJX MOTORS | 2026</text>
<text xml:space="preserve" text-anchor="middle" x="398.28" y="-463.3" font-family="Segoe UI Bold" font-size="16.00" fill="#1a1a1a"> </text>
<g id="clust1" class="cluster">
<title>cluster_asesora</title>
<polygon fill="#f4f9fd" stroke="#2980b9" points="8,-47 8,-230 342.2,-230 342.2,-47 8,-47"/>
<text xml:space="preserve" text-anchor="middle" x="175.1" y="-210.8" font-family="Segoe UI Bold" font-size="16.00" fill="#1a1a1a">Asesora de Servicios</text>
</g>
<g id="clust2" class="cluster">
<title>cluster_jefe</title>
<polygon fill="#f8f9f9" stroke="#7f8c8d" points="385.2,-8 385.2,-191 788.56,-191 788.56,-8 385.2,-8"/>
<text xml:space="preserve" text-anchor="middle" x="586.88" y="-171.8" font-family="Segoe UI Bold" font-size="16.00" fill="#1a1a1a">Jefe de Mecánicos</text>
</g>
<g id="clust3" class="cluster">
<title>cluster_lavado</title>
<polygon fill="#f1fcf4" stroke="#27ae60" points="408.66,-199 408.66,-382 788.56,-382 788.56,-199 408.66,-199"/>
<text xml:space="preserve" text-anchor="middle" x="598.61" y="-362.8" font-family="Segoe UI Bold" font-size="16.00" fill="#1a1a1a">Personal de Detallado</text>
</g>
<g id="clust4" class="cluster">
<title>cluster_almacen</title>
<polygon fill="#fffdf9" stroke="#f39c12" points="196.6,-347 196.6,-444 342.2,-444 342.2,-347 196.6,-347"/>
<text xml:space="preserve" text-anchor="middle" x="269.4" y="-424.8" font-family="Segoe UI Bold" font-size="16.00" fill="#1a1a1a">Almacén</text>
</g>
<!-- ST_LAV -->
<g id="node1" class="node">
<title>ST_LAV</title>
<ellipse fill="#27ae60" stroke="#2c3e50" stroke-width="1.5" cx="80.8" cy="-166" rx="64.8" ry="25.2"/>
<text xml:space="preserve" text-anchor="middle" x="80.8" y="-163.82" font-family="Segoe UI" font-size="9.00" fill="white">INICIO</text>
</g>
<!-- A1_LAV -->
<g id="node2" class="node">
<title>A1_LAV</title>
<polygon fill="#ffffff" stroke="#2c3e50" stroke-width="1.5" points="334.2,-191.2 204.6,-191.2 204.6,-140.8 334.2,-140.8 334.2,-191.2"/>
<text xml:space="preserve" text-anchor="middle" x="269.4" y="-170.2" font-family="Segoe UI" font-size="9.00">Confirmación de Orden</text>
<text xml:space="preserve" text-anchor="middle" x="269.4" y="-157.45" font-family="Segoe UI" font-size="9.00">Terminada al 100%</text>
</g>
<!-- ST_LAV&#45;&gt;A1_LAV -->
<g id="edge1" class="edge">
<title>ST_LAV&#45;&gt;A1_LAV</title>
<path fill="none" stroke="#34495e" stroke-width="1.2" d="M146.28,-166C161.72,-166 178.33,-166 194.17,-166"/>
<polygon fill="#34495e" stroke="#34495e" stroke-width="1.2" points="194.1,-168.8 202.1,-166 194.1,-163.2 194.1,-168.8"/>
</g>
<!-- J1_LAV -->
<g id="node5" class="node">
<title>J1_LAV</title>
<polygon fill="#fff9c4" stroke="#2c3e50" stroke-width="1.5" points="481.46,-152.2 393.2,-127 481.46,-101.8 569.71,-127 481.46,-152.2"/>
<text xml:space="preserve" text-anchor="middle" x="481.46" y="-131.2" font-family="Segoe UI" font-size="9.00">¿Se realizó Apertura</text>
<text xml:space="preserve" text-anchor="middle" x="481.46" y="-118.45" font-family="Segoe UI" font-size="9.00">de Motor?</text>
</g>
<!-- A1_LAV&#45;&gt;J1_LAV -->
<g id="edge2" class="edge">
<title>A1_LAV&#45;&gt;J1_LAV</title>
<path fill="none" stroke="#34495e" stroke-width="1.2" d="M334.85,-154.03C360.84,-149.21 390.75,-143.65 416.68,-138.84"/>
<polygon fill="#34495e" stroke="#34495e" stroke-width="1.2" points="416.9,-141.65 424.25,-137.44 415.87,-136.14 416.9,-141.65"/>
</g>
<!-- A2_LAV -->
<g id="node3" class="node">
<title>A2_LAV</title>
<polygon fill="#ffffff" stroke="#2c3e50" stroke-width="1.5" points="145.6,-105.2 16,-105.2 16,-54.8 145.6,-54.8 145.6,-105.2"/>
<text xml:space="preserve" text-anchor="middle" x="80.8" y="-84.2" font-family="Segoe UI" font-size="9.00">Inspección Final de</text>
<text xml:space="preserve" text-anchor="middle" x="80.8" y="-71.45" font-family="Segoe UI" font-size="9.00">Limpieza y Brillo</text>
</g>
<!-- END_LAV -->
<g id="node4" class="node">
<title>END_LAV</title>
<ellipse fill="#c0392b" stroke="#2c3e50" stroke-width="1.5" cx="269.4" cy="-80" rx="64.8" ry="25.2"/>
<text xml:space="preserve" text-anchor="middle" x="269.4" y="-77.83" font-family="Segoe UI" font-size="9.00" fill="white">FIN</text>
</g>
<!-- A2_LAV&#45;&gt;END_LAV -->
<g id="edge12" class="edge">
<title>A2_LAV&#45;&gt;END_LAV</title>
<path fill="none" stroke="#34495e" stroke-width="1.2" d="M146.28,-80C161.72,-80 178.33,-80 194.17,-80"/>
<polygon fill="#34495e" stroke="#34495e" stroke-width="1.2" points="194.1,-82.8 202.1,-80 194.1,-77.2 194.1,-82.8"/>
</g>
<!-- J2_LAV -->
<g id="node6" class="node">
<title>J2_LAV</title>
<polygon fill="#ffffff" stroke="#2c3e50" stroke-width="1.5" points="780.56,-152.2 650.96,-152.2 650.96,-101.8 780.56,-101.8 780.56,-152.2"/>
<text xml:space="preserve" text-anchor="middle" x="715.76" y="-131.2" font-family="Segoe UI" font-size="9.00">Instrucción de Lavado</text>
<text xml:space="preserve" text-anchor="middle" x="715.76" y="-118.45" font-family="Segoe UI" font-size="9.00">de Motor a Detalle</text>
</g>
<!-- J1_LAV&#45;&gt;J2_LAV -->
<g id="edge3" class="edge">
<title>J1_LAV&#45;&gt;J2_LAV</title>
<path fill="none" stroke="#34495e" stroke-width="1.2" d="M572.27,-127C594.86,-127 618.85,-127 640.57,-127"/>
<polygon fill="#34495e" stroke="#34495e" stroke-width="1.2" points="640.57,-129.8 648.57,-127 640.57,-124.2 640.57,-129.8"/>
<text xml:space="preserve" text-anchor="middle" x="610.34" y="-130.2" font-family="Times New Roman,serif" font-size="14.00"> SÍ</text>
</g>
<!-- M2_LAV -->
<g id="node9" class="node">
<title>M2_LAV</title>
<polygon fill="#ffffff" stroke="#2c3e50" stroke-width="1.5" points="780.56,-343.2 650.96,-343.2 650.96,-292.8 780.56,-292.8 780.56,-343.2"/>
<text xml:space="preserve" text-anchor="middle" x="715.76" y="-322.2" font-family="Segoe UI" font-size="9.00">Desengrasado de Motor</text>
<text xml:space="preserve" text-anchor="middle" x="715.76" y="-309.45" font-family="Segoe UI" font-size="9.00">y Lavado de Carrocería</text>
</g>
<!-- J1_LAV&#45;&gt;M2_LAV -->
<g id="edge4" class="edge">
<title>J1_LAV&#45;&gt;M2_LAV</title>
<path fill="none" stroke="#34495e" stroke-width="1.2" d="M509.76,-144.81C527.47,-156.82 550.69,-173.43 569.71,-190 609.12,-224.33 611.01,-241.31 650.96,-275 655.69,-278.99 660.81,-282.95 666,-286.75"/>
<polygon fill="#34495e" stroke="#34495e" stroke-width="1.2" points="664.03,-288.78 672.17,-291.14 667.28,-284.22 664.03,-288.78"/>
<text xml:space="preserve" text-anchor="middle" x="610.34" y="-249.88" font-family="Times New Roman,serif" font-size="14.00"> NO</text>
</g>
<!-- M1_LAV -->
<g id="node8" class="node">
<title>M1_LAV</title>
<polygon fill="#ffffff" stroke="#2c3e50" stroke-width="1.5" points="546.26,-257.2 416.66,-257.2 416.66,-206.8 546.26,-206.8 546.26,-257.2"/>
<text xml:space="preserve" text-anchor="middle" x="481.46" y="-236.2" font-family="Segoe UI" font-size="9.00">Protección de Alternador</text>
<text xml:space="preserve" text-anchor="middle" x="481.46" y="-223.45" font-family="Segoe UI" font-size="9.00">y Sensores Expuestos</text>
</g>
<!-- J2_LAV&#45;&gt;M1_LAV -->
<g id="edge5" class="edge">
<title>J2_LAV&#45;&gt;M1_LAV</title>
<path fill="none" stroke="#34495e" stroke-width="1.2" d="M666.74,-152.91C638.8,-167.55 602.69,-185.71 569.71,-200 565.08,-202 560.29,-204 555.43,-205.95"/>
<polygon fill="#34495e" stroke="#34495e" stroke-width="1.2" points="554.75,-203.21 548.33,-208.75 556.8,-208.42 554.75,-203.21"/>
</g>
<!-- J3_LAV -->
<g id="node7" class="node">
<title>J3_LAV</title>
<polygon fill="#ffffff" stroke="#2c3e50" stroke-width="1.5" points="546.26,-66.2 416.66,-66.2 416.66,-15.8 546.26,-15.8 546.26,-66.2"/>
<text xml:space="preserve" text-anchor="middle" x="481.46" y="-45.2" font-family="Segoe UI" font-size="9.00">Validación de</text>
<text xml:space="preserve" text-anchor="middle" x="481.46" y="-32.45" font-family="Segoe UI" font-size="9.00">Cero Fugas Post&#45;Lavado</text>
</g>
<!-- J3_LAV&#45;&gt;A2_LAV -->
<g id="edge11" class="edge">
<title>J3_LAV&#45;&gt;A2_LAV</title>
<path fill="none" stroke="#34495e" stroke-width="1.2" d="M416.1,-25.19C357.95,-13.52 270.41,-2.51 196.6,-20.5 172.94,-26.27 148.71,-37.83 128.65,-49.25"/>
<polygon fill="#34495e" stroke="#34495e" stroke-width="1.2" points="127.38,-46.74 121.89,-53.2 130.21,-51.58 127.38,-46.74"/>
<text xml:space="preserve" text-anchor="middle" x="269.4" y="-23.7" font-family="Times New Roman,serif" font-size="14.00"> OK</text>
</g>
<!-- M1_LAV&#45;&gt;M2_LAV -->
<g id="edge6" class="edge">
<title>M1_LAV&#45;&gt;M2_LAV</title>
<path fill="none" stroke="#34495e" stroke-width="1.2" d="M541.71,-257.9C551.38,-263.05 561.06,-268.8 569.71,-275 584.53,-285.62 582.32,-296.03 598.71,-304 611.66,-310.3 626.35,-314.18 640.81,-316.5"/>
<polygon fill="#34495e" stroke="#34495e" stroke-width="1.2" points="640.16,-319.24 648.47,-317.56 640.93,-313.69 640.16,-319.24"/>
</g>
<!-- S1_LAV -->
<g id="node12" class="node">
<title>S1_LAV</title>
<polygon fill="#ffffff" stroke="#2c3e50" stroke-width="1.5" points="334.2,-405.2 204.6,-405.2 204.6,-354.8 334.2,-354.8 334.2,-405.2"/>
<text xml:space="preserve" text-anchor="middle" x="269.4" y="-384.2" font-family="Segoe UI" font-size="9.00">Surtir Kit de Limpieza</text>
<text xml:space="preserve" text-anchor="middle" x="269.4" y="-371.45" font-family="Segoe UI" font-size="9.00">(Shampoo, Desengrasante)</text>
</g>
<!-- M2_LAV&#45;&gt;S1_LAV -->
<g id="edge7" class="edge">
<title>M2_LAV&#45;&gt;S1_LAV</title>
<path fill="none" stroke="#34495e" stroke-width="1.2" d="M650.45,-340.01C625.5,-347.77 596.53,-355.84 569.71,-361 479.64,-378.34 455.83,-375.77 364.2,-380 357.81,-380.29 351.16,-380.5 344.5,-380.63"/>
<polygon fill="#34495e" stroke="#34495e" stroke-width="1.2" points="344.52,-377.83 336.57,-380.76 344.61,-383.43 344.52,-377.83"/>
<text xml:space="preserve" text-anchor="middle" x="481.46" y="-382.22" font-family="Times New Roman,serif" font-size="14.00"> Solicitar</text>
</g>
<!-- M3_LAV -->
<g id="node10" class="node">
<title>M3_LAV</title>
<polygon fill="#ffffff" stroke="#2c3e50" stroke-width="1.5" points="546.26,-343.2 416.66,-343.2 416.66,-292.8 546.26,-292.8 546.26,-343.2"/>
<text xml:space="preserve" text-anchor="middle" x="481.46" y="-322.2" font-family="Segoe UI" font-size="9.00">Abrillantado de Tolvas,</text>
<text xml:space="preserve" text-anchor="middle" x="481.46" y="-309.45" font-family="Segoe UI" font-size="9.00">Llantas e Interiores</text>
</g>
<!-- M4_LAV -->
<g id="node11" class="node">
<title>M4_LAV</title>
<polygon fill="#ffffff" stroke="#2c3e50" stroke-width="1.5" points="780.56,-257.2 650.96,-257.2 650.96,-206.8 780.56,-206.8 780.56,-257.2"/>
<text xml:space="preserve" text-anchor="middle" x="715.76" y="-236.2" font-family="Segoe UI" font-size="9.00">Carga de Evidencia</text>
<text xml:space="preserve" text-anchor="middle" x="715.76" y="-223.45" font-family="Segoe UI" font-size="9.00">en Notion (Foto Final)</text>
</g>
<!-- M3_LAV&#45;&gt;M4_LAV -->
<g id="edge9" class="edge">
<title>M3_LAV&#45;&gt;M4_LAV</title>
<path fill="none" stroke="#34495e" stroke-width="1.2" d="M546.78,-325.63C571.47,-325.85 599.17,-322.62 621.96,-311 640.27,-301.67 635.83,-288.9 650.96,-275 655.29,-271.03 660.01,-267.15 664.86,-263.45"/>
<polygon fill="#34495e" stroke="#34495e" stroke-width="1.2" points="666.3,-265.87 671.1,-258.88 662.99,-261.36 666.3,-265.87"/>
</g>
<!-- M4_LAV&#45;&gt;J3_LAV -->
<g id="edge10" class="edge">
<title>M4_LAV&#45;&gt;J3_LAV</title>
<path fill="none" stroke="#34495e" stroke-width="1.2" d="M660.56,-206.11C657.26,-204.14 654.03,-202.1 650.96,-200 625.16,-182.4 616.81,-178.46 598.71,-153 579.43,-125.89 592.52,-108.22 569.71,-84 565.28,-79.29 560.22,-75.03 554.82,-71.19"/>
<polygon fill="#34495e" stroke="#34495e" stroke-width="1.2" points="556.44,-68.9 548.21,-66.85 553.36,-73.58 556.44,-68.9"/>
</g>
<!-- S1_LAV&#45;&gt;M3_LAV -->
<g id="edge8" class="edge">
<title>S1_LAV&#45;&gt;M3_LAV</title>
<path fill="none" stroke="#34495e" stroke-width="1.2" d="M334.85,-360.98C357.63,-354.25 383.43,-346.64 406.91,-339.71"/>
<polygon fill="#34495e" stroke="#34495e" stroke-width="1.2" points="407.5,-342.45 414.38,-337.5 405.92,-337.08 407.5,-342.45"/>
</g>
</g>
</svg>
