<?xml version="1.0" encoding="UTF-8" standalone="no"?>
<!DOCTYPE svg PUBLIC "-//W3C//DTD SVG 1.1//EN"
 "http://www.w3.org/Graphics/SVG/1.1/DTD/svg11.dtd">
<!-- Generated by graphviz version 14.1.2 (20260124.0452)
 -->
<!-- Title: Cambio_Llanta Pages: 1 -->
<svg width="801pt" height="897pt"
 viewBox="0.00 0.00 801.00 897.00" xmlns="http://www.w3.org/2000/svg" xmlns:xlink="http://www.w3.org/1999/xlink">
<g id="graph0" class="graph" transform="scale(1 1) rotate(0) translate(4 893.12)">
<title>Cambio_Llanta</title>
<polygon fill="#ffffff" stroke="none" points="-4,4 -4,-893.12 797,-893.12 797,4 -4,4"/>
<text xml:space="preserve" text-anchor="middle" x="396.5" y="-868.02" font-family="Segoe UI Bold" font-size="18.00" fill="#2c3e50">DIAGRAMA OPERATIVO: CAMBIO DE LLANTA</text>
<text xml:space="preserve" text-anchor="middle" x="396.5" y="-843.27" font-family="Segoe UI Bold" font-size="18.00" fill="#2c3e50">SISTEMA SYNER_BJX | MÉXICO 2026</text>
<text xml:space="preserve" text-anchor="middle" x="396.5" y="-818.52" font-family="Segoe UI Bold" font-size="18.00" fill="#2c3e50"> </text>
<g id="clust1" class="cluster">
<title>cluster_asesora</title>
<polygon fill="#ebf5fb" stroke="#ebf5fb" points="8,-197.75 8,-485.37 275,-485.37 275,-197.75 8,-197.75"/>
<text xml:space="preserve" text-anchor="middle" x="141.5" y="-464.27" font-family="Segoe UI Bold" font-size="18.00" fill="#2980b9">Asesora de Servicios</text>
</g>
<g id="clust2" class="cluster">
<title>cluster_jefe</title>
<polygon fill="#f8f9f9" stroke="#f8f9f9" points="251,-8 251,-174.75 553,-174.75 553,-8 251,-8"/>
<text xml:space="preserve" text-anchor="middle" x="402" y="-153.65" font-family="Segoe UI Bold" font-size="18.00" fill="#7f8c8d">Jefe de Mecánicos</text>
</g>
<g id="clust3" class="cluster">
<title>cluster_mecanico</title>
<polygon fill="#e9f7ef" stroke="#e9f7ef" points="443,-197.75 443,-593.62 785,-593.62 785,-197.75 443,-197.75"/>
<text xml:space="preserve" text-anchor="middle" x="614" y="-572.52" font-family="Segoe UI Bold" font-size="18.00" fill="#27ae60">Mecánico</text>
</g>
<g id="clust4" class="cluster">
<title>cluster_almacen</title>
<polygon fill="#fef5e7" stroke="#fef5e7" points="461,-632.12 461,-798.87 585,-798.87 585,-632.12 461,-632.12"/>
<text xml:space="preserve" text-anchor="middle" x="523" y="-777.77" font-family="Segoe UI Bold" font-size="18.00" fill="#e67e22">Almacén</text>
</g>
<!-- START -->
<g id="node1" class="node">
<title>START</title>
<ellipse fill="#d5f5e3" stroke="#2ecc71" stroke-width="1.5" cx="57" cy="-417.78" rx="26.83" ry="26.83"/>
<text xml:space="preserve" text-anchor="middle" x="57" y="-415.41" font-family="Segoe UI" font-size="10.00">INICIO</text>
</g>
<!-- A1 -->
<g id="node2" class="node">
<title>A1</title>
<path fill="#ffffff" stroke="#bdc3c7" stroke-width="1.5" d="M146,-342.6C146,-342.6 28,-342.6 28,-342.6 22,-342.6 16,-336.6 16,-330.6 16,-330.6 16,-318.1 16,-318.1 16,-312.1 22,-306.1 28,-306.1 28,-306.1 146,-306.1 146,-306.1 152,-306.1 158,-312.1 158,-318.1 158,-318.1 158,-330.6 158,-330.6 158,-336.6 152,-342.6 146,-342.6"/>
<text xml:space="preserve" text-anchor="middle" x="87" y="-329.1" font-family="Segoe UI" font-size="10.00">Recepción: Identificar Llanta</text>
<text xml:space="preserve" text-anchor="middle" x="87" y="-314.85" font-family="Segoe UI" font-size="10.00">(Medida y Posición)</text>
</g>
<!-- START&#45;&gt;A1 -->
<g id="edge1" class="edge">
<title>START&#45;&gt;A1</title>
<path fill="none" stroke="#7f8c8d" stroke-width="1.2" d="M65.2,-391.8C69.01,-380.18 73.57,-366.29 77.53,-354.22"/>
<polygon fill="#7f8c8d" stroke="#7f8c8d" stroke-width="1.2" points="80.64,-344.74 81.8,-355.64 79.63,-348.13 77.62,-354.27 77.52,-354.24 77.43,-354.21 79.44,-348.07 73.25,-352.83 80.64,-344.74"/>
</g>
<!-- A2 -->
<g id="node3" class="node">
<title>A2</title>
<path fill="#ffffff" stroke="#bdc3c7" stroke-width="1.5" d="M223.12,-242.25C223.12,-242.25 144.88,-242.25 144.88,-242.25 138.88,-242.25 132.88,-236.25 132.88,-230.25 132.88,-230.25 132.88,-217.75 132.88,-217.75 132.88,-211.75 138.88,-205.75 144.88,-205.75 144.88,-205.75 223.12,-205.75 223.12,-205.75 229.12,-205.75 235.12,-211.75 235.12,-217.75 235.12,-217.75 235.12,-230.25 235.12,-230.25 235.12,-236.25 229.12,-242.25 223.12,-242.25"/>
<text xml:space="preserve" text-anchor="middle" x="184" y="-228.75" font-family="Segoe UI" font-size="10.00">Apertura de Orden</text>
<text xml:space="preserve" text-anchor="middle" x="184" y="-214.5" font-family="Segoe UI" font-size="10.00">en Notion</text>
</g>
<!-- A1&#45;&gt;A2 -->
<g id="edge2" class="edge">
<title>A1&#45;&gt;A2</title>
<path fill="none" stroke="#7f8c8d" stroke-width="1.2" d="M104.34,-305.77C119.42,-290.48 141.47,-268.12 158.55,-250.81"/>
<polygon fill="#7f8c8d" stroke="#7f8c8d" stroke-width="1.2" points="165.45,-243.8 161.64,-254.08 163.04,-246.39 158.5,-250.99 158.43,-250.92 158.36,-250.85 162.9,-246.25 155.23,-247.76 165.45,-243.8"/>
</g>
<!-- J1 -->
<g id="node6" class="node">
<title>J1</title>
<path fill="#ffffff" stroke="#bdc3c7" stroke-width="1.5" d="M352.62,-134C352.62,-134 271.38,-134 271.38,-134 265.38,-134 259.38,-128 259.38,-122 259.38,-122 259.38,-109.5 259.38,-109.5 259.38,-103.5 265.38,-97.5 271.38,-97.5 271.38,-97.5 352.62,-97.5 352.62,-97.5 358.62,-97.5 364.62,-103.5 364.62,-109.5 364.62,-109.5 364.62,-122 364.62,-122 364.62,-128 358.62,-134 352.62,-134"/>
<text xml:space="preserve" text-anchor="middle" x="312" y="-120.5" font-family="Segoe UI" font-size="10.00">Inspección de Rines</text>
<text xml:space="preserve" text-anchor="middle" x="312" y="-106.25" font-family="Segoe UI" font-size="10.00">(Golpes o Fisuras)</text>
</g>
<!-- A2&#45;&gt;J1 -->
<g id="edge3" class="edge">
<title>A2&#45;&gt;J1</title>
<path fill="none" stroke="#7f8c8d" stroke-width="1.2" d="M205.42,-205.22C226.38,-187.82 258.47,-161.19 281.96,-141.68"/>
<polygon fill="#7f8c8d" stroke="#7f8c8d" stroke-width="1.2" points="289.38,-135.53 284.56,-145.38 286.72,-137.86 281.75,-141.99 281.69,-141.91 281.62,-141.84 286.59,-137.71 278.81,-138.45 289.38,-135.53"/>
</g>
<!-- A3 -->
<g id="node4" class="node">
<title>A3</title>
<path fill="#ffffff" stroke="#bdc3c7" stroke-width="1.5" d="M255.38,-436.03C255.38,-436.03 160.62,-436.03 160.62,-436.03 154.62,-436.03 148.62,-430.03 148.62,-424.03 148.62,-424.03 148.62,-411.53 148.62,-411.53 148.62,-405.53 154.62,-399.53 160.62,-399.53 160.62,-399.53 255.38,-399.53 255.38,-399.53 261.38,-399.53 267.38,-405.53 267.38,-411.53 267.38,-411.53 267.38,-424.03 267.38,-424.03 267.38,-430.03 261.38,-436.03 255.38,-436.03"/>
<text xml:space="preserve" text-anchor="middle" x="208" y="-422.53" font-family="Segoe UI" font-size="10.00">Notificación de Listado</text>
<text xml:space="preserve" text-anchor="middle" x="208" y="-408.28" font-family="Segoe UI" font-size="10.00">y Cobro</text>
</g>
<!-- END -->
<g id="node5" class="node">
<title>END</title>
<ellipse fill="#fadbd8" stroke="#e74c3c" stroke-width="1.5" cx="245" cy="-324.35" rx="21.6" ry="21.6"/>
<text xml:space="preserve" text-anchor="middle" x="245" y="-321.98" font-family="Segoe UI" font-size="10.00">FIN</text>
</g>
<!-- A3&#45;&gt;END -->
<g id="edge14" class="edge">
<title>A3&#45;&gt;END</title>
<path fill="none" stroke="#7f8c8d" stroke-width="1.2" d="M215.13,-399.15C220.12,-386.83 226.91,-370.06 232.75,-355.62"/>
<polygon fill="#7f8c8d" stroke="#7f8c8d" stroke-width="1.2" points="236.44,-346.5 236.86,-357.46 235.21,-349.82 232.78,-355.81 232.69,-355.77 232.6,-355.73 235.02,-349.74 228.52,-354.08 236.44,-346.5"/>
</g>
<!-- J2 -->
<g id="node7" class="node">
<title>J2</title>
<path fill="#ffffff" stroke="#bdc3c7" stroke-width="1.5" d="M438.25,-52.5C438.25,-52.5 375.75,-52.5 375.75,-52.5 369.75,-52.5 363.75,-46.5 363.75,-40.5 363.75,-40.5 363.75,-28 363.75,-28 363.75,-22 369.75,-16 375.75,-16 375.75,-16 438.25,-16 438.25,-16 444.25,-16 450.25,-22 450.25,-28 450.25,-28 450.25,-40.5 450.25,-40.5 450.25,-46.5 444.25,-52.5 438.25,-52.5"/>
<text xml:space="preserve" text-anchor="middle" x="407" y="-39" font-family="Segoe UI" font-size="10.00">Asignar Técnico</text>
<text xml:space="preserve" text-anchor="middle" x="407" y="-24.75" font-family="Segoe UI" font-size="10.00">de Montaje</text>
</g>
<!-- J1&#45;&gt;J2 -->
<g id="edge4" class="edge">
<title>J1&#45;&gt;J2</title>
<path fill="none" stroke="#7f8c8d" stroke-width="1.2" d="M333.08,-97.11C346.03,-86.27 362.82,-72.22 377.12,-60.26"/>
<polygon fill="#7f8c8d" stroke="#7f8c8d" stroke-width="1.2" points="384.53,-54.06 379.74,-63.93 381.88,-56.4 376.92,-60.55 376.86,-60.48 376.79,-60.4 381.75,-56.25 373.97,-57.02 384.53,-54.06"/>
</g>
<!-- M1 -->
<g id="node9" class="node">
<title>M1</title>
<path fill="#ffffff" stroke="#bdc3c7" stroke-width="1.5" d="M764.75,-552.87C764.75,-552.87 663.25,-552.87 663.25,-552.87 657.25,-552.87 651.25,-546.87 651.25,-540.87 651.25,-540.87 651.25,-528.37 651.25,-528.37 651.25,-522.37 657.25,-516.37 663.25,-516.37 663.25,-516.37 764.75,-516.37 764.75,-516.37 770.75,-516.37 776.75,-522.37 776.75,-528.37 776.75,-528.37 776.75,-540.87 776.75,-540.87 776.75,-546.87 770.75,-552.87 764.75,-552.87"/>
<text xml:space="preserve" text-anchor="middle" x="714" y="-539.37" font-family="Segoe UI" font-size="10.00">Desmontaje y Extracción</text>
<text xml:space="preserve" text-anchor="middle" x="714" y="-525.12" font-family="Segoe UI" font-size="10.00">de Válvula Vieja</text>
</g>
<!-- J2&#45;&gt;M1 -->
<g id="edge5" class="edge">
<title>J2&#45;&gt;M1</title>
<path fill="none" stroke="#7f8c8d" stroke-width="1.2" d="M450.84,-37.52C535.45,-43.12 713,-61.23 713,-114.75 713,-418.78 713,-418.78 713,-418.78 713,-447.85 713.32,-481.05 713.6,-504.26"/>
<polygon fill="#7f8c8d" stroke="#7f8c8d" stroke-width="1.2" points="713.73,-514.25 709.1,-504.31 713.58,-510.72 713.5,-504.25 713.6,-504.25 713.7,-504.25 713.78,-510.71 718.1,-504.2 713.73,-514.25"/>
</g>
<!-- J3 -->
<g id="node8" class="node">
<title>J3</title>
<path fill="#ffffff" stroke="#bdc3c7" stroke-width="1.5" d="M532.5,-134C532.5,-134 441.5,-134 441.5,-134 435.5,-134 429.5,-128 429.5,-122 429.5,-122 429.5,-109.5 429.5,-109.5 429.5,-103.5 435.5,-97.5 441.5,-97.5 441.5,-97.5 532.5,-97.5 532.5,-97.5 538.5,-97.5 544.5,-103.5 544.5,-109.5 544.5,-109.5 544.5,-122 544.5,-122 544.5,-128 538.5,-134 532.5,-134"/>
<text xml:space="preserve" text-anchor="middle" x="487" y="-120.5" font-family="Segoe UI" font-size="10.00">Verificación de Torque</text>
<text xml:space="preserve" text-anchor="middle" x="487" y="-106.25" font-family="Segoe UI" font-size="10.00">y Balanceo Final</text>
</g>
<!-- J3&#45;&gt;A3 -->
<g id="edge13" class="edge">
<title>J3&#45;&gt;A3</title>
<path fill="none" stroke="#7f8c8d" stroke-width="1.2" d="M470.7,-134.5C445.84,-161.79 397.27,-215.98 358.75,-264.25 330.69,-299.41 330.33,-313.67 299,-345.95 282.26,-363.2 261.2,-379.85 243.56,-392.67"/>
<polygon fill="#7f8c8d" stroke="#7f8c8d" stroke-width="1.2" points="235.88,-398.16 241.4,-388.68 238.7,-396.02 243.96,-392.26 244.02,-392.35 244.08,-392.43 238.82,-396.18 246.63,-396.01 235.88,-398.16"/>
<text xml:space="preserve" text-anchor="middle" x="392.88" y="-267.45" font-family="Times New Roman,serif" font-size="14.00"> Control OK</text>
</g>
<!-- S1 -->
<g id="node14" class="node">
<title>S1</title>
<path fill="#ffffff" stroke="#bdc3c7" stroke-width="1.5" d="M561.25,-758.12C561.25,-758.12 492.75,-758.12 492.75,-758.12 486.75,-758.12 480.75,-752.12 480.75,-746.12 480.75,-746.12 480.75,-733.62 480.75,-733.62 480.75,-727.62 486.75,-721.62 492.75,-721.62 492.75,-721.62 561.25,-721.62 561.25,-721.62 567.25,-721.62 573.25,-727.62 573.25,-733.62 573.25,-733.62 573.25,-746.12 573.25,-746.12 573.25,-752.12 567.25,-758.12 561.25,-758.12"/>
<text xml:space="preserve" text-anchor="middle" x="527" y="-744.62" font-family="Segoe UI" font-size="10.00">Surtir Neumático</text>
<text xml:space="preserve" text-anchor="middle" x="527" y="-730.37" font-family="Segoe UI" font-size="10.00">(Validar Medida)</text>
</g>
<!-- M1&#45;&gt;S1 -->
<g id="edge6" class="edge">
<title>M1&#45;&gt;S1</title>
<path fill="none" stroke="#7f8c8d" stroke-width="1.2" d="M703.13,-553.33C685.48,-581.33 648.53,-636.72 609,-676.62 595.25,-690.49 578.29,-703.87 563.37,-714.64"/>
<polygon fill="#7f8c8d" stroke="#7f8c8d" stroke-width="1.2" points="555.58,-720.15 561.15,-710.7 558.41,-718.03 563.69,-714.29 563.75,-714.38 563.81,-714.46 558.53,-718.19 566.35,-718.05 555.58,-720.15"/>
<text xml:space="preserve" text-anchor="middle" x="697.65" y="-653.32" font-family="Times New Roman,serif" font-size="14.00"> Solicitar Material</text>
</g>
<!-- M2 -->
<g id="node10" class="node">
<title>M2</title>
<path fill="#ffffff" stroke="#bdc3c7" stroke-width="1.5" d="M574.62,-552.87C574.62,-552.87 463.38,-552.87 463.38,-552.87 457.38,-552.87 451.38,-546.87 451.38,-540.87 451.38,-540.87 451.38,-528.37 451.38,-528.37 451.38,-522.37 457.38,-516.37 463.38,-516.37 463.38,-516.37 574.62,-516.37 574.62,-516.37 580.62,-516.37 586.62,-522.37 586.62,-528.37 586.62,-528.37 586.62,-540.87 586.62,-540.87 586.62,-546.87 580.62,-552.87 574.62,-552.87"/>
<text xml:space="preserve" text-anchor="middle" x="519" y="-539.37" font-family="Segoe UI" font-size="10.00">Montaje de Llanta Nueva</text>
<text xml:space="preserve" text-anchor="middle" x="519" y="-525.12" font-family="Segoe UI" font-size="10.00">(Respetar Sentido de Giro)</text>
</g>
<!-- M3 -->
<g id="node11" class="node">
<title>M3</title>
<path fill="#ffffff" stroke="#bdc3c7" stroke-width="1.5" d="M581.12,-436.03C581.12,-436.03 466.88,-436.03 466.88,-436.03 460.88,-436.03 454.88,-430.03 454.88,-424.03 454.88,-424.03 454.88,-411.53 454.88,-411.53 454.88,-405.53 460.88,-399.53 466.88,-399.53 466.88,-399.53 581.12,-399.53 581.12,-399.53 587.12,-399.53 593.12,-405.53 593.12,-411.53 593.12,-411.53 593.12,-424.03 593.12,-424.03 593.12,-430.03 587.12,-436.03 581.12,-436.03"/>
<text xml:space="preserve" text-anchor="middle" x="524" y="-422.53" font-family="Segoe UI" font-size="10.00">Balanceo Computarizado</text>
<text xml:space="preserve" text-anchor="middle" x="524" y="-408.28" font-family="Segoe UI" font-size="10.00">(Plomos Internos/Externos)</text>
</g>
<!-- M2&#45;&gt;M3 -->
<g id="edge9" class="edge">
<title>M2&#45;&gt;M3</title>
<path fill="none" stroke="#7f8c8d" stroke-width="1.2" d="M519.78,-515.67C520.57,-497.55 521.8,-469.27 522.73,-447.93"/>
<polygon fill="#7f8c8d" stroke="#7f8c8d" stroke-width="1.2" points="523.16,-438.06 527.22,-448.25 523.11,-441.6 522.83,-448.05 522.73,-448.05 522.63,-448.05 522.91,-441.59 518.23,-447.85 523.16,-438.06"/>
</g>
<!-- M4 -->
<g id="node12" class="node">
<title>M4</title>
<path fill="#ffffff" stroke="#bdc3c7" stroke-width="1.5" d="M571.88,-342.6C571.88,-342.6 480.12,-342.6 480.12,-342.6 474.12,-342.6 468.12,-336.6 468.12,-330.6 468.12,-330.6 468.12,-318.1 468.12,-318.1 468.12,-312.1 474.12,-306.1 480.12,-306.1 480.12,-306.1 571.88,-306.1 571.88,-306.1 577.88,-306.1 583.88,-312.1 583.88,-318.1 583.88,-318.1 583.88,-330.6 583.88,-330.6 583.88,-336.6 577.88,-342.6 571.88,-342.6"/>
<text xml:space="preserve" text-anchor="middle" x="526" y="-329.1" font-family="Segoe UI" font-size="10.00">Calibración de Presión</text>
<text xml:space="preserve" text-anchor="middle" x="526" y="-314.85" font-family="Segoe UI" font-size="10.00">según Fabricante (PSI)</text>
</g>
<!-- M3&#45;&gt;M4 -->
<g id="edge10" class="edge">
<title>M3&#45;&gt;M4</title>
<path fill="none" stroke="#7f8c8d" stroke-width="1.2" d="M524.39,-399.15C524.66,-386.46 525.04,-369.05 525.37,-354.33"/>
<polygon fill="#7f8c8d" stroke="#7f8c8d" stroke-width="1.2" points="525.58,-344.7 529.86,-354.79 525.6,-348.24 525.46,-354.7 525.36,-354.7 525.26,-354.69 525.4,-348.23 520.86,-354.6 525.58,-344.7"/>
</g>
<!-- M5 -->
<g id="node13" class="node">
<title>M5</title>
<path fill="#ffffff" stroke="#bdc3c7" stroke-width="1.5" d="M600.75,-242.25C600.75,-242.25 475.25,-242.25 475.25,-242.25 469.25,-242.25 463.25,-236.25 463.25,-230.25 463.25,-230.25 463.25,-217.75 463.25,-217.75 463.25,-211.75 469.25,-205.75 475.25,-205.75 475.25,-205.75 600.75,-205.75 600.75,-205.75 606.75,-205.75 612.75,-211.75 612.75,-217.75 612.75,-217.75 612.75,-230.25 612.75,-230.25 612.75,-236.25 606.75,-242.25 600.75,-242.25"/>
<text xml:space="preserve" text-anchor="middle" x="538" y="-228.75" font-family="Segoe UI" font-size="10.00">Carga de Evidencia en Notion</text>
<text xml:space="preserve" text-anchor="middle" x="538" y="-214.5" font-family="Segoe UI" font-size="10.00">(Foto de Dibujo y DOT)</text>
</g>
<!-- M4&#45;&gt;M5 -->
<g id="edge11" class="edge">
<title>M4&#45;&gt;M5</title>
<path fill="none" stroke="#7f8c8d" stroke-width="1.2" d="M528.15,-305.77C529.91,-291.31 532.44,-270.54 534.5,-253.68"/>
<polygon fill="#7f8c8d" stroke="#7f8c8d" stroke-width="1.2" points="535.66,-244.21 538.91,-254.69 535.33,-247.74 534.54,-254.15 534.44,-254.14 534.35,-254.13 535.13,-247.71 529.98,-253.6 535.66,-244.21"/>
</g>
<!-- M5&#45;&gt;J3 -->
<g id="edge12" class="edge">
<title>M5&#45;&gt;J3</title>
<path fill="none" stroke="#7f8c8d" stroke-width="1.2" d="M529.58,-205.45C521.69,-189.02 509.77,-164.18 500.54,-144.96"/>
<polygon fill="#7f8c8d" stroke="#7f8c8d" stroke-width="1.2" points="496.24,-135.99 504.62,-143.06 497.86,-139.14 500.65,-144.97 500.56,-145.01 500.47,-145.05 497.68,-139.23 496.51,-146.96 496.24,-135.99"/>
</g>
<!-- S2 -->
<g id="node15" class="node">
<title>S2</title>
<path fill="#ffffff" stroke="#bdc3c7" stroke-width="1.5" d="M564.75,-676.62C564.75,-676.62 481.25,-676.62 481.25,-676.62 475.25,-676.62 469.25,-670.62 469.25,-664.62 469.25,-664.62 469.25,-652.12 469.25,-652.12 469.25,-646.12 475.25,-640.12 481.25,-640.12 481.25,-640.12 564.75,-640.12 564.75,-640.12 570.75,-640.12 576.75,-646.12 576.75,-652.12 576.75,-652.12 576.75,-664.62 576.75,-664.62 576.75,-670.62 570.75,-676.62 564.75,-676.62"/>
<text xml:space="preserve" text-anchor="middle" x="523" y="-663.12" font-family="Segoe UI" font-size="10.00">Kit de Válvula Nueva</text>
<text xml:space="preserve" text-anchor="middle" x="523" y="-648.87" font-family="Segoe UI" font-size="10.00">y Pesas de Balanceo</text>
</g>
<!-- S1&#45;&gt;S2 -->
<g id="edge7" class="edge">
<title>S1&#45;&gt;S2</title>
<path fill="none" stroke="#7f8c8d" stroke-width="1.2" d="M526.11,-721.22C525.63,-711.61 525.02,-699.48 524.47,-688.51"/>
<polygon fill="#7f8c8d" stroke="#7f8c8d" stroke-width="1.2" points="523.97,-678.69 528.97,-688.46 524.25,-682.22 524.58,-688.68 524.48,-688.68 524.38,-688.69 524.05,-682.23 519.98,-688.91 523.97,-678.69"/>
</g>
<!-- S2&#45;&gt;M2 -->
<g id="edge8" class="edge">
<title>S2&#45;&gt;M2</title>
<path fill="none" stroke="#7f8c8d" stroke-width="1.2" d="M522.41,-639.4C521.76,-619.69 520.71,-587.75 519.95,-564.51"/>
<polygon fill="#7f8c8d" stroke="#7f8c8d" stroke-width="1.2" points="519.63,-554.72 524.45,-564.57 519.84,-558.25 520.06,-564.71 519.96,-564.71 519.86,-564.72 519.64,-558.26 515.46,-564.86 519.63,-554.72"/>
<text xml:space="preserve" text-anchor="middle" x="544.58" y="-604.82" font-family="Times New Roman,serif" font-size="14.00"> Entrega</text>
</g>
</g>
</svg>
