<?xml version="1.0" encoding="UTF-8" standalone="no"?>
<!DOCTYPE svg PUBLIC "-//W3C//DTD SVG 1.1//EN"
 "http://www.w3.org/Graphics/SVG/1.1/DTD/svg11.dtd">
<!-- Generated by graphviz version 14.1.2 (20260124.0452)
 -->
<!-- Title: Horquilla_Decisiones Pages: 1 -->
<svg width="1032pt" height="642pt"
 viewBox="0.00 0.00 1032.00 642.00" xmlns="http://www.w3.org/2000/svg" xmlns:xlink="http://www.w3.org/1999/xlink">
<g id="graph0" class="graph" transform="scale(1 1) rotate(0) translate(4 637.5)">
<title>Horquilla_Decisiones</title>
<polygon fill="#ffffff" stroke="none" points="-4,4 -4,-637.5 1028.11,-637.5 1028.11,4 -4,4"/>
<text xml:space="preserve" text-anchor="middle" x="512.05" y="-614.3" font-family="Segoe UI Bold" font-size="16.00" fill="#1a1a1a">DIAGRAMA DE PROCESO: CAMBIO DE HORQUILLA (CON DECISIONES)</text>
<text xml:space="preserve" text-anchor="middle" x="512.05" y="-591.8" font-family="Segoe UI Bold" font-size="16.00" fill="#1a1a1a">SYNER GROUP | CLIENTE: BJX MOTORS | 2026</text>
<text xml:space="preserve" text-anchor="middle" x="512.05" y="-569.3" font-family="Segoe UI Bold" font-size="16.00" fill="#1a1a1a"> </text>
<g id="clust1" class="cluster">
<title>cluster_asesora</title>
<polygon fill="#f4f9fd" stroke="#2980b9" points="8,-367 8,-550 364.45,-550 364.45,-367 8,-367"/>
<text xml:space="preserve" text-anchor="middle" x="186.22" y="-530.8" font-family="Segoe UI Bold" font-size="16.00" fill="#1a1a1a">Asesora de Servicios</text>
</g>
<g id="clust2" class="cluster">
<title>cluster_jefe</title>
<polygon fill="#f8f9f9" stroke="#7f8c8d" points="455.95,-367 455.95,-550 827.51,-550 827.51,-367 455.95,-367"/>
<text xml:space="preserve" text-anchor="middle" x="641.73" y="-530.8" font-family="Segoe UI Bold" font-size="16.00" fill="#1a1a1a">Jefe de Mecánicos</text>
</g>
<g id="clust3" class="cluster">
<title>cluster_mecanico</title>
<polygon fill="#f1fcf4" stroke="#27ae60" points="681.91,-176 681.91,-359 1016.11,-359 1016.11,-176 681.91,-176"/>
<text xml:space="preserve" text-anchor="middle" x="849.01" y="-339.8" font-family="Segoe UI Bold" font-size="16.00" fill="#1a1a1a">Mecánico</text>
</g>
<g id="clust4" class="cluster">
<title>cluster_almacen</title>
<polygon fill="#fffdf9" stroke="#f39c12" points="8,-8 8,-193 609.1,-193 609.1,-8 8,-8"/>
<text xml:space="preserve" text-anchor="middle" x="308.55" y="-173.8" font-family="Segoe UI Bold" font-size="16.00" fill="#1a1a1a">Almacén</text>
</g>
<!-- ST -->
<g id="node1" class="node">
<title>ST</title>
<ellipse fill="#27ae60" stroke="#2c3e50" stroke-width="1.5" cx="80.8" cy="-400" rx="64.8" ry="25.2"/>
<text xml:space="preserve" text-anchor="middle" x="80.8" y="-397.82" font-family="Segoe UI" font-size="9.00" fill="white">INICIO</text>
</g>
<!-- A1 -->
<g id="node2" class="node">
<title>A1</title>
<polygon fill="#ffffff" stroke="#2c3e50" stroke-width="1.5" points="356.45,-425.2 226.85,-425.2 226.85,-374.8 356.45,-374.8 356.45,-425.2"/>
<text xml:space="preserve" text-anchor="middle" x="291.65" y="-404.2" font-family="Segoe UI" font-size="9.00">Recepción y Registro</text>
<text xml:space="preserve" text-anchor="middle" x="291.65" y="-391.45" font-family="Segoe UI" font-size="9.00">en Notion</text>
</g>
<!-- ST&#45;&gt;A1 -->
<g id="edge1" class="edge">
<title>ST&#45;&gt;A1</title>
<path fill="none" stroke="#34495e" stroke-width="1.2" d="M146.17,-400C168.4,-400 193.49,-400 216.44,-400"/>
<polygon fill="#34495e" stroke="#34495e" stroke-width="1.2" points="216.32,-402.8 224.32,-400 216.32,-397.2 216.32,-402.8"/>
</g>
<!-- J1 -->
<g id="node5" class="node">
<title>J1</title>
<polygon fill="#ffffff" stroke="#2c3e50" stroke-width="1.5" points="601.1,-425.2 471.5,-425.2 471.5,-374.8 601.1,-374.8 601.1,-425.2"/>
<text xml:space="preserve" text-anchor="middle" x="536.3" y="-404.2" font-family="Segoe UI" font-size="9.00">Diagnóstico y</text>
<text xml:space="preserve" text-anchor="middle" x="536.3" y="-391.45" font-family="Segoe UI" font-size="9.00">Asignación</text>
</g>
<!-- A1&#45;&gt;J1 -->
<g id="edge2" class="edge">
<title>A1&#45;&gt;J1</title>
<path fill="none" stroke="#34495e" stroke-width="1.2" d="M357.04,-400C389.12,-400 428.06,-400 461.35,-400"/>
<polygon fill="#34495e" stroke="#34495e" stroke-width="1.2" points="461.22,-402.8 469.22,-400 461.22,-397.2 461.22,-402.8"/>
</g>
<!-- A2 -->
<g id="node3" class="node">
<title>A2</title>
<polygon fill="#ffffff" stroke="#2c3e50" stroke-width="1.5" points="145.6,-511.2 16,-511.2 16,-460.8 145.6,-460.8 145.6,-511.2"/>
<text xml:space="preserve" text-anchor="middle" x="80.8" y="-483.82" font-family="Segoe UI" font-size="9.00">Firma y Entrega</text>
</g>
<!-- END -->
<g id="node4" class="node">
<title>END</title>
<ellipse fill="#c0392b" stroke="#2c3e50" stroke-width="1.5" cx="291.65" cy="-486" rx="64.8" ry="25.2"/>
<text xml:space="preserve" text-anchor="middle" x="291.65" y="-483.82" font-family="Segoe UI" font-size="9.00" fill="white">FIN</text>
</g>
<!-- A2&#45;&gt;END -->
<g id="edge14" class="edge">
<title>A2&#45;&gt;END</title>
<path fill="none" stroke="#34495e" stroke-width="1.2" d="M146.17,-486C168.4,-486 193.49,-486 216.44,-486"/>
<polygon fill="#34495e" stroke="#34495e" stroke-width="1.2" points="216.32,-488.8 224.32,-486 216.32,-483.2 216.32,-488.8"/>
</g>
<!-- M1 -->
<g id="node8" class="node">
<title>M1</title>
<polygon fill="#ffffff" stroke="#2c3e50" stroke-width="1.5" points="819.51,-234.2 689.91,-234.2 689.91,-183.8 819.51,-183.8 819.51,-234.2"/>
<text xml:space="preserve" text-anchor="middle" x="754.71" y="-213.2" font-family="Segoe UI" font-size="9.00">Desmontaje de</text>
<text xml:space="preserve" text-anchor="middle" x="754.71" y="-200.45" font-family="Segoe UI" font-size="9.00">Horquilla Dañada</text>
</g>
<!-- J1&#45;&gt;M1 -->
<g id="edge3" class="edge">
<title>J1&#45;&gt;M1</title>
<path fill="none" stroke="#34495e" stroke-width="1.2" d="M558.83,-374.2C585.65,-343 633.84,-289.95 681.91,-252 687.16,-247.85 692.85,-243.81 698.64,-239.96"/>
<polygon fill="#34495e" stroke="#34495e" stroke-width="1.2" points="699.85,-242.51 705.06,-235.83 696.81,-237.81 699.85,-242.51"/>
</g>
<!-- J2 -->
<g id="node6" class="node">
<title>J2</title>
<polygon fill="#fff9c4" stroke="#2c3e50" stroke-width="1.5" points="536.3,-511.2 463.95,-486 536.3,-460.8 608.66,-486 536.3,-511.2"/>
<text xml:space="preserve" text-anchor="middle" x="536.3" y="-483.82" font-family="Segoe UI" font-size="9.00">¿Trabajo Conforme?</text>
</g>
<!-- J3 -->
<g id="node7" class="node">
<title>J3</title>
<polygon fill="#ffffff" stroke="#2c3e50" stroke-width="1.5" points="819.51,-511.2 689.91,-511.2 689.91,-460.8 819.51,-460.8 819.51,-511.2"/>
<text xml:space="preserve" text-anchor="middle" x="754.71" y="-483.82" font-family="Segoe UI" font-size="9.00">Validar Alineación</text>
</g>
<!-- J2&#45;&gt;J3 -->
<g id="edge12" class="edge">
<title>J2&#45;&gt;J3</title>
<path fill="none" stroke="#34495e" stroke-width="1.2" d="M610.87,-486C633.07,-486 657.45,-486 679.68,-486"/>
<polygon fill="#34495e" stroke="#34495e" stroke-width="1.2" points="679.58,-488.8 687.58,-486 679.58,-483.2 679.58,-488.8"/>
<text xml:space="preserve" text-anchor="middle" x="649.28" y="-489.2" font-family="Times New Roman,serif" font-size="14.00"> SÍ</text>
</g>
<!-- M2 -->
<g id="node9" class="node">
<title>M2</title>
<polygon fill="#ffffff" stroke="#2c3e50" stroke-width="1.5" points="819.51,-320.2 689.91,-320.2 689.91,-269.8 819.51,-269.8 819.51,-320.2"/>
<text xml:space="preserve" text-anchor="middle" x="754.71" y="-299.2" font-family="Segoe UI" font-size="9.00">Instalación de</text>
<text xml:space="preserve" text-anchor="middle" x="754.71" y="-286.45" font-family="Segoe UI" font-size="9.00">Pieza Nueva</text>
</g>
<!-- J2&#45;&gt;M2 -->
<g id="edge11" class="edge">
<title>J2&#45;&gt;M2</title>
<path fill="none" stroke="red" stroke-width="1.2" stroke-dasharray="5,2" d="M570.98,-472.17C584.46,-465.17 599.12,-455.48 609.1,-443 634.4,-411.39 611.54,-387.43 637.66,-356.5 649.37,-342.63 665.02,-331.44 681.03,-322.6"/>
<polygon fill="red" stroke="red" stroke-width="1.2" points="682.03,-325.24 687.81,-319.03 679.43,-320.28 682.03,-325.24"/>
<text xml:space="preserve" text-anchor="middle" x="649.28" y="-359.7" font-family="Times New Roman,serif" font-size="14.00"> NO</text>
</g>
<!-- J3&#45;&gt;A2 -->
<g id="edge13" class="edge">
<title>J3&#45;&gt;A2</title>
<path fill="none" stroke="#34495e" stroke-width="1.2" d="M689.46,-509.44C664.7,-517.32 635.93,-525.1 609.1,-529 440.98,-553.47 394.98,-553.4 226.85,-529 203.2,-525.57 178.05,-519.15 155.44,-512.29"/>
<polygon fill="#34495e" stroke="#34495e" stroke-width="1.2" points="156.46,-509.68 147.99,-509.98 154.8,-515.02 156.46,-509.68"/>
</g>
<!-- S1 -->
<g id="node11" class="node">
<title>S1</title>
<polygon fill="#fff9c4" stroke="#2c3e50" stroke-width="1.5" points="80.8,-154.2 16,-129 80.8,-103.8 145.6,-129 80.8,-154.2"/>
<text xml:space="preserve" text-anchor="middle" x="80.8" y="-126.83" font-family="Segoe UI" font-size="9.00">¿Hay Existencia?</text>
</g>
<!-- M1&#45;&gt;S1 -->
<g id="edge4" class="edge">
<title>M1&#45;&gt;S1</title>
<path fill="none" stroke="#34495e" stroke-width="1.2" d="M689.45,-203.98C590.02,-195.87 393.02,-178.37 226.85,-155 196.14,-150.68 162,-144.62 134.55,-139.44"/>
<polygon fill="#34495e" stroke="#34495e" stroke-width="1.2" points="135.31,-136.73 126.93,-137.99 134.26,-142.24 135.31,-136.73"/>
<text xml:space="preserve" text-anchor="middle" x="410.2" y="-183.16" font-family="Times New Roman,serif" font-size="14.00"> Solicitar</text>
</g>
<!-- M3 -->
<g id="node10" class="node">
<title>M3</title>
<polygon fill="#ffffff" stroke="#2c3e50" stroke-width="1.5" points="1008.11,-320.2 878.51,-320.2 878.51,-269.8 1008.11,-269.8 1008.11,-320.2"/>
<text xml:space="preserve" text-anchor="middle" x="943.31" y="-299.2" font-family="Segoe UI" font-size="9.00">Carga Evidencias</text>
<text xml:space="preserve" text-anchor="middle" x="943.31" y="-286.45" font-family="Segoe UI" font-size="9.00">en Notion</text>
</g>
<!-- M2&#45;&gt;M3 -->
<g id="edge9" class="edge">
<title>M2&#45;&gt;M3</title>
<path fill="none" stroke="#34495e" stroke-width="1.2" d="M820.19,-295C835.63,-295 852.24,-295 868.08,-295"/>
<polygon fill="#34495e" stroke="#34495e" stroke-width="1.2" points="868.01,-297.8 876.01,-295 868.01,-292.2 868.01,-297.8"/>
</g>
<!-- M3&#45;&gt;J2 -->
<g id="edge10" class="edge">
<title>M3&#45;&gt;J2</title>
<path fill="none" stroke="#34495e" stroke-width="1.2" d="M887.45,-320.87C804.61,-359.94 649.58,-433.05 576.86,-467.34"/>
<polygon fill="#34495e" stroke="#34495e" stroke-width="1.2" points="576.1,-464.61 570.05,-470.55 578.48,-469.68 576.1,-464.61"/>
</g>
<!-- S2 -->
<g id="node12" class="node">
<title>S2</title>
<polygon fill="#ffffff" stroke="#2c3e50" stroke-width="1.5" points="356.45,-66.2 226.85,-66.2 226.85,-15.8 356.45,-15.8 356.45,-66.2"/>
<text xml:space="preserve" text-anchor="middle" x="291.65" y="-38.83" font-family="Segoe UI" font-size="9.00">Solicitar Compra</text>
</g>
<!-- S1&#45;&gt;S2 -->
<g id="edge5" class="edge">
<title>S1&#45;&gt;S2</title>
<path fill="none" stroke="#34495e" stroke-width="1.2" d="M113.07,-115.83C141.41,-103.88 184.19,-85.86 220.66,-70.49"/>
<polygon fill="#34495e" stroke="#34495e" stroke-width="1.2" points="221.34,-73.24 227.63,-67.55 219.17,-68.08 221.34,-73.24"/>
<text xml:space="preserve" text-anchor="middle" x="186.22" y="-90.84" font-family="Times New Roman,serif" font-size="14.00"> NO</text>
</g>
<!-- S3 -->
<g id="node13" class="node">
<title>S3</title>
<polygon fill="#ffffff" stroke="#2c3e50" stroke-width="1.5" points="601.1,-154.2 471.5,-154.2 471.5,-103.8 601.1,-103.8 601.1,-154.2"/>
<text xml:space="preserve" text-anchor="middle" x="536.3" y="-133.2" font-family="Segoe UI" font-size="9.00">Entrega de Kit</text>
<text xml:space="preserve" text-anchor="middle" x="536.3" y="-120.45" font-family="Segoe UI" font-size="9.00">(Horquilla/Pernos)</text>
</g>
<!-- S1&#45;&gt;S3 -->
<g id="edge7" class="edge">
<title>S1&#45;&gt;S3</title>
<path fill="none" stroke="#34495e" stroke-width="1.2" d="M147.26,-129C230.6,-129 374.21,-129 461.4,-129"/>
<polygon fill="#34495e" stroke="#34495e" stroke-width="1.2" points="461.15,-131.8 469.15,-129 461.15,-126.2 461.15,-131.8"/>
<text xml:space="preserve" text-anchor="middle" x="291.65" y="-132.2" font-family="Times New Roman,serif" font-size="14.00"> SÍ</text>
</g>
<!-- S2&#45;&gt;S3 -->
<g id="edge6" class="edge">
<title>S2&#45;&gt;S3</title>
<path fill="none" stroke="#34495e" stroke-width="1.2" d="M357.04,-64.35C389.39,-76.08 428.73,-90.35 462.21,-102.49"/>
<polygon fill="#34495e" stroke="#34495e" stroke-width="1.2" points="460.85,-104.98 469.33,-105.07 462.76,-99.71 460.85,-104.98"/>
<text xml:space="preserve" text-anchor="middle" x="410.2" y="-93.47" font-family="Times New Roman,serif" font-size="14.00"> Recibir</text>
</g>
<!-- S3&#45;&gt;M2 -->
<g id="edge8" class="edge">
<title>S3&#45;&gt;M2</title>
<path fill="none" stroke="#34495e" stroke-width="1.2" d="M564.72,-154.71C593,-180.65 638.92,-221.17 681.91,-252 687.72,-256.17 693.95,-260.32 700.22,-264.32"/>
<polygon fill="#34495e" stroke="#34495e" stroke-width="1.2" points="698.36,-266.45 706.63,-268.31 701.32,-261.7 698.36,-266.45"/>
</g>
</g>
</svg>
