<?xml version="1.0" encoding="UTF-8" standalone="no"?>
<!DOCTYPE svg PUBLIC "-//W3C//DTD SVG 1.1//EN"
 "http://www.w3.org/Graphics/SVG/1.1/DTD/svg11.dtd">
<!-- Generated by graphviz version 14.1.2 (20260124.0452)
 -->
<!-- Title: Cambio_Bateria Pages: 1 -->
<svg width="1430pt" height="529pt"
 viewBox="0.00 0.00 1430.00 529.00" xmlns="http://www.w3.org/2000/svg" xmlns:xlink="http://www.w3.org/1999/xlink">
<g id="graph0" class="graph" transform="scale(1 1) rotate(0) translate(4 524.5)">
<title>Cambio_Bateria</title>
<polygon fill="#ffffff" stroke="none" points="-4,4 -4,-524.5 1426.35,-524.5 1426.35,4 -4,4"/>
<text xml:space="preserve" text-anchor="middle" x="711.17" y="-501.3" font-family="Segoe UI Bold" font-size="16.00" fill="#2c3e50">DIAGRAMA DE PROCESO OPERATIVO: CAMBIO DE BATERÍA</text>
<text xml:space="preserve" text-anchor="middle" x="711.17" y="-478.8" font-family="Segoe UI Bold" font-size="16.00" fill="#2c3e50">SISTEMA SYNER_BJX | MÉXICO 2026</text>
<text xml:space="preserve" text-anchor="middle" x="711.17" y="-456.3" font-family="Segoe UI Bold" font-size="16.00" fill="#2c3e50"> </text>
<g id="clust1" class="cluster">
<title>cluster_asesora</title>
<polygon fill="#f4f9fd" stroke="#2980b9" points="564.1,-268 564.1,-437 1065.95,-437 1065.95,-268 564.1,-268"/>
<text xml:space="preserve" text-anchor="middle" x="815.02" y="-417.8" font-family="Segoe UI Bold" font-size="16.00" fill="#2980b9">Asesora de Servicios</text>
</g>
<g id="clust2" class="cluster">
<title>cluster_jefe</title>
<polygon fill="#f8f9f9" stroke="#7f8c8d" points="1108.95,-145 1108.95,-314 1414.35,-314 1414.35,-145 1108.95,-145"/>
<text xml:space="preserve" text-anchor="middle" x="1261.65" y="-294.8" font-family="Segoe UI Bold" font-size="16.00" fill="#34495e">Jefe de Mecánicos</text>
</g>
<g id="clust3" class="cluster">
<title>cluster_mecanico</title>
<polygon fill="#f1fcf4" stroke="#27ae60" points="389.9,-8 389.9,-177 1065.95,-177 1065.95,-8 389.9,-8"/>
<text xml:space="preserve" text-anchor="middle" x="727.92" y="-157.8" font-family="Segoe UI Bold" font-size="16.00" fill="#27ae60">Mecánico</text>
</g>
<g id="clust4" class="cluster">
<title>cluster_almacen</title>
<polygon fill="#fffdf9" stroke="#f39c12" points="8,-85 8,-175 313.4,-175 313.4,-85 8,-85"/>
<text xml:space="preserve" text-anchor="middle" x="160.7" y="-155.8" font-family="Segoe UI Bold" font-size="16.00" fill="#d35400">Almacén</text>
</g>
<!-- ST_BAT -->
<g id="node1" class="node">
<title>ST_BAT</title>
<ellipse fill="#d5f5e3" stroke="#2ecc71" stroke-width="1.5" cx="629.7" cy="-377" rx="57.6" ry="21.6"/>
<text xml:space="preserve" text-anchor="middle" x="629.7" y="-374.82" font-family="Segoe UI" font-size="9.00" fill="#34495e">INICIO</text>
</g>
<!-- A1_BAT -->
<g id="node2" class="node">
<title>A1_BAT</title>
<polygon fill="#ffffff" stroke="#bdc3c7" stroke-width="1.5" points="861.5,-398.6 746.3,-398.6 746.3,-355.4 861.5,-355.4 861.5,-398.6"/>
<text xml:space="preserve" text-anchor="middle" x="803.9" y="-381.2" font-family="Segoe UI" font-size="9.00" fill="#34495e">Recepción:</text>
<text xml:space="preserve" text-anchor="middle" x="803.9" y="-368.45" font-family="Segoe UI" font-size="9.00" fill="#34495e">Falla de Arranque</text>
</g>
<!-- ST_BAT&#45;&gt;A1_BAT -->
<g id="edge1" class="edge">
<title>ST_BAT&#45;&gt;A1_BAT</title>
<path fill="none" stroke="#7f8c8d" stroke-width="1.2" d="M688.04,-377C703.58,-377 720.53,-377 736.52,-377"/>
<polygon fill="#7f8c8d" stroke="#7f8c8d" stroke-width="1.2" points="744.35,-377 736.35,-380.6 741.81,-377.1 736.35,-377.1 736.35,-377 736.35,-376.9 741.81,-376.9 736.35,-373.4 744.35,-377"/>
</g>
<!-- A2_BAT -->
<g id="node3" class="node">
<title>A2_BAT</title>
<polygon fill="#ffffff" stroke="#bdc3c7" stroke-width="1.5" points="1057.95,-358.6 942.75,-358.6 942.75,-315.4 1057.95,-315.4 1057.95,-358.6"/>
<text xml:space="preserve" text-anchor="middle" x="1000.35" y="-341.2" font-family="Segoe UI" font-size="9.00" fill="#34495e">Apertura de Orden</text>
<text xml:space="preserve" text-anchor="middle" x="1000.35" y="-328.45" font-family="Segoe UI" font-size="9.00" fill="#34495e">en Notion</text>
</g>
<!-- A1_BAT&#45;&gt;A2_BAT -->
<g id="edge2" class="edge">
<title>A1_BAT&#45;&gt;A2_BAT</title>
<path fill="none" stroke="#7f8c8d" stroke-width="1.2" d="M862.19,-365.22C884.44,-360.64 910.07,-355.37 933.11,-350.63"/>
<polygon fill="#7f8c8d" stroke="#7f8c8d" stroke-width="1.2" points="940.7,-349.06 933.59,-354.2 938.24,-349.67 932.89,-350.77 932.87,-350.68 932.85,-350.58 938.2,-349.48 932.14,-347.15 940.7,-349.06"/>
</g>
<!-- J1_BAT -->
<g id="node6" class="node">
<title>J1_BAT</title>
<polygon fill="#ffffff" stroke="#bdc3c7" stroke-width="1.5" points="1232.15,-275.6 1116.95,-275.6 1116.95,-232.4 1232.15,-232.4 1232.15,-275.6"/>
<text xml:space="preserve" text-anchor="middle" x="1174.55" y="-258.2" font-family="Segoe UI" font-size="9.00" fill="#34495e">Prueba de Alternador</text>
<text xml:space="preserve" text-anchor="middle" x="1174.55" y="-245.45" font-family="Segoe UI" font-size="9.00" fill="#34495e">(Validar Carga)</text>
</g>
<!-- A2_BAT&#45;&gt;J1_BAT -->
<g id="edge3" class="edge">
<title>A2_BAT&#45;&gt;J1_BAT</title>
<path fill="none" stroke="#7f8c8d" stroke-width="1.2" d="M1047.5,-314.76C1069.5,-304.15 1095.98,-291.39 1118.98,-280.3"/>
<polygon fill="#7f8c8d" stroke="#7f8c8d" stroke-width="1.2" points="1125.96,-276.94 1120.32,-283.66 1123.72,-278.13 1118.8,-280.5 1118.75,-280.41 1118.71,-280.32 1123.63,-277.95 1117.19,-277.17 1125.96,-276.94"/>
</g>
<!-- A3_BAT -->
<g id="node4" class="node">
<title>A3_BAT</title>
<polygon fill="#ffffff" stroke="#bdc3c7" stroke-width="1.5" points="687.3,-319.6 572.1,-319.6 572.1,-276.4 687.3,-276.4 687.3,-319.6"/>
<text xml:space="preserve" text-anchor="middle" x="629.7" y="-302.2" font-family="Segoe UI" font-size="9.00" fill="#34495e">Firma Aceptación</text>
<text xml:space="preserve" text-anchor="middle" x="629.7" y="-289.45" font-family="Segoe UI" font-size="9.00" fill="#34495e">y Encuesta Final</text>
</g>
<!-- END_BAT -->
<g id="node5" class="node">
<title>END_BAT</title>
<ellipse fill="#fadbd8" stroke="#e74c3c" stroke-width="1.5" cx="803.9" cy="-298" rx="57.6" ry="21.6"/>
<text xml:space="preserve" text-anchor="middle" x="803.9" y="-295.82" font-family="Segoe UI" font-size="9.00" fill="#34495e">FIN</text>
</g>
<!-- A3_BAT&#45;&gt;END_BAT -->
<g id="edge14" class="edge">
<title>A3_BAT&#45;&gt;END_BAT</title>
<path fill="none" stroke="#7f8c8d" stroke-width="1.2" d="M688.04,-298C703.58,-298 720.53,-298 736.52,-298"/>
<polygon fill="#7f8c8d" stroke="#7f8c8d" stroke-width="1.2" points="744.35,-298 736.35,-301.6 741.81,-298.1 736.35,-298.1 736.35,-298 736.35,-297.9 741.81,-297.9 736.35,-294.4 744.35,-298"/>
</g>
<!-- J2_BAT -->
<g id="node7" class="node">
<title>J2_BAT</title>
<polygon fill="#ffffff" stroke="#bdc3c7" stroke-width="1.5" points="1406.35,-235.6 1291.15,-235.6 1291.15,-192.4 1406.35,-192.4 1406.35,-235.6"/>
<text xml:space="preserve" text-anchor="middle" x="1348.75" y="-218.2" font-family="Segoe UI" font-size="9.00" fill="#34495e">Asignar Técnico</text>
<text xml:space="preserve" text-anchor="middle" x="1348.75" y="-205.45" font-family="Segoe UI" font-size="9.00" fill="#34495e">Eléctrico</text>
</g>
<!-- J1_BAT&#45;&gt;J2_BAT -->
<g id="edge4" class="edge">
<title>J1_BAT&#45;&gt;J2_BAT</title>
<path fill="none" stroke="#7f8c8d" stroke-width="1.2" d="M1232.89,-240.68C1248.57,-237.04 1265.7,-233.06 1281.82,-229.31"/>
<polygon fill="#7f8c8d" stroke="#7f8c8d" stroke-width="1.2" points="1289.24,-227.59 1282.26,-232.91 1286.79,-228.26 1281.47,-229.5 1281.44,-229.4 1281.42,-229.3 1286.74,-228.07 1280.63,-225.9 1289.24,-227.59"/>
</g>
<!-- M1_BAT -->
<g id="node9" class="node">
<title>M1_BAT</title>
<polygon fill="#ffffff" stroke="#bdc3c7" stroke-width="1.5" points="513.1,-59.6 397.9,-59.6 397.9,-16.4 513.1,-16.4 513.1,-59.6"/>
<text xml:space="preserve" text-anchor="middle" x="455.5" y="-42.2" font-family="Segoe UI" font-size="9.00" fill="#34495e">Test de CCA y</text>
<text xml:space="preserve" text-anchor="middle" x="455.5" y="-29.45" font-family="Segoe UI" font-size="9.00" fill="#34495e">Voltaje Inicial</text>
</g>
<!-- J2_BAT&#45;&gt;M1_BAT -->
<g id="edge5" class="edge">
<title>J2_BAT&#45;&gt;M1_BAT</title>
<path fill="none" stroke="#7f8c8d" stroke-width="1.2" d="M1338.52,-191.96C1317.27,-145.14 1260.13,-40 1175.55,-40 628.7,-40 628.7,-40 628.7,-40 593.73,-40 554.77,-39.58 522.77,-39.13"/>
<polygon fill="#7f8c8d" stroke="#7f8c8d" stroke-width="1.2" points="514.97,-39.02 523.02,-35.53 517.51,-38.95 522.97,-39.03 522.97,-39.13 522.97,-39.23 517.5,-39.15 522.91,-42.73 514.97,-39.02"/>
</g>
<!-- J3_BAT -->
<g id="node8" class="node">
<title>J3_BAT</title>
<polygon fill="#ffffff" stroke="#bdc3c7" stroke-width="1.5" points="1232.15,-196.6 1116.95,-196.6 1116.95,-153.4 1232.15,-153.4 1232.15,-196.6"/>
<text xml:space="preserve" text-anchor="middle" x="1174.55" y="-179.2" font-family="Segoe UI" font-size="9.00" fill="#34495e">Validación de</text>
<text xml:space="preserve" text-anchor="middle" x="1174.55" y="-166.45" font-family="Segoe UI" font-size="9.00" fill="#34495e">Voltajes Finales</text>
</g>
<!-- J3_BAT&#45;&gt;A3_BAT -->
<g id="edge13" class="edge">
<title>J3_BAT&#45;&gt;A3_BAT</title>
<path fill="none" stroke="#7f8c8d" stroke-width="1.2" d="M1116.3,-183.48C1033.76,-196.31 876.92,-222.9 746.3,-258 730.03,-262.37 712.75,-267.87 696.64,-273.39"/>
<polygon fill="#7f8c8d" stroke="#7f8c8d" stroke-width="1.2" points="689.21,-275.96 695.59,-269.94 691.57,-275.04 696.73,-273.25 696.77,-273.34 696.8,-273.44 691.64,-275.23 697.95,-276.74 689.21,-275.96"/>
<text xml:space="preserve" text-anchor="middle" x="902.12" y="-227.29" font-family="Times New Roman,serif" font-size="14.00"> OK</text>
</g>
<!-- S1_BAT -->
<g id="node14" class="node">
<title>S1_BAT</title>
<polygon fill="#ffffff" stroke="#bdc3c7" stroke-width="1.5" points="131.2,-136.6 16,-136.6 16,-93.4 131.2,-93.4 131.2,-136.6"/>
<text xml:space="preserve" text-anchor="middle" x="73.6" y="-119.2" font-family="Segoe UI" font-size="9.00" fill="#34495e">Surtir Batería</text>
<text xml:space="preserve" text-anchor="middle" x="73.6" y="-106.45" font-family="Segoe UI" font-size="9.00" fill="#34495e">(LTH / Bosch)</text>
</g>
<!-- M1_BAT&#45;&gt;S1_BAT -->
<g id="edge6" class="edge">
<title>M1_BAT&#45;&gt;S1_BAT</title>
<path fill="none" stroke="#7f8c8d" stroke-width="1.2" d="M397.25,-36.3C342.99,-36.12 259.69,-39.57 190.2,-58.5 165.66,-65.19 140.07,-77.11 119.23,-88.28"/>
<polygon fill="#7f8c8d" stroke="#7f8c8d" stroke-width="1.2" points="112.48,-91.97 117.77,-84.97 114.66,-90.67 119.45,-88.05 119.5,-88.13 119.54,-88.22 114.75,-90.84 121.22,-91.29 112.48,-91.97"/>
<text xml:space="preserve" text-anchor="middle" x="247.8" y="-61.7" font-family="Times New Roman,serif" font-size="14.00"> Solicitar</text>
</g>
<!-- M2_BAT -->
<g id="node10" class="node">
<title>M2_BAT</title>
<polygon fill="#ffffff" stroke="#bdc3c7" stroke-width="1.5" points="513.1,-138.6 397.9,-138.6 397.9,-95.4 513.1,-95.4 513.1,-138.6"/>
<text xml:space="preserve" text-anchor="middle" x="455.5" y="-121.2" font-family="Segoe UI" font-size="9.00" fill="#34495e">Limpieza de Bornes</text>
<text xml:space="preserve" text-anchor="middle" x="455.5" y="-108.45" font-family="Segoe UI" font-size="9.00" fill="#34495e">y Terminales</text>
</g>
<!-- M3_BAT -->
<g id="node11" class="node">
<title>M3_BAT</title>
<polygon fill="#ffffff" stroke="#bdc3c7" stroke-width="1.5" points="687.3,-138.6 572.1,-138.6 572.1,-95.4 687.3,-95.4 687.3,-138.6"/>
<text xml:space="preserve" text-anchor="middle" x="629.7" y="-121.2" font-family="Segoe UI" font-size="9.00" fill="#34495e">Instalación con</text>
<text xml:space="preserve" text-anchor="middle" x="629.7" y="-108.45" font-family="Segoe UI" font-size="9.00" fill="#34495e">Respaldo de Memoria</text>
</g>
<!-- M2_BAT&#45;&gt;M3_BAT -->
<g id="edge9" class="edge">
<title>M2_BAT&#45;&gt;M3_BAT</title>
<path fill="none" stroke="#7f8c8d" stroke-width="1.2" d="M513.84,-117C529.38,-117 546.33,-117 562.32,-117"/>
<polygon fill="#7f8c8d" stroke="#7f8c8d" stroke-width="1.2" points="570.15,-117 562.15,-120.6 567.61,-117.1 562.15,-117.1 562.15,-117 562.15,-116.9 567.61,-116.9 562.15,-113.4 570.15,-117"/>
</g>
<!-- M4_BAT -->
<g id="node12" class="node">
<title>M4_BAT</title>
<polygon fill="#ffffff" stroke="#bdc3c7" stroke-width="1.5" points="861.5,-138.6 746.3,-138.6 746.3,-95.4 861.5,-95.4 861.5,-138.6"/>
<text xml:space="preserve" text-anchor="middle" x="803.9" y="-121.2" font-family="Segoe UI" font-size="9.00" fill="#34495e">Configuración de</text>
<text xml:space="preserve" text-anchor="middle" x="803.9" y="-108.45" font-family="Segoe UI" font-size="9.00" fill="#34495e">Computadora (Scan)</text>
</g>
<!-- M3_BAT&#45;&gt;M4_BAT -->
<g id="edge10" class="edge">
<title>M3_BAT&#45;&gt;M4_BAT</title>
<path fill="none" stroke="#7f8c8d" stroke-width="1.2" d="M688.04,-117C703.58,-117 720.53,-117 736.52,-117"/>
<polygon fill="#7f8c8d" stroke="#7f8c8d" stroke-width="1.2" points="744.35,-117 736.35,-120.6 741.81,-117.1 736.35,-117.1 736.35,-117 736.35,-116.9 741.81,-116.9 736.35,-113.4 744.35,-117"/>
</g>
<!-- M5_BAT -->
<g id="node13" class="node">
<title>M5_BAT</title>
<polygon fill="#ffffff" stroke="#bdc3c7" stroke-width="1.5" points="1057.95,-138.6 942.75,-138.6 942.75,-95.4 1057.95,-95.4 1057.95,-138.6"/>
<text xml:space="preserve" text-anchor="middle" x="1000.35" y="-121.2" font-family="Segoe UI" font-size="9.00" fill="#34495e">Carga de Evidencia</text>
<text xml:space="preserve" text-anchor="middle" x="1000.35" y="-108.45" font-family="Segoe UI" font-size="9.00" fill="#34495e">en Notion</text>
</g>
<!-- M4_BAT&#45;&gt;M5_BAT -->
<g id="edge11" class="edge">
<title>M4_BAT&#45;&gt;M5_BAT</title>
<path fill="none" stroke="#7f8c8d" stroke-width="1.2" d="M862.19,-117C884.34,-117 909.85,-117 932.8,-117"/>
<polygon fill="#7f8c8d" stroke="#7f8c8d" stroke-width="1.2" points="940.67,-117 932.67,-120.6 938.13,-117.1 932.67,-117.1 932.67,-117 932.67,-116.9 938.13,-116.9 932.67,-113.4 940.67,-117"/>
</g>
<!-- M5_BAT&#45;&gt;J3_BAT -->
<g id="edge12" class="edge">
<title>M5_BAT&#45;&gt;J3_BAT</title>
<path fill="none" stroke="#7f8c8d" stroke-width="1.2" d="M1058.69,-136.31C1074.37,-141.6 1091.5,-147.36 1107.62,-152.79"/>
<polygon fill="#7f8c8d" stroke="#7f8c8d" stroke-width="1.2" points="1115.07,-155.3 1106.34,-156.16 1112.64,-154.59 1107.46,-152.85 1107.49,-152.75 1107.53,-152.66 1112.7,-154.4 1108.64,-149.34 1115.07,-155.3"/>
</g>
<!-- S2_BAT -->
<g id="node15" class="node">
<title>S2_BAT</title>
<polygon fill="#ffffff" stroke="#bdc3c7" stroke-width="1.5" points="305.4,-136.6 190.2,-136.6 190.2,-93.4 305.4,-93.4 305.4,-136.6"/>
<text xml:space="preserve" text-anchor="middle" x="247.8" y="-119.2" font-family="Segoe UI" font-size="9.00" fill="#34495e">Kit de Limpieza y</text>
<text xml:space="preserve" text-anchor="middle" x="247.8" y="-106.45" font-family="Segoe UI" font-size="9.00" fill="#34495e">Protector de Bornes</text>
</g>
<!-- S1_BAT&#45;&gt;S2_BAT -->
<g id="edge7" class="edge">
<title>S1_BAT&#45;&gt;S2_BAT</title>
<path fill="none" stroke="#7f8c8d" stroke-width="1.2" d="M131.94,-115C147.48,-115 164.43,-115 180.42,-115"/>
<polygon fill="#7f8c8d" stroke="#7f8c8d" stroke-width="1.2" points="188.25,-115 180.25,-118.6 185.71,-115.1 180.25,-115.1 180.25,-115 180.25,-114.9 185.71,-114.9 180.25,-111.4 188.25,-115"/>
</g>
<!-- S2_BAT&#45;&gt;M2_BAT -->
<g id="edge8" class="edge">
<title>S2_BAT&#45;&gt;M2_BAT</title>
<path fill="none" stroke="#7f8c8d" stroke-width="1.2" d="M306.1,-115.56C331.51,-115.8 361.58,-116.1 387.98,-116.35"/>
<polygon fill="#7f8c8d" stroke="#7f8c8d" stroke-width="1.2" points="395.69,-116.43 387.66,-119.95 393.15,-116.5 387.69,-116.45 387.69,-116.35 387.69,-116.25 393.15,-116.3 387.73,-112.75 395.69,-116.43"/>
<text xml:space="preserve" text-anchor="middle" x="351.65" y="-119.32" font-family="Times New Roman,serif" font-size="14.00"> Surtir</text>
</g>
</g>
</svg>
