<?xml version="1.0" encoding="UTF-8" standalone="no"?>
<!DOCTYPE svg PUBLIC "-//W3C//DTD SVG 1.1//EN"
 "http://www.w3.org/Graphics/SVG/1.1/DTD/svg11.dtd">
<!-- Generated by graphviz version 14.1.2 (20260124.0452)
 -->
<!-- Title: Cambio_Frenos_Final Pages: 1 -->
<svg width="1427pt" height="552pt"
 viewBox="0.00 0.00 1427.00 552.00" xmlns="http://www.w3.org/2000/svg" xmlns:xlink="http://www.w3.org/1999/xlink">
<g id="graph0" class="graph" transform="scale(1 1) rotate(0) translate(4 547.5)">
<title>Cambio_Frenos_Final</title>
<polygon fill="#ffffff" stroke="none" points="-4,4 -4,-547.5 1423.17,-547.5 1423.17,4 -4,4"/>
<text xml:space="preserve" text-anchor="middle" x="709.59" y="-524.3" font-family="Segoe UI Bold" font-size="16.00" fill="#1a1a1a">DIAGRAMA DE PROCESO: CAMBIO DE FRENOS (SOP)</text>
<text xml:space="preserve" text-anchor="middle" x="709.59" y="-501.8" font-family="Segoe UI Bold" font-size="16.00" fill="#1a1a1a">SYNER GROUP | CLIENTE: BJX MOTORS | 2026</text>
<text xml:space="preserve" text-anchor="middle" x="709.59" y="-479.3" font-family="Segoe UI Bold" font-size="16.00" fill="#1a1a1a"> </text>
<g id="clust1" class="cluster">
<title>cluster_asesora</title>
<polygon fill="#f4f9fd" stroke="#2980b9" points="8,-277 8,-460 352.17,-460 352.17,-277 8,-277"/>
<text xml:space="preserve" text-anchor="middle" x="180.08" y="-440.8" font-family="Segoe UI Bold" font-size="16.00" fill="#1a1a1a">Asesora de Servicios</text>
</g>
<g id="clust2" class="cluster">
<title>cluster_jefe</title>
<polygon fill="#f8f9f9" stroke="#7f8c8d" points="469.39,-152 469.39,-421 642.02,-421 642.02,-152 469.39,-152"/>
<text xml:space="preserve" text-anchor="middle" x="555.7" y="-401.8" font-family="Segoe UI Bold" font-size="16.00" fill="#1a1a1a">Jefe de Mecánicos</text>
</g>
<g id="clust3" class="cluster">
<title>cluster_mecanico</title>
<polygon fill="#f1fcf4" stroke="#27ae60" points="699.77,-115 699.77,-298 1411.17,-298 1411.17,-115 699.77,-115"/>
<text xml:space="preserve" text-anchor="middle" x="1055.47" y="-278.8" font-family="Segoe UI Bold" font-size="16.00" fill="#1a1a1a">Mecánico</text>
</g>
<g id="clust4" class="cluster">
<title>cluster_almacen</title>
<polygon fill="#fffdf9" stroke="#f39c12" points="196.6,-8 196.6,-107 845.37,-107 845.37,-8 196.6,-8"/>
<text xml:space="preserve" text-anchor="middle" x="520.99" y="-87.8" font-family="Segoe UI Bold" font-size="16.00" fill="#1a1a1a">Almacén</text>
</g>
<!-- ST_FR -->
<g id="node1" class="node">
<title>ST_FR</title>
<ellipse fill="#27ae60" stroke="#2c3e50" stroke-width="1.5" cx="80.8" cy="-396" rx="64.8" ry="25.2"/>
<text xml:space="preserve" text-anchor="middle" x="80.8" y="-393.82" font-family="Segoe UI" font-size="9.00" fill="white">INICIO</text>
</g>
<!-- A1_FR -->
<g id="node2" class="node">
<title>A1_FR</title>
<polygon fill="#ffffff" stroke="#2c3e50" stroke-width="1.5" points="344.17,-421.2 214.57,-421.2 214.57,-370.8 344.17,-370.8 344.17,-421.2"/>
<text xml:space="preserve" text-anchor="middle" x="279.37" y="-400.2" font-family="Segoe UI" font-size="9.00">Recepción: Reporte de</text>
<text xml:space="preserve" text-anchor="middle" x="279.37" y="-387.45" font-family="Segoe UI" font-size="9.00">Ruido o Pedal Bajo</text>
</g>
<!-- ST_FR&#45;&gt;A1_FR -->
<g id="edge1" class="edge">
<title>ST_FR&#45;&gt;A1_FR</title>
<path fill="none" stroke="#34495e" stroke-width="1.2" d="M146.16,-396C164.75,-396 185.17,-396 204.29,-396"/>
<polygon fill="#34495e" stroke="#34495e" stroke-width="1.2" points="204.04,-398.8 212.04,-396 204.04,-393.2 204.04,-398.8"/>
</g>
<!-- J1_FR -->
<g id="node5" class="node">
<title>J1_FR</title>
<polygon fill="#ffffff" stroke="#2c3e50" stroke-width="1.5" points="620.5,-382.2 490.9,-382.2 490.9,-331.8 620.5,-331.8 620.5,-382.2"/>
<text xml:space="preserve" text-anchor="middle" x="555.7" y="-361.2" font-family="Segoe UI" font-size="9.00">Inspección Táctica:</text>
<text xml:space="preserve" text-anchor="middle" x="555.7" y="-348.45" font-family="Segoe UI" font-size="9.00">Medir Vida de Balatas</text>
</g>
<!-- A1_FR&#45;&gt;J1_FR -->
<g id="edge2" class="edge">
<title>A1_FR&#45;&gt;J1_FR</title>
<path fill="none" stroke="#34495e" stroke-width="1.2" d="M344.69,-386.86C385.47,-381.06 438.36,-373.54 480.86,-367.5"/>
<polygon fill="#34495e" stroke="#34495e" stroke-width="1.2" points="480.99,-370.31 488.51,-366.41 480.2,-364.76 480.99,-370.31"/>
</g>
<!-- A2_FR -->
<g id="node3" class="node">
<title>A2_FR</title>
<polygon fill="#ffffff" stroke="#2c3e50" stroke-width="1.5" points="145.6,-335.2 16,-335.2 16,-284.8 145.6,-284.8 145.6,-335.2"/>
<text xml:space="preserve" text-anchor="middle" x="80.8" y="-314.2" font-family="Segoe UI" font-size="9.00">Cierre de Orden</text>
<text xml:space="preserve" text-anchor="middle" x="80.8" y="-301.45" font-family="Segoe UI" font-size="9.00">y Entrega de Unidad</text>
</g>
<!-- END_FR -->
<g id="node4" class="node">
<title>END_FR</title>
<ellipse fill="#c0392b" stroke="#2c3e50" stroke-width="1.5" cx="279.37" cy="-310" rx="64.8" ry="25.2"/>
<text xml:space="preserve" text-anchor="middle" x="279.37" y="-307.82" font-family="Segoe UI" font-size="9.00" fill="white">FIN</text>
</g>
<!-- A2_FR&#45;&gt;END_FR -->
<g id="edge15" class="edge">
<title>A2_FR&#45;&gt;END_FR</title>
<path fill="none" stroke="#34495e" stroke-width="1.2" d="M146.16,-310C164.75,-310 185.17,-310 204.29,-310"/>
<polygon fill="#34495e" stroke="#34495e" stroke-width="1.2" points="204.04,-312.8 212.04,-310 204.04,-307.2 204.04,-312.8"/>
</g>
<!-- M1_FR -->
<g id="node8" class="node">
<title>M1_FR</title>
<polygon fill="#ffffff" stroke="#2c3e50" stroke-width="1.5" points="837.37,-259.2 707.77,-259.2 707.77,-208.8 837.37,-208.8 837.37,-259.2"/>
<text xml:space="preserve" text-anchor="middle" x="772.57" y="-238.2" font-family="Segoe UI" font-size="9.00">Desmontaje y</text>
<text xml:space="preserve" text-anchor="middle" x="772.57" y="-225.45" font-family="Segoe UI" font-size="9.00">Limpieza de Calipers</text>
</g>
<!-- J1_FR&#45;&gt;M1_FR -->
<g id="edge3" class="edge">
<title>J1_FR&#45;&gt;M1_FR</title>
<path fill="none" stroke="#34495e" stroke-width="1.2" d="M609.87,-331.1C620.6,-325.62 631.74,-319.75 642.02,-314 669.59,-298.58 699.65,-280.12 723.86,-264.83"/>
<polygon fill="#34495e" stroke="#34495e" stroke-width="1.2" points="725.05,-267.39 730.31,-260.74 722.05,-262.66 725.05,-267.39"/>
</g>
<!-- J2_FR -->
<g id="node6" class="node">
<title>J2_FR</title>
<polygon fill="#fff9c4" stroke="#2c3e50" stroke-width="1.5" points="555.7,-210.2 477.39,-185 555.7,-159.8 634.02,-185 555.7,-210.2"/>
<text xml:space="preserve" text-anchor="middle" x="555.7" y="-189.2" font-family="Segoe UI" font-size="9.00">¿Disco dentro de</text>
<text xml:space="preserve" text-anchor="middle" x="555.7" y="-176.45" font-family="Segoe UI" font-size="9.00">Espesor Mínimo?</text>
</g>
<!-- M2_FR -->
<g id="node9" class="node">
<title>M2_FR</title>
<polygon fill="#ffffff" stroke="#2c3e50" stroke-width="1.5" points="837.37,-173.2 707.77,-173.2 707.77,-122.8 837.37,-122.8 837.37,-173.2"/>
<text xml:space="preserve" text-anchor="middle" x="772.57" y="-152.2" font-family="Segoe UI" font-size="9.00">Rectificado de Discos</text>
<text xml:space="preserve" text-anchor="middle" x="772.57" y="-139.45" font-family="Segoe UI" font-size="9.00">(En Torno)</text>
</g>
<!-- J2_FR&#45;&gt;M2_FR -->
<g id="edge5" class="edge">
<title>J2_FR&#45;&gt;M2_FR</title>
<path fill="none" stroke="#34495e" stroke-width="1.2" d="M608.44,-176.09C635.22,-171.48 668.39,-165.77 697.8,-160.7"/>
<polygon fill="#34495e" stroke="#34495e" stroke-width="1.2" points="698.01,-163.51 705.42,-159.39 697.06,-157.99 698.01,-163.51"/>
<text xml:space="preserve" text-anchor="middle" x="670.9" y="-169.7" font-family="Times New Roman,serif" font-size="14.00"> SÍ</text>
</g>
<!-- S2_FR -->
<g id="node14" class="node">
<title>S2_FR</title>
<polygon fill="#fff9c4" stroke="#2c3e50" stroke-width="1.5" points="279.37,-68.2 204.6,-43 279.37,-17.8 354.14,-43 279.37,-68.2"/>
<text xml:space="preserve" text-anchor="middle" x="279.37" y="-47.2" font-family="Segoe UI" font-size="9.00">¿Solicitar Discos</text>
<text xml:space="preserve" text-anchor="middle" x="279.37" y="-34.45" font-family="Segoe UI" font-size="9.00">Nuevos?</text>
</g>
<!-- J2_FR&#45;&gt;S2_FR -->
<g id="edge6" class="edge">
<title>J2_FR&#45;&gt;S2_FR</title>
<path fill="none" stroke="#34495e" stroke-width="1.2" d="M524.44,-169.34C474.23,-143.34 373.77,-91.35 318.69,-62.83"/>
<polygon fill="#34495e" stroke="#34495e" stroke-width="1.2" points="320.25,-60.49 311.86,-59.3 317.68,-65.47 320.25,-60.49"/>
<text xml:space="preserve" text-anchor="middle" x="415.76" y="-129.92" font-family="Times New Roman,serif" font-size="14.00"> NO</text>
</g>
<!-- J3_FR -->
<g id="node7" class="node">
<title>J3_FR</title>
<polygon fill="#ffffff" stroke="#2c3e50" stroke-width="1.5" points="620.5,-296.2 490.9,-296.2 490.9,-245.8 620.5,-245.8 620.5,-296.2"/>
<text xml:space="preserve" text-anchor="middle" x="555.7" y="-275.2" font-family="Segoe UI" font-size="9.00">Validar Frenado y</text>
<text xml:space="preserve" text-anchor="middle" x="555.7" y="-262.45" font-family="Segoe UI" font-size="9.00">Nivel de Líquido</text>
</g>
<!-- J3_FR&#45;&gt;A2_FR -->
<g id="edge14" class="edge">
<title>J3_FR&#45;&gt;A2_FR</title>
<path fill="none" stroke="#34495e" stroke-width="1.2" d="M490.28,-256.1C417.79,-241.91 297.03,-226.02 196.6,-250.5 172.94,-256.27 148.71,-267.83 128.65,-279.25"/>
<polygon fill="#34495e" stroke="#34495e" stroke-width="1.2" points="127.38,-276.74 121.89,-283.2 130.21,-281.58 127.38,-276.74"/>
<text xml:space="preserve" text-anchor="middle" x="279.37" y="-253.7" font-family="Times New Roman,serif" font-size="14.00"> OK</text>
</g>
<!-- M1_FR&#45;&gt;J2_FR -->
<g id="edge4" class="edge">
<title>M1_FR&#45;&gt;J2_FR</title>
<path fill="none" stroke="#34495e" stroke-width="1.2" d="M707.11,-219.3C677.11,-212.46 641.75,-204.39 612.86,-197.81"/>
<polygon fill="#34495e" stroke="#34495e" stroke-width="1.2" points="613.52,-195.08 605.1,-196.04 612.28,-200.54 613.52,-195.08"/>
</g>
<!-- M3_FR -->
<g id="node10" class="node">
<title>M3_FR</title>
<polygon fill="#ffffff" stroke="#2c3e50" stroke-width="1.5" points="1025.97,-173.2 896.37,-173.2 896.37,-122.8 1025.97,-122.8 1025.97,-173.2"/>
<text xml:space="preserve" text-anchor="middle" x="961.17" y="-152.2" font-family="Segoe UI" font-size="9.00">Montaje de Balatas y</text>
<text xml:space="preserve" text-anchor="middle" x="961.17" y="-139.45" font-family="Segoe UI" font-size="9.00">Engrase de Guías</text>
</g>
<!-- M2_FR&#45;&gt;M3_FR -->
<g id="edge10" class="edge">
<title>M2_FR&#45;&gt;M3_FR</title>
<path fill="none" stroke="#34495e" stroke-width="1.2" d="M838.05,-148C853.49,-148 870.1,-148 885.94,-148"/>
<polygon fill="#34495e" stroke="#34495e" stroke-width="1.2" points="885.87,-150.8 893.87,-148 885.87,-145.2 885.87,-150.8"/>
</g>
<!-- M4_FR -->
<g id="node11" class="node">
<title>M4_FR</title>
<polygon fill="#ffffff" stroke="#2c3e50" stroke-width="1.5" points="1214.57,-195.2 1084.97,-195.2 1084.97,-144.8 1214.57,-144.8 1214.57,-195.2"/>
<text xml:space="preserve" text-anchor="middle" x="1149.77" y="-174.2" font-family="Segoe UI" font-size="9.00">Purgado y Cambio</text>
<text xml:space="preserve" text-anchor="middle" x="1149.77" y="-161.45" font-family="Segoe UI" font-size="9.00">de Líquido (DOT 4)</text>
</g>
<!-- M3_FR&#45;&gt;M4_FR -->
<g id="edge11" class="edge">
<title>M3_FR&#45;&gt;M4_FR</title>
<path fill="none" stroke="#34495e" stroke-width="1.2" d="M1026.65,-155.6C1042.09,-157.42 1058.7,-159.38 1074.54,-161.25"/>
<polygon fill="#34495e" stroke="#34495e" stroke-width="1.2" points="1074.21,-164.03 1082.49,-162.19 1074.87,-158.47 1074.21,-164.03"/>
</g>
<!-- M5_FR -->
<g id="node12" class="node">
<title>M5_FR</title>
<polygon fill="#ffffff" stroke="#2c3e50" stroke-width="1.5" points="1403.17,-216.2 1273.57,-216.2 1273.57,-165.8 1403.17,-165.8 1403.17,-216.2"/>
<text xml:space="preserve" text-anchor="middle" x="1338.37" y="-195.2" font-family="Segoe UI" font-size="9.00">Carga de Evidencia</text>
<text xml:space="preserve" text-anchor="middle" x="1338.37" y="-182.45" font-family="Segoe UI" font-size="9.00">en Notion (Fotos)</text>
</g>
<!-- M4_FR&#45;&gt;M5_FR -->
<g id="edge12" class="edge">
<title>M4_FR&#45;&gt;M5_FR</title>
<path fill="none" stroke="#34495e" stroke-width="1.2" d="M1215.25,-177.26C1230.69,-178.99 1247.3,-180.86 1263.14,-182.65"/>
<polygon fill="#34495e" stroke="#34495e" stroke-width="1.2" points="1262.82,-185.43 1271.09,-183.54 1263.45,-179.86 1262.82,-185.43"/>
</g>
<!-- M5_FR&#45;&gt;J3_FR -->
<g id="edge13" class="edge">
<title>M5_FR&#45;&gt;J3_FR</title>
<path fill="none" stroke="#34495e" stroke-width="1.2" d="M1316.53,-216.78C1284.85,-252.85 1220.81,-314 1150.77,-314 771.57,-314 771.57,-314 771.57,-314 723.93,-314 671.47,-303.71 630.32,-293.19"/>
<polygon fill="#34495e" stroke="#34495e" stroke-width="1.2" points="631.12,-290.51 622.67,-291.2 629.7,-295.93 631.12,-290.51"/>
</g>
<!-- S1_FR -->
<g id="node13" class="node">
<title>S1_FR</title>
<polygon fill="#ffffff" stroke="#2c3e50" stroke-width="1.5" points="620.5,-68.2 490.9,-68.2 490.9,-17.8 620.5,-17.8 620.5,-68.2"/>
<text xml:space="preserve" text-anchor="middle" x="555.7" y="-47.2" font-family="Segoe UI" font-size="9.00">Surtir Kit Balatas y</text>
<text xml:space="preserve" text-anchor="middle" x="555.7" y="-34.45" font-family="Segoe UI" font-size="9.00">Líquido de Frenos</text>
</g>
<!-- S3_FR -->
<g id="node15" class="node">
<title>S3_FR</title>
<polygon fill="#ffffff" stroke="#2c3e50" stroke-width="1.5" points="837.37,-68.2 707.77,-68.2 707.77,-17.8 837.37,-17.8 837.37,-68.2"/>
<text xml:space="preserve" text-anchor="middle" x="772.57" y="-47.2" font-family="Segoe UI" font-size="9.00">Registro de Salida</text>
<text xml:space="preserve" text-anchor="middle" x="772.57" y="-34.45" font-family="Segoe UI" font-size="9.00">en Sistema Digital</text>
</g>
<!-- S1_FR&#45;&gt;S3_FR -->
<g id="edge8" class="edge">
<title>S1_FR&#45;&gt;S3_FR</title>
<path fill="none" stroke="#34495e" stroke-width="1.2" d="M621.17,-43C645.18,-43 672.62,-43 697.42,-43"/>
<polygon fill="#34495e" stroke="#34495e" stroke-width="1.2" points="697.33,-45.8 705.33,-43 697.33,-40.2 697.33,-45.8"/>
</g>
<!-- S2_FR&#45;&gt;S1_FR -->
<g id="edge7" class="edge">
<title>S2_FR&#45;&gt;S1_FR</title>
<path fill="none" stroke="#34495e" stroke-width="1.2" d="M356.42,-43C395.31,-43 442.43,-43 480.98,-43"/>
<polygon fill="#34495e" stroke="#34495e" stroke-width="1.2" points="480.76,-45.8 488.76,-43 480.76,-40.2 480.76,-45.8"/>
<text xml:space="preserve" text-anchor="middle" x="415.76" y="-46.2" font-family="Times New Roman,serif" font-size="14.00"> Surtir Todo</text>
</g>
<!-- S3_FR&#45;&gt;M3_FR -->
<g id="edge9" class="edge">
<title>S3_FR&#45;&gt;M3_FR</title>
<path fill="none" stroke="#34495e" stroke-width="1.2" d="M819.22,-68.69C845.42,-83.43 878.49,-102.04 906,-117.52"/>
<polygon fill="#34495e" stroke="#34495e" stroke-width="1.2" points="904.42,-119.84 912.77,-121.32 907.17,-114.96 904.42,-119.84"/>
</g>
</g>
</svg>
