<?xml version="1.0" encoding="UTF-8" standalone="no"?>
<!DOCTYPE svg PUBLIC "-//W3C//DTD SVG 1.1//EN"
 "http://www.w3.org/Graphics/SVG/1.1/DTD/svg11.dtd">
<!-- Generated by graphviz version 14.1.2 (20260124.0452)
 -->
<!-- Title: Suspension_General Pages: 1 -->
<svg width="1569pt" height="599pt"
 viewBox="0.00 0.00 1569.00 599.00" xmlns="http://www.w3.org/2000/svg" xmlns:xlink="http://www.w3.org/1999/xlink">
<g id="graph0" class="graph" transform="scale(1 1) rotate(0) translate(4 594.5)">
<title>Suspension_General</title>
<polygon fill="#ffffff" stroke="none" points="-4,4 -4,-594.5 1564.86,-594.5 1564.86,4 -4,4"/>
<text xml:space="preserve" text-anchor="middle" x="780.43" y="-571.3" font-family="Segoe UI Bold" font-size="16.00" fill="#1a1a1a">DIAGRAMA DE PROCESO: MANTENIMIENTO DE SUSPENSIÓN GENERAL (SOP)</text>
<text xml:space="preserve" text-anchor="middle" x="780.43" y="-548.8" font-family="Segoe UI Bold" font-size="16.00" fill="#1a1a1a">SYNER GROUP | CLIENTE: BJX MOTORS | 2026</text>
<text xml:space="preserve" text-anchor="middle" x="780.43" y="-526.3" font-family="Segoe UI Bold" font-size="16.00" fill="#1a1a1a"> </text>
<g id="clust1" class="cluster">
<title>cluster_asesora</title>
<polygon fill="#f4f9fd" stroke="#2980b9" points="35.34,-324 35.34,-507 433.03,-507 433.03,-324 35.34,-324"/>
<text xml:space="preserve" text-anchor="middle" x="234.19" y="-487.8" font-family="Segoe UI Bold" font-size="16.00" fill="#1a1a1a">Asesora de Servicios</text>
</g>
<g id="clust2" class="cluster">
<title>cluster_jefe</title>
<polygon fill="#f8f9f9" stroke="#7f8c8d" points="524.53,-202 524.53,-385 982.93,-385 982.93,-202 524.53,-202"/>
<text xml:space="preserve" text-anchor="middle" x="753.73" y="-365.8" font-family="Segoe UI Bold" font-size="16.00" fill="#1a1a1a">Jefe de Mecánicos</text>
</g>
<g id="clust3" class="cluster">
<title>cluster_mecanico</title>
<polygon fill="#f1fcf4" stroke="#27ae60" points="830.56,-11 830.56,-194 1552.86,-194 1552.86,-11 830.56,-11"/>
<text xml:space="preserve" text-anchor="middle" x="1191.71" y="-174.8" font-family="Segoe UI Bold" font-size="16.00" fill="#1a1a1a">Mecánico</text>
</g>
<g id="clust4" class="cluster">
<title>cluster_almacen</title>
<polygon fill="#fffdf9" stroke="#f39c12" points="8,-8 8,-194 717.72,-194 717.72,-8 8,-8"/>
<text xml:space="preserve" text-anchor="middle" x="362.86" y="-174.8" font-family="Segoe UI Bold" font-size="16.00" fill="#1a1a1a">Almacén</text>
</g>
<!-- ST_SUS -->
<g id="node1" class="node">
<title>ST_SUS</title>
<ellipse fill="#27ae60" stroke="#2c3e50" stroke-width="1.5" cx="108.14" cy="-443" rx="64.8" ry="25.2"/>
<text xml:space="preserve" text-anchor="middle" x="108.14" y="-440.82" font-family="Segoe UI" font-size="9.00" fill="white">INICIO</text>
</g>
<!-- A1_SUS -->
<g id="node2" class="node">
<title>A1_SUS</title>
<polygon fill="#ffffff" stroke="#2c3e50" stroke-width="1.5" points="425.03,-468.2 281.53,-468.2 281.53,-417.8 425.03,-417.8 425.03,-468.2"/>
<text xml:space="preserve" text-anchor="middle" x="353.28" y="-447.2" font-family="Segoe UI" font-size="9.00">Recepción: Reporte de</text>
<text xml:space="preserve" text-anchor="middle" x="353.28" y="-434.45" font-family="Segoe UI" font-size="9.00">Ruidos, Inestabilidad o Golpeteo</text>
</g>
<!-- ST_SUS&#45;&gt;A1_SUS -->
<g id="edge1" class="edge">
<title>ST_SUS&#45;&gt;A1_SUS</title>
<path fill="none" stroke="#34495e" stroke-width="1.2" d="M173.66,-443C203.62,-443 239.56,-443 271.32,-443"/>
<polygon fill="#34495e" stroke="#34495e" stroke-width="1.2" points="271.22,-445.8 279.22,-443 271.22,-440.2 271.22,-445.8"/>
</g>
<!-- J1_SUS -->
<g id="node5" class="node">
<title>J1_SUS</title>
<polygon fill="#fff9c4" stroke="#2c3e50" stroke-width="1.5" points="644.92,-260.2 532.53,-235 644.92,-209.8 757.31,-235 644.92,-260.2"/>
<text xml:space="preserve" text-anchor="middle" x="644.92" y="-239.2" font-family="Segoe UI" font-size="9.00">Inspección Visual y Juego:</text>
<text xml:space="preserve" text-anchor="middle" x="644.92" y="-226.45" font-family="Segoe UI" font-size="9.00">¿Hay Fugas o Roturas?</text>
</g>
<!-- A1_SUS&#45;&gt;J1_SUS -->
<g id="edge2" class="edge">
<title>A1_SUS&#45;&gt;J1_SUS</title>
<path fill="none" stroke="#34495e" stroke-width="1.2" d="M408.83,-417.24C417.34,-412.1 425.73,-406.32 433.03,-400 484.27,-355.64 470.02,-318.29 524.53,-278 540.37,-266.29 559.7,-257.52 578.16,-251.06"/>
<polygon fill="#34495e" stroke="#34495e" stroke-width="1.2" points="578.99,-253.73 585.7,-248.55 577.22,-248.42 578.99,-253.73"/>
</g>
<!-- A2_SUS -->
<g id="node3" class="node">
<title>A2_SUS</title>
<polygon fill="#ffffff" stroke="#2c3e50" stroke-width="1.5" points="172.94,-382.2 43.34,-382.2 43.34,-331.8 172.94,-331.8 172.94,-382.2"/>
<text xml:space="preserve" text-anchor="middle" x="108.14" y="-361.2" font-family="Segoe UI" font-size="9.00">Cierre de Orden y</text>
<text xml:space="preserve" text-anchor="middle" x="108.14" y="-348.45" font-family="Segoe UI" font-size="9.00">Reporte de Alineación</text>
</g>
<!-- END_SUS -->
<g id="node4" class="node">
<title>END_SUS</title>
<ellipse fill="#c0392b" stroke="#2c3e50" stroke-width="1.5" cx="353.28" cy="-357" rx="64.8" ry="25.2"/>
<text xml:space="preserve" text-anchor="middle" x="353.28" y="-354.82" font-family="Segoe UI" font-size="9.00" fill="white">FIN</text>
</g>
<!-- A2_SUS&#45;&gt;END_SUS -->
<g id="edge16" class="edge">
<title>A2_SUS&#45;&gt;END_SUS</title>
<path fill="none" stroke="#34495e" stroke-width="1.2" d="M173.66,-357C205.8,-357 244.82,-357 278.18,-357"/>
<polygon fill="#34495e" stroke="#34495e" stroke-width="1.2" points="278.07,-359.8 286.07,-357 278.07,-354.2 278.07,-359.8"/>
</g>
<!-- J2_SUS -->
<g id="node6" class="node">
<title>J2_SUS</title>
<polygon fill="#ffffff" stroke="#2c3e50" stroke-width="1.5" points="974.93,-260.2 842.68,-260.2 842.68,-209.8 974.93,-209.8 974.93,-260.2"/>
<text xml:space="preserve" text-anchor="middle" x="908.81" y="-239.2" font-family="Segoe UI" font-size="9.00">Diagnóstico de Componentes</text>
<text xml:space="preserve" text-anchor="middle" x="908.81" y="-226.45" font-family="Segoe UI" font-size="9.00">(Amortiguadores/Bases)</text>
</g>
<!-- J1_SUS&#45;&gt;J2_SUS -->
<g id="edge3" class="edge">
<title>J1_SUS&#45;&gt;J2_SUS</title>
<path fill="none" stroke="#34495e" stroke-width="1.2" d="M760.41,-235C784.75,-235 809.86,-235 832.3,-235"/>
<polygon fill="#34495e" stroke="#34495e" stroke-width="1.2" points="832.26,-237.8 840.26,-235 832.26,-232.2 832.26,-237.8"/>
<text xml:space="preserve" text-anchor="middle" x="797.93" y="-238.2" font-family="Times New Roman,serif" font-size="14.00"> SÍ</text>
</g>
<!-- M1_SUS -->
<g id="node8" class="node">
<title>M1_SUS</title>
<polygon fill="#ffffff" stroke="#2c3e50" stroke-width="1.5" points="979.06,-69.2 838.56,-69.2 838.56,-18.8 979.06,-18.8 979.06,-69.2"/>
<text xml:space="preserve" text-anchor="middle" x="908.81" y="-48.2" font-family="Segoe UI" font-size="9.00">Desmontaje de Amortiguadores</text>
<text xml:space="preserve" text-anchor="middle" x="908.81" y="-35.45" font-family="Segoe UI" font-size="9.00">y Brazos de Control</text>
</g>
<!-- J1_SUS&#45;&gt;M1_SUS -->
<g id="edge4" class="edge">
<title>J1_SUS&#45;&gt;M1_SUS</title>
<path fill="none" stroke="#34495e" stroke-width="1.2" d="M708.47,-223.28C725.09,-218.53 742.52,-211.98 757.31,-203 786.13,-185.51 792.06,-176.82 809.56,-148 824.44,-123.49 812.15,-108.98 830.56,-87 833.95,-82.96 837.82,-79.22 841.98,-75.79"/>
<polygon fill="#34495e" stroke="#34495e" stroke-width="1.2" points="843.6,-78.08 848.3,-71.02 840.23,-73.6 843.6,-78.08"/>
<text xml:space="preserve" text-anchor="middle" x="797.93" y="-183.9" font-family="Times New Roman,serif" font-size="14.00"> NO</text>
</g>
<!-- J2_SUS&#45;&gt;M1_SUS -->
<g id="edge5" class="edge">
<title>J2_SUS&#45;&gt;M1_SUS</title>
<path fill="none" stroke="#34495e" stroke-width="1.2" d="M842.05,-212.12C837.93,-209.39 834.04,-206.37 830.56,-203 811.02,-184.12 811.18,-173.82 805.48,-147.25 799.39,-118.89 809.86,-107.32 830.56,-87 834.84,-82.79 839.62,-78.88 844.64,-75.26"/>
<polygon fill="#34495e" stroke="#34495e" stroke-width="1.2" points="846.13,-77.63 851.2,-70.83 843,-72.99 846.13,-77.63"/>
<text xml:space="preserve" text-anchor="middle" x="797.93" y="-133.95" font-family="Times New Roman,serif" font-size="14.00"> OK</text>
</g>
<!-- J3_SUS -->
<g id="node7" class="node">
<title>J3_SUS</title>
<polygon fill="#ffffff" stroke="#2c3e50" stroke-width="1.5" points="709.72,-346.2 580.12,-346.2 580.12,-295.8 709.72,-295.8 709.72,-346.2"/>
<text xml:space="preserve" text-anchor="middle" x="644.92" y="-325.2" font-family="Segoe UI" font-size="9.00">Validar Torque y</text>
<text xml:space="preserve" text-anchor="middle" x="644.92" y="-312.45" font-family="Segoe UI" font-size="9.00">Prueba de Ruta Final</text>
</g>
<!-- J3_SUS&#45;&gt;A2_SUS -->
<g id="edge15" class="edge">
<title>J3_SUS&#45;&gt;A2_SUS</title>
<path fill="none" stroke="#34495e" stroke-width="1.2" d="M579.64,-307.97C506.85,-295.25 384.9,-280.16 281.53,-297.5 246.15,-303.43 208.31,-315.77 177.13,-327.68"/>
<polygon fill="#34495e" stroke="#34495e" stroke-width="1.2" points="176.23,-325.03 169.79,-330.53 178.26,-330.25 176.23,-325.03"/>
<text xml:space="preserve" text-anchor="middle" x="353.28" y="-300.7" font-family="Times New Roman,serif" font-size="14.00"> OK (Alineado)</text>
</g>
<!-- S1_SUS -->
<g id="node13" class="node">
<title>S1_SUS</title>
<polygon fill="#fff9c4" stroke="#2c3e50" stroke-width="1.5" points="108.14,-77.2 16,-52 108.14,-26.8 200.28,-52 108.14,-77.2"/>
<text xml:space="preserve" text-anchor="middle" x="108.14" y="-49.83" font-family="Segoe UI" font-size="9.00">¿Refacciones Disponibles?</text>
</g>
<!-- M1_SUS&#45;&gt;S1_SUS -->
<g id="edge6" class="edge">
<title>M1_SUS&#45;&gt;S1_SUS</title>
<path fill="none" stroke="#34495e" stroke-width="1.2" d="M837.96,-43.45C714.93,-42.68 451.57,-41.88 229.28,-47 219.47,-47.23 209.22,-47.54 199.02,-47.89"/>
<polygon fill="#34495e" stroke="#34495e" stroke-width="1.2" points="198.97,-45.09 191.08,-48.18 199.17,-50.69 198.97,-45.09"/>
<text xml:space="preserve" text-anchor="middle" x="478.78" y="-46.83" font-family="Times New Roman,serif" font-size="14.00"> Solicitar</text>
</g>
<!-- M2_SUS -->
<g id="node9" class="node">
<title>M2_SUS</title>
<polygon fill="#ffffff" stroke="#2c3e50" stroke-width="1.5" points="973.61,-155.2 844.01,-155.2 844.01,-104.8 973.61,-104.8 973.61,-155.2"/>
<text xml:space="preserve" text-anchor="middle" x="908.81" y="-134.2" font-family="Segoe UI" font-size="9.00">Sustitución de Bujes,</text>
<text xml:space="preserve" text-anchor="middle" x="908.81" y="-121.45" font-family="Segoe UI" font-size="9.00">Rótulas o Terminales</text>
</g>
<!-- M3_SUS -->
<g id="node10" class="node">
<title>M3_SUS</title>
<polygon fill="#ffffff" stroke="#2c3e50" stroke-width="1.5" points="1167.66,-155.2 1038.06,-155.2 1038.06,-104.8 1167.66,-104.8 1167.66,-155.2"/>
<text xml:space="preserve" text-anchor="middle" x="1102.86" y="-134.2" font-family="Segoe UI" font-size="9.00">Instalación con Carga</text>
<text xml:space="preserve" text-anchor="middle" x="1102.86" y="-121.45" font-family="Segoe UI" font-size="9.00">y Geometría Preliminar</text>
</g>
<!-- M2_SUS&#45;&gt;M3_SUS -->
<g id="edge11" class="edge">
<title>M2_SUS&#45;&gt;M3_SUS</title>
<path fill="none" stroke="#34495e" stroke-width="1.2" d="M974.29,-130C991.49,-130 1010.2,-130 1027.86,-130"/>
<polygon fill="#34495e" stroke="#34495e" stroke-width="1.2" points="1027.73,-132.8 1035.73,-130 1027.73,-127.2 1027.73,-132.8"/>
</g>
<!-- M4_SUS -->
<g id="node11" class="node">
<title>M4_SUS</title>
<polygon fill="#ffffff" stroke="#2c3e50" stroke-width="1.5" points="1356.26,-155.2 1226.66,-155.2 1226.66,-104.8 1356.26,-104.8 1356.26,-155.2"/>
<text xml:space="preserve" text-anchor="middle" x="1291.46" y="-134.2" font-family="Segoe UI" font-size="9.00">Engrase de Puntos y</text>
<text xml:space="preserve" text-anchor="middle" x="1291.46" y="-121.45" font-family="Segoe UI" font-size="9.00">Limpieza de Zonas</text>
</g>
<!-- M3_SUS&#45;&gt;M4_SUS -->
<g id="edge12" class="edge">
<title>M3_SUS&#45;&gt;M4_SUS</title>
<path fill="none" stroke="#34495e" stroke-width="1.2" d="M1168.34,-130C1183.78,-130 1200.39,-130 1216.23,-130"/>
<polygon fill="#34495e" stroke="#34495e" stroke-width="1.2" points="1216.16,-132.8 1224.16,-130 1216.16,-127.2 1216.16,-132.8"/>
</g>
<!-- M5_SUS -->
<g id="node12" class="node">
<title>M5_SUS</title>
<polygon fill="#ffffff" stroke="#2c3e50" stroke-width="1.5" points="1544.86,-155.2 1415.26,-155.2 1415.26,-104.8 1544.86,-104.8 1544.86,-155.2"/>
<text xml:space="preserve" text-anchor="middle" x="1480.06" y="-134.2" font-family="Segoe UI" font-size="9.00">Carga de Evidencia</text>
<text xml:space="preserve" text-anchor="middle" x="1480.06" y="-121.45" font-family="Segoe UI" font-size="9.00">en Notion (Fotos)</text>
</g>
<!-- M4_SUS&#45;&gt;M5_SUS -->
<g id="edge13" class="edge">
<title>M4_SUS&#45;&gt;M5_SUS</title>
<path fill="none" stroke="#34495e" stroke-width="1.2" d="M1356.94,-130C1372.38,-130 1388.99,-130 1404.83,-130"/>
<polygon fill="#34495e" stroke="#34495e" stroke-width="1.2" points="1404.76,-132.8 1412.76,-130 1404.76,-127.2 1404.76,-132.8"/>
</g>
<!-- M5_SUS&#45;&gt;J3_SUS -->
<g id="edge14" class="edge">
<title>M5_SUS&#45;&gt;J3_SUS</title>
<path fill="none" stroke="#34495e" stroke-width="1.2" d="M1468.15,-155.75C1444.4,-207.23 1382.82,-318 1292.46,-318 907.81,-318 907.81,-318 907.81,-318 844.35,-318 772.25,-318.89 719.78,-319.7"/>
<polygon fill="#34495e" stroke="#34495e" stroke-width="1.2" points="720,-316.9 712.04,-319.82 720.08,-322.5 720,-316.9"/>
</g>
<!-- S2_SUS -->
<g id="node14" class="node">
<title>S2_SUS</title>
<polygon fill="#ffffff" stroke="#2c3e50" stroke-width="1.5" points="709.72,-132.2 580.12,-132.2 580.12,-81.8 709.72,-81.8 709.72,-132.2"/>
<text xml:space="preserve" text-anchor="middle" x="644.92" y="-111.2" font-family="Segoe UI" font-size="9.00">Surtir Kit Suspensión</text>
<text xml:space="preserve" text-anchor="middle" x="644.92" y="-98.45" font-family="Segoe UI" font-size="9.00">(Gomas, Tornillos, Piezas)</text>
</g>
<!-- S1_SUS&#45;&gt;S2_SUS -->
<g id="edge9" class="edge">
<title>S1_SUS&#45;&gt;S2_SUS</title>
<path fill="none" stroke="#34495e" stroke-width="1.2" d="M194.95,-54.23C260.37,-56.57 352.59,-61.27 433.03,-70.5 478.83,-75.75 529.76,-84.49 570.1,-92.09"/>
<polygon fill="#34495e" stroke="#34495e" stroke-width="1.2" points="569.42,-94.81 577.8,-93.56 570.47,-89.31 569.42,-94.81"/>
<text xml:space="preserve" text-anchor="middle" x="353.28" y="-73.7" font-family="Times New Roman,serif" font-size="14.00"> SÍ</text>
</g>
<!-- S3_SUS -->
<g id="node15" class="node">
<title>S3_SUS</title>
<polygon fill="#ffffff" stroke="#2c3e50" stroke-width="1.5" points="418.08,-155.2 288.48,-155.2 288.48,-104.8 418.08,-104.8 418.08,-155.2"/>
<text xml:space="preserve" text-anchor="middle" x="353.28" y="-134.2" font-family="Segoe UI" font-size="9.00">Solicitar Compra</text>
<text xml:space="preserve" text-anchor="middle" x="353.28" y="-121.45" font-family="Segoe UI" font-size="9.00">Urgente</text>
</g>
<!-- S1_SUS&#45;&gt;S3_SUS -->
<g id="edge7" class="edge">
<title>S1_SUS&#45;&gt;S3_SUS</title>
<path fill="none" stroke="#34495e" stroke-width="1.2" d="M152.33,-65.85C187.34,-77.09 237.48,-93.17 278.79,-106.42"/>
<polygon fill="#34495e" stroke="#34495e" stroke-width="1.2" points="277.8,-109.05 286.27,-108.82 279.51,-103.71 277.8,-109.05"/>
<text xml:space="preserve" text-anchor="middle" x="240.91" y="-101.19" font-family="Times New Roman,serif" font-size="14.00"> NO</text>
</g>
<!-- S2_SUS&#45;&gt;M2_SUS -->
<g id="edge10" class="edge">
<title>S2_SUS&#45;&gt;M2_SUS</title>
<path fill="none" stroke="#34495e" stroke-width="1.2" d="M710.32,-112.66C747.74,-115.94 795.03,-120.1 833.95,-123.51"/>
<polygon fill="#34495e" stroke="#34495e" stroke-width="1.2" points="833.63,-126.3 841.85,-124.21 834.12,-120.72 833.63,-126.3"/>
</g>
<!-- S3_SUS&#45;&gt;S2_SUS -->
<g id="edge8" class="edge">
<title>S3_SUS&#45;&gt;S2_SUS</title>
<path fill="none" stroke="#34495e" stroke-width="1.2" d="M418.56,-124.9C463.29,-121.34 523.06,-116.6 569.8,-112.89"/>
<polygon fill="#34495e" stroke="#34495e" stroke-width="1.2" points="570.01,-115.68 577.76,-112.25 569.56,-110.1 570.01,-115.68"/>
</g>
</g>
</svg>
