<?xml version="1.0" encoding="UTF-8" standalone="no"?>
<!DOCTYPE svg PUBLIC "-//W3C//DTD SVG 1.1//EN"
 "http://www.w3.org/Graphics/SVG/1.1/DTD/svg11.dtd">
<!-- Generated by graphviz version 14.1.2 (20260124.0452)
 -->
<!-- Title: Motor_Final Pages: 1 -->
<svg width="1621pt" height="557pt"
 viewBox="0.00 0.00 1621.00 557.00" xmlns="http://www.w3.org/2000/svg" xmlns:xlink="http://www.w3.org/1999/xlink">
<g id="graph0" class="graph" transform="scale(1 1) rotate(0) translate(4 552.5)">
<title>Motor_Final</title>
<polygon fill="#ffffff" stroke="none" points="-4,4 -4,-552.5 1617.13,-552.5 1617.13,4 -4,4"/>
<text xml:space="preserve" text-anchor="middle" x="806.56" y="-529.3" font-family="Segoe UI Bold" font-size="16.00" fill="#1a1a1a">DIAGRAMA DE PROCESO: REPARACIÓN O CAMBIO DE MOTOR (SOP)</text>
<text xml:space="preserve" text-anchor="middle" x="806.56" y="-506.8" font-family="Segoe UI Bold" font-size="16.00" fill="#1a1a1a">SYNER GROUP | CLIENTE: BJX MOTORS | 2026</text>
<text xml:space="preserve" text-anchor="middle" x="806.56" y="-484.3" font-family="Segoe UI Bold" font-size="16.00" fill="#1a1a1a"> </text>
<g id="clust1" class="cluster">
<title>cluster_asesora</title>
<polygon fill="#f4f9fd" stroke="#2980b9" points="8,-8 8,-277 346.75,-277 346.75,-8 8,-8"/>
<text xml:space="preserve" text-anchor="middle" x="177.38" y="-257.8" font-family="Segoe UI Bold" font-size="16.00" fill="#1a1a1a">Asesora de Servicios</text>
</g>
<g id="clust2" class="cluster">
<title>cluster_jefe</title>
<polygon fill="#f8f9f9" stroke="#7f8c8d" points="397.56,-8 397.56,-191 850.73,-191 850.73,-8 397.56,-8"/>
<text xml:space="preserve" text-anchor="middle" x="624.14" y="-171.8" font-family="Segoe UI Bold" font-size="16.00" fill="#1a1a1a">Jefe de Mecánicos</text>
</g>
<g id="clust3" class="cluster">
<title>cluster_mecanico</title>
<polygon fill="#f1fcf4" stroke="#27ae60" points="893.73,-89 893.73,-272 1605.13,-272 1605.13,-89 893.73,-89"/>
<text xml:space="preserve" text-anchor="middle" x="1249.43" y="-252.8" font-family="Segoe UI Bold" font-size="16.00" fill="#1a1a1a">Mecánico</text>
</g>
<g id="clust4" class="cluster">
<title>cluster_almacen</title>
<polygon fill="#fffdf9" stroke="#f39c12" points="389.75,-280 389.75,-465 1039.33,-465 1039.33,-280 389.75,-280"/>
<text xml:space="preserve" text-anchor="middle" x="714.54" y="-445.8" font-family="Segoe UI Bold" font-size="16.00" fill="#1a1a1a">Almacén</text>
</g>
<!-- ST_MOT -->
<g id="node1" class="node">
<title>ST_MOT</title>
<ellipse fill="#27ae60" stroke="#2c3e50" stroke-width="1.5" cx="81" cy="-213" rx="64.8" ry="25.2"/>
<text xml:space="preserve" text-anchor="middle" x="81" y="-210.82" font-family="Segoe UI" font-size="9.00" fill="white">INICIO</text>
</g>
<!-- A1_MOT -->
<g id="node2" class="node">
<title>A1_MOT</title>
<polygon fill="#ffffff" stroke="#2c3e50" stroke-width="1.5" points="338.75,-234.2 205,-234.2 205,-183.8 338.75,-183.8 338.75,-234.2"/>
<text xml:space="preserve" text-anchor="middle" x="271.88" y="-213.2" font-family="Segoe UI" font-size="9.00">Recepción: Motor Desvielado,</text>
<text xml:space="preserve" text-anchor="middle" x="271.88" y="-200.45" font-family="Segoe UI" font-size="9.00">Calentamiento o Humo Azul</text>
</g>
<!-- ST_MOT&#45;&gt;A1_MOT -->
<g id="edge1" class="edge">
<title>ST_MOT&#45;&gt;A1_MOT</title>
<path fill="none" stroke="#34495e" stroke-width="1.2" d="M146.21,-211.64C161.85,-211.31 178.73,-210.95 194.87,-210.61"/>
<polygon fill="#34495e" stroke="#34495e" stroke-width="1.2" points="194.51,-213.42 202.45,-210.45 194.4,-207.82 194.51,-213.42"/>
</g>
<!-- J1_MOT -->
<g id="node6" class="node">
<title>J1_MOT</title>
<polygon fill="#fff9c4" stroke="#2c3e50" stroke-width="1.5" points="493.81,-152.2 405.56,-127 493.81,-101.8 582.07,-127 493.81,-152.2"/>
<text xml:space="preserve" text-anchor="middle" x="493.81" y="-131.2" font-family="Segoe UI" font-size="9.00">Diagnóstico Mayor:</text>
<text xml:space="preserve" text-anchor="middle" x="493.81" y="-118.45" font-family="Segoe UI" font-size="9.00">¿Es Reparable?</text>
</g>
<!-- A1_MOT&#45;&gt;J1_MOT -->
<g id="edge2" class="edge">
<title>A1_MOT&#45;&gt;J1_MOT</title>
<path fill="none" stroke="#34495e" stroke-width="1.2" d="M339.46,-184.17C373.52,-171.48 414.2,-156.31 445.1,-144.79"/>
<polygon fill="#34495e" stroke="#34495e" stroke-width="1.2" points="445.72,-147.54 452.24,-142.13 443.77,-142.3 445.72,-147.54"/>
</g>
<!-- A2_MOT -->
<g id="node3" class="node">
<title>A2_MOT</title>
<polygon fill="#ffffff" stroke="#2c3e50" stroke-width="1.5" points="145.8,-152.2 16.2,-152.2 16.2,-101.8 145.8,-101.8 145.8,-152.2"/>
<text xml:space="preserve" text-anchor="middle" x="81" y="-131.2" font-family="Segoe UI" font-size="9.00">Presentar Presupuesto</text>
<text xml:space="preserve" text-anchor="middle" x="81" y="-118.45" font-family="Segoe UI" font-size="9.00">y Tiempo Estimado</text>
</g>
<!-- A3_MOT -->
<g id="node4" class="node">
<title>A3_MOT</title>
<polygon fill="#ffffff" stroke="#2c3e50" stroke-width="1.5" points="146,-66.2 16,-66.2 16,-15.8 146,-15.8 146,-66.2"/>
<text xml:space="preserve" text-anchor="middle" x="81" y="-45.2" font-family="Segoe UI" font-size="9.00">Cierre de Orden y</text>
<text xml:space="preserve" text-anchor="middle" x="81" y="-32.45" font-family="Segoe UI" font-size="9.00">Entrega de Póliza de Garantía</text>
</g>
<!-- END_MOT -->
<g id="node5" class="node">
<title>END_MOT</title>
<ellipse fill="#c0392b" stroke="#2c3e50" stroke-width="1.5" cx="271.88" cy="-119" rx="64.8" ry="25.2"/>
<text xml:space="preserve" text-anchor="middle" x="271.88" y="-116.83" font-family="Segoe UI" font-size="9.00" fill="white">FIN</text>
</g>
<!-- A3_MOT&#45;&gt;END_MOT -->
<g id="edge16" class="edge">
<title>A3_MOT&#45;&gt;END_MOT</title>
<path fill="none" stroke="#34495e" stroke-width="1.2" d="M144.63,-66.86C168.14,-76.57 194.63,-87.51 217.25,-96.85"/>
<polygon fill="#34495e" stroke="#34495e" stroke-width="1.2" points="215.89,-99.32 224.36,-99.79 218.03,-94.15 215.89,-99.32"/>
</g>
<!-- J2_MOT -->
<g id="node7" class="node">
<title>J2_MOT</title>
<polygon fill="#ffffff" stroke="#2c3e50" stroke-width="1.5" points="842.73,-150.2 713.13,-150.2 713.13,-99.8 842.73,-99.8 842.73,-150.2"/>
<text xml:space="preserve" text-anchor="middle" x="777.93" y="-129.2" font-family="Segoe UI" font-size="9.00">Evaluación de Monoblock</text>
<text xml:space="preserve" text-anchor="middle" x="777.93" y="-116.45" font-family="Segoe UI" font-size="9.00">y Cigüeñal (Rectificadora)</text>
</g>
<!-- J1_MOT&#45;&gt;J2_MOT -->
<g id="edge3" class="edge">
<title>J1_MOT&#45;&gt;J2_MOT</title>
<path fill="none" stroke="#34495e" stroke-width="1.2" d="M582.53,-126.38C621.13,-126.1 665.99,-125.79 702.88,-125.52"/>
<polygon fill="#34495e" stroke="#34495e" stroke-width="1.2" points="702.77,-128.33 710.75,-125.47 702.73,-122.73 702.77,-128.33"/>
<text xml:space="preserve" text-anchor="middle" x="651.5" y="-129.32" font-family="Times New Roman,serif" font-size="14.00"> REPARAR</text>
</g>
<!-- S3_MOT -->
<g id="node16" class="node">
<title>S3_MOT</title>
<polygon fill="#ffffff" stroke="#2c3e50" stroke-width="1.5" points="842.73,-338.2 713.13,-338.2 713.13,-287.8 842.73,-287.8 842.73,-338.2"/>
<text xml:space="preserve" text-anchor="middle" x="777.93" y="-317.2" font-family="Segoe UI" font-size="9.00">Gestionar Compra de</text>
<text xml:space="preserve" text-anchor="middle" x="777.93" y="-304.45" font-family="Segoe UI" font-size="9.00">Motor Completo</text>
</g>
<!-- J1_MOT&#45;&gt;S3_MOT -->
<g id="edge4" class="edge">
<title>J1_MOT&#45;&gt;S3_MOT</title>
<path fill="none" stroke="#34495e" stroke-width="1.2" d="M521.86,-144.83C569.81,-176.44 670.24,-242.66 729.77,-281.91"/>
<polygon fill="#34495e" stroke="#34495e" stroke-width="1.2" points="728.16,-284.2 736.38,-286.27 731.24,-279.52 728.16,-284.2"/>
<text xml:space="preserve" text-anchor="middle" x="651.5" y="-250.73" font-family="Times New Roman,serif" font-size="14.00"> CAMBIO</text>
</g>
<!-- M1_MOT -->
<g id="node9" class="node">
<title>M1_MOT</title>
<polygon fill="#ffffff" stroke="#2c3e50" stroke-width="1.5" points="1031.33,-147.2 901.73,-147.2 901.73,-96.8 1031.33,-96.8 1031.33,-147.2"/>
<text xml:space="preserve" text-anchor="middle" x="966.53" y="-126.2" font-family="Segoe UI" font-size="9.00">Desmontaje Total de</text>
<text xml:space="preserve" text-anchor="middle" x="966.53" y="-113.45" font-family="Segoe UI" font-size="9.00">Periféricos y Motor</text>
</g>
<!-- J2_MOT&#45;&gt;M1_MOT -->
<g id="edge5" class="edge">
<title>J2_MOT&#45;&gt;M1_MOT</title>
<path fill="none" stroke="#34495e" stroke-width="1.2" d="M843.4,-123.96C858.85,-123.72 875.45,-123.45 891.3,-123.19"/>
<polygon fill="#34495e" stroke="#34495e" stroke-width="1.2" points="891.28,-125.99 899.23,-123.07 891.19,-120.39 891.28,-125.99"/>
</g>
<!-- J3_MOT -->
<g id="node8" class="node">
<title>J3_MOT</title>
<polygon fill="#ffffff" stroke="#2c3e50" stroke-width="1.5" points="558.61,-66.2 429.01,-66.2 429.01,-15.8 558.61,-15.8 558.61,-66.2"/>
<text xml:space="preserve" text-anchor="middle" x="493.81" y="-45.2" font-family="Segoe UI" font-size="9.00">Validación de Compresión</text>
<text xml:space="preserve" text-anchor="middle" x="493.81" y="-32.45" font-family="Segoe UI" font-size="9.00">y Presión de Aceite</text>
</g>
<!-- J3_MOT&#45;&gt;A3_MOT -->
<g id="edge15" class="edge">
<title>J3_MOT&#45;&gt;A3_MOT</title>
<path fill="none" stroke="#34495e" stroke-width="1.2" d="M428.55,-41C354.82,-41 234.1,-41 156.37,-41"/>
<polygon fill="#34495e" stroke="#34495e" stroke-width="1.2" points="156.46,-38.2 148.46,-41 156.46,-43.8 156.46,-38.2"/>
<text xml:space="preserve" text-anchor="middle" x="271.88" y="-44.2" font-family="Times New Roman,serif" font-size="14.00"> OK</text>
</g>
<!-- S1_MOT -->
<g id="node14" class="node">
<title>S1_MOT</title>
<polygon fill="#fff9c4" stroke="#2c3e50" stroke-width="1.5" points="493.81,-349.2 397.75,-324 493.81,-298.8 589.88,-324 493.81,-349.2"/>
<text xml:space="preserve" text-anchor="middle" x="493.81" y="-328.2" font-family="Segoe UI" font-size="9.00">¿Refacciones o Motor</text>
<text xml:space="preserve" text-anchor="middle" x="493.81" y="-315.45" font-family="Segoe UI" font-size="9.00">Nuevo en Stock?</text>
</g>
<!-- M1_MOT&#45;&gt;S1_MOT -->
<g id="edge6" class="edge">
<title>M1_MOT&#45;&gt;S1_MOT</title>
<path fill="none" stroke="#34495e" stroke-width="1.2" d="M921.18,-147.9C912.03,-153.43 902.51,-159.32 893.73,-165 874.16,-177.66 871.41,-184.27 850.73,-195 796.39,-223.18 632.7,-278.65 547.56,-306.77"/>
<polygon fill="#34495e" stroke="#34495e" stroke-width="1.2" points="546.77,-304.08 540.05,-309.25 548.52,-309.4 546.77,-304.08"/>
<text xml:space="preserve" text-anchor="middle" x="777.93" y="-252.69" font-family="Times New Roman,serif" font-size="14.00"> Solicitar</text>
</g>
<!-- M2_MOT -->
<g id="node10" class="node">
<title>M2_MOT</title>
<polygon fill="#ffffff" stroke="#2c3e50" stroke-width="1.5" points="1031.33,-233.2 901.73,-233.2 901.73,-182.8 1031.33,-182.8 1031.33,-233.2"/>
<text xml:space="preserve" text-anchor="middle" x="966.53" y="-212.2" font-family="Segoe UI" font-size="9.00">Limpieza Química y</text>
<text xml:space="preserve" text-anchor="middle" x="966.53" y="-199.45" font-family="Segoe UI" font-size="9.00">Anillado / Ajuste</text>
</g>
<!-- M3_MOT -->
<g id="node11" class="node">
<title>M3_MOT</title>
<polygon fill="#ffffff" stroke="#2c3e50" stroke-width="1.5" points="1219.93,-222.2 1090.33,-222.2 1090.33,-171.8 1219.93,-171.8 1219.93,-222.2"/>
<text xml:space="preserve" text-anchor="middle" x="1155.13" y="-201.2" font-family="Segoe UI" font-size="9.00">Montaje de Motor y</text>
<text xml:space="preserve" text-anchor="middle" x="1155.13" y="-188.45" font-family="Segoe UI" font-size="9.00">Puesta a Tiempo</text>
</g>
<!-- M2_MOT&#45;&gt;M3_MOT -->
<g id="edge11" class="edge">
<title>M2_MOT&#45;&gt;M3_MOT</title>
<path fill="none" stroke="#34495e" stroke-width="1.2" d="M1032,-204.2C1047.45,-203.29 1064.05,-202.31 1079.9,-201.38"/>
<polygon fill="#34495e" stroke="#34495e" stroke-width="1.2" points="1080.01,-204.17 1087.83,-200.91 1079.68,-198.58 1080.01,-204.17"/>
</g>
<!-- M4_MOT -->
<g id="node12" class="node">
<title>M4_MOT</title>
<polygon fill="#ffffff" stroke="#2c3e50" stroke-width="1.5" points="1408.53,-190.2 1278.93,-190.2 1278.93,-139.8 1408.53,-139.8 1408.53,-190.2"/>
<text xml:space="preserve" text-anchor="middle" x="1343.73" y="-169.2" font-family="Segoe UI" font-size="9.00">Prueba de Asentamiento</text>
<text xml:space="preserve" text-anchor="middle" x="1343.73" y="-156.45" font-family="Segoe UI" font-size="9.00">y Escaneo de Sensores</text>
</g>
<!-- M3_MOT&#45;&gt;M4_MOT -->
<g id="edge12" class="edge">
<title>M3_MOT&#45;&gt;M4_MOT</title>
<path fill="none" stroke="#34495e" stroke-width="1.2" d="M1220.6,-185.94C1236.19,-183.27 1252.97,-180.39 1268.95,-177.65"/>
<polygon fill="#34495e" stroke="#34495e" stroke-width="1.2" points="1269.04,-180.48 1276.46,-176.36 1268.1,-174.96 1269.04,-180.48"/>
</g>
<!-- M5_MOT -->
<g id="node13" class="node">
<title>M5_MOT</title>
<polygon fill="#ffffff" stroke="#2c3e50" stroke-width="1.5" points="1597.13,-147.2 1467.53,-147.2 1467.53,-96.8 1597.13,-96.8 1597.13,-147.2"/>
<text xml:space="preserve" text-anchor="middle" x="1532.33" y="-126.2" font-family="Segoe UI" font-size="9.00">Carga de Evidencia</text>
<text xml:space="preserve" text-anchor="middle" x="1532.33" y="-113.45" font-family="Segoe UI" font-size="9.00">en Notion (Fotos/Video)</text>
</g>
<!-- M4_MOT&#45;&gt;M5_MOT -->
<g id="edge13" class="edge">
<title>M4_MOT&#45;&gt;M5_MOT</title>
<path fill="none" stroke="#34495e" stroke-width="1.2" d="M1409.2,-150.14C1424.79,-146.55 1441.57,-142.68 1457.55,-139"/>
<polygon fill="#34495e" stroke="#34495e" stroke-width="1.2" points="1457.91,-141.79 1465.08,-137.27 1456.65,-136.33 1457.91,-141.79"/>
</g>
<!-- M5_MOT&#45;&gt;J3_MOT -->
<g id="edge14" class="edge">
<title>M5_MOT&#45;&gt;J3_MOT</title>
<path fill="none" stroke="#34495e" stroke-width="1.2" d="M1495.4,-96.25C1459.18,-72.86 1400.77,-42 1344.73,-42 776.93,-42 776.93,-42 776.93,-42 706.32,-42 625.77,-41.68 568.87,-41.41"/>
<polygon fill="#34495e" stroke="#34495e" stroke-width="1.2" points="569.07,-38.61 561.06,-41.37 569.04,-44.21 569.07,-38.61"/>
</g>
<!-- S2_MOT -->
<g id="node15" class="node">
<title>S2_MOT</title>
<polygon fill="#ffffff" stroke="#2c3e50" stroke-width="1.5" points="1031.33,-355.2 901.73,-355.2 901.73,-304.8 1031.33,-304.8 1031.33,-355.2"/>
<text xml:space="preserve" text-anchor="middle" x="966.53" y="-334.2" font-family="Segoe UI" font-size="9.00">Surtir Kit de Empaques,</text>
<text xml:space="preserve" text-anchor="middle" x="966.53" y="-321.45" font-family="Segoe UI" font-size="9.00">Metales y Aceite</text>
</g>
<!-- S1_MOT&#45;&gt;S2_MOT -->
<g id="edge9" class="edge">
<title>S1_MOT&#45;&gt;S2_MOT</title>
<path fill="none" stroke="#34495e" stroke-width="1.2" d="M548.55,-335.56C618.3,-349.01 743.75,-367.96 850.73,-356 864.09,-354.51 878.17,-352.06 891.72,-349.25"/>
<polygon fill="#34495e" stroke="#34495e" stroke-width="1.2" points="891.99,-352.06 899.22,-347.64 890.81,-346.59 891.99,-352.06"/>
<text xml:space="preserve" text-anchor="middle" x="777.93" y="-362.99" font-family="Times New Roman,serif" font-size="14.00"> SÍ</text>
</g>
<!-- S1_MOT&#45;&gt;S3_MOT -->
<g id="edge7" class="edge">
<title>S1_MOT&#45;&gt;S3_MOT</title>
<path fill="none" stroke="#34495e" stroke-width="1.2" d="M579.84,-320.68C619.17,-319.15 665.45,-317.35 703.27,-315.87"/>
<polygon fill="#34495e" stroke="#34495e" stroke-width="1.2" points="703,-318.68 710.88,-315.58 702.78,-313.09 703,-318.68"/>
<text xml:space="preserve" text-anchor="middle" x="651.5" y="-322.36" font-family="Times New Roman,serif" font-size="14.00"> NO</text>
</g>
<!-- S2_MOT&#45;&gt;M2_MOT -->
<g id="edge10" class="edge">
<title>S2_MOT&#45;&gt;M2_MOT</title>
<path fill="none" stroke="#34495e" stroke-width="1.2" d="M966.53,-304.05C966.53,-283.82 966.53,-263.58 966.53,-243.35"/>
<polygon fill="#34495e" stroke="#34495e" stroke-width="1.2" points="969.33,-243.55 966.53,-235.55 963.73,-243.55 969.33,-243.55"/>
</g>
<!-- S3_MOT&#45;&gt;S2_MOT -->
<g id="edge8" class="edge">
<title>S3_MOT&#45;&gt;S2_MOT</title>
<path fill="none" stroke="#34495e" stroke-width="1.2" d="M843.4,-318.87C858.85,-320.28 875.45,-321.79 891.3,-323.24"/>
<polygon fill="#34495e" stroke="#34495e" stroke-width="1.2" points="891.02,-326.02 899.24,-323.96 891.52,-320.45 891.02,-326.02"/>
</g>
</g>
</svg>
