<?xml version="1.0" encoding="UTF-8" standalone="no"?>
<!DOCTYPE svg PUBLIC "-//W3C//DTD SVG 1.1//EN"
 "http://www.w3.org/Graphics/SVG/1.1/DTD/svg11.dtd">
<!-- Generated by graphviz version 14.1.2 (20260124.0452)
 -->
<!-- Title: Cambio_Horquilla Pages: 1 -->
<svg width="1610pt" height="557pt"
 viewBox="0.00 0.00 1610.00 557.00" xmlns="http://www.w3.org/2000/svg" xmlns:xlink="http://www.w3.org/1999/xlink">
<g id="graph0" class="graph" transform="scale(1 1) rotate(0) translate(4 552.5)">
<title>Cambio_Horquilla</title>
<polygon fill="#ffffff" stroke="none" points="-4,4 -4,-552.5 1606.45,-552.5 1606.45,4 -4,4"/>
<text xml:space="preserve" text-anchor="middle" x="801.22" y="-529.3" font-family="Segoe UI Bold" font-size="16.00" fill="#1a1a1a">DIAGRAMA DE PROCESO OPERATIVO: CAMBIO DE HORQUILLA DE SUSPENSIÓN</text>
<text xml:space="preserve" text-anchor="middle" x="801.22" y="-506.8" font-family="Segoe UI Bold" font-size="16.00" fill="#1a1a1a">SYNER GROUP | CLIENTE: BJX MOTORS | 2026</text>
<text xml:space="preserve" text-anchor="middle" x="801.22" y="-484.3" font-family="Segoe UI Bold" font-size="16.00" fill="#1a1a1a"> </text>
<g id="clust1" class="cluster">
<title>cluster_asesora</title>
<polygon fill="#f4f9fd" stroke="#2980b9" points="609.95,-282 609.95,-465 1217.25,-465 1217.25,-282 609.95,-282"/>
<text xml:space="preserve" text-anchor="middle" x="913.6" y="-445.8" font-family="Segoe UI Bold" font-size="16.00" fill="#2980b9">Asesora de Servicios</text>
</g>
<g id="clust2" class="cluster">
<title>cluster_jefe</title>
<polygon fill="#f8f9f9" stroke="#7f8c8d" points="1260.25,-153 1260.25,-336 1594.45,-336 1594.45,-153 1260.25,-153"/>
<text xml:space="preserve" text-anchor="middle" x="1427.35" y="-316.8" font-family="Segoe UI Bold" font-size="16.00" fill="#34495e">Jefe de Mecánicos</text>
</g>
<g id="clust3" class="cluster">
<title>cluster_mecanico</title>
<polygon fill="#f1fcf4" stroke="#27ae60" points="418.7,-8 418.7,-191 1217.25,-191 1217.25,-8 418.7,-8"/>
<text xml:space="preserve" text-anchor="middle" x="817.97" y="-171.8" font-family="Segoe UI Bold" font-size="16.00" fill="#27ae60">Mecánico</text>
</g>
<g id="clust4" class="cluster">
<title>cluster_almacen</title>
<polygon fill="#fffdf9" stroke="#f39c12" points="8,-92 8,-189 342.2,-189 342.2,-92 8,-92"/>
<text xml:space="preserve" text-anchor="middle" x="175.1" y="-169.8" font-family="Segoe UI Bold" font-size="16.00" fill="#d35400">Almacén</text>
</g>
<!-- ST_HORQ -->
<g id="node1" class="node">
<title>ST_HORQ</title>
<ellipse fill="#27ae60" stroke="#2c3e50" stroke-width="1.5" cx="682.75" cy="-401" rx="64.8" ry="25.2"/>
<text xml:space="preserve" text-anchor="middle" x="682.75" y="-398.82" font-family="Segoe UI" font-size="9.00" fill="white">INICIO</text>
</g>
<!-- A1_HORQ -->
<g id="node2" class="node">
<title>A1_HORQ</title>
<polygon fill="#ffffff" stroke="#2c3e50" stroke-width="1.5" points="936.15,-426.2 806.55,-426.2 806.55,-375.8 936.15,-375.8 936.15,-426.2"/>
<text xml:space="preserve" text-anchor="middle" x="871.35" y="-405.2" font-family="Segoe UI" font-size="9.00" fill="#2c3e50">Recepción: Reporte de</text>
<text xml:space="preserve" text-anchor="middle" x="871.35" y="-392.45" font-family="Segoe UI" font-size="9.00" fill="#2c3e50">Ruido/Juego en Dirección</text>
</g>
<!-- ST_HORQ&#45;&gt;A1_HORQ -->
<g id="edge1" class="edge">
<title>ST_HORQ&#45;&gt;A1_HORQ</title>
<path fill="none" stroke="#34495e" stroke-width="1.2" d="M748.23,-401C763.67,-401 780.28,-401 796.12,-401"/>
<polygon fill="#34495e" stroke="#34495e" stroke-width="1.2" points="796.05,-403.8 804.05,-401 796.05,-398.2 796.05,-403.8"/>
</g>
<!-- A2_HORQ -->
<g id="node3" class="node">
<title>A2_HORQ</title>
<polygon fill="#ffffff" stroke="#2c3e50" stroke-width="1.5" points="1209.25,-383.2 1079.65,-383.2 1079.65,-332.8 1209.25,-332.8 1209.25,-383.2"/>
<text xml:space="preserve" text-anchor="middle" x="1144.45" y="-362.2" font-family="Segoe UI" font-size="9.00" fill="#2c3e50">Registro de Orden</text>
<text xml:space="preserve" text-anchor="middle" x="1144.45" y="-349.45" font-family="Segoe UI" font-size="9.00" fill="#2c3e50">en Notion (SOP)</text>
</g>
<!-- A1_HORQ&#45;&gt;A2_HORQ -->
<g id="edge2" class="edge">
<title>A1_HORQ&#45;&gt;A2_HORQ</title>
<path fill="none" stroke="#34495e" stroke-width="1.2" d="M936.6,-390.81C976.54,-384.47 1028.04,-376.31 1069.66,-369.7"/>
<polygon fill="#34495e" stroke="#34495e" stroke-width="1.2" points="1069.94,-372.49 1077.4,-368.48 1069.06,-366.96 1069.94,-372.49"/>
</g>
<!-- J1_HORQ -->
<g id="node6" class="node">
<title>J1_HORQ</title>
<polygon fill="#ffffff" stroke="#2c3e50" stroke-width="1.5" points="1397.85,-297.2 1268.25,-297.2 1268.25,-246.8 1397.85,-246.8 1397.85,-297.2"/>
<text xml:space="preserve" text-anchor="middle" x="1333.05" y="-276.2" font-family="Segoe UI" font-size="9.00" fill="#2c3e50">Diagnóstico de Suspensión</text>
<text xml:space="preserve" text-anchor="middle" x="1333.05" y="-263.45" font-family="Segoe UI" font-size="9.00" fill="#2c3e50">(Validar Bujes/Rótula)</text>
</g>
<!-- A2_HORQ&#45;&gt;J1_HORQ -->
<g id="edge3" class="edge">
<title>A2_HORQ&#45;&gt;J1_HORQ</title>
<path fill="none" stroke="#34495e" stroke-width="1.2" d="M1201.69,-332.08C1222.34,-322.56 1245.89,-311.71 1267.24,-301.87"/>
<polygon fill="#34495e" stroke="#34495e" stroke-width="1.2" points="1268.18,-304.52 1274.28,-298.63 1265.84,-299.43 1268.18,-304.52"/>
</g>
<!-- A3_HORQ -->
<g id="node4" class="node">
<title>A3_HORQ</title>
<polygon fill="#ffffff" stroke="#2c3e50" stroke-width="1.5" points="747.55,-340.2 617.95,-340.2 617.95,-289.8 747.55,-289.8 747.55,-340.2"/>
<text xml:space="preserve" text-anchor="middle" x="682.75" y="-319.2" font-family="Segoe UI" font-size="9.00" fill="#2c3e50">Firma de Entrega</text>
<text xml:space="preserve" text-anchor="middle" x="682.75" y="-306.45" font-family="Segoe UI" font-size="9.00" fill="#2c3e50">y Encuesta Final</text>
</g>
<!-- END_HORQ -->
<g id="node5" class="node">
<title>END_HORQ</title>
<ellipse fill="#c0392b" stroke="#2c3e50" stroke-width="1.5" cx="871.35" cy="-315" rx="64.8" ry="25.2"/>
<text xml:space="preserve" text-anchor="middle" x="871.35" y="-312.82" font-family="Segoe UI" font-size="9.00" fill="white">FIN</text>
</g>
<!-- A3_HORQ&#45;&gt;END_HORQ -->
<g id="edge14" class="edge">
<title>A3_HORQ&#45;&gt;END_HORQ</title>
<path fill="none" stroke="#34495e" stroke-width="1.2" d="M748.23,-315C763.67,-315 780.28,-315 796.12,-315"/>
<polygon fill="#34495e" stroke="#34495e" stroke-width="1.2" points="796.05,-317.8 804.05,-315 796.05,-312.2 796.05,-317.8"/>
</g>
<!-- J2_HORQ -->
<g id="node7" class="node">
<title>J2_HORQ</title>
<polygon fill="#ffffff" stroke="#2c3e50" stroke-width="1.5" points="1586.45,-254.2 1456.85,-254.2 1456.85,-203.8 1586.45,-203.8 1586.45,-254.2"/>
<text xml:space="preserve" text-anchor="middle" x="1521.65" y="-233.2" font-family="Segoe UI" font-size="9.00" fill="#2c3e50">Asignar Técnico</text>
<text xml:space="preserve" text-anchor="middle" x="1521.65" y="-220.45" font-family="Segoe UI" font-size="9.00" fill="#2c3e50">Especialista en Suspensión</text>
</g>
<!-- J1_HORQ&#45;&gt;J2_HORQ -->
<g id="edge4" class="edge">
<title>J1_HORQ&#45;&gt;J2_HORQ</title>
<path fill="none" stroke="#34495e" stroke-width="1.2" d="M1398.53,-257.14C1414.12,-253.55 1430.89,-249.68 1446.87,-246"/>
<polygon fill="#34495e" stroke="#34495e" stroke-width="1.2" points="1447.23,-248.79 1454.4,-244.27 1445.97,-243.33 1447.23,-248.79"/>
</g>
<!-- M1_HORQ -->
<g id="node9" class="node">
<title>M1_HORQ</title>
<polygon fill="#ffffff" stroke="#2c3e50" stroke-width="1.5" points="557.62,-66.2 428.02,-66.2 428.02,-15.8 557.62,-15.8 557.62,-66.2"/>
<text xml:space="preserve" text-anchor="middle" x="492.82" y="-45.2" font-family="Segoe UI" font-size="9.00" fill="#2c3e50">Elevación y Desmontaje</text>
<text xml:space="preserve" text-anchor="middle" x="492.82" y="-32.45" font-family="Segoe UI" font-size="9.00" fill="#2c3e50">de Rueda y Elementos</text>
</g>
<!-- J2_HORQ&#45;&gt;M1_HORQ -->
<g id="edge5" class="edge">
<title>J2_HORQ&#45;&gt;M1_HORQ</title>
<path fill="none" stroke="#34495e" stroke-width="1.2" d="M1509.13,-203.31C1484.69,-153.14 1422.52,-47 1334.05,-47 681.75,-47 681.75,-47 681.75,-47 644.16,-47 602.35,-45.79 567.73,-44.45"/>
<polygon fill="#34495e" stroke="#34495e" stroke-width="1.2" points="568.09,-41.66 559.99,-44.14 567.87,-47.26 568.09,-41.66"/>
</g>
<!-- J3_HORQ -->
<g id="node8" class="node">
<title>J3_HORQ</title>
<polygon fill="#ffffff" stroke="#2c3e50" stroke-width="1.5" points="1397.85,-211.2 1268.25,-211.2 1268.25,-160.8 1397.85,-160.8 1397.85,-211.2"/>
<text xml:space="preserve" text-anchor="middle" x="1333.05" y="-190.2" font-family="Segoe UI" font-size="9.00" fill="#2c3e50">Validación de Torque</text>
<text xml:space="preserve" text-anchor="middle" x="1333.05" y="-177.45" font-family="Segoe UI" font-size="9.00" fill="#2c3e50">y Alineación Final</text>
</g>
<!-- J3_HORQ&#45;&gt;A3_HORQ -->
<g id="edge13" class="edge">
<title>J3_HORQ&#45;&gt;A3_HORQ</title>
<path fill="none" stroke="#34495e" stroke-width="1.2" d="M1267.94,-195.06C1147.78,-212.28 893,-249.97 806.55,-272 790.3,-276.14 773.14,-281.5 756.98,-287.02"/>
<polygon fill="#34495e" stroke="#34495e" stroke-width="1.2" points="756.46,-284.23 749.82,-289.5 758.3,-289.52 756.46,-284.23"/>
<text xml:space="preserve" text-anchor="middle" x="1007.9" y="-244.62" font-family="Times New Roman,serif" font-size="14.00"> OK (Alineado)</text>
</g>
<!-- S1_HORQ -->
<g id="node14" class="node">
<title>S1_HORQ</title>
<polygon fill="#ffffff" stroke="#2c3e50" stroke-width="1.5" points="145.6,-150.2 16,-150.2 16,-99.8 145.6,-99.8 145.6,-150.2"/>
<text xml:space="preserve" text-anchor="middle" x="80.8" y="-129.2" font-family="Segoe UI" font-size="9.00" fill="#2c3e50">Surtir Horquilla Completa</text>
<text xml:space="preserve" text-anchor="middle" x="80.8" y="-116.45" font-family="Segoe UI" font-size="9.00" fill="#2c3e50">(Izquierda/Derecha)</text>
</g>
<!-- M1_HORQ&#45;&gt;S1_HORQ -->
<g id="edge6" class="edge">
<title>M1_HORQ&#45;&gt;S1_HORQ</title>
<path fill="none" stroke="#34495e" stroke-width="1.2" d="M427.34,-39.84C368.34,-40.33 279.16,-45.01 204.6,-65.5 180.31,-72.17 155,-83.57 133.73,-94.62"/>
<polygon fill="#34495e" stroke="#34495e" stroke-width="1.2" points="132.53,-92.08 126.78,-98.3 135.16,-97.03 132.53,-92.08"/>
<text xml:space="preserve" text-anchor="middle" x="269.4" y="-68.7" font-family="Times New Roman,serif" font-size="14.00"> Solicitar</text>
</g>
<!-- M2_HORQ -->
<g id="node10" class="node">
<title>M2_HORQ</title>
<polygon fill="#ffffff" stroke="#2c3e50" stroke-width="1.5" points="558.95,-152.2 426.7,-152.2 426.7,-101.8 558.95,-101.8 558.95,-152.2"/>
<text xml:space="preserve" text-anchor="middle" x="492.82" y="-131.2" font-family="Segoe UI" font-size="9.00" fill="#2c3e50">Extracción de Horquilla</text>
<text xml:space="preserve" text-anchor="middle" x="492.82" y="-118.45" font-family="Segoe UI" font-size="9.00" fill="#2c3e50">Dañada (Uso de Herramienta)</text>
</g>
<!-- M3_HORQ -->
<g id="node11" class="node">
<title>M3_HORQ</title>
<polygon fill="#ffffff" stroke="#2c3e50" stroke-width="1.5" points="747.55,-152.2 617.95,-152.2 617.95,-101.8 747.55,-101.8 747.55,-152.2"/>
<text xml:space="preserve" text-anchor="middle" x="682.75" y="-131.2" font-family="Segoe UI" font-size="9.00" fill="#2c3e50">Instalación de Pieza Nueva</text>
<text xml:space="preserve" text-anchor="middle" x="682.75" y="-118.45" font-family="Segoe UI" font-size="9.00" fill="#2c3e50">con Torque Específico</text>
</g>
<!-- M2_HORQ&#45;&gt;M3_HORQ -->
<g id="edge9" class="edge">
<title>M2_HORQ&#45;&gt;M3_HORQ</title>
<path fill="none" stroke="#34495e" stroke-width="1.2" d="M559.55,-127C575.07,-127 591.71,-127 607.57,-127"/>
<polygon fill="#34495e" stroke="#34495e" stroke-width="1.2" points="607.51,-129.8 615.51,-127 607.51,-124.2 607.51,-129.8"/>
</g>
<!-- M4_HORQ -->
<g id="node12" class="node">
<title>M4_HORQ</title>
<polygon fill="#ffffff" stroke="#2c3e50" stroke-width="1.5" points="936.15,-152.2 806.55,-152.2 806.55,-101.8 936.15,-101.8 936.15,-152.2"/>
<text xml:space="preserve" text-anchor="middle" x="871.35" y="-131.2" font-family="Segoe UI" font-size="9.00" fill="#2c3e50">Verificación de</text>
<text xml:space="preserve" text-anchor="middle" x="871.35" y="-118.45" font-family="Segoe UI" font-size="9.00" fill="#2c3e50">Geometría Básica</text>
</g>
<!-- M3_HORQ&#45;&gt;M4_HORQ -->
<g id="edge10" class="edge">
<title>M3_HORQ&#45;&gt;M4_HORQ</title>
<path fill="none" stroke="#34495e" stroke-width="1.2" d="M748.23,-127C763.67,-127 780.28,-127 796.12,-127"/>
<polygon fill="#34495e" stroke="#34495e" stroke-width="1.2" points="796.05,-129.8 804.05,-127 796.05,-124.2 796.05,-129.8"/>
</g>
<!-- M5_HORQ -->
<g id="node13" class="node">
<title>M5_HORQ</title>
<polygon fill="#ffffff" stroke="#2c3e50" stroke-width="1.5" points="1209.25,-152.2 1079.65,-152.2 1079.65,-101.8 1209.25,-101.8 1209.25,-152.2"/>
<text xml:space="preserve" text-anchor="middle" x="1144.45" y="-131.2" font-family="Segoe UI" font-size="9.00" fill="#2c3e50">Carga de Evidencia</text>
<text xml:space="preserve" text-anchor="middle" x="1144.45" y="-118.45" font-family="Segoe UI" font-size="9.00" fill="#2c3e50">en Notion (Fotos)</text>
</g>
<!-- M4_HORQ&#45;&gt;M5_HORQ -->
<g id="edge11" class="edge">
<title>M4_HORQ&#45;&gt;M5_HORQ</title>
<path fill="none" stroke="#34495e" stroke-width="1.2" d="M936.6,-127C976.46,-127 1027.82,-127 1069.4,-127"/>
<polygon fill="#34495e" stroke="#34495e" stroke-width="1.2" points="1069.38,-129.8 1077.38,-127 1069.38,-124.2 1069.38,-129.8"/>
</g>
<!-- M5_HORQ&#45;&gt;J3_HORQ -->
<g id="edge12" class="edge">
<title>M5_HORQ&#45;&gt;J3_HORQ</title>
<path fill="none" stroke="#34495e" stroke-width="1.2" d="M1209.93,-147.39C1225.52,-152.32 1242.29,-157.62 1258.27,-162.67"/>
<polygon fill="#34495e" stroke="#34495e" stroke-width="1.2" points="1257.37,-165.32 1265.84,-165.06 1259.05,-159.98 1257.37,-165.32"/>
</g>
<!-- S2_HORQ -->
<g id="node15" class="node">
<title>S2_HORQ</title>
<polygon fill="#ffffff" stroke="#2c3e50" stroke-width="1.5" points="334.2,-150.2 204.6,-150.2 204.6,-99.8 334.2,-99.8 334.2,-150.2"/>
<text xml:space="preserve" text-anchor="middle" x="269.4" y="-129.2" font-family="Segoe UI" font-size="9.00" fill="#2c3e50">Kit de Tornillería</text>
<text xml:space="preserve" text-anchor="middle" x="269.4" y="-116.45" font-family="Segoe UI" font-size="9.00" fill="#2c3e50">y Tuercas de Seguridad</text>
</g>
<!-- S1_HORQ&#45;&gt;S2_HORQ -->
<g id="edge7" class="edge">
<title>S1_HORQ&#45;&gt;S2_HORQ</title>
<path fill="none" stroke="#34495e" stroke-width="1.2" d="M146.28,-125C161.72,-125 178.33,-125 194.17,-125"/>
<polygon fill="#34495e" stroke="#34495e" stroke-width="1.2" points="194.1,-127.8 202.1,-125 194.1,-122.2 194.1,-127.8"/>
</g>
<!-- S2_HORQ&#45;&gt;M2_HORQ -->
<g id="edge8" class="edge">
<title>S2_HORQ&#45;&gt;M2_HORQ</title>
<path fill="none" stroke="#34495e" stroke-width="1.2" d="M334.74,-125.58C360.33,-125.81 389.95,-126.08 416.53,-126.32"/>
<polygon fill="#34495e" stroke="#34495e" stroke-width="1.2" points="416.33,-129.12 424.35,-126.39 416.38,-123.52 416.33,-129.12"/>
<text xml:space="preserve" text-anchor="middle" x="380.45" y="-129.32" font-family="Times New Roman,serif" font-size="14.00"> Surtir</text>
</g>
</g>
</svg>
