<?xml version="1.0" encoding="UTF-8" standalone="no"?>
<!DOCTYPE svg PUBLIC "-//W3C//DTD SVG 1.1//EN"
 "http://www.w3.org/Graphics/SVG/1.1/DTD/svg11.dtd">
<!-- Generated by graphviz version 14.1.2 (20260124.0452)
 -->
<!-- Title: Soldadura_Toldo Pages: 1 -->
<svg width="1545pt" height="814pt"
 viewBox="0.00 0.00 1545.00 814.00" xmlns="http://www.w3.org/2000/svg" xmlns:xlink="http://www.w3.org/1999/xlink">
<g id="graph0" class="graph" transform="scale(1 1) rotate(0) translate(4 809.5)">
<title>Soldadura_Toldo</title>
<polygon fill="#ffffff" stroke="none" points="-4,4 -4,-809.5 1541.44,-809.5 1541.44,4 -4,4"/>
<text xml:space="preserve" text-anchor="middle" x="768.72" y="-786.3" font-family="Segoe UI Bold" font-size="16.00" fill="#1a1a1a">DIAGRAMA DE PROCESO: SOLDADURA DE TOLDO (SOP)</text>
<text xml:space="preserve" text-anchor="middle" x="768.72" y="-763.8" font-family="Segoe UI Bold" font-size="16.00" fill="#1a1a1a">SYNER GROUP | CLIENTE: BJX MOTORS | 2026</text>
<text xml:space="preserve" text-anchor="middle" x="768.72" y="-741.3" font-family="Segoe UI Bold" font-size="16.00" fill="#1a1a1a"> </text>
<g id="clust1" class="cluster">
<title>cluster_asesora</title>
<polygon fill="#f4f9fd" stroke="#2980b9" points="818.04,-539 818.04,-722 1152.24,-722 1152.24,-539 818.04,-539"/>
<text xml:space="preserve" text-anchor="middle" x="985.14" y="-702.8" font-family="Segoe UI Bold" font-size="16.00" fill="#1a1a1a">Asesora de Servicios</text>
</g>
<g id="clust2" class="cluster">
<title>cluster_jefe</title>
<polygon fill="#f8f9f9" stroke="#7f8c8d" points="488.52,-347 488.52,-530 963.64,-530 963.64,-347 488.52,-347"/>
<text xml:space="preserve" text-anchor="middle" x="726.08" y="-510.8" font-family="Segoe UI Bold" font-size="16.00" fill="#1a1a1a">Jefe de Mecánicos</text>
</g>
<g id="clust3" class="cluster">
<title>cluster_mecanico</title>
<polygon fill="#f1fcf4" stroke="#27ae60" points="818.04,-105 818.04,-288 1529.44,-288 1529.44,-105 818.04,-105"/>
<text xml:space="preserve" text-anchor="middle" x="1173.74" y="-268.8" font-family="Segoe UI Bold" font-size="16.00" fill="#1a1a1a">Mecánico</text>
</g>
<g id="clust4" class="cluster">
<title>cluster_almacen</title>
<polygon fill="#fffdf9" stroke="#f39c12" points="8,-8 8,-194 679.58,-194 679.58,-8 8,-8"/>
<text xml:space="preserve" text-anchor="middle" x="343.79" y="-174.8" font-family="Segoe UI Bold" font-size="16.00" fill="#1a1a1a">Almacén</text>
</g>
<!-- ST_SOL -->
<g id="node1" class="node">
<title>ST_SOL</title>
<ellipse fill="#27ae60" stroke="#2c3e50" stroke-width="1.5" cx="890.84" cy="-572" rx="64.8" ry="25.2"/>
<text xml:space="preserve" text-anchor="middle" x="890.84" y="-569.83" font-family="Segoe UI" font-size="9.00" fill="white">INICIO</text>
</g>
<!-- A1_SOL -->
<g id="node2" class="node">
<title>A1_SOL</title>
<polygon fill="#ffffff" stroke="#2c3e50" stroke-width="1.5" points="1144.24,-597.2 1014.64,-597.2 1014.64,-546.8 1144.24,-546.8 1144.24,-597.2"/>
<text xml:space="preserve" text-anchor="middle" x="1079.44" y="-576.2" font-family="Segoe UI" font-size="9.00">Recepción: Daño Estructural</text>
<text xml:space="preserve" text-anchor="middle" x="1079.44" y="-563.45" font-family="Segoe UI" font-size="9.00">o Filtración en Toldo</text>
</g>
<!-- ST_SOL&#45;&gt;A1_SOL -->
<g id="edge1" class="edge">
<title>ST_SOL&#45;&gt;A1_SOL</title>
<path fill="none" stroke="#34495e" stroke-width="1.2" d="M956.31,-572C971.76,-572 988.36,-572 1004.21,-572"/>
<polygon fill="#34495e" stroke="#34495e" stroke-width="1.2" points="1004.14,-574.8 1012.14,-572 1004.14,-569.2 1004.14,-574.8"/>
</g>
<!-- J1_SOL -->
<g id="node5" class="node">
<title>J1_SOL</title>
<polygon fill="#fff9c4" stroke="#2c3e50" stroke-width="1.5" points="606.78,-405.2 496.52,-380 606.78,-354.8 717.04,-380 606.78,-405.2"/>
<text xml:space="preserve" text-anchor="middle" x="606.78" y="-384.2" font-family="Segoe UI" font-size="9.00">Evaluación de Daño:</text>
<text xml:space="preserve" text-anchor="middle" x="606.78" y="-371.45" font-family="Segoe UI" font-size="9.00">¿Compromete Seguridad?</text>
</g>
<!-- A1_SOL&#45;&gt;J1_SOL -->
<g id="edge2" class="edge">
<title>A1_SOL&#45;&gt;J1_SOL</title>
<path fill="none" stroke="#34495e" stroke-width="1.2" d="M1014.13,-546.76C997.76,-540.66 980.14,-534.35 963.64,-529 868.21,-498.04 826.58,-528.8 746.04,-469 726.63,-454.59 735.65,-438.41 717.04,-423 703.46,-411.76 686.58,-403.2 670.19,-396.8"/>
<polygon fill="#34495e" stroke="#34495e" stroke-width="1.2" points="671.34,-394.24 662.86,-394.1 669.4,-399.49 671.34,-394.24"/>
</g>
<!-- A2_SOL -->
<g id="node3" class="node">
<title>A2_SOL</title>
<polygon fill="#ffffff" stroke="#2c3e50" stroke-width="1.5" points="955.64,-683.2 826.04,-683.2 826.04,-632.8 955.64,-632.8 955.64,-683.2"/>
<text xml:space="preserve" text-anchor="middle" x="890.84" y="-662.2" font-family="Segoe UI" font-size="9.00">Cierre de Orden y</text>
<text xml:space="preserve" text-anchor="middle" x="890.84" y="-649.45" font-family="Segoe UI" font-size="9.00">Validación de Acabado</text>
</g>
<!-- END_SOL -->
<g id="node4" class="node">
<title>END_SOL</title>
<ellipse fill="#c0392b" stroke="#2c3e50" stroke-width="1.5" cx="1079.44" cy="-658" rx="64.8" ry="25.2"/>
<text xml:space="preserve" text-anchor="middle" x="1079.44" y="-655.83" font-family="Segoe UI" font-size="9.00" fill="white">FIN</text>
</g>
<!-- A2_SOL&#45;&gt;END_SOL -->
<g id="edge16" class="edge">
<title>A2_SOL&#45;&gt;END_SOL</title>
<path fill="none" stroke="#34495e" stroke-width="1.2" d="M956.31,-658C971.76,-658 988.36,-658 1004.21,-658"/>
<polygon fill="#34495e" stroke="#34495e" stroke-width="1.2" points="1004.14,-660.8 1012.14,-658 1004.14,-655.2 1004.14,-660.8"/>
</g>
<!-- J2_SOL -->
<g id="node6" class="node">
<title>J2_SOL</title>
<polygon fill="#ffffff" stroke="#2c3e50" stroke-width="1.5" points="955.64,-416.2 826.04,-416.2 826.04,-365.8 955.64,-365.8 955.64,-416.2"/>
<text xml:space="preserve" text-anchor="middle" x="890.84" y="-395.2" font-family="Segoe UI" font-size="9.00">Notificar Sustitución</text>
<text xml:space="preserve" text-anchor="middle" x="890.84" y="-382.45" font-family="Segoe UI" font-size="9.00">de Panel Completo</text>
</g>
<!-- J1_SOL&#45;&gt;J2_SOL -->
<g id="edge3" class="edge">
<title>J1_SOL&#45;&gt;J2_SOL</title>
<path fill="none" stroke="#34495e" stroke-width="1.2" d="M703.66,-383.74C740.45,-385.17 781.82,-386.79 816.2,-388.13"/>
<polygon fill="#34495e" stroke="#34495e" stroke-width="1.2" points="815.79,-390.91 823.89,-388.43 816,-385.32 815.79,-390.91"/>
<text xml:space="preserve" text-anchor="middle" x="771.54" y="-390.33" font-family="Times New Roman,serif" font-size="14.00"> SÍ</text>
</g>
<!-- M1_SOL -->
<g id="node8" class="node">
<title>M1_SOL</title>
<polygon fill="#ffffff" stroke="#2c3e50" stroke-width="1.5" points="955.64,-249.2 826.04,-249.2 826.04,-198.8 955.64,-198.8 955.64,-249.2"/>
<text xml:space="preserve" text-anchor="middle" x="890.84" y="-228.2" font-family="Segoe UI" font-size="9.00">Desmontaje de Cielo,</text>
<text xml:space="preserve" text-anchor="middle" x="890.84" y="-215.45" font-family="Segoe UI" font-size="9.00">Airbags y Molduras</text>
</g>
<!-- J1_SOL&#45;&gt;M1_SOL -->
<g id="edge4" class="edge">
<title>J1_SOL&#45;&gt;M1_SOL</title>
<path fill="none" stroke="#34495e" stroke-width="1.2" d="M627.86,-359C653.19,-333.66 699.11,-291.37 746.04,-266.5 767.67,-255.04 792.81,-246.26 815.97,-239.74"/>
<polygon fill="#34495e" stroke="#34495e" stroke-width="1.2" points="816.67,-242.45 823.66,-237.65 815.21,-237.05 816.67,-242.45"/>
<text xml:space="preserve" text-anchor="middle" x="771.54" y="-269.7" font-family="Times New Roman,serif" font-size="14.00"> NO</text>
</g>
<!-- J2_SOL&#45;&gt;A2_SOL -->
<g id="edge5" class="edge">
<title>J2_SOL&#45;&gt;A2_SOL</title>
<path fill="none" stroke="#34495e" stroke-width="1.2" d="M825.41,-407.2C802.56,-416.34 779.29,-430.39 765.92,-451.75 751.87,-474.2 721.42,-497.76 818.04,-615 821.36,-619.04 825.17,-622.78 829.27,-626.24"/>
<polygon fill="#34495e" stroke="#34495e" stroke-width="1.2" points="827.43,-628.35 835.47,-631.04 830.86,-623.93 827.43,-628.35"/>
<text xml:space="preserve" text-anchor="middle" x="771.54" y="-454.95" font-family="Times New Roman,serif" font-size="14.00"> Reportar</text>
</g>
<!-- J3_SOL -->
<g id="node7" class="node">
<title>J3_SOL</title>
<polygon fill="#ffffff" stroke="#2c3e50" stroke-width="1.5" points="671.58,-491.2 541.98,-491.2 541.98,-440.8 671.58,-440.8 671.58,-491.2"/>
<text xml:space="preserve" text-anchor="middle" x="606.78" y="-470.2" font-family="Segoe UI" font-size="9.00">Validar Hermeticidad</text>
<text xml:space="preserve" text-anchor="middle" x="606.78" y="-457.45" font-family="Segoe UI" font-size="9.00">y Alineación de Postes</text>
</g>
<!-- J3_SOL&#45;&gt;A2_SOL -->
<g id="edge15" class="edge">
<title>J3_SOL&#45;&gt;A2_SOL</title>
<path fill="none" stroke="#34495e" stroke-width="1.2" d="M642.55,-491.89C683.78,-522.29 754.9,-573.81 818.04,-615 824.2,-619.02 830.73,-623.13 837.24,-627.14"/>
<polygon fill="#34495e" stroke="#34495e" stroke-width="1.2" points="835.62,-629.43 843.91,-631.2 838.54,-624.65 835.62,-629.43"/>
<text xml:space="preserve" text-anchor="middle" x="771.54" y="-602.78" font-family="Times New Roman,serif" font-size="14.00"> OK</text>
</g>
<!-- S1_SOL -->
<g id="node13" class="node">
<title>S1_SOL</title>
<polygon fill="#fff9c4" stroke="#2c3e50" stroke-width="1.5" points="97.08,-155.2 16,-130 97.08,-104.8 178.17,-130 97.08,-155.2"/>
<text xml:space="preserve" text-anchor="middle" x="97.08" y="-127.83" font-family="Segoe UI" font-size="9.00">¿Insumos Disponibles?</text>
</g>
<!-- M1_SOL&#45;&gt;S1_SOL -->
<g id="edge6" class="edge">
<title>M1_SOL&#45;&gt;S1_SOL</title>
<path fill="none" stroke="#34495e" stroke-width="1.2" d="M825.38,-222.6C710.74,-219.27 464.21,-208.28 259.42,-173 221.46,-166.46 179.44,-155.12 147.8,-145.73"/>
<polygon fill="#34495e" stroke="#34495e" stroke-width="1.2" points="148.95,-143.16 140.49,-143.54 147.34,-148.52 148.95,-143.16"/>
<text xml:space="preserve" text-anchor="middle" x="442.77" y="-203.32" font-family="Times New Roman,serif" font-size="14.00"> Solicitar</text>
</g>
<!-- M2_SOL -->
<g id="node9" class="node">
<title>M2_SOL</title>
<polygon fill="#ffffff" stroke="#2c3e50" stroke-width="1.5" points="955.64,-163.2 826.04,-163.2 826.04,-112.8 955.64,-112.8 955.64,-163.2"/>
<text xml:space="preserve" text-anchor="middle" x="890.84" y="-142.2" font-family="Segoe UI" font-size="9.00">Protección Térmica de</text>
<text xml:space="preserve" text-anchor="middle" x="890.84" y="-129.45" font-family="Segoe UI" font-size="9.00">Interiores (Mantas)</text>
</g>
<!-- M3_SOL -->
<g id="node10" class="node">
<title>M3_SOL</title>
<polygon fill="#ffffff" stroke="#2c3e50" stroke-width="1.5" points="1144.24,-180.2 1014.64,-180.2 1014.64,-129.8 1144.24,-129.8 1144.24,-180.2"/>
<text xml:space="preserve" text-anchor="middle" x="1079.44" y="-159.2" font-family="Segoe UI" font-size="9.00">Soldadura (MIG/MAG)</text>
<text xml:space="preserve" text-anchor="middle" x="1079.44" y="-146.45" font-family="Segoe UI" font-size="9.00">y Esmerilado de Puntos</text>
</g>
<!-- M2_SOL&#45;&gt;M3_SOL -->
<g id="edge11" class="edge">
<title>M2_SOL&#45;&gt;M3_SOL</title>
<path fill="none" stroke="#34495e" stroke-width="1.2" d="M956.31,-143.87C971.76,-145.28 988.36,-146.79 1004.21,-148.24"/>
<polygon fill="#34495e" stroke="#34495e" stroke-width="1.2" points="1003.93,-151.02 1012.15,-148.96 1004.43,-145.45 1003.93,-151.02"/>
</g>
<!-- M4_SOL -->
<g id="node11" class="node">
<title>M4_SOL</title>
<polygon fill="#ffffff" stroke="#2c3e50" stroke-width="1.5" points="1332.84,-185.2 1203.24,-185.2 1203.24,-134.8 1332.84,-134.8 1332.84,-185.2"/>
<text xml:space="preserve" text-anchor="middle" x="1268.04" y="-164.2" font-family="Segoe UI" font-size="9.00">Aplicación de Sellador</text>
<text xml:space="preserve" text-anchor="middle" x="1268.04" y="-151.45" font-family="Segoe UI" font-size="9.00">y Anticorrosivo</text>
</g>
<!-- M3_SOL&#45;&gt;M4_SOL -->
<g id="edge12" class="edge">
<title>M3_SOL&#45;&gt;M4_SOL</title>
<path fill="none" stroke="#34495e" stroke-width="1.2" d="M1144.91,-156.73C1160.36,-157.14 1176.96,-157.59 1192.81,-158.01"/>
<polygon fill="#34495e" stroke="#34495e" stroke-width="1.2" points="1192.67,-160.81 1200.74,-158.22 1192.82,-155.21 1192.67,-160.81"/>
</g>
<!-- M5_SOL -->
<g id="node12" class="node">
<title>M5_SOL</title>
<polygon fill="#ffffff" stroke="#2c3e50" stroke-width="1.5" points="1521.44,-206.2 1391.84,-206.2 1391.84,-155.8 1521.44,-155.8 1521.44,-206.2"/>
<text xml:space="preserve" text-anchor="middle" x="1456.64" y="-185.2" font-family="Segoe UI" font-size="9.00">Carga de Evidencia</text>
<text xml:space="preserve" text-anchor="middle" x="1456.64" y="-172.45" font-family="Segoe UI" font-size="9.00">en Notion (Fotos)</text>
</g>
<!-- M4_SOL&#45;&gt;M5_SOL -->
<g id="edge13" class="edge">
<title>M4_SOL&#45;&gt;M5_SOL</title>
<path fill="none" stroke="#34495e" stroke-width="1.2" d="M1333.51,-167.26C1348.96,-168.99 1365.56,-170.86 1381.41,-172.65"/>
<polygon fill="#34495e" stroke="#34495e" stroke-width="1.2" points="1381.09,-175.43 1389.35,-173.54 1381.71,-169.86 1381.09,-175.43"/>
</g>
<!-- M5_SOL&#45;&gt;J3_SOL -->
<g id="edge14" class="edge">
<title>M5_SOL&#45;&gt;J3_SOL</title>
<path fill="none" stroke="#34495e" stroke-width="1.2" d="M1436.4,-206.68C1405.6,-244.57 1341.29,-311 1269.04,-311 889.84,-311 889.84,-311 889.84,-311 819.52,-311 798.94,-330.67 746.04,-377 727.86,-392.92 735.65,-407.59 717.04,-423 706.45,-431.77 693.86,-438.9 681.05,-444.65"/>
<polygon fill="#34495e" stroke="#34495e" stroke-width="1.2" points="680.12,-442 673.85,-447.7 682.31,-447.16 680.12,-442"/>
</g>
<!-- S2_SOL -->
<g id="node14" class="node">
<title>S2_SOL</title>
<polygon fill="#ffffff" stroke="#2c3e50" stroke-width="1.5" points="671.58,-155.2 541.98,-155.2 541.98,-104.8 671.58,-104.8 671.58,-155.2"/>
<text xml:space="preserve" text-anchor="middle" x="606.78" y="-134.2" font-family="Segoe UI" font-size="9.00">Surtir Microalambre, Gas,</text>
<text xml:space="preserve" text-anchor="middle" x="606.78" y="-121.45" font-family="Segoe UI" font-size="9.00">Sellador y Mantas</text>
</g>
<!-- S1_SOL&#45;&gt;S2_SOL -->
<g id="edge9" class="edge">
<title>S1_SOL&#45;&gt;S2_SOL</title>
<path fill="none" stroke="#34495e" stroke-width="1.2" d="M129.89,-114.44C161.77,-99.77 212.69,-78.84 259.42,-70.5 353.4,-53.72 461.89,-79.68 532.05,-102.41"/>
<polygon fill="#34495e" stroke="#34495e" stroke-width="1.2" points="531.06,-105.03 539.53,-104.87 532.81,-99.71 531.06,-105.03"/>
<text xml:space="preserve" text-anchor="middle" x="324.22" y="-73.7" font-family="Times New Roman,serif" font-size="14.00"> SÍ</text>
</g>
<!-- S3_SOL -->
<g id="node15" class="node">
<title>S3_SOL</title>
<polygon fill="#ffffff" stroke="#2c3e50" stroke-width="1.5" points="389.02,-155.2 259.42,-155.2 259.42,-104.8 389.02,-104.8 389.02,-155.2"/>
<text xml:space="preserve" text-anchor="middle" x="324.22" y="-134.2" font-family="Segoe UI" font-size="9.00">Solicitar Compra</text>
<text xml:space="preserve" text-anchor="middle" x="324.22" y="-121.45" font-family="Segoe UI" font-size="9.00">Urgente</text>
</g>
<!-- S1_SOL&#45;&gt;S3_SOL -->
<g id="edge7" class="edge">
<title>S1_SOL&#45;&gt;S3_SOL</title>
<path fill="none" stroke="#34495e" stroke-width="1.2" d="M180.64,-130C203.16,-130 227.4,-130 249.4,-130"/>
<polygon fill="#34495e" stroke="#34495e" stroke-width="1.2" points="249.19,-132.8 257.19,-130 249.19,-127.2 249.19,-132.8"/>
<text xml:space="preserve" text-anchor="middle" x="218.79" y="-133.2" font-family="Times New Roman,serif" font-size="14.00"> NO</text>
</g>
<!-- S2_SOL&#45;&gt;M2_SOL -->
<g id="edge10" class="edge">
<title>S2_SOL&#45;&gt;M2_SOL</title>
<path fill="none" stroke="#34495e" stroke-width="1.2" d="M672.13,-131.83C715,-133.04 771.45,-134.64 816.12,-135.91"/>
<polygon fill="#34495e" stroke="#34495e" stroke-width="1.2" points="815.86,-138.7 823.94,-136.13 816.02,-133.11 815.86,-138.7"/>
</g>
<!-- S3_SOL&#45;&gt;S2_SOL -->
<g id="edge8" class="edge">
<title>S3_SOL&#45;&gt;S2_SOL</title>
<path fill="none" stroke="#34495e" stroke-width="1.2" d="M389.58,-130C432.09,-130 487.89,-130 532.16,-130"/>
<polygon fill="#34495e" stroke="#34495e" stroke-width="1.2" points="531.89,-132.8 539.89,-130 531.89,-127.2 531.89,-132.8"/>
</g>
</g>
</svg>
