<?xml version="1.0" encoding="UTF-8" standalone="no"?>
<!DOCTYPE svg PUBLIC "-//W3C//DTD SVG 1.1//EN"
 "http://www.w3.org/Graphics/SVG/1.1/DTD/svg11.dtd">
<!-- Generated by graphviz version 14.1.2 (20260124.0452)
 -->
<!-- Title: Reparacion_Caja Pages: 1 -->
<svg width="1520pt" height="814pt"
 viewBox="0.00 0.00 1520.00 814.00" xmlns="http://www.w3.org/2000/svg" xmlns:xlink="http://www.w3.org/1999/xlink">
<g id="graph0" class="graph" transform="scale(1 1) rotate(0) translate(4 809.5)">
<title>Reparacion_Caja</title>
<polygon fill="#ffffff" stroke="none" points="-4,4 -4,-809.5 1515.9,-809.5 1515.9,4 -4,4"/>
<text xml:space="preserve" text-anchor="middle" x="755.95" y="-786.3" font-family="Segoe UI Bold" font-size="16.00" fill="#1a1a1a">DIAGRAMA DE PROCESO: REPARACIÓN DE CAJA DE VELOCIDADES (SOP)</text>
<text xml:space="preserve" text-anchor="middle" x="755.95" y="-763.8" font-family="Segoe UI Bold" font-size="16.00" fill="#1a1a1a">SYNER GROUP | CLIENTE: BJX MOTORS | 2026</text>
<text xml:space="preserve" text-anchor="middle" x="755.95" y="-741.3" font-family="Segoe UI Bold" font-size="16.00" fill="#1a1a1a"> </text>
<g id="clust1" class="cluster">
<title>cluster_0</title>
<polygon fill="#f4f9fd" stroke="#2980b9" points="791.35,-539 791.35,-722 1126.7,-722 1126.7,-539 791.35,-539"/>
<text xml:space="preserve" text-anchor="middle" x="959.03" y="-702.8" font-family="Segoe UI Bold" font-size="16.00" fill="#1a1a1a">Asesora de Servicios</text>
</g>
<g id="clust2" class="cluster">
<title>cluster_1</title>
<polygon fill="#f8f9f9" stroke="#7f8c8d" points="480.37,-347 480.37,-530 936.95,-530 936.95,-347 480.37,-347"/>
<text xml:space="preserve" text-anchor="middle" x="708.66" y="-510.8" font-family="Segoe UI Bold" font-size="16.00" fill="#1a1a1a">Jefe de Mecánicos</text>
</g>
<g id="clust3" class="cluster">
<title>cluster_2</title>
<polygon fill="#f1fcf4" stroke="#27ae60" points="791.35,-105 791.35,-288 1503.9,-288 1503.9,-105 791.35,-105"/>
<text xml:space="preserve" text-anchor="middle" x="1147.63" y="-268.8" font-family="Segoe UI Bold" font-size="16.00" fill="#1a1a1a">Mecánico</text>
</g>
<g id="clust4" class="cluster">
<title>cluster_3</title>
<polygon fill="#fffdf9" stroke="#f39c12" points="8,-8 8,-194 643.04,-194 643.04,-8 8,-8"/>
<text xml:space="preserve" text-anchor="middle" x="325.52" y="-174.8" font-family="Segoe UI Bold" font-size="16.00" fill="#1a1a1a">Almacén</text>
</g>
<!-- ST_CJ -->
<g id="node1" class="node">
<title>ST_CJ</title>
<ellipse fill="#27ae60" stroke="#2c3e50" stroke-width="1.5" cx="864.15" cy="-572" rx="64.8" ry="25.2"/>
<text xml:space="preserve" text-anchor="middle" x="864.15" y="-569.83" font-family="Segoe UI" font-size="9.00" fill="white">INICIO</text>
</g>
<!-- A1_CJ -->
<g id="node2" class="node">
<title>A1_CJ</title>
<polygon fill="#ffffff" stroke="#2c3e50" stroke-width="1.5" points="1118.7,-597.2 987.95,-597.2 987.95,-546.8 1118.7,-546.8 1118.7,-597.2"/>
<text xml:space="preserve" text-anchor="middle" x="1053.33" y="-576.2" font-family="Segoe UI" font-size="9.00">Recepción: Falla en Cambios</text>
<text xml:space="preserve" text-anchor="middle" x="1053.33" y="-563.45" font-family="Segoe UI" font-size="9.00">o Modo Seguro (Limp Mode)</text>
</g>
<!-- ST_CJ&#45;&gt;A1_CJ -->
<g id="edge1" class="edge">
<title>ST_CJ&#45;&gt;A1_CJ</title>
<path fill="none" stroke="#34495e" stroke-width="1.2" d="M929.57,-572C945.07,-572 961.76,-572 977.68,-572"/>
<polygon fill="#34495e" stroke="#34495e" stroke-width="1.2" points="977.66,-574.8 985.66,-572 977.66,-569.2 977.66,-574.8"/>
</g>
<!-- J1_CJ -->
<g id="node5" class="node">
<title>J1_CJ</title>
<polygon fill="#fff9c4" stroke="#2c3e50" stroke-width="1.5" points="570.24,-405.2 488.37,-380 570.24,-354.8 652.1,-380 570.24,-405.2"/>
<text xml:space="preserve" text-anchor="middle" x="570.24" y="-384.2" font-family="Segoe UI" font-size="9.00">Escaneo TBU:</text>
<text xml:space="preserve" text-anchor="middle" x="570.24" y="-371.45" font-family="Segoe UI" font-size="9.00">¿Falla Electrónica?</text>
</g>
<!-- A1_CJ&#45;&gt;J1_CJ -->
<g id="edge2" class="edge">
<title>A1_CJ&#45;&gt;J1_CJ</title>
<path fill="none" stroke="#34495e" stroke-width="1.2" d="M987.23,-546.1C970.95,-540.08 953.42,-533.98 936.95,-529 825.15,-495.2 776.21,-536.8 681.1,-469 661.42,-454.97 669.81,-439.45 652.1,-423 641.69,-413.33 628.69,-405.17 616.18,-398.64"/>
<polygon fill="#34495e" stroke="#34495e" stroke-width="1.2" points="617.67,-396.26 609.26,-395.2 615.18,-401.27 617.67,-396.26"/>
</g>
<!-- A2_CJ -->
<g id="node3" class="node">
<title>A2_CJ</title>
<polygon fill="#ffffff" stroke="#2c3e50" stroke-width="1.5" points="928.95,-683.2 799.35,-683.2 799.35,-632.8 928.95,-632.8 928.95,-683.2"/>
<text xml:space="preserve" text-anchor="middle" x="864.15" y="-662.2" font-family="Segoe UI" font-size="9.00">Cierre de Orden y</text>
<text xml:space="preserve" text-anchor="middle" x="864.15" y="-649.45" font-family="Segoe UI" font-size="9.00">Prueba de Ruta con Cliente</text>
</g>
<!-- END_CJ -->
<g id="node4" class="node">
<title>END_CJ</title>
<ellipse fill="#c0392b" stroke="#2c3e50" stroke-width="1.5" cx="1053.33" cy="-658" rx="64.8" ry="25.2"/>
<text xml:space="preserve" text-anchor="middle" x="1053.33" y="-655.83" font-family="Segoe UI" font-size="9.00" fill="white">FIN</text>
</g>
<!-- A2_CJ&#45;&gt;END_CJ -->
<g id="edge16" class="edge">
<title>A2_CJ&#45;&gt;END_CJ</title>
<path fill="none" stroke="#34495e" stroke-width="1.2" d="M929.57,-658C945.3,-658 962.26,-658 978.4,-658"/>
<polygon fill="#34495e" stroke="#34495e" stroke-width="1.2" points="977.98,-660.8 985.98,-658 977.98,-655.2 977.98,-660.8"/>
</g>
<!-- J2_CJ -->
<g id="node6" class="node">
<title>J2_CJ</title>
<polygon fill="#ffffff" stroke="#2c3e50" stroke-width="1.5" points="928.95,-416.2 799.35,-416.2 799.35,-365.8 928.95,-365.8 928.95,-416.2"/>
<text xml:space="preserve" text-anchor="middle" x="864.15" y="-395.2" font-family="Segoe UI" font-size="9.00">Diagnóstico de Solenoides</text>
<text xml:space="preserve" text-anchor="middle" x="864.15" y="-382.45" font-family="Segoe UI" font-size="9.00">y Arnés Externo</text>
</g>
<!-- J1_CJ&#45;&gt;J2_CJ -->
<g id="edge3" class="edge">
<title>J1_CJ&#45;&gt;J2_CJ</title>
<path fill="none" stroke="#34495e" stroke-width="1.2" d="M645.28,-382.79C689.25,-384.45 744.83,-386.54 788.84,-388.2"/>
<polygon fill="#34495e" stroke="#34495e" stroke-width="1.2" points="788.71,-391 796.81,-388.5 788.92,-385.4 788.71,-391"/>
<text xml:space="preserve" text-anchor="middle" x="725.73" y="-390.64" font-family="Times New Roman,serif" font-size="14.00"> SÍ</text>
</g>
<!-- M1_CJ -->
<g id="node8" class="node">
<title>M1_CJ</title>
<polygon fill="#ffffff" stroke="#2c3e50" stroke-width="1.5" points="928.95,-249.2 799.35,-249.2 799.35,-198.8 928.95,-198.8 928.95,-249.2"/>
<text xml:space="preserve" text-anchor="middle" x="864.15" y="-228.2" font-family="Segoe UI" font-size="9.00">Bajado de Caja e</text>
<text xml:space="preserve" text-anchor="middle" x="864.15" y="-215.45" font-family="Segoe UI" font-size="9.00">Inspección de Turbina</text>
</g>
<!-- J1_CJ&#45;&gt;M1_CJ -->
<g id="edge4" class="edge">
<title>J1_CJ&#45;&gt;M1_CJ</title>
<path fill="none" stroke="#34495e" stroke-width="1.2" d="M585.7,-358.87C604.57,-333 640.06,-289.75 681.1,-266.5 714.01,-247.85 754.69,-237.38 789.24,-231.49"/>
<polygon fill="#34495e" stroke="#34495e" stroke-width="1.2" points="789.56,-234.28 797.02,-230.24 788.67,-228.75 789.56,-234.28"/>
<text xml:space="preserve" text-anchor="middle" x="725.73" y="-269.7" font-family="Times New Roman,serif" font-size="14.00"> NO (Mecánica)</text>
</g>
<!-- J2_CJ&#45;&gt;A2_CJ -->
<g id="edge5" class="edge">
<title>J2_CJ&#45;&gt;A2_CJ</title>
<path fill="none" stroke="#34495e" stroke-width="1.2" d="M798.9,-401.6C769.45,-409.99 737.33,-424.99 719.55,-451.75 703.12,-476.47 678.15,-492.54 791.35,-615 795.12,-619.07 799.36,-622.88 803.85,-626.41"/>
<polygon fill="#34495e" stroke="#34495e" stroke-width="1.2" points="802.04,-628.56 810.15,-631.02 805.35,-624.04 802.04,-628.56"/>
<text xml:space="preserve" text-anchor="middle" x="725.73" y="-454.95" font-family="Times New Roman,serif" font-size="14.00"> Corregido</text>
</g>
<!-- J3_CJ -->
<g id="node7" class="node">
<title>J3_CJ</title>
<polygon fill="#ffffff" stroke="#2c3e50" stroke-width="1.5" points="635.04,-491.2 505.44,-491.2 505.44,-440.8 635.04,-440.8 635.04,-491.2"/>
<text xml:space="preserve" text-anchor="middle" x="570.24" y="-470.2" font-family="Segoe UI" font-size="9.00">Validación de Presiones</text>
<text xml:space="preserve" text-anchor="middle" x="570.24" y="-457.45" font-family="Segoe UI" font-size="9.00">y Aprendizaje de Cambios</text>
</g>
<!-- J3_CJ&#45;&gt;A2_CJ -->
<g id="edge15" class="edge">
<title>J3_CJ&#45;&gt;A2_CJ</title>
<path fill="none" stroke="#34495e" stroke-width="1.2" d="M608.21,-491.95C651.61,-522.19 725.97,-573.34 791.35,-615 797.64,-619.01 804.3,-623.14 810.92,-627.18"/>
<polygon fill="#34495e" stroke="#34495e" stroke-width="1.2" points="809.41,-629.54 817.7,-631.29 812.31,-624.75 809.41,-629.54"/>
<text xml:space="preserve" text-anchor="middle" x="725.73" y="-602.6" font-family="Times New Roman,serif" font-size="14.00"> OK</text>
</g>
<!-- S1_CJ -->
<g id="node13" class="node">
<title>S1_CJ</title>
<polygon fill="#fff9c4" stroke="#2c3e50" stroke-width="1.5" points="93.01,-155.2 16,-130 93.01,-104.8 170.02,-130 93.01,-155.2"/>
<text xml:space="preserve" text-anchor="middle" x="93.01" y="-127.83" font-family="Segoe UI" font-size="9.00">¿Master Kit en Stock?</text>
</g>
<!-- M1_CJ&#45;&gt;S1_CJ -->
<g id="edge6" class="edge">
<title>M1_CJ&#45;&gt;S1_CJ</title>
<path fill="none" stroke="#34495e" stroke-width="1.2" d="M798.79,-222.52C686.73,-219.07 448.87,-207.94 251.27,-173 214.14,-166.43 173.07,-155.06 142.21,-145.65"/>
<polygon fill="#34495e" stroke="#34495e" stroke-width="1.2" points="143.18,-143.02 134.71,-143.34 141.53,-148.38 143.18,-143.02"/>
<text xml:space="preserve" text-anchor="middle" x="434.62" y="-203.89" font-family="Times New Roman,serif" font-size="14.00"> Solicitar</text>
</g>
<!-- M2_CJ -->
<g id="node9" class="node">
<title>M2_CJ</title>
<polygon fill="#ffffff" stroke="#2c3e50" stroke-width="1.5" points="928.95,-163.2 799.35,-163.2 799.35,-112.8 928.95,-112.8 928.95,-163.2"/>
<text xml:space="preserve" text-anchor="middle" x="864.15" y="-142.2" font-family="Segoe UI" font-size="9.00">Desarme y Limpieza de</text>
<text xml:space="preserve" text-anchor="middle" x="864.15" y="-129.45" font-family="Segoe UI" font-size="9.00">Cuerpo de Válvulas</text>
</g>
<!-- M3_CJ -->
<g id="node10" class="node">
<title>M3_CJ</title>
<polygon fill="#ffffff" stroke="#2c3e50" stroke-width="1.5" points="1118.13,-180.2 988.53,-180.2 988.53,-129.8 1118.13,-129.8 1118.13,-180.2"/>
<text xml:space="preserve" text-anchor="middle" x="1053.33" y="-159.2" font-family="Segoe UI" font-size="9.00">Cambio de Master Kit</text>
<text xml:space="preserve" text-anchor="middle" x="1053.33" y="-146.45" font-family="Segoe UI" font-size="9.00">(Discos, Ligas y Filtro)</text>
</g>
<!-- M2_CJ&#45;&gt;M3_CJ -->
<g id="edge11" class="edge">
<title>M2_CJ&#45;&gt;M3_CJ</title>
<path fill="none" stroke="#34495e" stroke-width="1.2" d="M929.57,-143.85C945.3,-145.28 962.26,-146.82 978.4,-148.29"/>
<polygon fill="#34495e" stroke="#34495e" stroke-width="1.2" points="977.77,-151.04 985.99,-148.97 978.27,-145.46 977.77,-151.04"/>
</g>
<!-- M4_CJ -->
<g id="node11" class="node">
<title>M4_CJ</title>
<polygon fill="#ffffff" stroke="#2c3e50" stroke-width="1.5" points="1307.3,-185.2 1177.7,-185.2 1177.7,-134.8 1307.3,-134.8 1307.3,-185.2"/>
<text xml:space="preserve" text-anchor="middle" x="1242.5" y="-164.2" font-family="Segoe UI" font-size="9.00">Montaje y Reposición de</text>
<text xml:space="preserve" text-anchor="middle" x="1242.5" y="-151.45" font-family="Segoe UI" font-size="9.00">Aceite Sintético (ATF)</text>
</g>
<!-- M3_CJ&#45;&gt;M4_CJ -->
<g id="edge12" class="edge">
<title>M3_CJ&#45;&gt;M4_CJ</title>
<path fill="none" stroke="#34495e" stroke-width="1.2" d="M1118.74,-156.72C1134.48,-157.14 1151.44,-157.59 1167.58,-158.03"/>
<polygon fill="#34495e" stroke="#34495e" stroke-width="1.2" points="1167.08,-160.81 1175.15,-158.23 1167.23,-155.21 1167.08,-160.81"/>
</g>
<!-- M5_CJ -->
<g id="node12" class="node">
<title>M5_CJ</title>
<polygon fill="#ffffff" stroke="#2c3e50" stroke-width="1.5" points="1495.9,-206.2 1366.3,-206.2 1366.3,-155.8 1495.9,-155.8 1495.9,-206.2"/>
<text xml:space="preserve" text-anchor="middle" x="1431.1" y="-185.2" font-family="Segoe UI" font-size="9.00">Carga de Evidencia</text>
<text xml:space="preserve" text-anchor="middle" x="1431.1" y="-172.45" font-family="Segoe UI" font-size="9.00">en Notion (Fotos)</text>
</g>
<!-- M4_CJ&#45;&gt;M5_CJ -->
<g id="edge13" class="edge">
<title>M4_CJ&#45;&gt;M5_CJ</title>
<path fill="none" stroke="#34495e" stroke-width="1.2" d="M1307.98,-167.26C1323.42,-168.99 1340.03,-170.86 1355.87,-172.65"/>
<polygon fill="#34495e" stroke="#34495e" stroke-width="1.2" points="1355.55,-175.43 1363.82,-173.54 1356.18,-169.86 1355.55,-175.43"/>
</g>
<!-- M5_CJ&#45;&gt;J3_CJ -->
<g id="edge14" class="edge">
<title>M5_CJ&#45;&gt;J3_CJ</title>
<path fill="none" stroke="#34495e" stroke-width="1.2" d="M1410.86,-206.68C1380.06,-244.57 1315.76,-311 1243.5,-311 863.15,-311 863.15,-311 863.15,-311 777.39,-311 747.65,-320.89 681.1,-375 661.76,-390.72 670.2,-405.86 652.1,-423 647.53,-427.33 642.43,-431.36 637.08,-435.06"/>
<polygon fill="#34495e" stroke="#34495e" stroke-width="1.2" points="635.79,-432.55 630.62,-439.27 638.85,-437.25 635.79,-432.55"/>
</g>
<!-- S2_CJ -->
<g id="node14" class="node">
<title>S2_CJ</title>
<polygon fill="#ffffff" stroke="#2c3e50" stroke-width="1.5" points="635.04,-155.2 505.44,-155.2 505.44,-104.8 635.04,-104.8 635.04,-155.2"/>
<text xml:space="preserve" text-anchor="middle" x="570.24" y="-134.2" font-family="Segoe UI" font-size="9.00">Surtir Kit de Reparación,</text>
<text xml:space="preserve" text-anchor="middle" x="570.24" y="-121.45" font-family="Segoe UI" font-size="9.00">Aceite ATF y Retenes</text>
</g>
<!-- S1_CJ&#45;&gt;S2_CJ -->
<g id="edge9" class="edge">
<title>S1_CJ&#45;&gt;S2_CJ</title>
<path fill="none" stroke="#34495e" stroke-width="1.2" d="M124.68,-114.58C155.69,-99.91 205.47,-78.87 251.27,-70.5 307.93,-60.14 323.94,-61.72 380.87,-70.5 419.76,-76.5 461.63,-89.07 496,-101.12"/>
<polygon fill="#34495e" stroke="#34495e" stroke-width="1.2" points="494.84,-103.68 503.31,-103.73 496.72,-98.41 494.84,-103.68"/>
<text xml:space="preserve" text-anchor="middle" x="316.07" y="-73.7" font-family="Times New Roman,serif" font-size="14.00"> SÍ</text>
</g>
<!-- S3_CJ -->
<g id="node15" class="node">
<title>S3_CJ</title>
<polygon fill="#ffffff" stroke="#2c3e50" stroke-width="1.5" points="380.87,-155.2 251.27,-155.2 251.27,-104.8 380.87,-104.8 380.87,-155.2"/>
<text xml:space="preserve" text-anchor="middle" x="316.07" y="-134.2" font-family="Segoe UI" font-size="9.00">Solicitar Importación</text>
<text xml:space="preserve" text-anchor="middle" x="316.07" y="-121.45" font-family="Segoe UI" font-size="9.00">de Partes Internas</text>
</g>
<!-- S1_CJ&#45;&gt;S3_CJ -->
<g id="edge7" class="edge">
<title>S1_CJ&#45;&gt;S3_CJ</title>
<path fill="none" stroke="#34495e" stroke-width="1.2" d="M172.26,-130C194.65,-130 218.99,-130 241.12,-130"/>
<polygon fill="#34495e" stroke="#34495e" stroke-width="1.2" points="240.97,-132.8 248.97,-130 240.97,-127.2 240.97,-132.8"/>
<text xml:space="preserve" text-anchor="middle" x="210.64" y="-133.2" font-family="Times New Roman,serif" font-size="14.00"> NO</text>
</g>
<!-- S2_CJ&#45;&gt;M2_CJ -->
<g id="edge10" class="edge">
<title>S2_CJ&#45;&gt;M2_CJ</title>
<path fill="none" stroke="#34495e" stroke-width="1.2" d="M635.66,-131.77C680.98,-133.01 741.74,-134.67 789.06,-135.97"/>
<polygon fill="#34495e" stroke="#34495e" stroke-width="1.2" points="788.75,-138.76 796.83,-136.18 788.91,-133.16 788.75,-138.76"/>
</g>
<!-- S3_CJ&#45;&gt;S2_CJ -->
<g id="edge8" class="edge">
<title>S3_CJ&#45;&gt;S2_CJ</title>
<path fill="none" stroke="#34495e" stroke-width="1.2" d="M381.35,-130C416.18,-130 459.37,-130 495.55,-130"/>
<polygon fill="#34495e" stroke="#34495e" stroke-width="1.2" points="495.25,-132.8 503.25,-130 495.25,-127.2 495.25,-132.8"/>
</g>
</g>
</svg>
