<?xml version="1.0" encoding="UTF-8" standalone="no"?>
<!DOCTYPE svg PUBLIC "-//W3C//DTD SVG 1.1//EN"
 "http://www.w3.org/Graphics/SVG/1.1/DTD/svg11.dtd">
<!-- Generated by graphviz version 14.1.2 (20260124.0452)
 -->
<!-- Title: Cambio_Clutch_Final Pages: 1 -->
<svg width="1316pt" height="703pt"
 viewBox="0.00 0.00 1316.00 703.00" xmlns="http://www.w3.org/2000/svg" xmlns:xlink="http://www.w3.org/1999/xlink">
<g id="graph0" class="graph" transform="scale(1 1) rotate(0) translate(4 698.76)">
<title>Cambio_Clutch_Final</title>
<polygon fill="#ffffff" stroke="none" points="-4,4 -4,-698.76 1312.19,-698.76 1312.19,4 -4,4"/>
<text xml:space="preserve" text-anchor="middle" x="654.09" y="-675.56" font-family="Segoe UI Bold" font-size="16.00" fill="#1a1a1a">DIAGRAMA DE PROCESO: CAMBIO DE KIT DE CLUTCH (SOP)</text>
<text xml:space="preserve" text-anchor="middle" x="654.09" y="-653.06" font-family="Segoe UI Bold" font-size="16.00" fill="#1a1a1a">SYNER GROUP | CLIENTE: BJX MOTORS | 2026</text>
<text xml:space="preserve" text-anchor="middle" x="654.09" y="-630.56" font-family="Segoe UI Bold" font-size="16.00" fill="#1a1a1a"> </text>
<g id="clust1" class="cluster">
<title>cluster_asesora</title>
<polygon fill="#f4f9fd" stroke="#2980b9" points="777.39,-381.73 777.39,-564.73 1111.59,-564.73 1111.59,-381.73 777.39,-381.73"/>
<text xml:space="preserve" text-anchor="middle" x="944.49" y="-545.53" font-family="Segoe UI Bold" font-size="16.00" fill="#1a1a1a">Asesora de Servicios</text>
</g>
<g id="clust2" class="cluster">
<title>cluster_jefe</title>
<polygon fill="#f8f9f9" stroke="#7f8c8d" points="457.43,-215.73 457.43,-484.73 664.14,-484.73 664.14,-215.73 457.43,-215.73"/>
<text xml:space="preserve" text-anchor="middle" x="560.78" y="-465.53" font-family="Segoe UI Bold" font-size="16.00" fill="#1a1a1a">Jefe de Mecánicos</text>
</g>
<g id="clust3" class="cluster">
<title>cluster_mecanico</title>
<polygon fill="#f1fcf4" stroke="#27ae60" points="777.39,-38.73 777.39,-307.73 1300.19,-307.73 1300.19,-38.73 777.39,-38.73"/>
<text xml:space="preserve" text-anchor="middle" x="1038.79" y="-288.53" font-family="Segoe UI Bold" font-size="16.00" fill="#1a1a1a">Mecánico</text>
</g>
<g id="clust4" class="cluster">
<title>cluster_almacen</title>
<polygon fill="#fffdf9" stroke="#f39c12" points="8,-22.73 8,-207.73 633.58,-207.73 633.58,-22.73 8,-22.73"/>
<text xml:space="preserve" text-anchor="middle" x="320.79" y="-188.53" font-family="Segoe UI Bold" font-size="16.00" fill="#1a1a1a">Almacén</text>
</g>
<!-- ST_CLU -->
<g id="node1" class="node">
<title>ST_CLU</title>
<ellipse fill="#27ae60" stroke="#2c3e50" stroke-width="1.5" cx="850.19" cy="-414.73" rx="64.8" ry="25.2"/>
<text xml:space="preserve" text-anchor="middle" x="850.19" y="-412.55" font-family="Segoe UI" font-size="9.00" fill="white">INICIO</text>
</g>
<!-- A1_CLU -->
<g id="node2" class="node">
<title>A1_CLU</title>
<polygon fill="#ffffff" stroke="#2c3e50" stroke-width="1.5" points="1103.59,-439.93 973.99,-439.93 973.99,-389.53 1103.59,-389.53 1103.59,-439.93"/>
<text xml:space="preserve" text-anchor="middle" x="1038.79" y="-418.93" font-family="Segoe UI" font-size="9.00">Recepción: Reporte de</text>
<text xml:space="preserve" text-anchor="middle" x="1038.79" y="-406.18" font-family="Segoe UI" font-size="9.00">Patinamiento o Pedal Duro</text>
</g>
<!-- ST_CLU&#45;&gt;A1_CLU -->
<g id="edge1" class="edge">
<title>ST_CLU&#45;&gt;A1_CLU</title>
<path fill="none" stroke="#34495e" stroke-width="1.2" d="M915.67,-414.73C931.11,-414.73 947.72,-414.73 963.56,-414.73"/>
<polygon fill="#34495e" stroke="#34495e" stroke-width="1.2" points="963.49,-417.53 971.49,-414.73 963.49,-411.93 963.49,-417.53"/>
</g>
<!-- J1_CLU -->
<g id="node5" class="node">
<title>J1_CLU</title>
<polygon fill="#fff9c4" stroke="#2c3e50" stroke-width="1.5" points="560.78,-359.93 472.53,-334.73 560.78,-309.53 649.04,-334.73 560.78,-359.93"/>
<text xml:space="preserve" text-anchor="middle" x="560.78" y="-338.93" font-family="Segoe UI" font-size="9.00">Prueba de Esfuerzo:</text>
<text xml:space="preserve" text-anchor="middle" x="560.78" y="-326.18" font-family="Segoe UI" font-size="9.00">¿Pátina el Disco?</text>
</g>
<!-- A1_CLU&#45;&gt;J1_CLU -->
<g id="edge2" class="edge">
<title>A1_CLU&#45;&gt;J1_CLU</title>
<path fill="none" stroke="#34495e" stroke-width="1.2" d="M973.29,-388.98C954.72,-382.44 934.27,-376.05 914.99,-371.73 826.18,-351.81 722.34,-342.56 650.34,-338.3"/>
<polygon fill="#34495e" stroke="#34495e" stroke-width="1.2" points="650.8,-335.52 642.66,-337.86 650.48,-341.11 650.8,-335.52"/>
</g>
<!-- A2_CLU -->
<g id="node3" class="node">
<title>A2_CLU</title>
<polygon fill="#ffffff" stroke="#2c3e50" stroke-width="1.5" points="914.99,-525.93 785.39,-525.93 785.39,-475.53 914.99,-475.53 914.99,-525.93"/>
<text xml:space="preserve" text-anchor="middle" x="850.19" y="-504.93" font-family="Segoe UI" font-size="9.00">Cierre de Orden y</text>
<text xml:space="preserve" text-anchor="middle" x="850.19" y="-492.18" font-family="Segoe UI" font-size="9.00">Validación de Corte</text>
</g>
<!-- END_CLU -->
<g id="node4" class="node">
<title>END_CLU</title>
<ellipse fill="#c0392b" stroke="#2c3e50" stroke-width="1.5" cx="1038.79" cy="-500.73" rx="64.8" ry="25.2"/>
<text xml:space="preserve" text-anchor="middle" x="1038.79" y="-498.55" font-family="Segoe UI" font-size="9.00" fill="white">FIN</text>
</g>
<!-- A2_CLU&#45;&gt;END_CLU -->
<g id="edge17" class="edge">
<title>A2_CLU&#45;&gt;END_CLU</title>
<path fill="none" stroke="#34495e" stroke-width="1.2" d="M915.67,-500.73C931.11,-500.73 947.72,-500.73 963.56,-500.73"/>
<polygon fill="#34495e" stroke="#34495e" stroke-width="1.2" points="963.49,-503.53 971.49,-500.73 963.49,-497.93 963.49,-503.53"/>
</g>
<!-- J1_CLU&#45;&gt;A2_CLU -->
<g id="edge4" class="edge">
<title>J1_CLU&#45;&gt;A2_CLU</title>
<path fill="none" stroke="#34495e" stroke-width="1.2" d="M599.7,-349.39C619.21,-357.25 643.22,-367.42 664.14,-377.73 706.46,-398.57 720.86,-399.19 756.39,-430.23 767.97,-440.34 765.92,-447.48 777.39,-457.73 782.05,-461.89 787.17,-465.87 792.46,-469.6"/>
<polygon fill="#34495e" stroke="#34495e" stroke-width="1.2" points="790.61,-471.73 798.8,-473.88 793.74,-467.09 790.61,-471.73"/>
<text xml:space="preserve" text-anchor="middle" x="720.76" y="-433.43" font-family="Times New Roman,serif" font-size="14.00"> NO (Ajuste)</text>
</g>
<!-- M1_CLU -->
<g id="node8" class="node">
<title>M1_CLU</title>
<polygon fill="#ffffff" stroke="#2c3e50" stroke-width="1.5" points="914.99,-268.93 785.39,-268.93 785.39,-218.53 914.99,-218.53 914.99,-268.93"/>
<text xml:space="preserve" text-anchor="middle" x="850.19" y="-247.93" font-family="Segoe UI" font-size="9.00">Bajado de Transmisión</text>
<text xml:space="preserve" text-anchor="middle" x="850.19" y="-235.18" font-family="Segoe UI" font-size="9.00">y Desmonte de Kit Viejo</text>
</g>
<!-- J1_CLU&#45;&gt;M1_CLU -->
<g id="edge3" class="edge">
<title>J1_CLU&#45;&gt;M1_CLU</title>
<path fill="none" stroke="#34495e" stroke-width="1.2" d="M600.16,-320.1C624.39,-311.06 656.42,-299.46 685.14,-290.23 714.51,-280.78 747.15,-271.32 775.54,-263.42"/>
<polygon fill="#34495e" stroke="#34495e" stroke-width="1.2" points="776.28,-266.12 783.24,-261.29 774.78,-260.72 776.28,-266.12"/>
<text xml:space="preserve" text-anchor="middle" x="720.76" y="-293.43" font-family="Times New Roman,serif" font-size="14.00"> SÍ</text>
</g>
<!-- J2_CLU -->
<g id="node6" class="node">
<title>J2_CLU</title>
<polygon fill="#fff9c4" stroke="#2c3e50" stroke-width="1.5" points="560.78,-273.93 465.43,-248.73 560.78,-223.53 656.14,-248.73 560.78,-273.93"/>
<text xml:space="preserve" text-anchor="middle" x="560.78" y="-252.93" font-family="Segoe UI" font-size="9.00">¿Volante Motor</text>
<text xml:space="preserve" text-anchor="middle" x="560.78" y="-240.18" font-family="Segoe UI" font-size="9.00">Requiere Rectificado?</text>
</g>
<!-- M2_CLU -->
<g id="node9" class="node">
<title>M2_CLU</title>
<polygon fill="#ffffff" stroke="#2c3e50" stroke-width="1.5" points="914.99,-96.93 785.39,-96.93 785.39,-46.53 914.99,-46.53 914.99,-96.93"/>
<text xml:space="preserve" text-anchor="middle" x="850.19" y="-75.93" font-family="Segoe UI" font-size="9.00">Rectificado de Volante</text>
<text xml:space="preserve" text-anchor="middle" x="850.19" y="-63.18" font-family="Segoe UI" font-size="9.00">y Cambio de Piloto</text>
</g>
<!-- J2_CLU&#45;&gt;M2_CLU -->
<g id="edge6" class="edge">
<title>J2_CLU&#45;&gt;M2_CLU</title>
<path fill="none" stroke="#34495e" stroke-width="1.2" d="M622.86,-239.28C637.79,-234.54 652.73,-227.42 664.14,-216.73 683.08,-198.97 668.08,-181.79 685.14,-162.23 709.47,-134.33 744.59,-113.35 776.09,-98.65"/>
<polygon fill="#34495e" stroke="#34495e" stroke-width="1.2" points="777.09,-101.28 783.22,-95.42 774.77,-96.18 777.09,-101.28"/>
<text xml:space="preserve" text-anchor="middle" x="720.76" y="-165.43" font-family="Times New Roman,serif" font-size="14.00"> SÍ</text>
</g>
<!-- M3_CLU -->
<g id="node10" class="node">
<title>M3_CLU</title>
<polygon fill="#ffffff" stroke="#2c3e50" stroke-width="1.5" points="914.99,-182.93 785.39,-182.93 785.39,-132.53 914.99,-132.53 914.99,-182.93"/>
<text xml:space="preserve" text-anchor="middle" x="850.19" y="-161.93" font-family="Segoe UI" font-size="9.00">Instalación de Kit Nuevo</text>
<text xml:space="preserve" text-anchor="middle" x="850.19" y="-149.18" font-family="Segoe UI" font-size="9.00">(Centrado de Disco)</text>
</g>
<!-- J2_CLU&#45;&gt;M3_CLU -->
<g id="edge7" class="edge">
<title>J2_CLU&#45;&gt;M3_CLU</title>
<path fill="none" stroke="#34495e" stroke-width="1.2" d="M606.39,-234.84C624.34,-229.24 645.23,-222.7 664.14,-216.73 701.04,-205.08 742.03,-192.02 776.04,-181.15"/>
<polygon fill="#34495e" stroke="#34495e" stroke-width="1.2" points="776.49,-183.95 783.26,-178.85 774.78,-178.61 776.49,-183.95"/>
<text xml:space="preserve" text-anchor="middle" x="720.76" y="-211.96" font-family="Times New Roman,serif" font-size="14.00"> NO</text>
</g>
<!-- J3_CLU -->
<g id="node7" class="node">
<title>J3_CLU</title>
<polygon fill="#ffffff" stroke="#2c3e50" stroke-width="1.5" points="625.58,-445.93 495.98,-445.93 495.98,-395.53 625.58,-395.53 625.58,-445.93"/>
<text xml:space="preserve" text-anchor="middle" x="560.78" y="-424.93" font-family="Segoe UI" font-size="9.00">Validación de Carrera</text>
<text xml:space="preserve" text-anchor="middle" x="560.78" y="-412.18" font-family="Segoe UI" font-size="9.00">de Pedal y Cambios</text>
</g>
<!-- J3_CLU&#45;&gt;A2_CLU -->
<g id="edge16" class="edge">
<title>J3_CLU&#45;&gt;A2_CLU</title>
<path fill="none" stroke="#34495e" stroke-width="1.2" d="M626.28,-438.68C670.57,-451.01 729.44,-467.39 775.56,-480.23"/>
<polygon fill="#34495e" stroke="#34495e" stroke-width="1.2" points="774.7,-482.9 783.15,-482.35 776.2,-477.5 774.7,-482.9"/>
<text xml:space="preserve" text-anchor="middle" x="720.76" y="-478.05" font-family="Times New Roman,serif" font-size="14.00"> OK</text>
</g>
<!-- M1_CLU&#45;&gt;J2_CLU -->
<g id="edge5" class="edge">
<title>M1_CLU&#45;&gt;J2_CLU</title>
<path fill="none" stroke="#34495e" stroke-width="1.2" d="M784.78,-244.85C748.75,-245.47 703.04,-246.27 662.39,-246.98"/>
<polygon fill="#34495e" stroke="#34495e" stroke-width="1.2" points="662.49,-244.17 654.54,-247.11 662.58,-249.77 662.49,-244.17"/>
</g>
<!-- S1_CLU -->
<g id="node13" class="node">
<title>S1_CLU</title>
<polygon fill="#fff9c4" stroke="#2c3e50" stroke-width="1.5" points="81.54,-91.93 16,-66.73 81.54,-41.53 147.08,-66.73 81.54,-91.93"/>
<text xml:space="preserve" text-anchor="middle" x="81.54" y="-70.93" font-family="Segoe UI" font-size="9.00">¿Kit y Collarín</text>
<text xml:space="preserve" text-anchor="middle" x="81.54" y="-58.18" font-family="Segoe UI" font-size="9.00">en Stock?</text>
</g>
<!-- M2_CLU&#45;&gt;S1_CLU -->
<g id="edge8" class="edge">
<title>M2_CLU&#45;&gt;S1_CLU</title>
<path fill="none" stroke="#34495e" stroke-width="1.2" d="M784.81,-54.19C671.53,-25.86 429.49,23.33 228.33,-12.73 190.33,-19.54 149.29,-35.59 120.46,-48.44"/>
<polygon fill="#34495e" stroke="#34495e" stroke-width="1.2" points="119.33,-45.87 113.2,-51.73 121.65,-50.97 119.33,-45.87"/>
<text xml:space="preserve" text-anchor="middle" x="411.68" y="-4.1" font-family="Times New Roman,serif" font-size="14.00"> Solicitar</text>
</g>
<!-- M4_CLU -->
<g id="node11" class="node">
<title>M4_CLU</title>
<polygon fill="#ffffff" stroke="#2c3e50" stroke-width="1.5" points="1103.59,-225.93 973.99,-225.93 973.99,-175.53 1103.59,-175.53 1103.59,-225.93"/>
<text xml:space="preserve" text-anchor="middle" x="1038.79" y="-204.93" font-family="Segoe UI" font-size="9.00">Purgado de Sistema</text>
<text xml:space="preserve" text-anchor="middle" x="1038.79" y="-192.18" font-family="Segoe UI" font-size="9.00">Hidráulico / Ajuste</text>
</g>
<!-- M3_CLU&#45;&gt;M4_CLU -->
<g id="edge13" class="edge">
<title>M3_CLU&#45;&gt;M4_CLU</title>
<path fill="none" stroke="#34495e" stroke-width="1.2" d="M915.67,-172.58C931.25,-176.18 948.03,-180.04 964.01,-183.72"/>
<polygon fill="#34495e" stroke="#34495e" stroke-width="1.2" points="963.11,-186.39 971.54,-185.46 964.37,-180.93 963.11,-186.39"/>
</g>
<!-- M5_CLU -->
<g id="node12" class="node">
<title>M5_CLU</title>
<polygon fill="#ffffff" stroke="#2c3e50" stroke-width="1.5" points="1292.19,-257.93 1162.59,-257.93 1162.59,-207.53 1292.19,-207.53 1292.19,-257.93"/>
<text xml:space="preserve" text-anchor="middle" x="1227.39" y="-236.93" font-family="Segoe UI" font-size="9.00">Carga de Evidencia</text>
<text xml:space="preserve" text-anchor="middle" x="1227.39" y="-224.18" font-family="Segoe UI" font-size="9.00">en Notion (Fotos)</text>
</g>
<!-- M4_CLU&#45;&gt;M5_CLU -->
<g id="edge14" class="edge">
<title>M4_CLU&#45;&gt;M5_CLU</title>
<path fill="none" stroke="#34495e" stroke-width="1.2" d="M1104.27,-211.78C1119.85,-214.46 1136.63,-217.33 1152.61,-220.07"/>
<polygon fill="#34495e" stroke="#34495e" stroke-width="1.2" points="1151.76,-222.77 1160.12,-221.36 1152.71,-217.25 1151.76,-222.77"/>
</g>
<!-- M5_CLU&#45;&gt;J3_CLU -->
<g id="edge15" class="edge">
<title>M5_CLU&#45;&gt;J3_CLU</title>
<path fill="none" stroke="#34495e" stroke-width="1.2" d="M1226.77,-258.67C1226.16,-323.98 1214.38,-495.22 1111.59,-568.73 990.77,-655.12 919.25,-612.73 777.39,-568.73 704.52,-546.12 634.42,-489.42 594.85,-453.13"/>
<polygon fill="#34495e" stroke="#34495e" stroke-width="1.2" points="596.92,-451.23 589.15,-447.84 593.11,-455.34 596.92,-451.23"/>
</g>
<!-- S2_CLU -->
<g id="node14" class="node">
<title>S2_CLU</title>
<polygon fill="#ffffff" stroke="#2c3e50" stroke-width="1.5" points="625.58,-99.93 495.98,-99.93 495.98,-49.53 625.58,-49.53 625.58,-99.93"/>
<text xml:space="preserve" text-anchor="middle" x="560.78" y="-78.93" font-family="Segoe UI" font-size="9.00">Surtir Kit, Aceite de</text>
<text xml:space="preserve" text-anchor="middle" x="560.78" y="-66.18" font-family="Segoe UI" font-size="9.00">Caja y Líquido</text>
</g>
<!-- S1_CLU&#45;&gt;S2_CLU -->
<g id="edge11" class="edge">
<title>S1_CLU&#45;&gt;S2_CLU</title>
<path fill="none" stroke="#34495e" stroke-width="1.2" d="M120.84,-77.51C150.03,-85.15 191.36,-94.72 228.33,-98.73 316.62,-108.3 418.57,-97.68 485.83,-87.7"/>
<polygon fill="#34495e" stroke="#34495e" stroke-width="1.2" points="486.22,-90.47 493.71,-86.5 485.38,-84.93 486.22,-90.47"/>
<text xml:space="preserve" text-anchor="middle" x="293.13" y="-105.68" font-family="Times New Roman,serif" font-size="14.00"> SÍ</text>
</g>
<!-- S3_CLU -->
<g id="node15" class="node">
<title>S3_CLU</title>
<polygon fill="#ffffff" stroke="#2c3e50" stroke-width="1.5" points="357.93,-80.93 228.33,-80.93 228.33,-30.53 357.93,-30.53 357.93,-80.93"/>
<text xml:space="preserve" text-anchor="middle" x="293.13" y="-59.93" font-family="Segoe UI" font-size="9.00">Solicitar Compra</text>
<text xml:space="preserve" text-anchor="middle" x="293.13" y="-47.18" font-family="Segoe UI" font-size="9.00">Urgente</text>
</g>
<!-- S1_CLU&#45;&gt;S3_CLU -->
<g id="edge9" class="edge">
<title>S1_CLU&#45;&gt;S3_CLU</title>
<path fill="none" stroke="#34495e" stroke-width="1.2" d="M140.92,-63.66C164.87,-62.4 192.88,-60.93 218.23,-59.6"/>
<polygon fill="#34495e" stroke="#34495e" stroke-width="1.2" points="218.15,-62.41 225.99,-59.2 217.86,-56.82 218.15,-62.41"/>
<text xml:space="preserve" text-anchor="middle" x="187.71" y="-64.76" font-family="Times New Roman,serif" font-size="14.00"> NO</text>
</g>
<!-- S2_CLU&#45;&gt;M3_CLU -->
<g id="edge12" class="edge">
<title>S2_CLU&#45;&gt;M3_CLU</title>
<path fill="none" stroke="#34495e" stroke-width="1.2" d="M626.29,-73.44C665.33,-74.79 715.32,-80.41 756.39,-97.73 767.45,-102.39 767.55,-107.85 777.39,-114.73 783.25,-118.82 789.51,-122.93 795.8,-126.9"/>
<polygon fill="#34495e" stroke="#34495e" stroke-width="1.2" points="793.94,-129.04 802.22,-130.88 796.9,-124.29 793.94,-129.04"/>
</g>
<!-- S3_CLU&#45;&gt;S2_CLU -->
<g id="edge10" class="edge">
<title>S3_CLU&#45;&gt;S2_CLU</title>
<path fill="none" stroke="#34495e" stroke-width="1.2" d="M358.44,-60.33C396.88,-63.07 445.87,-66.58 485.9,-69.44"/>
<polygon fill="#34495e" stroke="#34495e" stroke-width="1.2" points="485.62,-72.23 493.8,-70.01 486.02,-66.64 485.62,-72.23"/>
</g>
</g>
</svg>
