<?xml version="1.0" encoding="UTF-8" standalone="no"?>
<!DOCTYPE svg PUBLIC "-//W3C//DTD SVG 1.1//EN"
 "http://www.w3.org/Graphics/SVG/1.1/DTD/svg11.dtd">
<!-- Generated by graphviz version 14.1.2 (20260124.0452)
 -->
<!-- Title: Cambio_Bateria_Final Pages: 1 -->
<svg width="1254pt" height="711pt"
 viewBox="0.00 0.00 1254.00 711.00" xmlns="http://www.w3.org/2000/svg" xmlns:xlink="http://www.w3.org/1999/xlink">
<g id="graph0" class="graph" transform="scale(1 1) rotate(0) translate(4 706.5)">
<title>Cambio_Bateria_Final</title>
<polygon fill="#ffffff" stroke="none" points="-4,4 -4,-706.5 1249.8,-706.5 1249.8,4 -4,4"/>
<text xml:space="preserve" text-anchor="middle" x="622.9" y="-683.3" font-family="Segoe UI Bold" font-size="16.00" fill="#1a1a1a">DIAGRAMA DE PROCESO: CAMBIO DE BATERÍA (SOP)</text>
<text xml:space="preserve" text-anchor="middle" x="622.9" y="-660.8" font-family="Segoe UI Bold" font-size="16.00" fill="#1a1a1a">SYNER GROUP | CLIENTE: BJX MOTORS | 2026</text>
<text xml:space="preserve" text-anchor="middle" x="622.9" y="-638.3" font-family="Segoe UI Bold" font-size="16.00" fill="#1a1a1a"> </text>
<g id="clust1" class="cluster">
<title>cluster_asesora</title>
<polygon fill="#f4f9fd" stroke="#2980b9" points="471.4,-436 471.4,-619 860.6,-619 860.6,-436 471.4,-436"/>
<text xml:space="preserve" text-anchor="middle" x="666" y="-599.8" font-family="Segoe UI Bold" font-size="16.00" fill="#1a1a1a">Asesora de Servicios</text>
</g>
<g id="clust2" class="cluster">
<title>cluster_jefe</title>
<polygon fill="#f8f9f9" stroke="#7f8c8d" points="229.3,-202 229.3,-385 860.6,-385 860.6,-202 229.3,-202"/>
<text xml:space="preserve" text-anchor="middle" x="544.95" y="-365.8" font-family="Segoe UI Bold" font-size="16.00" fill="#1a1a1a">Jefe de Mecánicos</text>
</g>
<g id="clust3" class="cluster">
<title>cluster_mecanico</title>
<polygon fill="#f1fcf4" stroke="#27ae60" points="715,-11 715,-194 1237.8,-194 1237.8,-11 715,-11"/>
<text xml:space="preserve" text-anchor="middle" x="976.4" y="-174.8" font-family="Segoe UI Bold" font-size="16.00" fill="#1a1a1a">Mecánico</text>
</g>
<g id="clust4" class="cluster">
<title>cluster_almacen</title>
<polygon fill="#fffdf9" stroke="#f39c12" points="8,-8 8,-194 617,-194 617,-8 8,-8"/>
<text xml:space="preserve" text-anchor="middle" x="312.5" y="-174.8" font-family="Segoe UI Bold" font-size="16.00" fill="#1a1a1a">Almacén</text>
</g>
<!-- ST_BAT -->
<g id="node1" class="node">
<title>ST_BAT</title>
<ellipse fill="#27ae60" stroke="#2c3e50" stroke-width="1.5" cx="544.2" cy="-469" rx="64.8" ry="25.2"/>
<text xml:space="preserve" text-anchor="middle" x="544.2" y="-466.82" font-family="Segoe UI" font-size="9.00" fill="white">INICIO</text>
</g>
<!-- A1_BAT -->
<g id="node2" class="node">
<title>A1_BAT</title>
<polygon fill="#ffffff" stroke="#2c3e50" stroke-width="1.5" points="852.6,-494.2 723,-494.2 723,-443.8 852.6,-443.8 852.6,-494.2"/>
<text xml:space="preserve" text-anchor="middle" x="787.8" y="-473.2" font-family="Segoe UI" font-size="9.00">Recepción: Reporte de</text>
<text xml:space="preserve" text-anchor="middle" x="787.8" y="-460.45" font-family="Segoe UI" font-size="9.00">Falla de Arranque</text>
</g>
<!-- ST_BAT&#45;&gt;A1_BAT -->
<g id="edge1" class="edge">
<title>ST_BAT&#45;&gt;A1_BAT</title>
<path fill="none" stroke="#34495e" stroke-width="1.2" d="M609.63,-469C641.44,-469 679.96,-469 712.96,-469"/>
<polygon fill="#34495e" stroke="#34495e" stroke-width="1.2" points="712.74,-471.8 720.74,-469 712.74,-466.2 712.74,-471.8"/>
</g>
<!-- J1_BAT -->
<g id="node5" class="node">
<title>J1_BAT</title>
<polygon fill="#ffffff" stroke="#2c3e50" stroke-width="1.5" points="366.9,-260.2 237.3,-260.2 237.3,-209.8 366.9,-209.8 366.9,-260.2"/>
<text xml:space="preserve" text-anchor="middle" x="302.1" y="-239.2" font-family="Segoe UI" font-size="9.00">Prueba de Carga</text>
<text xml:space="preserve" text-anchor="middle" x="302.1" y="-226.45" font-family="Segoe UI" font-size="9.00">(Alternador/Parásitos)</text>
</g>
<!-- A1_BAT&#45;&gt;J1_BAT -->
<g id="edge2" class="edge">
<title>A1_BAT&#45;&gt;J1_BAT</title>
<path fill="none" stroke="#34495e" stroke-width="1.2" d="M745.3,-443.13C729.45,-433.6 711.09,-422.95 694,-414 584.48,-356.67 453.06,-298.6 373.92,-264.74"/>
<polygon fill="#34495e" stroke="#34495e" stroke-width="1.2" points="375.13,-262.22 366.68,-261.65 372.93,-267.37 375.13,-262.22"/>
</g>
<!-- A2_BAT -->
<g id="node3" class="node">
<title>A2_BAT</title>
<polygon fill="#ffffff" stroke="#2c3e50" stroke-width="1.5" points="609,-580.2 479.4,-580.2 479.4,-529.8 609,-529.8 609,-580.2"/>
<text xml:space="preserve" text-anchor="middle" x="544.2" y="-559.2" font-family="Segoe UI" font-size="9.00">Cierre de Orden</text>
<text xml:space="preserve" text-anchor="middle" x="544.2" y="-546.45" font-family="Segoe UI" font-size="9.00">y Entrega de Unidad</text>
</g>
<!-- END_BAT -->
<g id="node4" class="node">
<title>END_BAT</title>
<ellipse fill="#c0392b" stroke="#2c3e50" stroke-width="1.5" cx="787.8" cy="-555" rx="64.8" ry="25.2"/>
<text xml:space="preserve" text-anchor="middle" x="787.8" y="-552.83" font-family="Segoe UI" font-size="9.00" fill="white">FIN</text>
</g>
<!-- A2_BAT&#45;&gt;END_BAT -->
<g id="edge16" class="edge">
<title>A2_BAT&#45;&gt;END_BAT</title>
<path fill="none" stroke="#34495e" stroke-width="1.2" d="M609.63,-555C641.44,-555 679.96,-555 712.96,-555"/>
<polygon fill="#34495e" stroke="#34495e" stroke-width="1.2" points="712.74,-557.8 720.74,-555 712.74,-552.2 712.74,-557.8"/>
</g>
<!-- J2_BAT -->
<g id="node6" class="node">
<title>J2_BAT</title>
<polygon fill="#fff9c4" stroke="#2c3e50" stroke-width="1.5" points="544.2,-260.2 474.4,-235 544.2,-209.8 614,-235 544.2,-260.2"/>
<text xml:space="preserve" text-anchor="middle" x="544.2" y="-239.2" font-family="Segoe UI" font-size="9.00">¿Alternador en</text>
<text xml:space="preserve" text-anchor="middle" x="544.2" y="-226.45" font-family="Segoe UI" font-size="9.00">Buen Estado?</text>
</g>
<!-- J1_BAT&#45;&gt;J2_BAT -->
<g id="edge3" class="edge">
<title>J1_BAT&#45;&gt;J2_BAT</title>
<path fill="none" stroke="#34495e" stroke-width="1.2" d="M367.45,-235C396.78,-235 431.81,-235 462.85,-235"/>
<polygon fill="#34495e" stroke="#34495e" stroke-width="1.2" points="462.53,-237.8 470.53,-235 462.53,-232.2 462.53,-237.8"/>
</g>
<!-- J3_BAT -->
<g id="node7" class="node">
<title>J3_BAT</title>
<polygon fill="#ffffff" stroke="#2c3e50" stroke-width="1.5" points="852.6,-284.2 723,-284.2 723,-233.8 852.6,-233.8 852.6,-284.2"/>
<text xml:space="preserve" text-anchor="middle" x="787.8" y="-263.2" font-family="Segoe UI" font-size="9.00">Notificar Falla de</text>
<text xml:space="preserve" text-anchor="middle" x="787.8" y="-250.45" font-family="Segoe UI" font-size="9.00">Sistema de Carga</text>
</g>
<!-- J2_BAT&#45;&gt;J3_BAT -->
<g id="edge4" class="edge">
<title>J2_BAT&#45;&gt;J3_BAT</title>
<path fill="none" stroke="#34495e" stroke-width="1.2" d="M600.63,-240.51C634.01,-243.82 676.92,-248.08 713.12,-251.68"/>
<polygon fill="#34495e" stroke="#34495e" stroke-width="1.2" points="712.61,-254.44 720.85,-252.45 713.17,-248.87 712.61,-254.44"/>
<text xml:space="preserve" text-anchor="middle" x="668.5" y="-252.35" font-family="Times New Roman,serif" font-size="14.00"> NO</text>
</g>
<!-- M1_BAT -->
<g id="node9" class="node">
<title>M1_BAT</title>
<polygon fill="#ffffff" stroke="#2c3e50" stroke-width="1.5" points="852.6,-69.2 723,-69.2 723,-18.8 852.6,-18.8 852.6,-69.2"/>
<text xml:space="preserve" text-anchor="middle" x="787.8" y="-48.2" font-family="Segoe UI" font-size="9.00">Test de CCA y</text>
<text xml:space="preserve" text-anchor="middle" x="787.8" y="-35.45" font-family="Segoe UI" font-size="9.00">Voltaje de Batería</text>
</g>
<!-- J2_BAT&#45;&gt;M1_BAT -->
<g id="edge5" class="edge">
<title>J2_BAT&#45;&gt;M1_BAT</title>
<path fill="none" stroke="#34495e" stroke-width="1.2" d="M581.27,-222.66C593.28,-217.61 606.31,-211.03 617,-203 670.96,-162.46 663.58,-130.71 715,-87 719.84,-82.89 725.11,-78.93 730.54,-75.19"/>
<polygon fill="#34495e" stroke="#34495e" stroke-width="1.2" points="731.92,-77.63 737.04,-70.88 728.83,-72.97 731.92,-77.63"/>
<text xml:space="preserve" text-anchor="middle" x="668.5" y="-180.5" font-family="Times New Roman,serif" font-size="14.00"> SÍ</text>
</g>
<!-- J3_BAT&#45;&gt;A2_BAT -->
<g id="edge6" class="edge">
<title>J3_BAT&#45;&gt;A2_BAT</title>
<path fill="none" stroke="#34495e" stroke-width="1.2" d="M774.46,-284.65C749.95,-333.6 691.03,-441.69 617,-512 612.65,-516.14 607.83,-520.06 602.8,-523.73"/>
<polygon fill="#34495e" stroke="#34495e" stroke-width="1.2" points="601.26,-521.39 596.27,-528.25 604.45,-526 601.26,-521.39"/>
<text xml:space="preserve" text-anchor="middle" x="668.5" y="-485.45" font-family="Times New Roman,serif" font-size="14.00"> Reportar</text>
</g>
<!-- J4_BAT -->
<g id="node8" class="node">
<title>J4_BAT</title>
<polygon fill="#ffffff" stroke="#2c3e50" stroke-width="1.5" points="366.9,-346.2 237.3,-346.2 237.3,-295.8 366.9,-295.8 366.9,-346.2"/>
<text xml:space="preserve" text-anchor="middle" x="302.1" y="-325.2" font-family="Segoe UI" font-size="9.00">Validación de Voltajes</text>
<text xml:space="preserve" text-anchor="middle" x="302.1" y="-312.45" font-family="Segoe UI" font-size="9.00">Finales (Post&#45;Instalación)</text>
</g>
<!-- J4_BAT&#45;&gt;A2_BAT -->
<g id="edge15" class="edge">
<title>J4_BAT&#45;&gt;A2_BAT</title>
<path fill="none" stroke="#34495e" stroke-width="1.2" d="M321.66,-346.75C350.59,-385.72 409.57,-460.55 471.4,-512 476.36,-516.12 481.75,-520.11 487.28,-523.88"/>
<polygon fill="#34495e" stroke="#34495e" stroke-width="1.2" points="485.7,-526.19 493.92,-528.24 488.77,-521.51 485.7,-526.19"/>
<text xml:space="preserve" text-anchor="middle" x="420.65" y="-487.43" font-family="Times New Roman,serif" font-size="14.00"> OK</text>
</g>
<!-- S1_BAT -->
<g id="node13" class="node">
<title>S1_BAT</title>
<polygon fill="#fff9c4" stroke="#2c3e50" stroke-width="1.5" points="86.03,-77.2 16,-52 86.03,-26.8 156.05,-52 86.03,-77.2"/>
<text xml:space="preserve" text-anchor="middle" x="86.03" y="-49.83" font-family="Segoe UI" font-size="9.00">¿Modelo en Stock?</text>
</g>
<!-- M1_BAT&#45;&gt;S1_BAT -->
<g id="edge7" class="edge">
<title>M1_BAT&#45;&gt;S1_BAT</title>
<path fill="none" stroke="#34495e" stroke-width="1.2" d="M722.6,-43.85C615.85,-43.62 395.11,-43.16 208.3,-43 197.97,-42.99 195.38,-42.53 185.05,-43 174.16,-43.5 162.61,-44.31 151.4,-45.24"/>
<polygon fill="#34495e" stroke="#34495e" stroke-width="1.2" points="151.2,-42.45 143.47,-45.93 151.69,-48.03 151.2,-42.45"/>
<text xml:space="preserve" text-anchor="middle" x="420.65" y="-46.5" font-family="Times New Roman,serif" font-size="14.00"> Solicitar</text>
</g>
<!-- M2_BAT -->
<g id="node10" class="node">
<title>M2_BAT</title>
<polygon fill="#ffffff" stroke="#2c3e50" stroke-width="1.5" points="852.6,-155.2 723,-155.2 723,-104.8 852.6,-104.8 852.6,-155.2"/>
<text xml:space="preserve" text-anchor="middle" x="787.8" y="-134.2" font-family="Segoe UI" font-size="9.00">Desmontaje con</text>
<text xml:space="preserve" text-anchor="middle" x="787.8" y="-121.45" font-family="Segoe UI" font-size="9.00">Respaldo de Memoria</text>
</g>
<!-- M3_BAT -->
<g id="node11" class="node">
<title>M3_BAT</title>
<polygon fill="#ffffff" stroke="#2c3e50" stroke-width="1.5" points="1041.2,-155.2 911.6,-155.2 911.6,-104.8 1041.2,-104.8 1041.2,-155.2"/>
<text xml:space="preserve" text-anchor="middle" x="976.4" y="-134.2" font-family="Segoe UI" font-size="9.00">Instalación y</text>
<text xml:space="preserve" text-anchor="middle" x="976.4" y="-121.45" font-family="Segoe UI" font-size="9.00">Limpieza de Bornes</text>
</g>
<!-- M2_BAT&#45;&gt;M3_BAT -->
<g id="edge12" class="edge">
<title>M2_BAT&#45;&gt;M3_BAT</title>
<path fill="none" stroke="#34495e" stroke-width="1.2" d="M853.28,-130C868.72,-130 885.33,-130 901.17,-130"/>
<polygon fill="#34495e" stroke="#34495e" stroke-width="1.2" points="901.11,-132.8 909.11,-130 901.11,-127.2 901.11,-132.8"/>
</g>
<!-- M4_BAT -->
<g id="node12" class="node">
<title>M4_BAT</title>
<polygon fill="#ffffff" stroke="#2c3e50" stroke-width="1.5" points="1229.8,-155.2 1100.2,-155.2 1100.2,-104.8 1229.8,-104.8 1229.8,-155.2"/>
<text xml:space="preserve" text-anchor="middle" x="1165" y="-134.2" font-family="Segoe UI" font-size="9.00">Carga de Evidencia</text>
<text xml:space="preserve" text-anchor="middle" x="1165" y="-121.45" font-family="Segoe UI" font-size="9.00">(Notion: Scan/Voltaje)</text>
</g>
<!-- M3_BAT&#45;&gt;M4_BAT -->
<g id="edge13" class="edge">
<title>M3_BAT&#45;&gt;M4_BAT</title>
<path fill="none" stroke="#34495e" stroke-width="1.2" d="M1041.88,-130C1057.32,-130 1073.93,-130 1089.77,-130"/>
<polygon fill="#34495e" stroke="#34495e" stroke-width="1.2" points="1089.71,-132.8 1097.71,-130 1089.71,-127.2 1089.71,-132.8"/>
</g>
<!-- M4_BAT&#45;&gt;J4_BAT -->
<g id="edge14" class="edge">
<title>M4_BAT&#45;&gt;J4_BAT</title>
<path fill="none" stroke="#34495e" stroke-width="1.2" d="M1131.38,-155.66C1078.25,-195.72 968.12,-271.68 860.6,-302 692.77,-349.34 485.22,-339.48 376.86,-329.47"/>
<polygon fill="#34495e" stroke="#34495e" stroke-width="1.2" points="377.36,-326.71 369.13,-328.74 376.83,-332.28 377.36,-326.71"/>
</g>
<!-- S2_BAT -->
<g id="node14" class="node">
<title>S2_BAT</title>
<polygon fill="#ffffff" stroke="#2c3e50" stroke-width="1.5" points="609,-155.2 479.4,-155.2 479.4,-104.8 609,-104.8 609,-155.2"/>
<text xml:space="preserve" text-anchor="middle" x="544.2" y="-134.2" font-family="Segoe UI" font-size="9.00">Surtir Batería Nueva</text>
<text xml:space="preserve" text-anchor="middle" x="544.2" y="-121.45" font-family="Segoe UI" font-size="9.00">y Protector de Bornes</text>
</g>
<!-- S1_BAT&#45;&gt;S2_BAT -->
<g id="edge10" class="edge">
<title>S1_BAT&#45;&gt;S2_BAT</title>
<path fill="none" stroke="#34495e" stroke-width="1.2" d="M156.98,-51.62C213.99,-52.5 296.33,-56.51 366.9,-70.5 401.8,-77.42 439.3,-89.4 470.7,-100.8"/>
<polygon fill="#34495e" stroke="#34495e" stroke-width="1.2" points="469.64,-103.39 478.11,-103.53 471.57,-98.14 469.64,-103.39"/>
<text xml:space="preserve" text-anchor="middle" x="302.1" y="-73.7" font-family="Times New Roman,serif" font-size="14.00"> SÍ</text>
</g>
<!-- S3_BAT -->
<g id="node15" class="node">
<title>S3_BAT</title>
<polygon fill="#ffffff" stroke="#2c3e50" stroke-width="1.5" points="366.9,-155.2 237.3,-155.2 237.3,-104.8 366.9,-104.8 366.9,-155.2"/>
<text xml:space="preserve" text-anchor="middle" x="302.1" y="-134.2" font-family="Segoe UI" font-size="9.00">Solicitar Compra</text>
<text xml:space="preserve" text-anchor="middle" x="302.1" y="-121.45" font-family="Segoe UI" font-size="9.00">Urgente</text>
</g>
<!-- S1_BAT&#45;&gt;S3_BAT -->
<g id="edge8" class="edge">
<title>S1_BAT&#45;&gt;S3_BAT</title>
<path fill="none" stroke="#34495e" stroke-width="1.2" d="M122.38,-64.88C150.95,-75.29 192.14,-90.3 227.78,-103.28"/>
<polygon fill="#34495e" stroke="#34495e" stroke-width="1.2" points="226.52,-105.81 235,-105.91 228.44,-100.54 226.52,-105.81"/>
<text xml:space="preserve" text-anchor="middle" x="196.68" y="-98.87" font-family="Times New Roman,serif" font-size="14.00"> NO</text>
</g>
<!-- S2_BAT&#45;&gt;M2_BAT -->
<g id="edge11" class="edge">
<title>S2_BAT&#45;&gt;M2_BAT</title>
<path fill="none" stroke="#34495e" stroke-width="1.2" d="M609.63,-130C641.44,-130 679.96,-130 712.96,-130"/>
<polygon fill="#34495e" stroke="#34495e" stroke-width="1.2" points="712.74,-132.8 720.74,-130 712.74,-127.2 712.74,-132.8"/>
</g>
<!-- S3_BAT&#45;&gt;S2_BAT -->
<g id="edge9" class="edge">
<title>S3_BAT&#45;&gt;S2_BAT</title>
<path fill="none" stroke="#34495e" stroke-width="1.2" d="M367.45,-130C398.8,-130 436.67,-130 469.21,-130"/>
<polygon fill="#34495e" stroke="#34495e" stroke-width="1.2" points="468.87,-132.8 476.87,-130 468.87,-127.2 468.87,-132.8"/>
</g>
</g>
</svg>
