<?xml version="1.0" encoding="UTF-8" standalone="no"?>
<!DOCTYPE svg PUBLIC "-//W3C//DTD SVG 1.1//EN"
 "http://www.w3.org/Graphics/SVG/1.1/DTD/svg11.dtd">
<!-- Generated by graphviz version 14.1.2 (20260124.0452)
 -->
<!-- Title: Afinacion_Final Pages: 1 -->
<svg width="1510pt" height="599pt"
 viewBox="0.00 0.00 1510.00 599.00" xmlns="http://www.w3.org/2000/svg" xmlns:xlink="http://www.w3.org/1999/xlink">
<g id="graph0" class="graph" transform="scale(1 1) rotate(0) translate(4 594.5)">
<title>Afinacion_Final</title>
<polygon fill="#ffffff" stroke="none" points="-4,4 -4,-594.5 1505.72,-594.5 1505.72,4 -4,4"/>
<text xml:space="preserve" text-anchor="middle" x="750.86" y="-571.3" font-family="Segoe UI Bold" font-size="16.00" fill="#1a1a1a">DIAGRAMA DE PROCESO: AFINACIÓN MAYOR (SOP)</text>
<text xml:space="preserve" text-anchor="middle" x="750.86" y="-548.8" font-family="Segoe UI Bold" font-size="16.00" fill="#1a1a1a">SYNER GROUP | CLIENTE: BJX MOTORS | 2026</text>
<text xml:space="preserve" text-anchor="middle" x="750.86" y="-526.3" font-family="Segoe UI Bold" font-size="16.00" fill="#1a1a1a"> </text>
<g id="clust1" class="cluster">
<title>cluster_asesora</title>
<polygon fill="#f4f9fd" stroke="#2980b9" points="28.94,-324 28.94,-507 406.33,-507 406.33,-324 28.94,-324"/>
<text xml:space="preserve" text-anchor="middle" x="217.63" y="-487.8" font-family="Segoe UI Bold" font-size="16.00" fill="#1a1a1a">Asesora de Servicios</text>
</g>
<g id="clust2" class="cluster">
<title>cluster_jefe</title>
<polygon fill="#f8f9f9" stroke="#7f8c8d" points="497.83,-202 497.83,-385 927.92,-385 927.92,-202 497.83,-202"/>
<text xml:space="preserve" text-anchor="middle" x="712.87" y="-365.8" font-family="Segoe UI Bold" font-size="16.00" fill="#1a1a1a">Jefe de Mecánicos</text>
</g>
<g id="clust3" class="cluster">
<title>cluster_mecanico</title>
<polygon fill="#f1fcf4" stroke="#27ae60" points="782.32,-11 782.32,-194 1493.72,-194 1493.72,-11 782.32,-11"/>
<text xml:space="preserve" text-anchor="middle" x="1138.02" y="-174.8" font-family="Segoe UI Bold" font-size="16.00" fill="#1a1a1a">Mecánico</text>
</g>
<g id="clust4" class="cluster">
<title>cluster_almacen</title>
<polygon fill="#fffdf9" stroke="#f39c12" points="8,-8 8,-194 662.62,-194 662.62,-8 8,-8"/>
<text xml:space="preserve" text-anchor="middle" x="335.31" y="-174.8" font-family="Segoe UI Bold" font-size="16.00" fill="#1a1a1a">Almacén</text>
</g>
<!-- ST_AF -->
<g id="node1" class="node">
<title>ST_AF</title>
<ellipse fill="#27ae60" stroke="#2c3e50" stroke-width="1.5" cx="101.74" cy="-443" rx="64.8" ry="25.2"/>
<text xml:space="preserve" text-anchor="middle" x="101.74" y="-440.82" font-family="Segoe UI" font-size="9.00" fill="white">INICIO</text>
</g>
<!-- A1_AF -->
<g id="node2" class="node">
<title>A1_AF</title>
<polygon fill="#ffffff" stroke="#2c3e50" stroke-width="1.5" points="398.33,-468.2 268.73,-468.2 268.73,-417.8 398.33,-417.8 398.33,-468.2"/>
<text xml:space="preserve" text-anchor="middle" x="333.53" y="-447.2" font-family="Segoe UI" font-size="9.00">Recepción: Mantenimiento</text>
<text xml:space="preserve" text-anchor="middle" x="333.53" y="-434.45" font-family="Segoe UI" font-size="9.00">Preventivo/Kilometraje</text>
</g>
<!-- ST_AF&#45;&gt;A1_AF -->
<g id="edge1" class="edge">
<title>ST_AF&#45;&gt;A1_AF</title>
<path fill="none" stroke="#34495e" stroke-width="1.2" d="M167.05,-443C195.44,-443 228.98,-443 258.42,-443"/>
<polygon fill="#34495e" stroke="#34495e" stroke-width="1.2" points="258.41,-445.8 266.41,-443 258.41,-440.2 258.41,-445.8"/>
</g>
<!-- J1_AF -->
<g id="node5" class="node">
<title>J1_AF</title>
<polygon fill="#fff9c4" stroke="#2c3e50" stroke-width="1.5" points="589.82,-260.2 505.83,-235 589.82,-209.8 673.82,-235 589.82,-260.2"/>
<text xml:space="preserve" text-anchor="middle" x="589.82" y="-239.2" font-family="Segoe UI" font-size="9.00">Escaneo Inicial:</text>
<text xml:space="preserve" text-anchor="middle" x="589.82" y="-226.45" font-family="Segoe UI" font-size="9.00">¿Códigos de Error?</text>
</g>
<!-- A1_AF&#45;&gt;J1_AF -->
<g id="edge2" class="edge">
<title>A1_AF&#45;&gt;J1_AF</title>
<path fill="none" stroke="#34495e" stroke-width="1.2" d="M383.45,-417.22C391.48,-412.03 399.42,-406.23 406.33,-400 456.68,-354.63 445.31,-320.85 497.83,-278 510.38,-267.75 525.79,-259.29 540.33,-252.66"/>
<polygon fill="#34495e" stroke="#34495e" stroke-width="1.2" points="541.36,-255.26 547.57,-249.49 539.12,-250.13 541.36,-255.26"/>
</g>
<!-- A2_AF -->
<g id="node3" class="node">
<title>A2_AF</title>
<polygon fill="#ffffff" stroke="#2c3e50" stroke-width="1.5" points="166.54,-382.2 36.94,-382.2 36.94,-331.8 166.54,-331.8 166.54,-382.2"/>
<text xml:space="preserve" text-anchor="middle" x="101.74" y="-361.2" font-family="Segoe UI" font-size="9.00">Cierre de Orden y</text>
<text xml:space="preserve" text-anchor="middle" x="101.74" y="-348.45" font-family="Segoe UI" font-size="9.00">Reporte de Consumo</text>
</g>
<!-- END_AF -->
<g id="node4" class="node">
<title>END_AF</title>
<ellipse fill="#c0392b" stroke="#2c3e50" stroke-width="1.5" cx="333.53" cy="-357" rx="64.8" ry="25.2"/>
<text xml:space="preserve" text-anchor="middle" x="333.53" y="-354.82" font-family="Segoe UI" font-size="9.00" fill="white">FIN</text>
</g>
<!-- A2_AF&#45;&gt;END_AF -->
<g id="edge16" class="edge">
<title>A2_AF&#45;&gt;END_AF</title>
<path fill="none" stroke="#34495e" stroke-width="1.2" d="M167.05,-357C195.44,-357 228.98,-357 258.42,-357"/>
<polygon fill="#34495e" stroke="#34495e" stroke-width="1.2" points="258.41,-359.8 266.41,-357 258.41,-354.2 258.41,-359.8"/>
</g>
<!-- J2_AF -->
<g id="node6" class="node">
<title>J2_AF</title>
<polygon fill="#ffffff" stroke="#2c3e50" stroke-width="1.5" points="919.92,-260.2 790.32,-260.2 790.32,-209.8 919.92,-209.8 919.92,-260.2"/>
<text xml:space="preserve" text-anchor="middle" x="855.12" y="-239.2" font-family="Segoe UI" font-size="9.00">Diagnóstico de Sensores</text>
<text xml:space="preserve" text-anchor="middle" x="855.12" y="-226.45" font-family="Segoe UI" font-size="9.00">y Actuadores</text>
</g>
<!-- J1_AF&#45;&gt;J2_AF -->
<g id="edge3" class="edge">
<title>J1_AF&#45;&gt;J2_AF</title>
<path fill="none" stroke="#34495e" stroke-width="1.2" d="M676.31,-235C709.93,-235 748.15,-235 780.51,-235"/>
<polygon fill="#34495e" stroke="#34495e" stroke-width="1.2" points="780.1,-237.8 788.1,-235 780.1,-232.2 780.1,-237.8"/>
<text xml:space="preserve" text-anchor="middle" x="732.07" y="-238.2" font-family="Times New Roman,serif" font-size="14.00"> SÍ</text>
</g>
<!-- M1_AF -->
<g id="node8" class="node">
<title>M1_AF</title>
<polygon fill="#ffffff" stroke="#2c3e50" stroke-width="1.5" points="919.92,-69.2 790.32,-69.2 790.32,-18.8 919.92,-18.8 919.92,-69.2"/>
<text xml:space="preserve" text-anchor="middle" x="855.12" y="-48.2" font-family="Segoe UI" font-size="9.00">Lavado de Inyectores</text>
<text xml:space="preserve" text-anchor="middle" x="855.12" y="-35.45" font-family="Segoe UI" font-size="9.00">(Presurizado/Boyita)</text>
</g>
<!-- J1_AF&#45;&gt;M1_AF -->
<g id="edge4" class="edge">
<title>J1_AF&#45;&gt;M1_AF</title>
<path fill="none" stroke="#34495e" stroke-width="1.2" d="M630.76,-221.38C644.64,-216.19 660.15,-209.85 673.82,-203 714.89,-182.42 732.77,-183.99 761.32,-148 779.14,-125.54 764.26,-109.27 782.32,-87 785.58,-82.98 789.32,-79.25 793.35,-75.8"/>
<polygon fill="#34495e" stroke="#34495e" stroke-width="1.2" points="794.88,-78.16 799.44,-71.01 791.42,-73.75 794.88,-78.16"/>
<text xml:space="preserve" text-anchor="middle" x="732.07" y="-192.81" font-family="Times New Roman,serif" font-size="14.00"> NO</text>
</g>
<!-- J2_AF&#45;&gt;M1_AF -->
<g id="edge5" class="edge">
<title>J2_AF&#45;&gt;M1_AF</title>
<path fill="none" stroke="#34495e" stroke-width="1.2" d="M789.9,-210.52C763.22,-196.58 735.73,-176.03 723.33,-147.25 708.2,-112.13 743.42,-85.84 781.24,-68.58"/>
<polygon fill="#34495e" stroke="#34495e" stroke-width="1.2" points="781.97,-71.32 788.18,-65.55 779.73,-66.19 781.97,-71.32"/>
<text xml:space="preserve" text-anchor="middle" x="732.07" y="-133.95" font-family="Times New Roman,serif" font-size="14.00"> Corregido</text>
</g>
<!-- J3_AF -->
<g id="node7" class="node">
<title>J3_AF</title>
<polygon fill="#ffffff" stroke="#2c3e50" stroke-width="1.5" points="654.62,-346.2 525.02,-346.2 525.02,-295.8 654.62,-295.8 654.62,-346.2"/>
<text xml:space="preserve" text-anchor="middle" x="589.82" y="-325.2" font-family="Segoe UI" font-size="9.00">Validación de Emisiones</text>
<text xml:space="preserve" text-anchor="middle" x="589.82" y="-312.45" font-family="Segoe UI" font-size="9.00">y Marcha Mínima</text>
</g>
<!-- J3_AF&#45;&gt;A2_AF -->
<g id="edge15" class="edge">
<title>J3_AF&#45;&gt;A2_AF</title>
<path fill="none" stroke="#34495e" stroke-width="1.2" d="M524.3,-307.07C459.32,-295.19 356.43,-282.26 268.73,-297.5 234.7,-303.41 198.42,-315.67 168.49,-327.54"/>
<polygon fill="#34495e" stroke="#34495e" stroke-width="1.2" points="167.47,-324.93 161.1,-330.52 169.56,-330.12 167.47,-324.93"/>
<text xml:space="preserve" text-anchor="middle" x="333.53" y="-300.7" font-family="Times New Roman,serif" font-size="14.00"> OK</text>
</g>
<!-- S1_AF -->
<g id="node13" class="node">
<title>S1_AF</title>
<polygon fill="#fff9c4" stroke="#2c3e50" stroke-width="1.5" points="101.74,-77.2 16,-52 101.74,-26.8 187.48,-52 101.74,-77.2"/>
<text xml:space="preserve" text-anchor="middle" x="101.74" y="-49.83" font-family="Segoe UI" font-size="9.00">¿Kit Completo en Stock?</text>
</g>
<!-- M1_AF&#45;&gt;S1_AF -->
<g id="edge6" class="edge">
<title>M1_AF&#45;&gt;S1_AF</title>
<path fill="none" stroke="#34495e" stroke-width="1.2" d="M789.84,-43.15C674.82,-41.86 426.18,-40.14 216.48,-46 206.26,-46.29 195.54,-46.7 184.92,-47.18"/>
<polygon fill="#34495e" stroke="#34495e" stroke-width="1.2" points="184.9,-44.38 177.04,-47.55 185.16,-49.97 184.9,-44.38"/>
<text xml:space="preserve" text-anchor="middle" x="452.08" y="-45.58" font-family="Times New Roman,serif" font-size="14.00"> Solicitar</text>
</g>
<!-- M2_AF -->
<g id="node9" class="node">
<title>M2_AF</title>
<polygon fill="#ffffff" stroke="#2c3e50" stroke-width="1.5" points="919.92,-155.2 790.32,-155.2 790.32,-104.8 919.92,-104.8 919.92,-155.2"/>
<text xml:space="preserve" text-anchor="middle" x="855.12" y="-134.2" font-family="Segoe UI" font-size="9.00">Limpieza de Cuerpo de</text>
<text xml:space="preserve" text-anchor="middle" x="855.12" y="-121.45" font-family="Segoe UI" font-size="9.00">Aceleración y MAF</text>
</g>
<!-- M3_AF -->
<g id="node10" class="node">
<title>M3_AF</title>
<polygon fill="#ffffff" stroke="#2c3e50" stroke-width="1.5" points="1108.52,-155.2 978.92,-155.2 978.92,-104.8 1108.52,-104.8 1108.52,-155.2"/>
<text xml:space="preserve" text-anchor="middle" x="1043.72" y="-134.2" font-family="Segoe UI" font-size="9.00">Cambio de Bujías,</text>
<text xml:space="preserve" text-anchor="middle" x="1043.72" y="-121.45" font-family="Segoe UI" font-size="9.00">Filtros y Aceite</text>
</g>
<!-- M2_AF&#45;&gt;M3_AF -->
<g id="edge11" class="edge">
<title>M2_AF&#45;&gt;M3_AF</title>
<path fill="none" stroke="#34495e" stroke-width="1.2" d="M920.6,-130C936.04,-130 952.65,-130 968.49,-130"/>
<polygon fill="#34495e" stroke="#34495e" stroke-width="1.2" points="968.42,-132.8 976.42,-130 968.42,-127.2 968.42,-132.8"/>
</g>
<!-- M4_AF -->
<g id="node11" class="node">
<title>M4_AF</title>
<polygon fill="#ffffff" stroke="#2c3e50" stroke-width="1.5" points="1297.12,-155.2 1167.52,-155.2 1167.52,-104.8 1297.12,-104.8 1297.12,-155.2"/>
<text xml:space="preserve" text-anchor="middle" x="1232.32" y="-134.2" font-family="Segoe UI" font-size="9.00">Aprendizaje de Cuerpo</text>
<text xml:space="preserve" text-anchor="middle" x="1232.32" y="-121.45" font-family="Segoe UI" font-size="9.00">(Relenty con Scanner)</text>
</g>
<!-- M3_AF&#45;&gt;M4_AF -->
<g id="edge12" class="edge">
<title>M3_AF&#45;&gt;M4_AF</title>
<path fill="none" stroke="#34495e" stroke-width="1.2" d="M1109.2,-130C1124.64,-130 1141.25,-130 1157.09,-130"/>
<polygon fill="#34495e" stroke="#34495e" stroke-width="1.2" points="1157.02,-132.8 1165.02,-130 1157.02,-127.2 1157.02,-132.8"/>
</g>
<!-- M5_AF -->
<g id="node12" class="node">
<title>M5_AF</title>
<polygon fill="#ffffff" stroke="#2c3e50" stroke-width="1.5" points="1485.72,-155.2 1356.12,-155.2 1356.12,-104.8 1485.72,-104.8 1485.72,-155.2"/>
<text xml:space="preserve" text-anchor="middle" x="1420.92" y="-134.2" font-family="Segoe UI" font-size="9.00">Carga de Evidencia</text>
<text xml:space="preserve" text-anchor="middle" x="1420.92" y="-121.45" font-family="Segoe UI" font-size="9.00">en Notion (Antes/Después)</text>
</g>
<!-- M4_AF&#45;&gt;M5_AF -->
<g id="edge13" class="edge">
<title>M4_AF&#45;&gt;M5_AF</title>
<path fill="none" stroke="#34495e" stroke-width="1.2" d="M1297.8,-130C1313.24,-130 1329.85,-130 1345.69,-130"/>
<polygon fill="#34495e" stroke="#34495e" stroke-width="1.2" points="1345.62,-132.8 1353.62,-130 1345.62,-127.2 1345.62,-132.8"/>
</g>
<!-- M5_AF&#45;&gt;J3_AF -->
<g id="edge14" class="edge">
<title>M5_AF&#45;&gt;J3_AF</title>
<path fill="none" stroke="#34495e" stroke-width="1.2" d="M1409.01,-155.75C1385.27,-207.23 1323.68,-318 1233.32,-318 854.12,-318 854.12,-318 854.12,-318 790.21,-318 717.58,-318.89 664.82,-319.71"/>
<polygon fill="#34495e" stroke="#34495e" stroke-width="1.2" points="664.98,-316.9 657.02,-319.83 665.06,-322.5 664.98,-316.9"/>
</g>
<!-- S2_AF -->
<g id="node14" class="node">
<title>S2_AF</title>
<polygon fill="#ffffff" stroke="#2c3e50" stroke-width="1.5" points="654.62,-132.2 525.02,-132.2 525.02,-81.8 654.62,-81.8 654.62,-132.2"/>
<text xml:space="preserve" text-anchor="middle" x="589.82" y="-111.2" font-family="Segoe UI" font-size="9.00">Surtir Kit: Bujías, Aceite,</text>
<text xml:space="preserve" text-anchor="middle" x="589.82" y="-98.45" font-family="Segoe UI" font-size="9.00">Filtros y Limpiadores</text>
</g>
<!-- S1_AF&#45;&gt;S2_AF -->
<g id="edge9" class="edge">
<title>S1_AF&#45;&gt;S2_AF</title>
<path fill="none" stroke="#34495e" stroke-width="1.2" d="M183.56,-53.92C244.89,-56.11 331.18,-60.74 406.33,-70.5 442.34,-75.18 481.92,-82.78 514.98,-89.85"/>
<polygon fill="#34495e" stroke="#34495e" stroke-width="1.2" points="514.38,-92.58 522.79,-91.53 515.56,-87.11 514.38,-92.58"/>
<text xml:space="preserve" text-anchor="middle" x="333.53" y="-73.7" font-family="Times New Roman,serif" font-size="14.00"> SÍ</text>
</g>
<!-- S3_AF -->
<g id="node15" class="node">
<title>S3_AF</title>
<polygon fill="#ffffff" stroke="#2c3e50" stroke-width="1.5" points="398.33,-155.2 268.73,-155.2 268.73,-104.8 398.33,-104.8 398.33,-155.2"/>
<text xml:space="preserve" text-anchor="middle" x="333.53" y="-134.2" font-family="Segoe UI" font-size="9.00">Solicitar Compra</text>
<text xml:space="preserve" text-anchor="middle" x="333.53" y="-121.45" font-family="Segoe UI" font-size="9.00">Urgente</text>
</g>
<!-- S1_AF&#45;&gt;S3_AF -->
<g id="edge7" class="edge">
<title>S1_AF&#45;&gt;S3_AF</title>
<path fill="none" stroke="#34495e" stroke-width="1.2" d="M143.29,-65.77C175.26,-76.62 220.68,-92.03 259.01,-105.05"/>
<polygon fill="#34495e" stroke="#34495e" stroke-width="1.2" points="257.89,-107.62 266.36,-107.54 259.69,-102.32 257.89,-107.62"/>
<text xml:space="preserve" text-anchor="middle" x="228.1" y="-101.19" font-family="Times New Roman,serif" font-size="14.00"> NO</text>
</g>
<!-- S2_AF&#45;&gt;M2_AF -->
<g id="edge10" class="edge">
<title>S2_AF&#45;&gt;M2_AF</title>
<path fill="none" stroke="#34495e" stroke-width="1.2" d="M655.23,-112.63C693.15,-115.94 741.23,-120.14 780.62,-123.58"/>
<polygon fill="#34495e" stroke="#34495e" stroke-width="1.2" points="779.9,-126.33 788.11,-124.23 780.38,-120.75 779.9,-126.33"/>
</g>
<!-- S3_AF&#45;&gt;S2_AF -->
<g id="edge8" class="edge">
<title>S3_AF&#45;&gt;S2_AF</title>
<path fill="none" stroke="#34495e" stroke-width="1.2" d="M399.03,-124.17C434.28,-120.98 478.1,-117.01 514.75,-113.7"/>
<polygon fill="#34495e" stroke="#34495e" stroke-width="1.2" points="514.87,-116.5 522.59,-112.99 514.37,-110.92 514.87,-116.5"/>
</g>
</g>
</svg>
