<?xml version="1.0" encoding="UTF-8" standalone="no"?>
<!DOCTYPE svg PUBLIC "-//W3C//DTD SVG 1.1//EN"
 "http://www.w3.org/Graphics/SVG/1.1/DTD/svg11.dtd">
<!-- Generated by graphviz version 14.1.2 (20260124.0452)
 -->
<!-- Title: Flechas_Final Pages: 1 -->
<svg width="1526pt" height="599pt"
 viewBox="0.00 0.00 1526.00 599.00" xmlns="http://www.w3.org/2000/svg" xmlns:xlink="http://www.w3.org/1999/xlink">
<g id="graph0" class="graph" transform="scale(1 1) rotate(0) translate(4 594.5)">
<title>Flechas_Final</title>
<polygon fill="#ffffff" stroke="none" points="-4,4 -4,-594.5 1521.72,-594.5 1521.72,4 -4,4"/>
<text xml:space="preserve" text-anchor="middle" x="758.86" y="-571.3" font-family="Segoe UI Bold" font-size="16.00" fill="#1a1a1a">DIAGRAMA DE PROCESO: CAMBIO DE FLECHAS (CV AXLE) &#45; SOP</text>
<text xml:space="preserve" text-anchor="middle" x="758.86" y="-548.8" font-family="Segoe UI Bold" font-size="16.00" fill="#1a1a1a">SYNER GROUP | CLIENTE: BJX MOTORS | 2026</text>
<text xml:space="preserve" text-anchor="middle" x="758.86" y="-526.3" font-family="Segoe UI Bold" font-size="16.00" fill="#1a1a1a"> </text>
<g id="clust1" class="cluster">
<title>cluster_asesora</title>
<polygon fill="#f4f9fd" stroke="#2980b9" points="31.85,-324 31.85,-507 412.15,-507 412.15,-324 31.85,-324"/>
<text xml:space="preserve" text-anchor="middle" x="222" y="-487.8" font-family="Segoe UI Bold" font-size="16.00" fill="#1a1a1a">Asesora de Servicios</text>
</g>
<g id="clust2" class="cluster">
<title>cluster_jefe</title>
<polygon fill="#f8f9f9" stroke="#7f8c8d" points="503.65,-202 503.65,-385 943.92,-385 943.92,-202 503.65,-202"/>
<text xml:space="preserve" text-anchor="middle" x="723.78" y="-365.8" font-family="Segoe UI Bold" font-size="16.00" fill="#1a1a1a">Jefe de Mecánicos</text>
</g>
<g id="clust3" class="cluster">
<title>cluster_mecanico</title>
<polygon fill="#f1fcf4" stroke="#27ae60" points="798.32,-11 798.32,-194 1509.72,-194 1509.72,-11 798.32,-11"/>
<text xml:space="preserve" text-anchor="middle" x="1154.02" y="-174.8" font-family="Segoe UI Bold" font-size="16.00" fill="#1a1a1a">Mecánico</text>
</g>
<g id="clust4" class="cluster">
<title>cluster_almacen</title>
<polygon fill="#fffdf9" stroke="#f39c12" points="8,-8 8,-194 691.16,-194 691.16,-8 8,-8"/>
<text xml:space="preserve" text-anchor="middle" x="349.58" y="-174.8" font-family="Segoe UI Bold" font-size="16.00" fill="#1a1a1a">Almacén</text>
</g>
<!-- ST_FL -->
<g id="node1" class="node">
<title>ST_FL</title>
<ellipse fill="#27ae60" stroke="#2c3e50" stroke-width="1.5" cx="104.65" cy="-443" rx="64.8" ry="25.2"/>
<text xml:space="preserve" text-anchor="middle" x="104.65" y="-440.82" font-family="Segoe UI" font-size="9.00" fill="white">INICIO</text>
</g>
<!-- A1_FL -->
<g id="node2" class="node">
<title>A1_FL</title>
<polygon fill="#ffffff" stroke="#2c3e50" stroke-width="1.5" points="404.15,-468.2 274.55,-468.2 274.55,-417.8 404.15,-417.8 404.15,-468.2"/>
<text xml:space="preserve" text-anchor="middle" x="339.35" y="-447.2" font-family="Segoe UI" font-size="9.00">Recepción: Tronido al Girar</text>
<text xml:space="preserve" text-anchor="middle" x="339.35" y="-434.45" font-family="Segoe UI" font-size="9.00">o Vibración en Tracción</text>
</g>
<!-- ST_FL&#45;&gt;A1_FL -->
<g id="edge1" class="edge">
<title>ST_FL&#45;&gt;A1_FL</title>
<path fill="none" stroke="#34495e" stroke-width="1.2" d="M170.16,-443C199.41,-443 234.15,-443 264.45,-443"/>
<polygon fill="#34495e" stroke="#34495e" stroke-width="1.2" points="264.3,-445.8 272.3,-443 264.3,-440.2 264.3,-445.8"/>
</g>
<!-- J1_FL -->
<g id="node5" class="node">
<title>J1_FL</title>
<polygon fill="#fff9c4" stroke="#2c3e50" stroke-width="1.5" points="618.36,-260.2 511.65,-235 618.36,-209.8 725.07,-235 618.36,-260.2"/>
<text xml:space="preserve" text-anchor="middle" x="618.36" y="-239.2" font-family="Segoe UI" font-size="9.00">Inspección: ¿Cubrepolvo</text>
<text xml:space="preserve" text-anchor="middle" x="618.36" y="-226.45" font-family="Segoe UI" font-size="9.00">Roto o Fuga de Grasa?</text>
</g>
<!-- A1_FL&#45;&gt;J1_FL -->
<g id="edge2" class="edge">
<title>A1_FL&#45;&gt;J1_FL</title>
<path fill="none" stroke="#34495e" stroke-width="1.2" d="M389.27,-417.22C397.3,-412.03 405.24,-406.23 412.15,-400 462.5,-354.63 449.46,-318.72 503.65,-278 518.88,-266.56 537.51,-257.84 555.24,-251.34"/>
<polygon fill="#34495e" stroke="#34495e" stroke-width="1.2" points="556.06,-254.02 562.7,-248.74 554.22,-248.73 556.06,-254.02"/>
</g>
<!-- A2_FL -->
<g id="node3" class="node">
<title>A2_FL</title>
<polygon fill="#ffffff" stroke="#2c3e50" stroke-width="1.5" points="169.45,-382.2 39.85,-382.2 39.85,-331.8 169.45,-331.8 169.45,-382.2"/>
<text xml:space="preserve" text-anchor="middle" x="104.65" y="-361.2" font-family="Segoe UI" font-size="9.00">Cierre de Orden y</text>
<text xml:space="preserve" text-anchor="middle" x="104.65" y="-348.45" font-family="Segoe UI" font-size="9.00">Validación de Silencio</text>
</g>
<!-- END_FL -->
<g id="node4" class="node">
<title>END_FL</title>
<ellipse fill="#c0392b" stroke="#2c3e50" stroke-width="1.5" cx="339.35" cy="-357" rx="64.8" ry="25.2"/>
<text xml:space="preserve" text-anchor="middle" x="339.35" y="-354.82" font-family="Segoe UI" font-size="9.00" fill="white">FIN</text>
</g>
<!-- A2_FL&#45;&gt;END_FL -->
<g id="edge16" class="edge">
<title>A2_FL&#45;&gt;END_FL</title>
<path fill="none" stroke="#34495e" stroke-width="1.2" d="M170.16,-357C199.41,-357 234.15,-357 264.45,-357"/>
<polygon fill="#34495e" stroke="#34495e" stroke-width="1.2" points="264.3,-359.8 272.3,-357 264.3,-354.2 264.3,-359.8"/>
</g>
<!-- J2_FL -->
<g id="node6" class="node">
<title>J2_FL</title>
<polygon fill="#ffffff" stroke="#2c3e50" stroke-width="1.5" points="935.92,-260.2 806.32,-260.2 806.32,-209.8 935.92,-209.8 935.92,-260.2"/>
<text xml:space="preserve" text-anchor="middle" x="871.12" y="-239.2" font-family="Segoe UI" font-size="9.00">Diagnóstico de Tripoides</text>
<text xml:space="preserve" text-anchor="middle" x="871.12" y="-226.45" font-family="Segoe UI" font-size="9.00">y Baleros Internos</text>
</g>
<!-- J1_FL&#45;&gt;J2_FL -->
<g id="edge3" class="edge">
<title>J1_FL&#45;&gt;J2_FL</title>
<path fill="none" stroke="#34495e" stroke-width="1.2" d="M728.25,-235C751.18,-235 774.85,-235 796.13,-235"/>
<polygon fill="#34495e" stroke="#34495e" stroke-width="1.2" points="795.91,-237.8 803.91,-235 795.91,-232.2 795.91,-237.8"/>
<text xml:space="preserve" text-anchor="middle" x="765.69" y="-238.2" font-family="Times New Roman,serif" font-size="14.00"> SÍ</text>
</g>
<!-- M1_FL -->
<g id="node8" class="node">
<title>M1_FL</title>
<polygon fill="#ffffff" stroke="#2c3e50" stroke-width="1.5" points="935.92,-69.2 806.32,-69.2 806.32,-18.8 935.92,-18.8 935.92,-69.2"/>
<text xml:space="preserve" text-anchor="middle" x="871.12" y="-48.2" font-family="Segoe UI" font-size="9.00">Desmontaje de Rueda,</text>
<text xml:space="preserve" text-anchor="middle" x="871.12" y="-35.45" font-family="Segoe UI" font-size="9.00">Maza y Flecha Dañada</text>
</g>
<!-- J1_FL&#45;&gt;M1_FL -->
<g id="edge4" class="edge">
<title>J1_FL&#45;&gt;M1_FL</title>
<path fill="none" stroke="#34495e" stroke-width="1.2" d="M677.9,-223.1C693.92,-218.33 710.79,-211.81 725.07,-203 753.77,-185.31 759.82,-176.82 777.32,-148 792.2,-123.49 780.26,-109.27 798.32,-87 801.58,-82.98 805.32,-79.25 809.35,-75.8"/>
<polygon fill="#34495e" stroke="#34495e" stroke-width="1.2" points="810.88,-78.16 815.44,-71.01 807.42,-73.75 810.88,-78.16"/>
<text xml:space="preserve" text-anchor="middle" x="765.69" y="-183.82" font-family="Times New Roman,serif" font-size="14.00"> NO</text>
</g>
<!-- J2_FL&#45;&gt;M1_FL -->
<g id="edge5" class="edge">
<title>J2_FL&#45;&gt;M1_FL</title>
<path fill="none" stroke="#34495e" stroke-width="1.2" d="M805.64,-209.22C803.06,-207.28 800.6,-205.21 798.32,-203 778.58,-183.89 777.72,-174.04 771.64,-147.25 764.95,-117.77 786.99,-93.03 812.01,-75.16"/>
<polygon fill="#34495e" stroke="#34495e" stroke-width="1.2" points="813.3,-77.67 818.34,-70.86 810.15,-73.04 813.3,-77.67"/>
<text xml:space="preserve" text-anchor="middle" x="765.69" y="-133.95" font-family="Times New Roman,serif" font-size="14.00"> OK</text>
</g>
<!-- J3_FL -->
<g id="node7" class="node">
<title>J3_FL</title>
<polygon fill="#ffffff" stroke="#2c3e50" stroke-width="1.5" points="683.16,-346.2 553.56,-346.2 553.56,-295.8 683.16,-295.8 683.16,-346.2"/>
<text xml:space="preserve" text-anchor="middle" x="618.36" y="-325.2" font-family="Segoe UI" font-size="9.00">Verificación de Apriete</text>
<text xml:space="preserve" text-anchor="middle" x="618.36" y="-312.45" font-family="Segoe UI" font-size="9.00">y Juego Longitudinal</text>
</g>
<!-- J3_FL&#45;&gt;A2_FL -->
<g id="edge15" class="edge">
<title>J3_FL&#45;&gt;A2_FL</title>
<path fill="none" stroke="#34495e" stroke-width="1.2" d="M553.09,-307.57C483.86,-295.21 370.69,-281.06 274.55,-297.5 239.82,-303.44 202.75,-315.78 172.21,-327.69"/>
<polygon fill="#34495e" stroke="#34495e" stroke-width="1.2" points="171.45,-324.97 165.05,-330.52 173.52,-330.18 171.45,-324.97"/>
<text xml:space="preserve" text-anchor="middle" x="339.35" y="-300.7" font-family="Times New Roman,serif" font-size="14.00"> OK</text>
</g>
<!-- S1_FL -->
<g id="node13" class="node">
<title>S1_FL</title>
<polygon fill="#fff9c4" stroke="#2c3e50" stroke-width="1.5" points="104.65,-77.2 16,-52 104.65,-26.8 193.3,-52 104.65,-77.2"/>
<text xml:space="preserve" text-anchor="middle" x="104.65" y="-49.83" font-family="Segoe UI" font-size="9.00">¿Flecha/Espiga en Stock?</text>
</g>
<!-- M1_FL&#45;&gt;S1_FL -->
<g id="edge6" class="edge">
<title>M1_FL&#45;&gt;S1_FL</title>
<path fill="none" stroke="#34495e" stroke-width="1.2" d="M805.74,-43.48C689.3,-42.73 435.93,-41.93 222.3,-47 212.62,-47.23 202.5,-47.55 192.43,-47.91"/>
<polygon fill="#34495e" stroke="#34495e" stroke-width="1.2" points="192.52,-45.11 184.63,-48.21 192.73,-50.7 192.52,-45.11"/>
<text xml:space="preserve" text-anchor="middle" x="457.9" y="-46.93" font-family="Times New Roman,serif" font-size="14.00"> Solicitar</text>
</g>
<!-- M2_FL -->
<g id="node9" class="node">
<title>M2_FL</title>
<polygon fill="#ffffff" stroke="#2c3e50" stroke-width="1.5" points="935.92,-155.2 806.32,-155.2 806.32,-104.8 935.92,-104.8 935.92,-155.2"/>
<text xml:space="preserve" text-anchor="middle" x="871.12" y="-134.2" font-family="Segoe UI" font-size="9.00">Limpieza de Estrías y</text>
<text xml:space="preserve" text-anchor="middle" x="871.12" y="-121.45" font-family="Segoe UI" font-size="9.00">Retenes de Transmisión</text>
</g>
<!-- M3_FL -->
<g id="node10" class="node">
<title>M3_FL</title>
<polygon fill="#ffffff" stroke="#2c3e50" stroke-width="1.5" points="1124.52,-155.2 994.92,-155.2 994.92,-104.8 1124.52,-104.8 1124.52,-155.2"/>
<text xml:space="preserve" text-anchor="middle" x="1059.72" y="-134.2" font-family="Segoe UI" font-size="9.00">Instalación de Flecha</text>
<text xml:space="preserve" text-anchor="middle" x="1059.72" y="-121.45" font-family="Segoe UI" font-size="9.00">Nueva y Seguro de Maza</text>
</g>
<!-- M2_FL&#45;&gt;M3_FL -->
<g id="edge11" class="edge">
<title>M2_FL&#45;&gt;M3_FL</title>
<path fill="none" stroke="#34495e" stroke-width="1.2" d="M936.6,-130C952.04,-130 968.65,-130 984.49,-130"/>
<polygon fill="#34495e" stroke="#34495e" stroke-width="1.2" points="984.42,-132.8 992.42,-130 984.42,-127.2 984.42,-132.8"/>
</g>
<!-- M4_FL -->
<g id="node11" class="node">
<title>M4_FL</title>
<polygon fill="#ffffff" stroke="#2c3e50" stroke-width="1.5" points="1313.12,-155.2 1183.52,-155.2 1183.52,-104.8 1313.12,-104.8 1313.12,-155.2"/>
<text xml:space="preserve" text-anchor="middle" x="1248.32" y="-134.2" font-family="Segoe UI" font-size="9.00">Reponer Nivel de Aceite</text>
<text xml:space="preserve" text-anchor="middle" x="1248.32" y="-121.45" font-family="Segoe UI" font-size="9.00">de Caja (Si Aplica)</text>
</g>
<!-- M3_FL&#45;&gt;M4_FL -->
<g id="edge12" class="edge">
<title>M3_FL&#45;&gt;M4_FL</title>
<path fill="none" stroke="#34495e" stroke-width="1.2" d="M1125.2,-130C1140.64,-130 1157.25,-130 1173.09,-130"/>
<polygon fill="#34495e" stroke="#34495e" stroke-width="1.2" points="1173.02,-132.8 1181.02,-130 1173.02,-127.2 1173.02,-132.8"/>
</g>
<!-- M5_FL -->
<g id="node12" class="node">
<title>M5_FL</title>
<polygon fill="#ffffff" stroke="#2c3e50" stroke-width="1.5" points="1501.72,-155.2 1372.12,-155.2 1372.12,-104.8 1501.72,-104.8 1501.72,-155.2"/>
<text xml:space="preserve" text-anchor="middle" x="1436.92" y="-134.2" font-family="Segoe UI" font-size="9.00">Carga de Evidencia</text>
<text xml:space="preserve" text-anchor="middle" x="1436.92" y="-121.45" font-family="Segoe UI" font-size="9.00">en Notion (Fotos)</text>
</g>
<!-- M4_FL&#45;&gt;M5_FL -->
<g id="edge13" class="edge">
<title>M4_FL&#45;&gt;M5_FL</title>
<path fill="none" stroke="#34495e" stroke-width="1.2" d="M1313.8,-130C1329.24,-130 1345.85,-130 1361.69,-130"/>
<polygon fill="#34495e" stroke="#34495e" stroke-width="1.2" points="1361.62,-132.8 1369.62,-130 1361.62,-127.2 1361.62,-132.8"/>
</g>
<!-- M5_FL&#45;&gt;J3_FL -->
<g id="edge14" class="edge">
<title>M5_FL&#45;&gt;J3_FL</title>
<path fill="none" stroke="#34495e" stroke-width="1.2" d="M1425.01,-155.75C1401.26,-207.23 1339.68,-318 1249.32,-318 870.12,-318 870.12,-318 870.12,-318 810.73,-318 743.44,-318.85 693.52,-319.65"/>
<polygon fill="#34495e" stroke="#34495e" stroke-width="1.2" points="693.55,-316.85 685.59,-319.78 693.64,-322.45 693.55,-316.85"/>
</g>
<!-- S2_FL -->
<g id="node14" class="node">
<title>S2_FL</title>
<polygon fill="#ffffff" stroke="#2c3e50" stroke-width="1.5" points="683.16,-132.2 553.56,-132.2 553.56,-81.8 683.16,-81.8 683.16,-132.2"/>
<text xml:space="preserve" text-anchor="middle" x="618.36" y="-111.2" font-family="Segoe UI" font-size="9.00">Surtir Flecha Completa,</text>
<text xml:space="preserve" text-anchor="middle" x="618.36" y="-98.45" font-family="Segoe UI" font-size="9.00">Grasa y Abrazaderas</text>
</g>
<!-- S1_FL&#45;&gt;S2_FL -->
<g id="edge9" class="edge">
<title>S1_FL&#45;&gt;S2_FL</title>
<path fill="none" stroke="#34495e" stroke-width="1.2" d="M187.51,-54.37C249.38,-56.78 336.32,-61.5 412.15,-70.5 456.06,-75.71 504.81,-84.27 543.77,-91.78"/>
<polygon fill="#34495e" stroke="#34495e" stroke-width="1.2" points="542.78,-94.44 551.16,-93.22 543.85,-88.94 542.78,-94.44"/>
<text xml:space="preserve" text-anchor="middle" x="339.35" y="-73.7" font-family="Times New Roman,serif" font-size="14.00"> SÍ</text>
</g>
<!-- S3_FL -->
<g id="node15" class="node">
<title>S3_FL</title>
<polygon fill="#ffffff" stroke="#2c3e50" stroke-width="1.5" points="404.15,-155.2 274.55,-155.2 274.55,-104.8 404.15,-104.8 404.15,-155.2"/>
<text xml:space="preserve" text-anchor="middle" x="339.35" y="-134.2" font-family="Segoe UI" font-size="9.00">Solicitar Compra</text>
<text xml:space="preserve" text-anchor="middle" x="339.35" y="-121.45" font-family="Segoe UI" font-size="9.00">Urgente</text>
</g>
<!-- S1_FL&#45;&gt;S3_FL -->
<g id="edge7" class="edge">
<title>S1_FL&#45;&gt;S3_FL</title>
<path fill="none" stroke="#34495e" stroke-width="1.2" d="M146.98,-65.85C179.63,-76.8 226.01,-92.34 264.93,-105.39"/>
<polygon fill="#34495e" stroke="#34495e" stroke-width="1.2" points="263.94,-108.01 272.42,-107.9 265.72,-102.7 263.94,-108.01"/>
<text xml:space="preserve" text-anchor="middle" x="233.92" y="-101.19" font-family="Times New Roman,serif" font-size="14.00"> NO</text>
</g>
<!-- S2_FL&#45;&gt;M2_FL -->
<g id="edge10" class="edge">
<title>S2_FL&#45;&gt;M2_FL</title>
<path fill="none" stroke="#34495e" stroke-width="1.2" d="M683.61,-112.89C717.98,-116.05 760.46,-119.94 796.19,-123.22"/>
<polygon fill="#34495e" stroke="#34495e" stroke-width="1.2" points="795.57,-125.97 803.79,-123.92 796.08,-120.4 795.57,-125.97"/>
</g>
<!-- S3_FL&#45;&gt;S2_FL -->
<g id="edge8" class="edge">
<title>S3_FL&#45;&gt;S2_FL</title>
<path fill="none" stroke="#34495e" stroke-width="1.2" d="M404.6,-124.67C446.05,-121.22 500.11,-116.74 543.36,-113.14"/>
<polygon fill="#34495e" stroke="#34495e" stroke-width="1.2" points="543.43,-115.95 551.17,-112.5 542.96,-110.37 543.43,-115.95"/>
</g>
</g>
</svg>
