<?xml version="1.0" encoding="UTF-8" standalone="no"?>
<!DOCTYPE svg PUBLIC "-//W3C//DTD SVG 1.1//EN"
 "http://www.w3.org/Graphics/SVG/1.1/DTD/svg11.dtd">
<!-- Generated by graphviz version 14.1.2 (20260124.0452)
 -->
<!-- Title: Cambio_Llanta_Final Pages: 1 -->
<svg width="1267pt" height="725pt"
 viewBox="0.00 0.00 1267.00 725.00" xmlns="http://www.w3.org/2000/svg" xmlns:xlink="http://www.w3.org/1999/xlink">
<g id="graph0" class="graph" transform="scale(1 1) rotate(0) translate(4 720.78)">
<title>Cambio_Llanta_Final</title>
<polygon fill="#ffffff" stroke="none" points="-4,4 -4,-720.78 1263.06,-720.78 1263.06,4 -4,4"/>
<text xml:space="preserve" text-anchor="middle" x="629.53" y="-697.58" font-family="Segoe UI Bold" font-size="16.00" fill="#1a1a1a">DIAGRAMA DE PROCESO: CAMBIO DE LLANTA (SOP)</text>
<text xml:space="preserve" text-anchor="middle" x="629.53" y="-675.08" font-family="Segoe UI Bold" font-size="16.00" fill="#1a1a1a">SYNER GROUP | CLIENTE: BJX MOTORS | 2026</text>
<text xml:space="preserve" text-anchor="middle" x="629.53" y="-652.58" font-family="Segoe UI Bold" font-size="16.00" fill="#1a1a1a"> </text>
<g id="clust1" class="cluster">
<title>cluster_asesora</title>
<polygon fill="#f4f9fd" stroke="#2980b9" points="477.45,-450.28 477.45,-633.28 873.86,-633.28 873.86,-450.28 477.45,-450.28"/>
<text xml:space="preserve" text-anchor="middle" x="675.65" y="-614.08" font-family="Segoe UI Bold" font-size="16.00" fill="#1a1a1a">Asesora de Servicios</text>
</g>
<g id="clust2" class="cluster">
<title>cluster_jefe</title>
<polygon fill="#f8f9f9" stroke="#7f8c8d" points="228.14,-216.28 228.14,-399.28 873.86,-399.28 873.86,-216.28 228.14,-216.28"/>
<text xml:space="preserve" text-anchor="middle" x="551" y="-380.08" font-family="Segoe UI Bold" font-size="16.00" fill="#1a1a1a">Jefe de Mecánicos</text>
</g>
<g id="clust3" class="cluster">
<title>cluster_mecanico</title>
<polygon fill="#f1fcf4" stroke="#27ae60" points="728.26,-25.28 728.26,-208.28 1251.06,-208.28 1251.06,-25.28 728.26,-25.28"/>
<text xml:space="preserve" text-anchor="middle" x="989.66" y="-189.08" font-family="Segoe UI Bold" font-size="16.00" fill="#1a1a1a">Mecánico</text>
</g>
<g id="clust4" class="cluster">
<title>cluster_almacen</title>
<polygon fill="#fffdf9" stroke="#f39c12" points="8,-23.28 8,-208.28 623.05,-208.28 623.05,-23.28 8,-23.28"/>
<text xml:space="preserve" text-anchor="middle" x="315.52" y="-189.08" font-family="Segoe UI Bold" font-size="16.00" fill="#1a1a1a">Almacén</text>
</g>
<!-- ST_LL -->
<g id="node1" class="node">
<title>ST_LL</title>
<ellipse fill="#27ae60" stroke="#2c3e50" stroke-width="1.5" cx="550.25" cy="-483.28" rx="64.8" ry="25.2"/>
<text xml:space="preserve" text-anchor="middle" x="550.25" y="-481.1" font-family="Segoe UI" font-size="9.00" fill="white">INICIO</text>
</g>
<!-- A1_LL -->
<g id="node2" class="node">
<title>A1_LL</title>
<polygon fill="#ffffff" stroke="#2c3e50" stroke-width="1.5" points="865.86,-508.48 736.26,-508.48 736.26,-458.08 865.86,-458.08 865.86,-508.48"/>
<text xml:space="preserve" text-anchor="middle" x="801.06" y="-487.48" font-family="Segoe UI" font-size="9.00">Recepción de Unidad y</text>
<text xml:space="preserve" text-anchor="middle" x="801.06" y="-474.73" font-family="Segoe UI" font-size="9.00">Validación de Medida</text>
</g>
<!-- ST_LL&#45;&gt;A1_LL -->
<g id="edge1" class="edge">
<title>ST_LL&#45;&gt;A1_LL</title>
<path fill="none" stroke="#34495e" stroke-width="1.2" d="M615.65,-483.28C649.47,-483.28 691.08,-483.28 726.21,-483.28"/>
<polygon fill="#34495e" stroke="#34495e" stroke-width="1.2" points="726.11,-486.08 734.11,-483.28 726.11,-480.48 726.11,-486.08"/>
</g>
<!-- J1_LL -->
<g id="node5" class="node">
<title>J1_LL</title>
<polygon fill="#ffffff" stroke="#2c3e50" stroke-width="1.5" points="365.74,-274.48 236.14,-274.48 236.14,-224.08 365.74,-224.08 365.74,-274.48"/>
<text xml:space="preserve" text-anchor="middle" x="300.94" y="-253.48" font-family="Segoe UI" font-size="9.00">Inspección de Rin</text>
<text xml:space="preserve" text-anchor="middle" x="300.94" y="-240.73" font-family="Segoe UI" font-size="9.00">y Geometría</text>
</g>
<!-- A1_LL&#45;&gt;J1_LL -->
<g id="edge2" class="edge">
<title>A1_LL&#45;&gt;J1_LL</title>
<path fill="none" stroke="#34495e" stroke-width="1.2" d="M760.05,-457.59C743.92,-447.64 724.97,-436.46 707.26,-427.28 594.03,-368.57 457.28,-311.17 375.08,-278.06"/>
<polygon fill="#34495e" stroke="#34495e" stroke-width="1.2" points="376.47,-275.6 368,-275.22 374.38,-280.8 376.47,-275.6"/>
</g>
<!-- A2_LL -->
<g id="node3" class="node">
<title>A2_LL</title>
<polygon fill="#ffffff" stroke="#2c3e50" stroke-width="1.5" points="615.05,-594.48 485.45,-594.48 485.45,-544.08 615.05,-544.08 615.05,-594.48"/>
<text xml:space="preserve" text-anchor="middle" x="550.25" y="-573.48" font-family="Segoe UI" font-size="9.00">Cierre de Orden</text>
<text xml:space="preserve" text-anchor="middle" x="550.25" y="-560.73" font-family="Segoe UI" font-size="9.00">y Cobro en Sistema</text>
</g>
<!-- END_LL -->
<g id="node4" class="node">
<title>END_LL</title>
<ellipse fill="#c0392b" stroke="#2c3e50" stroke-width="1.5" cx="801.06" cy="-569.28" rx="64.8" ry="25.2"/>
<text xml:space="preserve" text-anchor="middle" x="801.06" y="-567.1" font-family="Segoe UI" font-size="9.00" fill="white">FIN</text>
</g>
<!-- A2_LL&#45;&gt;END_LL -->
<g id="edge16" class="edge">
<title>A2_LL&#45;&gt;END_LL</title>
<path fill="none" stroke="#34495e" stroke-width="1.2" d="M615.65,-569.28C649.47,-569.28 691.08,-569.28 726.21,-569.28"/>
<polygon fill="#34495e" stroke="#34495e" stroke-width="1.2" points="726.11,-572.08 734.11,-569.28 726.11,-566.48 726.11,-572.08"/>
</g>
<!-- J2_LL -->
<g id="node6" class="node">
<title>J2_LL</title>
<polygon fill="#fff9c4" stroke="#2c3e50" stroke-width="1.5" points="550.25,-274.48 473.24,-249.28 550.25,-224.08 627.26,-249.28 550.25,-274.48"/>
<text xml:space="preserve" text-anchor="middle" x="550.25" y="-247.1" font-family="Segoe UI" font-size="9.00">¿Rin en Buen Estado?</text>
</g>
<!-- J1_LL&#45;&gt;J2_LL -->
<g id="edge3" class="edge">
<title>J1_LL&#45;&gt;J2_LL</title>
<path fill="none" stroke="#34495e" stroke-width="1.2" d="M366.27,-249.28C395.32,-249.28 430.1,-249.28 461.5,-249.28"/>
<polygon fill="#34495e" stroke="#34495e" stroke-width="1.2" points="461.31,-252.08 469.31,-249.28 461.31,-246.48 461.31,-252.08"/>
</g>
<!-- J3_LL -->
<g id="node7" class="node">
<title>J3_LL</title>
<polygon fill="#ffffff" stroke="#2c3e50" stroke-width="1.5" points="865.86,-295.48 736.26,-295.48 736.26,-245.08 865.86,-245.08 865.86,-295.48"/>
<text xml:space="preserve" text-anchor="middle" x="801.06" y="-274.48" font-family="Segoe UI" font-size="9.00">Notificar Daño Estructural</text>
<text xml:space="preserve" text-anchor="middle" x="801.06" y="-261.73" font-family="Segoe UI" font-size="9.00">a Cliente</text>
</g>
<!-- J2_LL&#45;&gt;J3_LL -->
<g id="edge4" class="edge">
<title>J2_LL&#45;&gt;J3_LL</title>
<path fill="none" stroke="#34495e" stroke-width="1.2" d="M613.39,-254.52C647.61,-257.41 690.3,-261.02 726.22,-264.05"/>
<polygon fill="#34495e" stroke="#34495e" stroke-width="1.2" points="725.66,-266.81 733.86,-264.69 726.13,-261.23 725.66,-266.81"/>
<text xml:space="preserve" text-anchor="middle" x="681.76" y="-265.48" font-family="Times New Roman,serif" font-size="14.00"> NO</text>
</g>
<!-- M1_LL -->
<g id="node9" class="node">
<title>M1_LL</title>
<polygon fill="#ffffff" stroke="#2c3e50" stroke-width="1.5" points="865.86,-83.48 736.26,-83.48 736.26,-33.08 865.86,-33.08 865.86,-83.48"/>
<text xml:space="preserve" text-anchor="middle" x="801.06" y="-62.48" font-family="Segoe UI" font-size="9.00">Desmontaje de</text>
<text xml:space="preserve" text-anchor="middle" x="801.06" y="-49.73" font-family="Segoe UI" font-size="9.00">Llanta Dañada</text>
</g>
<!-- J2_LL&#45;&gt;M1_LL -->
<g id="edge5" class="edge">
<title>J2_LL&#45;&gt;M1_LL</title>
<path fill="none" stroke="#34495e" stroke-width="1.2" d="M590.55,-236.69C602.93,-231.72 616.24,-225.25 627.26,-217.28 682.64,-177.2 675.84,-145.16 728.26,-101.28 733.2,-97.14 738.58,-93.15 744.11,-89.37"/>
<polygon fill="#34495e" stroke="#34495e" stroke-width="1.2" points="745.6,-91.74 750.75,-85 742.53,-87.06 745.6,-91.74"/>
<text xml:space="preserve" text-anchor="middle" x="681.76" y="-192.74" font-family="Times New Roman,serif" font-size="14.00"> SÍ</text>
</g>
<!-- J3_LL&#45;&gt;A2_LL -->
<g id="edge6" class="edge">
<title>J3_LL&#45;&gt;A2_LL</title>
<path fill="none" stroke="#34495e" stroke-width="1.2" d="M787.82,-296.01C763.19,-345.64 703.46,-455.86 627.26,-526.28 622.7,-530.5 617.64,-534.47 612.38,-538.16"/>
<polygon fill="#34495e" stroke="#34495e" stroke-width="1.2" points="611.17,-535.6 606.06,-542.36 614.27,-540.26 611.17,-535.6"/>
<text xml:space="preserve" text-anchor="middle" x="681.76" y="-499.67" font-family="Times New Roman,serif" font-size="14.00"> Reportar</text>
</g>
<!-- J4_LL -->
<g id="node8" class="node">
<title>J4_LL</title>
<polygon fill="#ffffff" stroke="#2c3e50" stroke-width="1.5" points="365.74,-360.48 236.14,-360.48 236.14,-310.08 365.74,-310.08 365.74,-360.48"/>
<text xml:space="preserve" text-anchor="middle" x="300.94" y="-339.48" font-family="Segoe UI" font-size="9.00">Validación Final de</text>
<text xml:space="preserve" text-anchor="middle" x="300.94" y="-326.73" font-family="Segoe UI" font-size="9.00">Torque y Balanceo</text>
</g>
<!-- J4_LL&#45;&gt;A2_LL -->
<g id="edge15" class="edge">
<title>J4_LL&#45;&gt;A2_LL</title>
<path fill="none" stroke="#34495e" stroke-width="1.2" d="M320.77,-361.2C350.14,-400.37 410.07,-475.48 473.24,-526.28 478.52,-530.53 484.27,-534.6 490.17,-538.43"/>
<polygon fill="#34495e" stroke="#34495e" stroke-width="1.2" points="488.47,-540.67 496.74,-542.54 491.44,-535.92 488.47,-540.67"/>
<text xml:space="preserve" text-anchor="middle" x="419.49" y="-501.97" font-family="Times New Roman,serif" font-size="14.00"> OK</text>
</g>
<!-- S1_LL -->
<g id="node13" class="node">
<title>S1_LL</title>
<polygon fill="#fff9c4" stroke="#2c3e50" stroke-width="1.5" points="85.44,-92.48 16,-67.28 85.44,-42.08 154.89,-67.28 85.44,-92.48"/>
<text xml:space="preserve" text-anchor="middle" x="85.44" y="-65.1" font-family="Segoe UI" font-size="9.00">¿Medida en Stock?</text>
</g>
<!-- M1_LL&#45;&gt;S1_LL -->
<g id="edge7" class="edge">
<title>M1_LL&#45;&gt;S1_LL</title>
<path fill="none" stroke="#34495e" stroke-width="1.2" d="M735.6,-42.41C629.1,-18.59 410.09,20.22 228.14,-13.28 191.69,-19.99 152.49,-35.65 124.57,-48.38"/>
<polygon fill="#34495e" stroke="#34495e" stroke-width="1.2" points="123.65,-45.73 117.57,-51.64 126.01,-50.8 123.65,-45.73"/>
<text xml:space="preserve" text-anchor="middle" x="419.49" y="-4.6" font-family="Times New Roman,serif" font-size="14.00"> Solicitar</text>
</g>
<!-- M2_LL -->
<g id="node10" class="node">
<title>M2_LL</title>
<polygon fill="#ffffff" stroke="#2c3e50" stroke-width="1.5" points="865.86,-169.48 736.26,-169.48 736.26,-119.08 865.86,-119.08 865.86,-169.48"/>
<text xml:space="preserve" text-anchor="middle" x="801.06" y="-148.48" font-family="Segoe UI" font-size="9.00">Montaje de Pieza Nueva</text>
<text xml:space="preserve" text-anchor="middle" x="801.06" y="-135.73" font-family="Segoe UI" font-size="9.00">y Válvula</text>
</g>
<!-- M3_LL -->
<g id="node11" class="node">
<title>M3_LL</title>
<polygon fill="#ffffff" stroke="#2c3e50" stroke-width="1.5" points="1054.46,-169.48 924.86,-169.48 924.86,-119.08 1054.46,-119.08 1054.46,-169.48"/>
<text xml:space="preserve" text-anchor="middle" x="989.66" y="-142.1" font-family="Segoe UI" font-size="9.00">Balanceo Computarizado</text>
</g>
<!-- M2_LL&#45;&gt;M3_LL -->
<g id="edge12" class="edge">
<title>M2_LL&#45;&gt;M3_LL</title>
<path fill="none" stroke="#34495e" stroke-width="1.2" d="M866.54,-144.28C881.98,-144.28 898.59,-144.28 914.43,-144.28"/>
<polygon fill="#34495e" stroke="#34495e" stroke-width="1.2" points="914.36,-147.08 922.36,-144.28 914.36,-141.48 914.36,-147.08"/>
</g>
<!-- M4_LL -->
<g id="node12" class="node">
<title>M4_LL</title>
<polygon fill="#ffffff" stroke="#2c3e50" stroke-width="1.5" points="1243.06,-169.48 1113.46,-169.48 1113.46,-119.08 1243.06,-119.08 1243.06,-169.48"/>
<text xml:space="preserve" text-anchor="middle" x="1178.26" y="-148.48" font-family="Segoe UI" font-size="9.00">Carga de Evidencia</text>
<text xml:space="preserve" text-anchor="middle" x="1178.26" y="-135.73" font-family="Segoe UI" font-size="9.00">(Notion: DOT/Dibujo)</text>
</g>
<!-- M3_LL&#45;&gt;M4_LL -->
<g id="edge13" class="edge">
<title>M3_LL&#45;&gt;M4_LL</title>
<path fill="none" stroke="#34495e" stroke-width="1.2" d="M1055.14,-144.28C1070.58,-144.28 1087.19,-144.28 1103.03,-144.28"/>
<polygon fill="#34495e" stroke="#34495e" stroke-width="1.2" points="1102.96,-147.08 1110.96,-144.28 1102.96,-141.48 1102.96,-147.08"/>
</g>
<!-- M4_LL&#45;&gt;J4_LL -->
<g id="edge14" class="edge">
<title>M4_LL&#45;&gt;J4_LL</title>
<path fill="none" stroke="#34495e" stroke-width="1.2" d="M1143.67,-170.08C1090.09,-209.53 980.39,-283.41 873.86,-313.28 700.88,-361.77 486.98,-352.74 376.23,-343.25"/>
<polygon fill="#34495e" stroke="#34495e" stroke-width="1.2" points="376.51,-340.47 368.3,-342.56 376.02,-346.05 376.51,-340.47"/>
</g>
<!-- S2_LL -->
<g id="node14" class="node">
<title>S2_LL</title>
<polygon fill="#ffffff" stroke="#2c3e50" stroke-width="1.5" points="365.74,-81.48 236.14,-81.48 236.14,-31.08 365.74,-31.08 365.74,-81.48"/>
<text xml:space="preserve" text-anchor="middle" x="300.94" y="-60.48" font-family="Segoe UI" font-size="9.00">Solicitar Compra</text>
<text xml:space="preserve" text-anchor="middle" x="300.94" y="-47.73" font-family="Segoe UI" font-size="9.00">Urgente</text>
</g>
<!-- S1_LL&#45;&gt;S2_LL -->
<g id="edge8" class="edge">
<title>S1_LL&#45;&gt;S2_LL</title>
<path fill="none" stroke="#34495e" stroke-width="1.2" d="M148.2,-64.1C172.55,-62.84 200.72,-61.39 226.14,-60.08"/>
<polygon fill="#34495e" stroke="#34495e" stroke-width="1.2" points="226.07,-62.89 233.91,-59.68 225.78,-57.3 226.07,-62.89"/>
<text xml:space="preserve" text-anchor="middle" x="195.51" y="-65.31" font-family="Times New Roman,serif" font-size="14.00"> NO</text>
</g>
<!-- S3_LL -->
<g id="node15" class="node">
<title>S3_LL</title>
<polygon fill="#ffffff" stroke="#2c3e50" stroke-width="1.5" points="615.05,-169.48 485.45,-169.48 485.45,-119.08 615.05,-119.08 615.05,-169.48"/>
<text xml:space="preserve" text-anchor="middle" x="550.25" y="-148.48" font-family="Segoe UI" font-size="9.00">Entrega de Neumático</text>
<text xml:space="preserve" text-anchor="middle" x="550.25" y="-135.73" font-family="Segoe UI" font-size="9.00">y Plomos de Balanceo</text>
</g>
<!-- S1_LL&#45;&gt;S3_LL -->
<g id="edge10" class="edge">
<title>S1_LL&#45;&gt;S3_LL</title>
<path fill="none" stroke="#34495e" stroke-width="1.2" d="M128.11,-77.64C156.24,-84.41 194.28,-93.09 228.14,-99.28 312.46,-114.68 410.07,-127.68 475.33,-135.69"/>
<polygon fill="#34495e" stroke="#34495e" stroke-width="1.2" points="474.64,-138.42 482.92,-136.61 475.32,-132.86 474.64,-138.42"/>
<text xml:space="preserve" text-anchor="middle" x="300.94" y="-124.31" font-family="Times New Roman,serif" font-size="14.00"> SÍ</text>
</g>
<!-- S2_LL&#45;&gt;S3_LL -->
<g id="edge9" class="edge">
<title>S2_LL&#45;&gt;S3_LL</title>
<path fill="none" stroke="#34495e" stroke-width="1.2" d="M366.27,-79.17C399.77,-91.09 440.89,-105.72 475.65,-118.09"/>
<polygon fill="#34495e" stroke="#34495e" stroke-width="1.2" points="474.62,-120.7 483.1,-120.74 476.5,-115.42 474.62,-120.7"/>
</g>
<!-- S3_LL&#45;&gt;M2_LL -->
<g id="edge11" class="edge">
<title>S3_LL&#45;&gt;M2_LL</title>
<path fill="none" stroke="#34495e" stroke-width="1.2" d="M615.65,-144.28C649.47,-144.28 691.08,-144.28 726.21,-144.28"/>
<polygon fill="#34495e" stroke="#34495e" stroke-width="1.2" points="726.11,-147.08 734.11,-144.28 726.11,-141.48 726.11,-147.08"/>
</g>
</g>
</svg>
