<?xml version="1.0" encoding="UTF-8" standalone="no"?>
<!DOCTYPE svg PUBLIC "-//W3C//DTD SVG 1.1//EN"
 "http://www.w3.org/Graphics/SVG/1.1/DTD/svg11.dtd">
<!-- Generated by graphviz version 14.1.2 (20260124.0452)
 -->
<!-- Title: Espejos_Final Pages: 1 -->
<svg width="1517pt" height="599pt"
 viewBox="0.00 0.00 1517.00 599.00" xmlns="http://www.w3.org/2000/svg" xmlns:xlink="http://www.w3.org/1999/xlink">
<g id="graph0" class="graph" transform="scale(1 1) rotate(0) translate(4 594.5)">
<title>Espejos_Final</title>
<polygon fill="#ffffff" stroke="none" points="-4,4 -4,-594.5 1512.94,-594.5 1512.94,4 -4,4"/>
<text xml:space="preserve" text-anchor="middle" x="754.47" y="-571.3" font-family="Segoe UI Bold" font-size="16.00" fill="#1a1a1a">DIAGRAMA DE PROCESO: CAMBIO DE ESPEJOS LATERALES (SOP)</text>
<text xml:space="preserve" text-anchor="middle" x="754.47" y="-548.8" font-family="Segoe UI Bold" font-size="16.00" fill="#1a1a1a">SYNER GROUP | CLIENTE: BJX MOTORS | 2026</text>
<text xml:space="preserve" text-anchor="middle" x="754.47" y="-526.3" font-family="Segoe UI Bold" font-size="16.00" fill="#1a1a1a"> </text>
<g id="clust1" class="cluster">
<title>cluster_asesora</title>
<polygon fill="#f4f9fd" stroke="#2980b9" points="32.43,-324 32.43,-507 413.31,-507 413.31,-324 32.43,-324"/>
<text xml:space="preserve" text-anchor="middle" x="222.87" y="-487.8" font-family="Segoe UI Bold" font-size="16.00" fill="#1a1a1a">Asesora de Servicios</text>
</g>
<g id="clust2" class="cluster">
<title>cluster_jefe</title>
<polygon fill="#f8f9f9" stroke="#7f8c8d" points="504.81,-202 504.81,-385 935.14,-385 935.14,-202 504.81,-202"/>
<text xml:space="preserve" text-anchor="middle" x="719.98" y="-365.8" font-family="Segoe UI Bold" font-size="16.00" fill="#1a1a1a">Jefe de Mecánicos</text>
</g>
<g id="clust3" class="cluster">
<title>cluster_mecanico</title>
<polygon fill="#f1fcf4" stroke="#27ae60" points="789.54,-11 789.54,-194 1500.94,-194 1500.94,-11 789.54,-11"/>
<text xml:space="preserve" text-anchor="middle" x="1145.24" y="-174.8" font-family="Segoe UI Bold" font-size="16.00" fill="#1a1a1a">Mecánico</text>
</g>
<g id="clust4" class="cluster">
<title>cluster_almacen</title>
<polygon fill="#fffdf9" stroke="#f39c12" points="8,-8 8,-194 687.35,-194 687.35,-8 8,-8"/>
<text xml:space="preserve" text-anchor="middle" x="347.68" y="-174.8" font-family="Segoe UI Bold" font-size="16.00" fill="#1a1a1a">Almacén</text>
</g>
<!-- ST_ESP -->
<g id="node1" class="node">
<title>ST_ESP</title>
<ellipse fill="#27ae60" stroke="#2c3e50" stroke-width="1.5" cx="105.23" cy="-443" rx="64.8" ry="25.2"/>
<text xml:space="preserve" text-anchor="middle" x="105.23" y="-440.82" font-family="Segoe UI" font-size="9.00" fill="white">INICIO</text>
</g>
<!-- A1_ESP -->
<g id="node2" class="node">
<title>A1_ESP</title>
<polygon fill="#ffffff" stroke="#2c3e50" stroke-width="1.5" points="405.31,-468.2 275.71,-468.2 275.71,-417.8 405.31,-417.8 405.31,-468.2"/>
<text xml:space="preserve" text-anchor="middle" x="340.51" y="-447.2" font-family="Segoe UI" font-size="9.00">Recepción: Espejo Dañado</text>
<text xml:space="preserve" text-anchor="middle" x="340.51" y="-434.45" font-family="Segoe UI" font-size="9.00">(Cristal/Carcasa/Motor)</text>
</g>
<!-- ST_ESP&#45;&gt;A1_ESP -->
<g id="edge1" class="edge">
<title>ST_ESP&#45;&gt;A1_ESP</title>
<path fill="none" stroke="#34495e" stroke-width="1.2" d="M170.59,-443C200.04,-443 235.1,-443 265.62,-443"/>
<polygon fill="#34495e" stroke="#34495e" stroke-width="1.2" points="265.54,-445.8 273.54,-443 265.54,-440.2 265.54,-445.8"/>
</g>
<!-- J1_ESP -->
<g id="node5" class="node">
<title>J1_ESP</title>
<polygon fill="#fff9c4" stroke="#2c3e50" stroke-width="1.5" points="614.55,-260.2 512.81,-235 614.55,-209.8 716.29,-235 614.55,-260.2"/>
<text xml:space="preserve" text-anchor="middle" x="614.55" y="-239.2" font-family="Segoe UI" font-size="9.00">Inspección de Función:</text>
<text xml:space="preserve" text-anchor="middle" x="614.55" y="-226.45" font-family="Segoe UI" font-size="9.00">¿Falla Eléctrica?</text>
</g>
<!-- A1_ESP&#45;&gt;J1_ESP -->
<g id="edge2" class="edge">
<title>A1_ESP&#45;&gt;J1_ESP</title>
<path fill="none" stroke="#34495e" stroke-width="1.2" d="M390.44,-417.22C398.46,-412.03 406.4,-406.23 413.31,-400 463.66,-354.63 450.93,-319.12 504.81,-278 519.58,-266.72 537.7,-258.01 554.87,-251.48"/>
<polygon fill="#34495e" stroke="#34495e" stroke-width="1.2" points="555.47,-254.24 562.04,-248.87 553.56,-248.97 555.47,-254.24"/>
</g>
<!-- A2_ESP -->
<g id="node3" class="node">
<title>A2_ESP</title>
<polygon fill="#ffffff" stroke="#2c3e50" stroke-width="1.5" points="170.03,-382.2 40.43,-382.2 40.43,-331.8 170.03,-331.8 170.03,-382.2"/>
<text xml:space="preserve" text-anchor="middle" x="105.23" y="-361.2" font-family="Segoe UI" font-size="9.00">Cierre de Orden y</text>
<text xml:space="preserve" text-anchor="middle" x="105.23" y="-348.45" font-family="Segoe UI" font-size="9.00">Verificación de Ajuste</text>
</g>
<!-- END_ESP -->
<g id="node4" class="node">
<title>END_ESP</title>
<ellipse fill="#c0392b" stroke="#2c3e50" stroke-width="1.5" cx="340.51" cy="-357" rx="64.8" ry="25.2"/>
<text xml:space="preserve" text-anchor="middle" x="340.51" y="-354.82" font-family="Segoe UI" font-size="9.00" fill="white">FIN</text>
</g>
<!-- A2_ESP&#45;&gt;END_ESP -->
<g id="edge16" class="edge">
<title>A2_ESP&#45;&gt;END_ESP</title>
<path fill="none" stroke="#34495e" stroke-width="1.2" d="M170.59,-357C200.04,-357 235.1,-357 265.62,-357"/>
<polygon fill="#34495e" stroke="#34495e" stroke-width="1.2" points="265.54,-359.8 273.54,-357 265.54,-354.2 265.54,-359.8"/>
</g>
<!-- J2_ESP -->
<g id="node6" class="node">
<title>J2_ESP</title>
<polygon fill="#ffffff" stroke="#2c3e50" stroke-width="1.5" points="927.14,-260.2 797.54,-260.2 797.54,-209.8 927.14,-209.8 927.14,-260.2"/>
<text xml:space="preserve" text-anchor="middle" x="862.34" y="-239.2" font-family="Segoe UI" font-size="9.00">Revisión de Cableado</text>
<text xml:space="preserve" text-anchor="middle" x="862.34" y="-226.45" font-family="Segoe UI" font-size="9.00">y Mando Central</text>
</g>
<!-- J1_ESP&#45;&gt;J2_ESP -->
<g id="edge3" class="edge">
<title>J1_ESP&#45;&gt;J2_ESP</title>
<path fill="none" stroke="#34495e" stroke-width="1.2" d="M719.08,-235C741.95,-235 765.73,-235 787.16,-235"/>
<polygon fill="#34495e" stroke="#34495e" stroke-width="1.2" points="787.01,-237.8 795.01,-235 787.01,-232.2 787.01,-237.8"/>
<text xml:space="preserve" text-anchor="middle" x="756.92" y="-238.2" font-family="Times New Roman,serif" font-size="14.00"> SÍ</text>
</g>
<!-- M1_ESP -->
<g id="node8" class="node">
<title>M1_ESP</title>
<polygon fill="#ffffff" stroke="#2c3e50" stroke-width="1.5" points="927.14,-69.2 797.54,-69.2 797.54,-18.8 927.14,-18.8 927.14,-69.2"/>
<text xml:space="preserve" text-anchor="middle" x="862.34" y="-48.2" font-family="Segoe UI" font-size="9.00">Desmontaje de Panel</text>
<text xml:space="preserve" text-anchor="middle" x="862.34" y="-35.45" font-family="Segoe UI" font-size="9.00">Interno de Puerta</text>
</g>
<!-- J1_ESP&#45;&gt;M1_ESP -->
<g id="edge4" class="edge">
<title>J1_ESP&#45;&gt;M1_ESP</title>
<path fill="none" stroke="#34495e" stroke-width="1.2" d="M670.56,-222.98C686.06,-218.17 702.45,-211.67 716.29,-203 744.87,-185.11 751.05,-176.82 768.54,-148 783.43,-123.49 771.48,-109.27 789.54,-87 792.81,-82.98 796.55,-79.25 800.58,-75.8"/>
<polygon fill="#34495e" stroke="#34495e" stroke-width="1.2" points="802.1,-78.16 806.67,-71.01 798.64,-73.75 802.1,-78.16"/>
<text xml:space="preserve" text-anchor="middle" x="756.92" y="-183.74" font-family="Times New Roman,serif" font-size="14.00"> NO</text>
</g>
<!-- J2_ESP&#45;&gt;M1_ESP -->
<g id="edge5" class="edge">
<title>J2_ESP&#45;&gt;M1_ESP</title>
<path fill="none" stroke="#34495e" stroke-width="1.2" d="M796.87,-209.22C794.28,-207.28 791.83,-205.21 789.54,-203 769.81,-183.89 768.95,-174.04 762.87,-147.25 756.18,-117.77 778.22,-93.03 803.24,-75.16"/>
<polygon fill="#34495e" stroke="#34495e" stroke-width="1.2" points="804.53,-77.67 809.57,-70.86 801.38,-73.04 804.53,-77.67"/>
<text xml:space="preserve" text-anchor="middle" x="756.92" y="-133.95" font-family="Times New Roman,serif" font-size="14.00"> OK</text>
</g>
<!-- J3_ESP -->
<g id="node7" class="node">
<title>J3_ESP</title>
<polygon fill="#ffffff" stroke="#2c3e50" stroke-width="1.5" points="679.35,-346.2 549.75,-346.2 549.75,-295.8 679.35,-295.8 679.35,-346.2"/>
<text xml:space="preserve" text-anchor="middle" x="614.55" y="-325.2" font-family="Segoe UI" font-size="9.00">Validar Estética y</text>
<text xml:space="preserve" text-anchor="middle" x="614.55" y="-312.45" font-family="Segoe UI" font-size="9.00">Ajuste sin Vibración</text>
</g>
<!-- J3_ESP&#45;&gt;A2_ESP -->
<g id="edge15" class="edge">
<title>J3_ESP&#45;&gt;A2_ESP</title>
<path fill="none" stroke="#34495e" stroke-width="1.2" d="M549.28,-307.52C480.98,-295.29 370.04,-281.42 275.71,-297.5 240.88,-303.44 203.68,-315.78 173.03,-327.69"/>
<polygon fill="#34495e" stroke="#34495e" stroke-width="1.2" points="172.25,-324.98 165.84,-330.53 174.31,-330.19 172.25,-324.98"/>
<text xml:space="preserve" text-anchor="middle" x="340.51" y="-300.7" font-family="Times New Roman,serif" font-size="14.00"> OK</text>
</g>
<!-- S1_ESP -->
<g id="node13" class="node">
<title>S1_ESP</title>
<polygon fill="#fff9c4" stroke="#2c3e50" stroke-width="1.5" points="105.23,-77.2 16,-52 105.23,-26.8 194.46,-52 105.23,-77.2"/>
<text xml:space="preserve" text-anchor="middle" x="105.23" y="-49.83" font-family="Segoe UI" font-size="9.00">¿Pieza en Color Correcto?</text>
</g>
<!-- M1_ESP&#45;&gt;S1_ESP -->
<g id="edge6" class="edge">
<title>M1_ESP&#45;&gt;S1_ESP</title>
<path fill="none" stroke="#34495e" stroke-width="1.2" d="M797.05,-43.5C681.99,-42.78 433.26,-42.03 223.46,-47 213.74,-47.23 203.56,-47.55 193.45,-47.91"/>
<polygon fill="#34495e" stroke="#34495e" stroke-width="1.2" points="193.48,-45.11 185.59,-48.21 193.69,-50.71 193.48,-45.11"/>
<text xml:space="preserve" text-anchor="middle" x="459.06" y="-46.93" font-family="Times New Roman,serif" font-size="14.00"> Solicitar</text>
</g>
<!-- M2_ESP -->
<g id="node9" class="node">
<title>M2_ESP</title>
<polygon fill="#ffffff" stroke="#2c3e50" stroke-width="1.5" points="927.14,-155.2 797.54,-155.2 797.54,-104.8 927.14,-104.8 927.14,-155.2"/>
<text xml:space="preserve" text-anchor="middle" x="862.34" y="-134.2" font-family="Segoe UI" font-size="9.00">Desconexión Eléctrica</text>
<text xml:space="preserve" text-anchor="middle" x="862.34" y="-121.45" font-family="Segoe UI" font-size="9.00">y Retiro de Tornillería</text>
</g>
<!-- M3_ESP -->
<g id="node10" class="node">
<title>M3_ESP</title>
<polygon fill="#ffffff" stroke="#2c3e50" stroke-width="1.5" points="1115.74,-155.2 986.14,-155.2 986.14,-104.8 1115.74,-104.8 1115.74,-155.2"/>
<text xml:space="preserve" text-anchor="middle" x="1050.94" y="-134.2" font-family="Segoe UI" font-size="9.00">Instalación de Espejo</text>
<text xml:space="preserve" text-anchor="middle" x="1050.94" y="-121.45" font-family="Segoe UI" font-size="9.00">y Sellado de Empaque</text>
</g>
<!-- M2_ESP&#45;&gt;M3_ESP -->
<g id="edge11" class="edge">
<title>M2_ESP&#45;&gt;M3_ESP</title>
<path fill="none" stroke="#34495e" stroke-width="1.2" d="M927.82,-130C943.26,-130 959.87,-130 975.72,-130"/>
<polygon fill="#34495e" stroke="#34495e" stroke-width="1.2" points="975.65,-132.8 983.65,-130 975.65,-127.2 975.65,-132.8"/>
</g>
<!-- M4_ESP -->
<g id="node11" class="node">
<title>M4_ESP</title>
<polygon fill="#ffffff" stroke="#2c3e50" stroke-width="1.5" points="1304.34,-155.2 1174.74,-155.2 1174.74,-104.8 1304.34,-104.8 1304.34,-155.2"/>
<text xml:space="preserve" text-anchor="middle" x="1239.54" y="-134.2" font-family="Segoe UI" font-size="9.00">Prueba de Motores</text>
<text xml:space="preserve" text-anchor="middle" x="1239.54" y="-121.45" font-family="Segoe UI" font-size="9.00">y Direccional</text>
</g>
<!-- M3_ESP&#45;&gt;M4_ESP -->
<g id="edge12" class="edge">
<title>M3_ESP&#45;&gt;M4_ESP</title>
<path fill="none" stroke="#34495e" stroke-width="1.2" d="M1116.42,-130C1131.86,-130 1148.47,-130 1164.32,-130"/>
<polygon fill="#34495e" stroke="#34495e" stroke-width="1.2" points="1164.25,-132.8 1172.25,-130 1164.25,-127.2 1164.25,-132.8"/>
</g>
<!-- M5_ESP -->
<g id="node12" class="node">
<title>M5_ESP</title>
<polygon fill="#ffffff" stroke="#2c3e50" stroke-width="1.5" points="1492.94,-155.2 1363.34,-155.2 1363.34,-104.8 1492.94,-104.8 1492.94,-155.2"/>
<text xml:space="preserve" text-anchor="middle" x="1428.14" y="-134.2" font-family="Segoe UI" font-size="9.00">Carga de Evidencia</text>
<text xml:space="preserve" text-anchor="middle" x="1428.14" y="-121.45" font-family="Segoe UI" font-size="9.00">en Notion (Fotos)</text>
</g>
<!-- M4_ESP&#45;&gt;M5_ESP -->
<g id="edge13" class="edge">
<title>M4_ESP&#45;&gt;M5_ESP</title>
<path fill="none" stroke="#34495e" stroke-width="1.2" d="M1305.02,-130C1320.46,-130 1337.07,-130 1352.92,-130"/>
<polygon fill="#34495e" stroke="#34495e" stroke-width="1.2" points="1352.85,-132.8 1360.85,-130 1352.85,-127.2 1352.85,-132.8"/>
</g>
<!-- M5_ESP&#45;&gt;J3_ESP -->
<g id="edge14" class="edge">
<title>M5_ESP&#45;&gt;J3_ESP</title>
<path fill="none" stroke="#34495e" stroke-width="1.2" d="M1416.23,-155.75C1392.49,-207.23 1330.91,-318 1240.54,-318 861.34,-318 861.34,-318 861.34,-318 803.63,-318 738.3,-318.84 689.51,-319.63"/>
<polygon fill="#34495e" stroke="#34495e" stroke-width="1.2" points="689.75,-316.82 681.8,-319.75 689.84,-322.42 689.75,-316.82"/>
</g>
<!-- S2_ESP -->
<g id="node14" class="node">
<title>S2_ESP</title>
<polygon fill="#ffffff" stroke="#2c3e50" stroke-width="1.5" points="679.35,-132.2 549.75,-132.2 549.75,-81.8 679.35,-81.8 679.35,-132.2"/>
<text xml:space="preserve" text-anchor="middle" x="614.55" y="-111.2" font-family="Segoe UI" font-size="9.00">Surtir Espejo Lateral</text>
<text xml:space="preserve" text-anchor="middle" x="614.55" y="-98.45" font-family="Segoe UI" font-size="9.00">y Grapas de Panel</text>
</g>
<!-- S1_ESP&#45;&gt;S2_ESP -->
<g id="edge9" class="edge">
<title>S1_ESP&#45;&gt;S2_ESP</title>
<path fill="none" stroke="#34495e" stroke-width="1.2" d="M188.91,-54.29C250.86,-56.66 337.62,-61.36 413.31,-70.5 455.52,-75.6 502.28,-83.97 539.99,-91.4"/>
<polygon fill="#34495e" stroke="#34495e" stroke-width="1.2" points="539.2,-94.1 547.59,-92.92 540.29,-88.61 539.2,-94.1"/>
<text xml:space="preserve" text-anchor="middle" x="340.51" y="-73.7" font-family="Times New Roman,serif" font-size="14.00"> SÍ</text>
</g>
<!-- S3_ESP -->
<g id="node15" class="node">
<title>S3_ESP</title>
<polygon fill="#ffffff" stroke="#2c3e50" stroke-width="1.5" points="405.31,-155.2 275.71,-155.2 275.71,-104.8 405.31,-104.8 405.31,-155.2"/>
<text xml:space="preserve" text-anchor="middle" x="340.51" y="-134.2" font-family="Segoe UI" font-size="9.00">Solicitar Pintura o</text>
<text xml:space="preserve" text-anchor="middle" x="340.51" y="-121.45" font-family="Segoe UI" font-size="9.00">Cambio de Carcasa</text>
</g>
<!-- S1_ESP&#45;&gt;S3_ESP -->
<g id="edge7" class="edge">
<title>S1_ESP&#45;&gt;S3_ESP</title>
<path fill="none" stroke="#34495e" stroke-width="1.2" d="M147.67,-65.85C180.39,-76.8 226.89,-92.34 265.91,-105.39"/>
<polygon fill="#34495e" stroke="#34495e" stroke-width="1.2" points="264.95,-108.02 273.42,-107.9 266.72,-102.71 264.95,-108.02"/>
<text xml:space="preserve" text-anchor="middle" x="235.09" y="-101.19" font-family="Times New Roman,serif" font-size="14.00"> NO</text>
</g>
<!-- S2_ESP&#45;&gt;M2_ESP -->
<g id="edge10" class="edge">
<title>S2_ESP&#45;&gt;M2_ESP</title>
<path fill="none" stroke="#34495e" stroke-width="1.2" d="M679.81,-113.01C712.83,-116.1 753.24,-119.88 787.53,-123.09"/>
<polygon fill="#34495e" stroke="#34495e" stroke-width="1.2" points="787,-125.86 795.23,-123.81 787.52,-120.28 787,-125.86"/>
</g>
<!-- S3_ESP&#45;&gt;S2_ESP -->
<g id="edge8" class="edge">
<title>S3_ESP&#45;&gt;S2_ESP</title>
<path fill="none" stroke="#34495e" stroke-width="1.2" d="M405.98,-124.55C446.07,-121.16 497.74,-116.79 539.51,-113.26"/>
<polygon fill="#34495e" stroke="#34495e" stroke-width="1.2" points="539.53,-116.07 547.26,-112.6 539.06,-110.49 539.53,-116.07"/>
</g>
</g>
</svg>
